<?xml version="1.0" standalone="no"?>
<!DOCTYPE svg PUBLIC "-//W3C//DTD SVG 1.1//EN" "http://www.w3.org/Graphics/SVG/1.1/DTD/svg11.dtd" >
<svg xmlns="http://www.w3.org/2000/svg" xmlns:xlink="http://www.w3.org/1999/xlink" version="1.1">
<metadata>
Created by FontForge 20170731 at Fri Nov 12 04:46:19 2021
 By Aleksey,,,
Copyright 2020 The Plus Jakarta Sans Project Authors (https://github.com/tokotype/PlusJakartaSans)
</metadata>
<defs>
<font id="PlusJakartaSans-ExtraLight" horiz-adv-x="570" >
  <font-face 
    font-family="Plus Jakarta Sans ExtraLight"
    font-weight="200"
    font-stretch="normal"
    units-per-em="1000"
    panose-1="0 0 0 0 0 0 0 0 0 0"
    ascent="800"
    descent="-200"
    x-height="526"
    cap-height="745"
    bbox="-228 -233 1317 1169"
    underline-thickness="40"
    underline-position="-215"
    unicode-range="U+000D-FB02"
  />
<missing-glyph horiz-adv-x="640" 
d="M60 675h520v70h-520v-70zM60 450h520v70h-520v-70zM60 225h520v70h-520v-70zM60 0h520v70h-520v-70z" />
    <glyph glyph-name="fi" unicode="fi" horiz-adv-x="562" 
d="M143 0h45v486h259v-486h45v526h-304v53q0 64 32 99.5t88 35.5q20 0 36 -3v41q-17 5 -39 5q-73 0 -117.5 -47t-44.5 -131v-53h-109v-40h109v-486z" />
    <glyph glyph-name="fl" unicode="fl" horiz-adv-x="608" 
d="M143 0h45v486h287v-486h45v757h-45v-231h-287v53q0 64 32 99.5t88 35.5q20 0 36 -3v41q-17 5 -39 5q-73 0 -117.5 -47t-44.5 -131v-53h-109v-40h109v-486z" />
    <glyph glyph-name="f_f" unicode="ff" horiz-adv-x="764" 
d="M143 0h45v486h332v-486h45v486h133v40h-133v53q0 64 32 99.5t88 35.5q20 0 36 -3v41q-17 5 -39 5q-73 0 -117.5 -47t-44.5 -131v-53h-332v53q0 64 32 99.5t88 35.5q20 0 36 -3v41q-17 5 -39 5q-73 0 -117.5 -47t-44.5 -131v-53h-109v-40h109v-486z" />
    <glyph glyph-name="f_f_i" unicode="ffi" horiz-adv-x="939" 
d="M143 0h45v486h332v-486h45v486h259v-486h45v526h-304v53q0 64 32 99.5t88 35.5q20 0 36 -3v41q-17 5 -39 5q-73 0 -117.5 -47t-44.5 -131v-53h-332v53q0 64 32 99.5t88 35.5q20 0 36 -3v41q-17 5 -39 5q-73 0 -117.5 -47t-44.5 -131v-53h-109v-40h109v-486z" />
    <glyph glyph-name="f_f_l" unicode="ffl" horiz-adv-x="985" 
d="M143 0h45v486h332v-486h45v486h287v-486h45v757h-45v-231h-287v53q0 64 32 99.5t88 35.5q20 0 36 -3v41q-17 5 -39 5q-73 0 -117.5 -47t-44.5 -131v-53h-332v53q0 64 32 99.5t88 35.5q20 0 36 -3v41q-17 5 -39 5q-73 0 -117.5 -47t-44.5 -131v-53h-109v-40h109v-486z" />
    <glyph glyph-name=".notdef" horiz-adv-x="640" 
d="M60 675h520v70h-520v-70zM60 450h520v70h-520v-70zM60 225h520v70h-520v-70zM60 0h520v70h-520v-70z" />
    <glyph glyph-name=".null" horiz-adv-x="0" 
 />
    <glyph glyph-name="nonmarkingreturn" horiz-adv-x="333" 
 />
    <glyph glyph-name="CR" unicode="&#xd;" horiz-adv-x="170" 
 />
    <glyph glyph-name="space" unicode=" " horiz-adv-x="160" 
 />
    <glyph glyph-name="exclam" unicode="!" horiz-adv-x="255" 
d="M105 208h45l3 537h-50zM101 0h55v90h-55v-90z" />
    <glyph glyph-name="quotedbl" unicode="&#x22;" horiz-adv-x="346" 
d="M93 560h35l10 185h-55zM218 560h35l10 185h-55z" />
    <glyph glyph-name="numbersign" unicode="#" horiz-adv-x="742" 
d="M95 0h52l61 213h234l-61 -213h52l61 213h133v45h-120l67 229h132v46h-120l62 212h-52l-62 -212h-234l61 212h-52l-61 -212h-133v-45h120l-66 -230h-133v-45h120zM221 258l66 230h235l-67 -230h-234z" />
    <glyph glyph-name="dollar" unicode="$" horiz-adv-x="639" 
d="M306 -100h45v89q61 3 108.5 28.5t75 68t27.5 97.5q0 70 -42 119.5t-115 71.5l-54 16v320q52 -10 93.5 -46t63.5 -95l45 14q-13 41 -41 76.5t-69 61t-92 33.5v91h-45v-88q-58 0 -105.5 -24.5t-75.5 -68t-28 -101.5q0 -67 37 -120t123 -78l49 -14v-319q-69 6 -118.5 46
t-76.5 110l-45 -14q14 -45 46 -85t81 -67.5t113 -32.5v-89zM279 412q-76 23 -105 59t-29 91q0 46 21.5 79.5t57.5 52.5t82 20v-310zM396 325q47 -13 82.5 -46.5t35.5 -94.5q0 -67 -46 -107t-117 -45v306z" />
    <glyph glyph-name="percent" unicode="%" horiz-adv-x="928" 
d="M237 385q50 0 91.5 25t66.5 67.5t25 93.5q0 52 -25 94t-66.5 67t-91.5 25t-92 -25t-67.5 -67t-25.5 -94q0 -51 25.5 -93.5t67.5 -67.5t92 -25zM124 0h61l615 745h-61zM237 428q-40 0 -71.5 21t-50 53.5t-18.5 68.5t18.5 69t50 53.5t71.5 20.5t71 -21t49 -53.5t18 -68.5
q0 -35 -18 -68t-49 -54t-71 -21zM693 -12q50 0 91.5 25t66.5 67t25 94t-25 94t-66.5 67t-91.5 25t-92 -25t-67.5 -67t-25.5 -94t25.5 -94t67.5 -67t92 -25zM693 31q-40 0 -71.5 21t-50 53.5t-18.5 68.5t18.5 69t50 53.5t71.5 20.5t71 -21t49 -53.5t18 -68.5q0 -35 -18 -68
t-49 -54t-71 -21z" />
    <glyph glyph-name="ampersand" unicode="&#x26;" horiz-adv-x="722" 
d="M250 -12q60 0 104 22.5t75 56t53 66.5l133 -133h70l-175 175l132 198h-60l-108 -162l-177 178q35 27 67 56.5t53 65.5t21 83q0 48 -22 84.5t-59 57.5t-81 21q-46 0 -82.5 -21.5t-58 -58.5t-21.5 -84q0 -44 17.5 -81t42 -66.5t46.5 -51.5q-40 -31 -77.5 -63.5t-62 -73.5
t-24.5 -95q0 -53 25.5 -92t69.5 -60.5t99 -21.5zM164 593q0 49 31.5 82.5t80.5 33.5q46 0 79 -32t33 -83t-35.5 -88.5t-91.5 -80.5q-20 20 -42.5 45.5t-38.5 56.5t-16 66zM106 162q0 40 19 72t53 61.5t78 62.5l190 -189q-21 -31 -47 -61.5t-62 -51t-87 -20.5
q-63 0 -103.5 34t-40.5 92z" />
    <glyph glyph-name="quotesingle" unicode="'" horiz-adv-x="221" 
d="M93 560h35l10 185h-55z" />
    <glyph glyph-name="parenleft" unicode="(" horiz-adv-x="269" 
d="M198 -130h51q-72 98 -110.5 212t-38.5 226q0 116 38.5 229t110.5 208h-51q-72 -85 -110 -197t-38 -240q0 -121 37.5 -236t110.5 -202z" />
    <glyph glyph-name="parenright" unicode=")" horiz-adv-x="269" 
d="M20 -130h51q73 87 110.5 202t37.5 236q0 128 -38 240t-110 197h-51q72 -95 110.5 -208t38.5 -229q0 -112 -38.5 -226t-110.5 -212z" />
    <glyph glyph-name="asterisk" unicode="*" horiz-adv-x="459" 
d="M133 398l96 125l97 -125l40 29l-94 125l135 46l-16 47l-137 -45v145h-50v-145l-138 45l-14 -47l136 -46l-95 -125z" />
    <glyph glyph-name="plus" unicode="+" horiz-adv-x="596" 
d="M276 0h45v228h227v45h-227v227h-45v-227h-228v-45h228v-228z" />
    <glyph glyph-name="comma" unicode="," horiz-adv-x="248" 
d="M81 -123q35 11 55 46.5t20 96.5v70h-55v-90h23q0 -75 -43 -89v-34z" />
    <glyph glyph-name="hyphen" unicode="-" horiz-adv-x="468" 
d="M74 241h320v45h-320v-45z" />
    <glyph glyph-name="period" unicode="." horiz-adv-x="261" 
d="M103 0h55v90h-55v-90z" />
    <glyph glyph-name="slash" unicode="/" horiz-adv-x="397" 
d="M2 -120h55l338 825h-55z" />
    <glyph glyph-name="zero" unicode="0" horiz-adv-x="714" 
d="M358 -12q85 0 149 48.5t99.5 135t35.5 201.5t-36 201.5t-100 134.5t-149 48t-149 -48.5t-100 -134.5t-36 -201q0 -114 36 -201t100.5 -135.5t149.5 -48.5zM358 36q-74 0 -127 43t-81 119t-28 175t27.5 175t80.5 118.5t127 42.5q75 0 127.5 -42.5t80 -118t27.5 -175.5
q0 -99 -27.5 -175t-80 -119t-126.5 -43z" />
    <glyph glyph-name="one" unicode="1" horiz-adv-x="338" 
d="M178 0h50v745h-190v-45h140v-700z" />
    <glyph glyph-name="two" unicode="2" horiz-adv-x="578" 
d="M56 0h464v45h-390l204 222q54 58 92.5 105.5t59.5 92t21 93.5q0 61 -29 105.5t-78.5 69t-110.5 24.5q-88 0 -153 -51.5t-86 -149.5l45 -10q18 79 68 122.5t126 43.5q80 0 124 -41t44 -113q0 -51 -21.5 -92.5t-64 -89t-105.5 -116.5l-210 -230v-30z" />
    <glyph glyph-name="three" unicode="3" horiz-adv-x="599" 
d="M293 -12q74 0 129 31.5t85.5 85t30.5 118.5q0 69 -32 118.5t-83 76.5t-109 27l201 270v30h-440v-45h376l-208 -280l6 -20q11 2 23.5 3t21.5 1q54 0 98.5 -20t71 -59.5t26.5 -100.5q0 -56 -24.5 -99.5t-69 -67.5t-104.5 -24q-82 0 -132 45.5t-66 122.5l-46 -12
q19 -96 86.5 -148.5t158.5 -52.5z" />
    <glyph glyph-name="four" unicode="4" horiz-adv-x="606" 
d="M432 0h50v176h81v45h-81v524h-45l-394 -529v-40h389v-176zM432 221h-329l329 439v-439z" />
    <glyph glyph-name="five" unicode="5" horiz-adv-x="608" 
d="M304 -12q71 0 125.5 31.5t85.5 86.5t31 126q0 68 -31.5 122t-85.5 85.5t-122 31.5q-48 0 -91.5 -16t-70.5 -44l39 289h331v45h-370l-54 -399l43 -10q21 35 67 61.5t104 26.5q53 0 96.5 -25t69 -68.5t25.5 -98.5q0 -58 -24 -103t-67 -70.5t-101 -25.5q-79 0 -132 44
t-70 124l-46 -12q18 -93 85.5 -147t162.5 -54z" />
    <glyph glyph-name="six" unicode="6" horiz-adv-x="587" 
d="M294 -12q66 0 119.5 30.5t85 84t31.5 122.5q0 70 -31 122.5t-83 82t-116 29.5q-27 0 -57.5 -6.5t-58.5 -23.5l235 316h-59l-196 -259q-49 -65 -76.5 -123.5t-27.5 -129.5t30.5 -126.5t83.5 -87t120 -31.5zM295 33q-51 0 -93 24t-66.5 67t-24.5 98q0 56 24 99.5t66 68
t94 24.5q53 0 94.5 -24.5t65.5 -68t24 -99.5q0 -55 -24 -97.5t-65.5 -67t-94.5 -24.5z" />
    <glyph glyph-name="seven" unicode="7" horiz-adv-x="523" 
d="M74 0h55l352 705v40h-440v-45h382z" />
    <glyph glyph-name="eight" unicode="8" horiz-adv-x="606" 
d="M303 -12q69 0 123 29.5t85.5 80.5t31.5 116q0 70 -37.5 125t-99.5 79q92 53 92 153q0 54 -25.5 96t-69.5 66t-100 24q-55 0 -99.5 -24.5t-70.5 -66.5t-26 -95q0 -49 24.5 -88.5t69.5 -64.5q-63 -24 -100.5 -79.5t-37.5 -124.5q0 -65 31.5 -116t85.5 -80.5t123 -29.5z
M303 438q-42 0 -75 18t-52 49t-19 70q0 40 19 70.5t52.5 48.5t74.5 18q42 0 74.5 -18t51.5 -48.5t19 -70.5q0 -39 -19 -70t-51.5 -49t-74.5 -18zM303 33q-57 0 -99.5 22.5t-66.5 63t-24 93.5q0 54 24 94.5t66.5 63t99.5 22.5t99.5 -22.5t66.5 -63t24 -94.5q0 -53 -24 -93.5
t-66.5 -63t-99.5 -22.5z" />
    <glyph glyph-name="nine" unicode="9" horiz-adv-x="587" 
d="M168 0h59l196 259q50 65 77 123.5t27 129.5t-30.5 126.5t-83.5 87t-120 31.5q-66 0 -119.5 -30.5t-85 -83.5t-31.5 -123t31 -122.5t83.5 -82t115.5 -29.5q27 0 57.5 6.5t58.5 23.5zM292 331q-53 0 -94.5 24.5t-65.5 68t-24 99.5q0 55 24 97.5t65.5 67t94.5 24.5
q52 0 93.5 -24t66 -66.5t24.5 -98.5t-24 -99.5t-65.5 -68t-94.5 -24.5z" />
    <glyph glyph-name="colon" unicode=":" horiz-adv-x="261" 
d="M103 436h55v90h-55v-90zM103 0h55v90h-55v-90z" />
    <glyph glyph-name="semicolon" unicode=";" horiz-adv-x="281" 
d="M123 436h55v90h-55v-90zM103 -123q35 11 55 46.5t20 96.5v70h-55v-90h28q-3 -80 -48 -94v-29z" />
    <glyph glyph-name="less" unicode="&#x3c;" horiz-adv-x="596" 
d="M533 50v50l-319 163l319 163v50l-385 -195v-36z" />
    <glyph glyph-name="equal" unicode="=" horiz-adv-x="596" 
d="M73 346h450v45h-450v-45zM73 111h450v45h-450v-45z" />
    <glyph glyph-name="greater" unicode="&#x3e;" horiz-adv-x="596" 
d="M63 50l385 195v36l-385 195v-50l319 -163l-319 -163v-50z" />
    <glyph glyph-name="question" unicode="?" horiz-adv-x="474" 
d="M160 208h45v4q0 50 27.5 88t62.5 74q31 31 62 62.5t52 68.5t21 85q0 46 -24.5 83.5t-66.5 60.5t-95 23q-79 0 -137 -48.5t-72 -132.5l44 -9q15 69 58.5 107.5t106.5 38.5q43 0 73.5 -17.5t46.5 -45t16 -58.5q0 -56 -32.5 -98t-73.5 -81q-29 -27 -55.5 -56t-42.5 -64
t-16 -81v-4zM156 0h55v90h-55v-90z" />
    <glyph glyph-name="at" unicode="@" horiz-adv-x="926" 
d="M483 -205q109 0 192 47l-21 41q-35 -22 -77.5 -32.5t-88.5 -10.5q-81 0 -147.5 28.5t-114.5 79.5t-74.5 118t-26.5 144q0 73 26 137.5t73.5 114t113.5 77.5t145 28q78 0 143 -27t113 -76t74 -114t26 -140q0 -80 -28 -122.5t-70 -42.5q-39 0 -59 23.5t-20 60.5v283h-48
v-60q-24 36 -63 53t-80 17q-56 0 -102 -28t-72.5 -76t-26.5 -107q0 -60 26.5 -108t72 -75.5t102.5 -27.5q46 0 84.5 20t62.5 65q12 -38 45 -61.5t76 -23.5q41 0 74.5 24.5t53.5 71.5t20 113q0 79 -28.5 151t-81.5 129t-127.5 90t-166.5 33q-85 0 -159 -31t-129.5 -86.5
t-86.5 -129.5t-31 -160t31 -160.5t86 -130.5t129 -87.5t160 -31.5zM469 45q-43 0 -77 21.5t-54 59t-20 85.5q0 50 20.5 87.5t55 58t76.5 20.5q64 0 104 -46t40 -120q0 -73 -40 -119.5t-105 -46.5z" />
    <glyph glyph-name="A" unicode="A" horiz-adv-x="644" 
d="M22 0h55l72 197h346l72 -197h55l-276 745h-48zM165 242l157 429l157 -429h-314z" />
    <glyph glyph-name="B" unicode="B" horiz-adv-x="695" 
d="M99 0h301q111 0 170 57t59 151q0 66 -36 117.5t-97 71.5q48 20 75.5 62.5t27.5 97.5q0 54 -25 96.5t-69.5 67t-104.5 24.5h-301v-745zM149 415v285h245q74 0 114.5 -38.5t40.5 -103.5t-42 -104t-113 -39h-245zM149 45v325h252q81 0 129.5 -44.5t48.5 -118.5
q0 -73 -50 -117.5t-138 -44.5h-242z" />
    <glyph glyph-name="C" unicode="C" horiz-adv-x="788" 
d="M430 -12q74 0 133 27.5t100 69t59 84.5l-47 21q-33 -70 -96.5 -112t-148.5 -42q-89 0 -157.5 42.5t-107 118.5t-38.5 176t38.5 175.5t107 118t157.5 42.5q85 0 148.5 -42t96.5 -112l47 21q-18 43 -59 84.5t-100 69t-133 27.5q-76 0 -140 -28.5t-112 -80t-74.5 -122
t-26.5 -153.5q0 -84 26.5 -154t74.5 -122t112 -80.5t140 -28.5z" />
    <glyph glyph-name="D" unicode="D" horiz-adv-x="744" 
d="M99 0h238q108 0 187 46t122 130t43 197q0 114 -43 197.5t-122 129t-187 45.5h-238v-745zM149 45v655h186q91 0 159.5 -41t106.5 -114.5t38 -171.5t-38 -172t-106.5 -115t-159.5 -41h-186z" />
    <glyph glyph-name="E" unicode="E" horiz-adv-x="614" 
d="M99 0h460v45h-410v306h390v45h-390v304h410v45h-460v-745z" />
    <glyph glyph-name="F" unicode="F" horiz-adv-x="593" 
d="M99 0h50v351h360v45h-360v304h400v45h-450v-745z" />
    <glyph glyph-name="G" unicode="G" horiz-adv-x="834" 
d="M433 -12q74 0 135 26t105.5 72t69 106t24.5 127v49h-333v-45h283v-4q0 -81 -37 -145t-101 -101t-146 -37q-89 0 -158 42t-108.5 118t-39.5 176t39.5 176t109 118.5t158.5 42.5q90 0 154.5 -42t97.5 -112l47 21q-18 43 -59 84.5t-102 69t-138 27.5q-78 0 -143 -28.5
t-113 -80.5t-74.5 -122t-26.5 -154t26 -154t74 -121.5t113 -80t143 -28.5z" />
    <glyph glyph-name="H" unicode="H" horiz-adv-x="738" 
d="M99 0h50v357h440v-357h50v745h-50v-343h-440v343h-50v-745z" />
    <glyph glyph-name="I" unicode="I" horiz-adv-x="248" 
d="M99 0h50v745h-50v-745z" />
    <glyph glyph-name="J" unicode="J" horiz-adv-x="381" 
d="M66 0h38q81 0 129.5 51t48.5 140v554h-50v-551q0 -71 -34 -107.5t-94 -36.5h-38v-50z" />
    <glyph glyph-name="K" unicode="K" horiz-adv-x="651" 
d="M99 0h50v241l134 149l284 -390h62l-311 426l288 319h-67l-390 -430v430h-50v-745z" />
    <glyph glyph-name="L" unicode="L" horiz-adv-x="533" 
d="M99 0h390v45h-340v700h-50v-745z" />
    <glyph glyph-name="M" unicode="M" horiz-adv-x="818" 
d="M99 0h50v642l259 -396h2l259 399v-645h50v745h-40l-271 -411l-269 411h-40v-745z" />
    <glyph glyph-name="N" unicode="N" horiz-adv-x="738" 
d="M99 0h50v644l450 -644h40v745h-50v-644l-450 644h-40v-745z" />
    <glyph glyph-name="O" unicode="O" horiz-adv-x="884" 
d="M442 -12q75 0 141.5 28t116.5 79.5t78.5 122t28.5 155.5q0 84 -28.5 154.5t-79 122t-116.5 79.5t-141 28t-141 -28t-116.5 -79.5t-79 -121.5t-28.5 -155t28.5 -155.5t78.5 -122t116.5 -79.5t141.5 -28zM442 36q-70 0 -128 26.5t-100 73.5t-64.5 108t-22.5 129
q0 67 22.5 127.5t64.5 107.5t100 74t128 27q71 0 129 -27t99.5 -74t64 -107.5t22.5 -127.5q0 -68 -22.5 -129t-64.5 -108t-100 -73.5t-128 -26.5z" />
    <glyph glyph-name="P" unicode="P" horiz-adv-x="645" 
d="M99 0h50v300h194q70 0 123 28t83 78t30 116t-30 116.5t-83 78.5t-123 28h-244v-745zM149 345v355h194q55 0 97 -22.5t65.5 -62t23.5 -92.5q0 -52 -24 -92.5t-65.5 -63t-96.5 -22.5h-194z" />
    <glyph glyph-name="Q" unicode="Q" horiz-adv-x="884" 
d="M442 -12q84 0 159 36l73 -114h59l-89 139q73 49 118 133t45 191q0 84 -28.5 154.5t-79 122t-116.5 79.5t-141 28t-141 -28t-116.5 -79.5t-79 -121.5t-28.5 -155t28.5 -155.5t78.5 -122t116.5 -79.5t141.5 -28zM442 36q-70 0 -128 26.5t-100 73.5t-64.5 108t-22.5 129
q0 67 22.5 127.5t64.5 107.5t100 74t128 27q71 0 129 -27t99.5 -74t64 -107.5t22.5 -127.5q0 -88 -37 -163t-103 -120l-134 208h-59l150 -233q-29 -14 -62.5 -21.5t-69.5 -7.5z" />
    <glyph glyph-name="R" unicode="R" horiz-adv-x="635" 
d="M99 0h50v300h212l171 -300h59l-178 308q76 19 121 76t45 138q0 66 -30 116.5t-83 78.5t-123 28h-244v-745zM149 345v355h194q55 0 97 -22.5t65.5 -62t23.5 -92.5q0 -52 -24 -92.5t-65.5 -63t-96.5 -22.5h-194z" />
    <glyph glyph-name="S" unicode="S" horiz-adv-x="639" 
d="M332 -12q66 0 118 25t82 68.5t30 101.5q0 70 -42 119.5t-115 71.5l-126 38q-76 23 -105 59t-29 91q0 47 22 81t59.5 52.5t83.5 18.5q66 0 119 -37t79 -108l45 14q-14 46 -48.5 85.5t-84 64t-111.5 24.5q-60 0 -108 -24.5t-76 -68t-28 -101.5q0 -67 37 -120t123 -78
l139 -40q47 -13 82.5 -46.5t35.5 -94.5q0 -48 -24 -82t-65 -52.5t-94 -18.5q-79 0 -135 40.5t-85 116.5l-45 -14q15 -47 50.5 -90t90 -69.5t125.5 -26.5z" />
    <glyph glyph-name="T" unicode="T" horiz-adv-x="514" 
d="M233 0h50v700h209v45h-470v-45h211v-700z" />
    <glyph glyph-name="U" unicode="U" horiz-adv-x="690" 
d="M345 -12q75 0 131 33t87.5 92t31.5 138v494h-50v-498q0 -63 -25 -111t-70 -75.5t-105 -27.5q-59 0 -104.5 27.5t-70.5 75.5t-25 111v498h-50v-494q0 -79 31.5 -138t88 -92t130.5 -33z" />
    <glyph glyph-name="V" unicode="V" horiz-adv-x="654" 
d="M303 0h48l281 745h-55l-250 -671l-250 671h-55z" />
    <glyph glyph-name="W" unicode="W" horiz-adv-x="988" 
d="M245 0h48l201 660l201 -660h48l223 745h-54l-193 -657l-201 657h-48l-201 -657l-193 657h-54z" />
    <glyph glyph-name="X" unicode="X" horiz-adv-x="589" 
d="M22 0h62l210 337l211 -337h62l-242 382l230 363h-61l-200 -318l-200 318h-62l230 -363z" />
    <glyph glyph-name="Y" unicode="Y" horiz-adv-x="624" 
d="M287 0h50v333l265 412h-57l-232 -356l-234 356h-57l265 -412v-333z" />
    <glyph glyph-name="Z" unicode="Z" horiz-adv-x="606" 
d="M33 0h540v45h-471l461 670v30h-503v-45h435l-462 -670v-30z" />
    <glyph glyph-name="bracketleft" unicode="[" horiz-adv-x="281" 
d="M88 -130h170v45h-120v785h120v45h-170v-875z" />
    <glyph glyph-name="backslash" unicode="\" horiz-adv-x="397" 
d="M340 -120h55l-338 825h-55z" />
    <glyph glyph-name="bracketright" unicode="]" horiz-adv-x="281" 
d="M23 -130h170v875h-170v-45h120v-785h-120v-45z" />
    <glyph glyph-name="asciicircum" unicode="^" horiz-adv-x="596" 
d="M113 428h52l133 253l133 -253h52l-167 317h-36z" />
    <glyph glyph-name="underscore" unicode="_" horiz-adv-x="548" 
d="M74 -45h400v45h-400v-45z" />
    <glyph glyph-name="grave" unicode="`" horiz-adv-x="330" 
d="M211 640h45l-92 150h-61z" />
    <glyph glyph-name="a" unicode="a" horiz-adv-x="574" 
d="M237 -12q49 0 89.5 16.5t70 43.5t44.5 58v-106h45v365q0 51 -24.5 90t-68 61t-100.5 22q-47 0 -87 -16t-69.5 -41.5t-44.5 -55.5l40 -21q24 41 67 66t94 25q67 0 107.5 -35.5t40.5 -94.5v-32l-204 -34q-63 -10 -100.5 -35t-54 -58.5t-16.5 -69.5q0 -44 23 -77.5t61.5 -52
t86.5 -18.5zM112 138q0 42 31 75t109 46l189 31v-52q0 -55 -25 -102.5t-69.5 -76.5t-105.5 -29q-55 0 -92 29t-37 79z" />
    <glyph glyph-name="b" unicode="b" horiz-adv-x="674" 
d="M349 -12q74 0 132.5 36.5t92.5 98.5t34 140t-34 140.5t-92.5 98.5t-132.5 36q-71 0 -128 -34.5t-88 -92.5v346h-45v-757h45v115q31 -58 88 -92.5t128 -34.5zM349 33q-60 0 -108.5 30t-76.5 82t-28 118q0 67 28 118.5t76.5 81.5t108.5 30q61 0 108.5 -30t75 -82t27.5 -118
t-27.5 -118t-75 -82t-108.5 -30z" />
    <glyph glyph-name="c" unicode="c" horiz-adv-x="607" 
d="M328 -12q73 0 129.5 36t83.5 89l-38 20q-28 -49 -73 -76t-102 -27q-61 0 -110 29t-78 81.5t-29 122.5t29 122.5t78 81.5t110 29q57 0 102 -26.5t73 -76.5l38 21q-27 53 -83.5 88.5t-129.5 35.5t-132.5 -36t-94.5 -98t-35 -141q0 -78 35 -140.5t94.5 -98.5t132.5 -36z" />
    <glyph glyph-name="d" unicode="d" horiz-adv-x="674" 
d="M325 -12q71 0 128 34.5t88 92.5v-115h45v757h-45v-346q-31 58 -88 92.5t-128 34.5q-73 0 -132 -36t-93 -98.5t-34 -140.5t34 -140t93 -98.5t132 -36.5zM325 33q-61 0 -108.5 30t-75 82t-27.5 118t27.5 118t75 82t108.5 30t109 -30t76 -81.5t28 -118.5q0 -66 -28 -118
t-76 -82t-109 -30z" />
    <glyph glyph-name="e" unicode="e" horiz-adv-x="627" 
d="M331 -12q71 0 128.5 33.5t86.5 91.5l-38 20q-28 -49 -74 -76t-103 -27q-61 0 -109.5 28.5t-77.5 78t-33 112.5h447q3 23 3 39q0 71 -31.5 127.5t-85.5 89.5t-123 33q-72 0 -129.5 -36t-91.5 -98.5t-34 -140.5q0 -77 35 -139.5t95 -99t135 -36.5zM321 496q55 0 98.5 -27.5
t69.5 -74t26 -105.5h-403q6 59 34.5 106t74 74t100.5 27z" />
    <glyph glyph-name="f" unicode="f" horiz-adv-x="387" 
d="M143 0h45v486h133v40h-133v53q0 64 32 99.5t88 35.5q20 0 36 -3v41q-17 5 -39 5q-73 0 -117.5 -47t-44.5 -131v-53h-109v-40h109v-486z" />
    <glyph glyph-name="g" unicode="g" horiz-adv-x="664" 
d="M331 -220q72 0 127 30.5t86.5 84.5t31.5 123v508h-45v-112q-31 57 -86 90.5t-125 33.5q-73 0 -130.5 -36t-90.5 -96t-33 -133t33 -133t90.5 -96t130.5 -36q70 0 125 33.5t86 90.5v-114q0 -68 -29.5 -111.5t-75 -64t-95.5 -20.5q-60 0 -108 28t-77 77l-38 -22
q29 -53 88 -89t135 -36zM320 53q-61 0 -107.5 29.5t-72.5 79.5t-26 111t26 111t72.5 79.5t107.5 29.5t107.5 -29.5t73.5 -79t27 -111.5q0 -61 -27 -111t-73.5 -79.5t-107.5 -29.5z" />
    <glyph glyph-name="h" unicode="h" 
d="M88 0h45v320q0 49 18.5 88.5t54 63t85.5 23.5q44 0 79.5 -19t56.5 -53.5t21 -82.5v-340h45v345q0 58 -27.5 101.5t-72.5 67.5t-98 24q-54 0 -97 -24.5t-65 -64.5v308h-45v-757z" />
    <glyph glyph-name="i" unicode="i" horiz-adv-x="221" 
d="M88 635h45v110h-45v-110zM88 0h45v526h-45v-526z" />
    <glyph glyph-name="j" unicode="j" horiz-adv-x="221" 
d="M88 635h45v110h-45v-110zM-18 -220q68 0 109.5 40.5t41.5 117.5v588h-45v-588q0 -56 -28.5 -85.5t-80.5 -29.5q-19 0 -36 3v-41q17 -5 39 -5z" />
    <glyph glyph-name="k" unicode="k" horiz-adv-x="540" 
d="M88 0h45v170l110 112l215 -282h60l-238 313l218 213h-68l-297 -292v523h-45v-757z" />
    <glyph glyph-name="l" unicode="l" horiz-adv-x="221" 
d="M88 0h45v757h-45v-757z" />
    <glyph glyph-name="m" unicode="m" horiz-adv-x="910" 
d="M88 0h45v320q0 49 18.5 88.5t53 63t81.5 23.5q41 0 75.5 -19t55.5 -53.5t21 -82.5v-340h45v320q0 49 18.5 88.5t53 63t81.5 23.5q41 0 75.5 -19t55.5 -53.5t21 -82.5v-340h45v345q0 58 -27 101.5t-71 67.5t-95 24q-59 0 -106.5 -30.5t-67.5 -81.5q-23 52 -71.5 82
t-104.5 30q-51 0 -93.5 -24.5t-63.5 -64.5v77h-45v-526z" />
    <glyph glyph-name="n" unicode="n" 
d="M88 0h45v320q0 49 18.5 88.5t54 63t85.5 23.5q44 0 79.5 -19t56.5 -53.5t21 -82.5v-340h45v345q0 58 -27.5 101.5t-72.5 67.5t-98 24q-54 0 -97 -24.5t-65 -64.5v77h-45v-526z" />
    <glyph glyph-name="o" unicode="o" horiz-adv-x="662" 
d="M331 -12q76 0 135.5 36t94.5 98.5t35 140.5q0 79 -35 141t-94.5 98t-135.5 36q-75 0 -135 -36t-95 -98t-35 -141q0 -78 35 -140.5t95 -98.5t135 -36zM331 31q-61 0 -110 30.5t-78 83.5t-29 118q0 66 28.5 118.5t78 83t110.5 30.5q62 0 111 -30.5t77.5 -83t28.5 -118.5
q0 -65 -29 -118t-78 -83.5t-110 -30.5z" />
    <glyph glyph-name="p" unicode="p" horiz-adv-x="674" 
d="M88 -200h45v315q31 -58 88 -92.5t128 -34.5q74 0 132.5 36.5t92.5 98.5t34 140t-34 140.5t-92.5 98.5t-132.5 36q-71 0 -128 -34.5t-88 -92.5v115h-45v-726zM349 33q-60 0 -108.5 30t-76.5 82t-28 118q0 67 28 118.5t76.5 81.5t108.5 30q61 0 108.5 -30t75 -82t27.5 -118
t-27.5 -118t-75 -82t-108.5 -30z" />
    <glyph glyph-name="q" unicode="q" horiz-adv-x="674" 
d="M541 -200h45v726h-45v-115q-31 58 -88 92.5t-128 34.5q-73 0 -132 -36t-93 -98.5t-34 -140.5t34 -140t93 -98.5t132 -36.5q71 0 128 34.5t88 92.5v-315zM325 33q-61 0 -108.5 30t-75 82t-27.5 118t27.5 118t75 82t108.5 30t109 -30t76 -81.5t28 -118.5q0 -66 -28 -118
t-76 -82t-109 -30z" />
    <glyph glyph-name="r" unicode="r" horiz-adv-x="340" 
d="M88 0h45v320q0 73 39.5 120t111.5 47h34v45h-33q-50 0 -90.5 -21.5t-61.5 -60.5v76h-45v-526z" />
    <glyph glyph-name="s" unicode="s" horiz-adv-x="506" 
d="M260 -12q51 0 91.5 19t64.5 52.5t24 75.5q0 52 -35 89.5t-100 55.5l-88 25q-89 25 -89 91q0 43 33 71t83 28q47 0 85 -25t60 -70l44 20q-20 53 -72.5 85.5t-116.5 32.5q-45 0 -82 -18t-58.5 -50.5t-21.5 -74.5q0 -104 128 -139l87 -24q96 -26 96 -99q0 -46 -38.5 -74
t-94.5 -28q-52 0 -94.5 28t-68.5 78l-42 -19q27 -61 81 -95.5t124 -34.5z" />
    <glyph glyph-name="t" unicode="t" horiz-adv-x="379" 
d="M270 -6q6 0 19.5 1.5t23.5 4.5v40q-7 -1 -19 -2t-20 -1q-38 0 -56.5 14.5t-24 35.5t-5.5 39v360h114v40h-114v124h-45v-70q0 -54 -50 -54h-50v-40h100v-360q0 -66 33 -99t94 -33z" />
    <glyph glyph-name="u" unicode="u" 
d="M275 -12q55 0 97.5 24.5t64.5 64.5v-77h45v526h-45v-320q0 -48 -18 -88t-53.5 -63.5t-86.5 -23.5q-42 0 -78 17.5t-57.5 52.5t-21.5 85v340h-45v-340q0 -64 28 -108t73 -67t97 -23z" />
    <glyph glyph-name="v" unicode="v" horiz-adv-x="519" 
d="M234 0h48l215 526h-52l-186 -463l-186 463h-51z" />
    <glyph glyph-name="w" unicode="w" horiz-adv-x="769" 
d="M202 0h48l134 455l134 -455h48l181 526h-50l-155 -458l-134 458h-48l-134 -459l-154 459h-50z" />
    <glyph glyph-name="x" unicode="x" horiz-adv-x="474" 
d="M22 0h57l158 222l157 -222h58l-186 263l185 263h-58l-156 -222l-156 222h-57l185 -263z" />
    <glyph glyph-name="y" unicode="y" horiz-adv-x="529" 
d="M81 -220q51 0 85.5 23.5t56 56t32.5 59.5l252 607h-52l-189 -462l-187 462h-51l212 -524l-33 -78q-21 -49 -50.5 -74.5t-78.5 -26.5q-11 0 -26.5 1.5t-29.5 5.5v-41q15 -5 31 -7t28 -2z" />
    <glyph glyph-name="z" unicode="z" horiz-adv-x="435" 
d="M33 0h380v40h-320l317 456v30h-358v-40h297l-316 -456v-30z" />
    <glyph glyph-name="braceleft" unicode="{" horiz-adv-x="291" 
d="M240 -130h28v45h-28q-34 0 -54 24t-20 60v204q0 26 -8.5 54.5t-31.5 50.5q23 23 31.5 48.5t8.5 55.5v204q0 36 20 60t54 24h28v45h-28q-54 0 -89 -36.5t-35 -94.5v-202q0 -36 -16.5 -58.5t-54.5 -22.5h-27v-46h27q38 0 54.5 -22.5t16.5 -57.5v-204q0 -58 35 -94.5
t89 -36.5z" />
    <glyph glyph-name="bar" unicode="|" horiz-adv-x="270" 
d="M110 -190h50v1035h-50v-1035z" />
    <glyph glyph-name="braceright" unicode="}" horiz-adv-x="291" 
d="M23 -130h28q54 0 89 36.5t35 94.5v204q0 35 17 57.5t54 22.5h27v46h-27q-37 0 -54 22.5t-17 58.5v202q0 58 -35 94.5t-89 36.5h-28v-45h28q35 0 54.5 -24t19.5 -60v-204q0 -30 8.5 -55.5t31.5 -48.5q-23 -22 -31.5 -50.5t-8.5 -54.5v-204q0 -36 -19.5 -60t-54.5 -24h-28
v-45z" />
    <glyph glyph-name="asciitilde" unicode="~" horiz-adv-x="596" 
d="M392 203q45 0 80 30t37 91h-43q-5 -45 -24.5 -60.5t-46.5 -15.5q-28 0 -49.5 12.5t-41.5 28.5t-43.5 28.5t-56.5 12.5q-45 0 -80 -29.5t-37 -91.5h43q5 45 24.5 60.5t46.5 15.5q28 0 49.5 -12.5t41.5 -28.5t43.5 -28.5t56.5 -12.5z" />
    <glyph glyph-name="uni00A0" unicode="&#xa0;" horiz-adv-x="160" 
 />
    <glyph glyph-name="exclamdown" unicode="&#xa1;" horiz-adv-x="255" 
d="M101 436h55v90h-55v-90zM103 -219h50l-3 537h-45z" />
    <glyph glyph-name="cent" unicode="&#xa2;" horiz-adv-x="607" 
d="M304 0h45v99q66 5 116.5 40t75.5 84l-38 20q-52 -92 -154 -102v464q102 -10 154 -102l38 21q-25 49 -75.5 83.5t-116.5 39.5v98h-45v-98q-68 -6 -121.5 -43t-85 -97t-31.5 -134t31.5 -134t85 -97t121.5 -43v-99zM111 373q0 65 25.5 115.5t69 80.5t98.5 36v-464
q-55 6 -98.5 36t-69 80.5t-25.5 115.5z" />
    <glyph glyph-name="sterling" unicode="&#xa3;" horiz-adv-x="648" 
d="M50 0h499v45h-349v311h200v45h-200v133q0 82 46.5 130t122.5 48q77 0 125.5 -41t58.5 -115l45 10q-13 93 -77 142t-152 49q-65 0 -114.5 -28t-77 -78t-27.5 -117v-133h-100v-45h100v-311h-100v-45z" />
    <glyph glyph-name="currency" unicode="&#xa4;" horiz-adv-x="584" 
d="M97 43l74 74q28 -22 60.5 -32t60.5 -10q29 0 60.5 10t60.5 32l74 -74l31 32l-73 74q41 55 41 120q0 63 -41 121l73 75l-31 30l-74 -74q-26 20 -57.5 32t-63.5 12q-31 0 -63 -12t-58 -32l-74 74l-31 -30l74 -75q-42 -57 -42 -121q0 -66 42 -120l-74 -74zM292 123
q-40 0 -74 20t-54.5 53t-20.5 73t20.5 73.5t54.5 53.5t74 20q41 0 74.5 -20t53.5 -53.5t20 -73.5t-20 -73t-53.5 -53t-74.5 -20z" />
    <glyph glyph-name="yen" unicode="&#xa5;" horiz-adv-x="624" 
d="M137 153h150v-153h50v153h150v45h-150v110h150v45h-137l252 392h-57l-232 -356l-234 356h-57l252 -392h-137v-45h150v-110h-150v-45z" />
    <glyph glyph-name="brokenbar" unicode="&#xa6;" horiz-adv-x="270" 
d="M110 428h50v417h-50v-417zM110 -190h50v418h-50v-418z" />
    <glyph glyph-name="section" unicode="&#xa7;" horiz-adv-x="546" 
d="M273 -90q54 0 96.5 20t66.5 55.5t24 79.5q0 81 -81 128q45 19 73 55t28 83q0 53 -37 93.5t-105 59.5l-93 26q-46 13 -70 39t-24 58q0 45 35 75t88 30q49 0 89.5 -26.5t63.5 -73.5l46 21q-22 55 -77 89.5t-121 34.5q-49 0 -88 -19.5t-61.5 -53.5t-22.5 -78q0 -83 84 -126
q-46 -17 -75 -54t-29 -86q0 -52 34 -89.5t101 -56.5l92 -26q101 -29 101 -105q0 -48 -39 -78t-96 -30q-54 0 -102 28.5t-75 83.5l-44 -20q26 -61 85 -99t133 -38zM318 218l-93 26q-46 13 -70 39t-24 58q0 49 34.5 81.5t86.5 33.5l78 -22q101 -29 101 -105q0 -44 -28.5 -74.5
t-73.5 -39.5q-5 1 -11 3z" />
    <glyph glyph-name="dieresis" unicode="&#xa8;" horiz-adv-x="398" 
d="M103 640h70v75h-70v-75zM253 640h70v75h-70v-75z" />
    <glyph glyph-name="copyright" unicode="&#xa9;" horiz-adv-x="895" 
d="M448 -12q79 0 148.5 29.5t122.5 82.5t83 122.5t30 150.5q0 79 -29.5 148.5t-82.5 122.5t-122.5 83t-149.5 30q-81 0 -150.5 -30t-122.5 -83t-82.5 -122.5t-29.5 -148.5q0 -80 29.5 -150t82.5 -123t123 -82.5t150 -29.5zM448 36q-70 0 -131 26t-107 72t-71.5 107.5
t-25.5 131.5t25.5 131t71.5 107t107 72t131 26t130.5 -26t106.5 -72.5t71.5 -107.5t25.5 -130q0 -70 -25.5 -131.5t-71.5 -107.5t-106.5 -72t-130.5 -26zM451 163q42 0 75.5 15t56.5 38.5t33 48.5l-44 21q-15 -33 -45.5 -55t-75.5 -22q-65 0 -106 45.5t-41 118.5
q0 72 41 117.5t106 45.5q44 0 75.5 -22t45.5 -55l44 21q-10 26 -33 49t-56.5 38t-75.5 15q-56 0 -100.5 -27t-70.5 -74t-26 -108q0 -60 26 -107.5t70.5 -75t100.5 -27.5z" />
    <glyph glyph-name="ordfeminine" unicode="&#xaa;" horiz-adv-x="456" 
d="M188 367q46 0 83 21t54 51v-64h43v256q0 54 -38.5 89t-100.5 35q-47 0 -87 -24t-57 -58l39 -22q14 29 42.5 46t62.5 17q43 0 69.5 -23t26.5 -60v-20l-138 -23q-65 -11 -93 -44t-28 -73q0 -46 35.5 -75t86.5 -29zM112 473q0 28 19 48.5t67 28.5l127 21v-32
q0 -36 -16.5 -66.5t-46.5 -49t-71 -18.5q-33 0 -56 19t-23 49z" />
    <glyph glyph-name="guillemotleft" unicode="&#xab;" horiz-adv-x="472" 
d="M180 83h47l-147 186l147 186h-47l-151 -186zM396 83h47l-147 186l147 186h-47l-151 -186z" />
    <glyph glyph-name="logicalnot" unicode="&#xac;" horiz-adv-x="596" 
d="M503 40h45v233h-500v-45h455v-188z" />
    <glyph glyph-name="uni00AD" unicode="&#xad;" horiz-adv-x="468" 
d="M74 241h320v45h-320v-45z" />
    <glyph glyph-name="registered" unicode="&#xae;" horiz-adv-x="639" 
d="M320 272q70 0 128 34.5t93 92.5t35 129q0 53 -20 99t-55 81.5t-81.5 55.5t-99.5 20q-72 0 -130 -35t-92.5 -93t-34.5 -128q0 -71 34.5 -129t93 -92.5t129.5 -34.5zM320 315q-60 0 -108 28.5t-76.5 77t-28.5 107.5t28.5 107t76.5 76.5t108 28.5q59 0 107 -28.5t76.5 -76.5
t28.5 -107t-28.5 -107.5t-76.5 -77t-107 -28.5zM231 394h44v101h53l57 -101h50l-63 107q27 11 39 32.5t12 45.5q0 40 -26 62.5t-66 22.5h-100v-270zM275 533v91h56q22 0 35 -12t13 -33q0 -20 -13 -33t-35 -13h-56z" />
    <glyph glyph-name="macron" unicode="&#xaf;" horiz-adv-x="433" 
d="M103 660h250v40h-250v-40z" />
    <glyph glyph-name="degree" unicode="&#xb0;" horiz-adv-x="440" 
d="M220 486q59 0 97 38.5t38 95.5q0 39 -17.5 70t-48 49t-69.5 18q-38 0 -69 -18t-48.5 -48.5t-17.5 -69.5q0 -58 38.5 -96.5t96.5 -38.5zM220 524q-38 0 -67 26.5t-29 70.5q0 45 29.5 71t66.5 26q36 0 66 -26.5t30 -70.5t-30 -70.5t-66 -26.5z" />
    <glyph glyph-name="plusminus" unicode="&#xb1;" horiz-adv-x="596" 
d="M276 145h45v198h227v45h-227v197h-45v-197h-228v-45h228v-198zM48 0h500v45h-500v-45z" />
    <glyph glyph-name="uni00B2" unicode="&#xb2;" horiz-adv-x="428" 
d="M45 223h332v42h-265l138 149q57 62 86.5 106t29.5 91q0 43 -20.5 74.5t-55.5 49.5t-79 18q-65 0 -110.5 -38t-59.5 -102l42 -10q12 52 46 80t83 28q50 0 78.5 -27t28.5 -74q0 -33 -14 -60.5t-42 -59.5t-71 -78l-147 -159v-30z" />
    <glyph glyph-name="uni00B3" unicode="&#xb3;" horiz-adv-x="430" 
d="M212 215q52 0 91 22.5t61.5 60t22.5 82.5t-20.5 79.5t-55 54.5t-76.5 23l132 172v36h-306v-42h251l-144 -186l8 -20q18 3 36 3q53 0 90.5 -30t37.5 -89q0 -57 -35.5 -91t-92.5 -34q-50 0 -84.5 27.5t-48.5 75.5l-40 -15q16 -61 63 -95t110 -34z" />
    <glyph glyph-name="acute" unicode="&#xb4;" horiz-adv-x="330" 
d="M103 640h45l108 150h-61z" />
    <glyph glyph-name="uni00B5" unicode="&#xb5;" 
d="M77 -140h45v195q27 -33 67.5 -50t85.5 -17q55 0 98 24.5t64 64.5v-77h45v526h-45v-320q0 -48 -18 -88t-53.5 -63.5t-86.5 -23.5q-42 0 -78 17.5t-57.5 52.5t-21.5 85v340h-45v-666z" />
    <glyph glyph-name="paragraph" unicode="&#xb6;" horiz-adv-x="358" 
d="M198 -100h50v845h-50q-69 0 -109.5 -40t-40.5 -106t41.5 -106t108.5 -40v-553z" />
    <glyph glyph-name="periodcentered" unicode="&#xb7;" horiz-adv-x="261" 
d="M103 226h55v90h-55v-90z" />
    <glyph glyph-name="cedilla" unicode="&#xb8;" horiz-adv-x="382" 
d="M199 -220q42 0 68.5 23t26.5 61q0 32 -25.5 56t-68.5 31l16 59h-43l-25 -86q47 -4 75 -19.5t28 -43.5q0 -19 -14.5 -32.5t-39.5 -13.5q-20 0 -41.5 9.5t-37.5 26.5l-15 -32q37 -39 96 -39z" />
    <glyph glyph-name="uni00B9" unicode="&#xb9;" horiz-adv-x="292" 
d="M126 223h47v522h-145v-42h98v-480z" />
    <glyph glyph-name="ordmasculine" unicode="&#xba;" horiz-adv-x="509" 
d="M255 367q53 0 95.5 25t67.5 69t25 100t-25 99.5t-67.5 69t-95.5 25.5t-96 -25.5t-68 -69t-25 -99.5q0 -55 25 -99t68 -69.5t96 -25.5zM255 409q-40 0 -72.5 20.5t-51.5 55t-19 76.5q0 43 19 77.5t51.5 54.5t72.5 20t72 -20t51 -54.5t19 -77.5t-19.5 -77.5t-51.5 -54.5
t-71 -20z" />
    <glyph glyph-name="guillemotright" unicode="&#xbb;" horiz-adv-x="472" 
d="M245 83h47l151 186l-151 186h-47l147 -186zM29 83h47l151 186l-151 186h-47l147 -186z" />
    <glyph glyph-name="onequarter" unicode="&#xbc;" horiz-adv-x="863" 
d="M107 327h45v418h-124v-40h79v-378zM122 0h52l446 745h-52zM722 0h42v97h52v38h-52v283h-41l-211 -284v-37h210v-97zM722 135h-163l163 220v-220z" />
    <glyph glyph-name="onehalf" unicode="&#xbd;" horiz-adv-x="835" 
d="M107 327h45v418h-124v-40h79v-378zM122 0h52l446 745h-52zM515 0h269v40h-206l108 116q38 41 63.5 77t25.5 76q0 51 -35.5 83t-90.5 32q-51 0 -88.5 -29.5t-48.5 -81.5l40 -11q20 81 98 81q36 0 58 -20t22 -56q0 -24 -10.5 -44.5t-32 -45t-55.5 -61.5l-117 -126v-30z" />
    <glyph glyph-name="threequarters" unicode="&#xbe;" horiz-adv-x="956" 
d="M179 321q42 0 74 18t50 48t18 67q0 53 -34.5 87t-83.5 38l101 130v36h-246v-40h194l-113 -144l8 -20q6 2 15 3t17 1q41 0 68.5 -23.5t27.5 -67.5q0 -43 -26.5 -68.5t-69.5 -25.5q-37 0 -64 20.5t-38 56.5l-38 -15q13 -47 51.5 -74t88.5 -27zM215 0h52l446 745h-52zM815 0
h42v97h52v38h-52v283h-41l-211 -284v-37h210v-97zM815 135h-163l163 220v-220z" />
    <glyph glyph-name="questiondown" unicode="&#xbf;" horiz-adv-x="474" 
d="M263 436h55v90h-55v-90zM230 -231q80 0 137.5 48.5t71.5 132.5l-44 9q-15 -69 -58.5 -107.5t-106.5 -38.5q-43 0 -73.5 17.5t-46.5 45.5t-16 58q0 56 32.5 98t73.5 81q30 27 56 56t42 64t16 81v4h-45v-4q0 -49 -27.5 -87.5t-62.5 -74.5q-31 -31 -62 -62.5t-52 -68.5
t-21 -85q0 -45 24.5 -83t67 -61t94.5 -23z" />
    <glyph glyph-name="Agrave" unicode="&#xc0;" horiz-adv-x="644" 
d="M22 0h55l72 197h346l72 -197h55l-276 745h-48zM165 242l157 429l157 -429h-314zM300 859h45l-92 150h-61z" />
    <glyph glyph-name="Aacute" unicode="&#xc1;" horiz-adv-x="644" 
d="M22 0h55l72 197h346l72 -197h55l-276 745h-48zM165 242l157 429l157 -429h-314zM299 859h45l108 150h-61z" />
    <glyph glyph-name="Acircumflex" unicode="&#xc2;" horiz-adv-x="644" 
d="M22 0h55l72 197h346l72 -197h55l-276 745h-48zM165 242l157 429l157 -429h-314zM175 859h51l96 114l96 -114h51l-126 150h-43z" />
    <glyph glyph-name="Atilde" unicode="&#xc3;" horiz-adv-x="644" 
d="M22 0h55l72 197h346l72 -197h55l-276 745h-48zM165 242l157 429l157 -429h-314zM379 859q41 0 63 30t22 76h-40q0 -67 -43 -67q-17 0 -28.5 10.5t-23 25t-26.5 25t-40 10.5q-40 0 -61.5 -29t-21.5 -77h40q0 35 10.5 51t29.5 16q16 0 27 -10.5t22.5 -25t28 -25t41.5 -10.5
z" />
    <glyph glyph-name="Adieresis" unicode="&#xc4;" horiz-adv-x="644" 
d="M22 0h55l72 197h346l72 -197h55l-276 745h-48zM165 242l157 429l157 -429h-314zM212 859h70v75h-70v-75zM362 859h70v75h-70v-75z" />
    <glyph glyph-name="Aring" unicode="&#xc5;" horiz-adv-x="644" 
d="M22 0h55l72 197h346l72 -197h55l-276 745h-48zM165 242l157 429l157 -429h-314zM321 839q39 0 67 25.5t28 68.5q0 42 -28 68t-67 26q-38 0 -66 -25.5t-28 -68.5t28 -68.5t66 -25.5zM321 875q-23 0 -39.5 16t-16.5 42t16.5 41.5t39.5 15.5t40.5 -15.5t17.5 -41.5
t-17.5 -42t-40.5 -16z" />
    <glyph glyph-name="AE" unicode="&#xc6;" horiz-adv-x="987" 
d="M22 0h55l72 197h323v-197h460v45h-410v306h390v45h-390v304h410v45h-634zM165 242l168 458h139v-458h-307z" />
    <glyph glyph-name="Ccedilla" unicode="&#xc7;" horiz-adv-x="788" 
d="M430 -12q74 0 133 27.5t100 69t59 84.5l-47 21q-33 -70 -96.5 -112t-148.5 -42q-89 0 -157.5 42.5t-107 118.5t-38.5 176t38.5 175.5t107 118t157.5 42.5q85 0 148.5 -42t96.5 -112l47 21q-18 43 -59 84.5t-100 69t-133 27.5q-76 0 -140 -28.5t-112 -80t-74.5 -122
t-26.5 -153.5q0 -84 26.5 -154t74.5 -122t112 -80.5t140 -28.5zM438 -220q42 0 68.5 23t26.5 61q0 32 -25.5 56t-68.5 31l16 59h-43l-25 -86q47 -4 75 -19.5t28 -43.5q0 -19 -14.5 -32.5t-39.5 -13.5q-20 0 -41.5 9.5t-37.5 26.5l-15 -32q37 -39 96 -39z" />
    <glyph glyph-name="Egrave" unicode="&#xc8;" horiz-adv-x="614" 
d="M99 0h460v45h-410v306h390v45h-390v304h410v45h-460v-745zM307 859h45l-92 150h-61z" />
    <glyph glyph-name="Eacute" unicode="&#xc9;" horiz-adv-x="614" 
d="M99 0h460v45h-410v306h390v45h-390v304h410v45h-460v-745zM306 859h45l108 150h-61z" />
    <glyph glyph-name="Ecircumflex" unicode="&#xca;" horiz-adv-x="614" 
d="M99 0h460v45h-410v306h390v45h-390v304h410v45h-460v-745zM182 859h51l96 114l96 -114h51l-126 150h-43z" />
    <glyph glyph-name="Edieresis" unicode="&#xcb;" horiz-adv-x="614" 
d="M99 0h460v45h-410v306h390v45h-390v304h410v45h-460v-745zM219 859h70v75h-70v-75zM369 859h70v75h-70v-75z" />
    <glyph glyph-name="Igrave" unicode="&#xcc;" horiz-adv-x="248" 
d="M99 0h50v745h-50v-745zM102 859h45l-92 150h-61z" />
    <glyph glyph-name="Iacute" unicode="&#xcd;" horiz-adv-x="248" 
d="M99 0h50v745h-50v-745zM101 859h45l108 150h-61z" />
    <glyph glyph-name="Icircumflex" unicode="&#xce;" horiz-adv-x="248" 
d="M99 0h50v745h-50v-745zM-23 859h51l96 114l96 -114h51l-126 150h-43z" />
    <glyph glyph-name="Idieresis" unicode="&#xcf;" horiz-adv-x="248" 
d="M99 0h50v745h-50v-745zM14 859h70v75h-70v-75zM164 859h70v75h-70v-75z" />
    <glyph glyph-name="Eth" unicode="&#xd0;" horiz-adv-x="744" 
d="M99 0h238q108 0 187 46t122 130t43 197q0 114 -43 197.5t-122 129t-187 45.5h-238v-350h-70v-45h70v-350zM149 45v305h170v45h-170v305h186q91 0 159.5 -41t106.5 -114.5t38 -171.5t-38 -172t-106.5 -115t-159.5 -41h-186z" />
    <glyph glyph-name="Ntilde" unicode="&#xd1;" horiz-adv-x="738" 
d="M99 0h50v644l450 -644h40v745h-50v-644l-450 644h-40v-745zM426 859q41 0 63 30t22 76h-40q0 -67 -43 -67q-17 0 -28.5 10.5t-23 25t-26.5 25t-40 10.5q-40 0 -61.5 -29t-21.5 -77h40q0 35 10.5 51t29.5 16q16 0 27 -10.5t22.5 -25t28 -25t41.5 -10.5z" />
    <glyph glyph-name="Ograve" unicode="&#xd2;" horiz-adv-x="884" 
d="M442 -12q75 0 141.5 28t116.5 79.5t78.5 122t28.5 155.5q0 84 -28.5 154.5t-79 122t-116.5 79.5t-141 28t-141 -28t-116.5 -79.5t-79 -121.5t-28.5 -155t28.5 -155.5t78.5 -122t116.5 -79.5t141.5 -28zM442 36q-70 0 -128 26.5t-100 73.5t-64.5 108t-22.5 129
q0 67 22.5 127.5t64.5 107.5t100 74t128 27q71 0 129 -27t99.5 -74t64 -107.5t22.5 -127.5q0 -68 -22.5 -129t-64.5 -108t-100 -73.5t-128 -26.5zM420 859h45l-92 150h-61z" />
    <glyph glyph-name="Oacute" unicode="&#xd3;" horiz-adv-x="884" 
d="M442 -12q75 0 141.5 28t116.5 79.5t78.5 122t28.5 155.5q0 84 -28.5 154.5t-79 122t-116.5 79.5t-141 28t-141 -28t-116.5 -79.5t-79 -121.5t-28.5 -155t28.5 -155.5t78.5 -122t116.5 -79.5t141.5 -28zM442 36q-70 0 -128 26.5t-100 73.5t-64.5 108t-22.5 129
q0 67 22.5 127.5t64.5 107.5t100 74t128 27q71 0 129 -27t99.5 -74t64 -107.5t22.5 -127.5q0 -68 -22.5 -129t-64.5 -108t-100 -73.5t-128 -26.5zM419 859h45l108 150h-61z" />
    <glyph glyph-name="Ocircumflex" unicode="&#xd4;" horiz-adv-x="884" 
d="M442 -12q75 0 141.5 28t116.5 79.5t78.5 122t28.5 155.5q0 84 -28.5 154.5t-79 122t-116.5 79.5t-141 28t-141 -28t-116.5 -79.5t-79 -121.5t-28.5 -155t28.5 -155.5t78.5 -122t116.5 -79.5t141.5 -28zM442 36q-70 0 -128 26.5t-100 73.5t-64.5 108t-22.5 129
q0 67 22.5 127.5t64.5 107.5t100 74t128 27q71 0 129 -27t99.5 -74t64 -107.5t22.5 -127.5q0 -68 -22.5 -129t-64.5 -108t-100 -73.5t-128 -26.5zM295 859h51l96 114l96 -114h51l-126 150h-43z" />
    <glyph glyph-name="Otilde" unicode="&#xd5;" horiz-adv-x="884" 
d="M442 -12q75 0 141.5 28t116.5 79.5t78.5 122t28.5 155.5q0 84 -28.5 154.5t-79 122t-116.5 79.5t-141 28t-141 -28t-116.5 -79.5t-79 -121.5t-28.5 -155t28.5 -155.5t78.5 -122t116.5 -79.5t141.5 -28zM442 36q-70 0 -128 26.5t-100 73.5t-64.5 108t-22.5 129
q0 67 22.5 127.5t64.5 107.5t100 74t128 27q71 0 129 -27t99.5 -74t64 -107.5t22.5 -127.5q0 -68 -22.5 -129t-64.5 -108t-100 -73.5t-128 -26.5zM499 859q41 0 63 30t22 76h-40q0 -67 -43 -67q-17 0 -28.5 10.5t-23 25t-26.5 25t-40 10.5q-40 0 -61.5 -29t-21.5 -77h40
q0 35 10.5 51t29.5 16q16 0 27 -10.5t22.5 -25t28 -25t41.5 -10.5z" />
    <glyph glyph-name="Odieresis" unicode="&#xd6;" horiz-adv-x="884" 
d="M442 -12q75 0 141.5 28t116.5 79.5t78.5 122t28.5 155.5q0 84 -28.5 154.5t-79 122t-116.5 79.5t-141 28t-141 -28t-116.5 -79.5t-79 -121.5t-28.5 -155t28.5 -155.5t78.5 -122t116.5 -79.5t141.5 -28zM442 36q-70 0 -128 26.5t-100 73.5t-64.5 108t-22.5 129
q0 67 22.5 127.5t64.5 107.5t100 74t128 27q71 0 129 -27t99.5 -74t64 -107.5t22.5 -127.5q0 -68 -22.5 -129t-64.5 -108t-100 -73.5t-128 -26.5zM332 859h70v75h-70v-75zM482 859h70v75h-70v-75z" />
    <glyph glyph-name="multiply" unicode="&#xd7;" horiz-adv-x="596" 
d="M123 0l175 175l175 -175l32 31l-175 176l174 174l-31 32l-175 -174l-175 174l-31 -32l174 -174l-175 -176z" />
    <glyph glyph-name="Oslash" unicode="&#xd8;" horiz-adv-x="884" 
d="M105 0h64l52 63q46 -36 102.5 -55.5t118.5 -19.5q75 0 141.5 28t116.5 79.5t78.5 122t28.5 155.5q0 84 -28.5 154.5t-78.5 121.5l79 96h-64l-52 -63q-46 36 -102.5 55.5t-118.5 19.5q-75 0 -141 -28t-116.5 -79.5t-79 -121.5t-28.5 -155t28.5 -155.5t78.5 -121.5z
M127 373q0 67 22.5 127.5t64.5 107.5t100 74t128 27q56 0 104 -17.5t86 -47.5l-416 -509q-43 46 -66 107.5t-23 130.5zM442 36q-56 0 -104 17.5t-86 47.5l417 509q42 -46 65 -107.5t23 -129.5t-22.5 -129t-64.5 -108t-100 -73.5t-128 -26.5z" />
    <glyph glyph-name="Ugrave" unicode="&#xd9;" horiz-adv-x="690" 
d="M345 -12q75 0 131 33t87.5 92t31.5 138v494h-50v-498q0 -63 -25 -111t-70 -75.5t-105 -27.5q-59 0 -104.5 27.5t-70.5 75.5t-25 111v498h-50v-494q0 -79 31.5 -138t88 -92t130.5 -33zM323 859h45l-92 150h-61z" />
    <glyph glyph-name="Uacute" unicode="&#xda;" horiz-adv-x="690" 
d="M345 -12q75 0 131 33t87.5 92t31.5 138v494h-50v-498q0 -63 -25 -111t-70 -75.5t-105 -27.5q-59 0 -104.5 27.5t-70.5 75.5t-25 111v498h-50v-494q0 -79 31.5 -138t88 -92t130.5 -33zM322 859h45l108 150h-61z" />
    <glyph glyph-name="Ucircumflex" unicode="&#xdb;" horiz-adv-x="690" 
d="M345 -12q75 0 131 33t87.5 92t31.5 138v494h-50v-498q0 -63 -25 -111t-70 -75.5t-105 -27.5q-59 0 -104.5 27.5t-70.5 75.5t-25 111v498h-50v-494q0 -79 31.5 -138t88 -92t130.5 -33zM198 859h51l96 114l96 -114h51l-126 150h-43z" />
    <glyph glyph-name="Udieresis" unicode="&#xdc;" horiz-adv-x="690" 
d="M345 -12q75 0 131 33t87.5 92t31.5 138v494h-50v-498q0 -63 -25 -111t-70 -75.5t-105 -27.5q-59 0 -104.5 27.5t-70.5 75.5t-25 111v498h-50v-494q0 -79 31.5 -138t88 -92t130.5 -33zM235 859h70v75h-70v-75zM385 859h70v75h-70v-75z" />
    <glyph glyph-name="Yacute" unicode="&#xdd;" horiz-adv-x="624" 
d="M287 0h50v333l265 412h-57l-232 -356l-234 356h-57l265 -412v-333zM289 859h45l108 150h-61z" />
    <glyph glyph-name="Thorn" unicode="&#xde;" horiz-adv-x="635" 
d="M95 0h50v150h194q70 0 123 28t83 78t30 116t-30 116.5t-83 78.5t-123 28h-194v150h-50v-745zM145 195v355h194q55 0 97 -22.5t65.5 -62t23.5 -92.5q0 -52 -24 -92.5t-65.5 -63t-96.5 -22.5h-194z" />
    <glyph glyph-name="germandbls" unicode="&#xdf;" horiz-adv-x="605" 
d="M99 -140h46v691q0 49 21.5 85t57.5 56t81 20t79.5 -19t53.5 -52.5t19 -75.5q0 -45 -21 -78.5t-56.5 -51.5t-79.5 -18h-55v-45h62q81 0 131 -45t50 -119q0 -73 -48.5 -118t-125.5 -45h-69v-45h69q65 0 115.5 26t80 73t29.5 110q0 139 -146 188q54 25 84.5 65.5t30.5 102.5
q0 59 -27 102t-72.5 66.5t-101.5 23.5q-58 0 -105 -25.5t-75 -71.5t-28 -109v-691z" />
    <glyph glyph-name="agrave" unicode="&#xe0;" horiz-adv-x="574" 
d="M237 -12q49 0 89.5 16.5t70 43.5t44.5 58v-106h45v365q0 51 -24.5 90t-68 61t-100.5 22q-47 0 -87 -16t-69.5 -41.5t-44.5 -55.5l40 -21q24 41 67 66t94 25q67 0 107.5 -35.5t40.5 -94.5v-32l-204 -34q-63 -10 -100.5 -35t-54 -58.5t-16.5 -69.5q0 -44 23 -77.5t61.5 -52
t86.5 -18.5zM112 138q0 42 31 75t109 46l189 31v-52q0 -55 -25 -102.5t-69.5 -76.5t-105.5 -29q-55 0 -92 29t-37 79zM271 640h45l-92 150h-61z" />
    <glyph glyph-name="aacute" unicode="&#xe1;" horiz-adv-x="574" 
d="M237 -12q49 0 89.5 16.5t70 43.5t44.5 58v-106h45v365q0 51 -24.5 90t-68 61t-100.5 22q-47 0 -87 -16t-69.5 -41.5t-44.5 -55.5l40 -21q24 41 67 66t94 25q67 0 107.5 -35.5t40.5 -94.5v-32l-204 -34q-63 -10 -100.5 -35t-54 -58.5t-16.5 -69.5q0 -44 23 -77.5t61.5 -52
t86.5 -18.5zM112 138q0 42 31 75t109 46l189 31v-52q0 -55 -25 -102.5t-69.5 -76.5t-105.5 -29q-55 0 -92 29t-37 79zM270 640h45l108 150h-61z" />
    <glyph glyph-name="acircumflex" unicode="&#xe2;" horiz-adv-x="574" 
d="M237 -12q49 0 89.5 16.5t70 43.5t44.5 58v-106h45v365q0 51 -24.5 90t-68 61t-100.5 22q-47 0 -87 -16t-69.5 -41.5t-44.5 -55.5l40 -21q24 41 67 66t94 25q67 0 107.5 -35.5t40.5 -94.5v-32l-204 -34q-63 -10 -100.5 -35t-54 -58.5t-16.5 -69.5q0 -44 23 -77.5t61.5 -52
t86.5 -18.5zM112 138q0 42 31 75t109 46l189 31v-52q0 -55 -25 -102.5t-69.5 -76.5t-105.5 -29q-55 0 -92 29t-37 79zM146 640h51l96 114l96 -114h51l-126 150h-43z" />
    <glyph glyph-name="atilde" unicode="&#xe3;" horiz-adv-x="574" 
d="M237 -12q49 0 89.5 16.5t70 43.5t44.5 58v-106h45v365q0 51 -24.5 90t-68 61t-100.5 22q-47 0 -87 -16t-69.5 -41.5t-44.5 -55.5l40 -21q24 41 67 66t94 25q67 0 107.5 -35.5t40.5 -94.5v-32l-204 -34q-63 -10 -100.5 -35t-54 -58.5t-16.5 -69.5q0 -44 23 -77.5t61.5 -52
t86.5 -18.5zM112 138q0 42 31 75t109 46l189 31v-52q0 -55 -25 -102.5t-69.5 -76.5t-105.5 -29q-55 0 -92 29t-37 79zM350 640q41 0 63 30t22 76h-40q0 -67 -43 -67q-17 0 -28.5 10.5t-23 25t-26.5 25t-40 10.5q-40 0 -61.5 -29t-21.5 -77h40q0 35 10.5 51t29.5 16
q16 0 27 -10.5t22.5 -25t28 -25t41.5 -10.5z" />
    <glyph glyph-name="adieresis" unicode="&#xe4;" horiz-adv-x="574" 
d="M237 -12q49 0 89.5 16.5t70 43.5t44.5 58v-106h45v365q0 51 -24.5 90t-68 61t-100.5 22q-47 0 -87 -16t-69.5 -41.5t-44.5 -55.5l40 -21q24 41 67 66t94 25q67 0 107.5 -35.5t40.5 -94.5v-32l-204 -34q-63 -10 -100.5 -35t-54 -58.5t-16.5 -69.5q0 -44 23 -77.5t61.5 -52
t86.5 -18.5zM112 138q0 42 31 75t109 46l189 31v-52q0 -55 -25 -102.5t-69.5 -76.5t-105.5 -29q-55 0 -92 29t-37 79zM183 640h70v75h-70v-75zM333 640h70v75h-70v-75z" />
    <glyph glyph-name="aring" unicode="&#xe5;" horiz-adv-x="574" 
d="M237 -12q49 0 89.5 16.5t70 43.5t44.5 58v-106h45v365q0 51 -24.5 90t-68 61t-100.5 22q-47 0 -87 -16t-69.5 -41.5t-44.5 -55.5l40 -21q24 41 67 66t94 25q67 0 107.5 -35.5t40.5 -94.5v-32l-204 -34q-63 -10 -100.5 -35t-54 -58.5t-16.5 -69.5q0 -44 23 -77.5t61.5 -52
t86.5 -18.5zM112 138q0 42 31 75t109 46l189 31v-52q0 -55 -25 -102.5t-69.5 -76.5t-105.5 -29q-55 0 -92 29t-37 79zM292 620q39 0 67 25.5t28 68.5q0 42 -28 68t-67 26q-38 0 -66 -25.5t-28 -68.5t28 -68.5t66 -25.5zM292 656q-23 0 -39.5 16t-16.5 42t16.5 41.5
t39.5 15.5t40.5 -15.5t17.5 -41.5t-17.5 -42t-40.5 -16z" />
    <glyph glyph-name="ae" unicode="&#xe6;" horiz-adv-x="1002" 
d="M237 -12q72 0 126 34.5t77 80.5v-103h46v107q35 -55 92.5 -87t127.5 -32q71 0 128.5 33.5t86.5 91.5l-38 20q-28 -49 -74 -76t-103 -27q-61 0 -109.5 28.5t-77.5 78t-33 112.5h447q3 23 3 39q0 71 -31.5 127.5t-85.5 89.5t-123 33q-70 0 -126.5 -34t-89.5 -92
q-16 57 -66 91.5t-121 34.5q-47 0 -87 -16t-69.5 -41.5t-44.5 -55.5l40 -21q24 41 67 66t94 25q67 0 107 -35.5t40 -94.5v-32l-203 -34q-63 -10 -100.5 -35t-54 -58.5t-16.5 -69.5q0 -44 23 -77.5t61.5 -52t86.5 -18.5zM487 289q6 59 34.5 106t74 74t100.5 27t99 -27.5
t69.5 -74t25.5 -105.5h-403zM241 30q-55 0 -92 29t-37 79q0 42 31 75t109 46l188 31v-52q0 -55 -24.5 -102.5t-69 -76.5t-105.5 -29z" />
    <glyph glyph-name="ccedilla" unicode="&#xe7;" horiz-adv-x="607" 
d="M328 -12q73 0 129.5 36t83.5 89l-38 20q-28 -49 -73 -76t-102 -27q-61 0 -110 29t-78 81.5t-29 122.5t29 122.5t78 81.5t110 29q57 0 102 -26.5t73 -76.5l38 21q-27 53 -83.5 88.5t-129.5 35.5t-132.5 -36t-94.5 -98t-35 -141q0 -78 35 -140.5t94.5 -98.5t132.5 -36z
M336 -220q42 0 68.5 23t26.5 61q0 32 -25.5 56t-68.5 31l16 59h-43l-25 -86q47 -4 75 -19.5t28 -43.5q0 -19 -14.5 -32.5t-39.5 -13.5q-20 0 -41.5 9.5t-37.5 26.5l-15 -32q37 -39 96 -39z" />
    <glyph glyph-name="egrave" unicode="&#xe8;" horiz-adv-x="627" 
d="M331 -12q71 0 128.5 33.5t86.5 91.5l-38 20q-28 -49 -74 -76t-103 -27q-61 0 -109.5 28.5t-77.5 78t-33 112.5h447q3 23 3 39q0 71 -31.5 127.5t-85.5 89.5t-123 33q-72 0 -129.5 -36t-91.5 -98.5t-34 -140.5q0 -77 35 -139.5t95 -99t135 -36.5zM321 496q55 0 98.5 -27.5
t69.5 -74t26 -105.5h-403q6 59 34.5 106t74 74t100.5 27zM292 640h45l-92 150h-61z" />
    <glyph glyph-name="eacute" unicode="&#xe9;" horiz-adv-x="627" 
d="M331 -12q71 0 128.5 33.5t86.5 91.5l-38 20q-28 -49 -74 -76t-103 -27q-61 0 -109.5 28.5t-77.5 78t-33 112.5h447q3 23 3 39q0 71 -31.5 127.5t-85.5 89.5t-123 33q-72 0 -129.5 -36t-91.5 -98.5t-34 -140.5q0 -77 35 -139.5t95 -99t135 -36.5zM321 496q55 0 98.5 -27.5
t69.5 -74t26 -105.5h-403q6 59 34.5 106t74 74t100.5 27zM291 640h45l108 150h-61z" />
    <glyph glyph-name="ecircumflex" unicode="&#xea;" horiz-adv-x="627" 
d="M331 -12q71 0 128.5 33.5t86.5 91.5l-38 20q-28 -49 -74 -76t-103 -27q-61 0 -109.5 28.5t-77.5 78t-33 112.5h447q3 23 3 39q0 71 -31.5 127.5t-85.5 89.5t-123 33q-72 0 -129.5 -36t-91.5 -98.5t-34 -140.5q0 -77 35 -139.5t95 -99t135 -36.5zM321 496q55 0 98.5 -27.5
t69.5 -74t26 -105.5h-403q6 59 34.5 106t74 74t100.5 27zM167 640h51l96 114l96 -114h51l-126 150h-43z" />
    <glyph glyph-name="edieresis" unicode="&#xeb;" horiz-adv-x="627" 
d="M331 -12q71 0 128.5 33.5t86.5 91.5l-38 20q-28 -49 -74 -76t-103 -27q-61 0 -109.5 28.5t-77.5 78t-33 112.5h447q3 23 3 39q0 71 -31.5 127.5t-85.5 89.5t-123 33q-72 0 -129.5 -36t-91.5 -98.5t-34 -140.5q0 -77 35 -139.5t95 -99t135 -36.5zM321 496q55 0 98.5 -27.5
t69.5 -74t26 -105.5h-403q6 59 34.5 106t74 74t100.5 27zM204 640h70v75h-70v-75zM354 640h70v75h-70v-75z" />
    <glyph glyph-name="igrave" unicode="&#xec;" horiz-adv-x="185" 
d="M70 0h45v526h-45v-526zM70 640h45l-92 150h-61z" />
    <glyph glyph-name="iacute" unicode="&#xed;" horiz-adv-x="185" 
d="M70 0h45v526h-45v-526zM69 640h45l108 150h-61z" />
    <glyph glyph-name="icircumflex" unicode="&#xee;" horiz-adv-x="185" 
d="M70 0h45v526h-45v-526zM-55 640h51l96 114l96 -114h51l-126 150h-43z" />
    <glyph glyph-name="idieresis" unicode="&#xef;" horiz-adv-x="185" 
d="M70 0h45v526h-45v-526zM-18 640h70v75h-70v-75zM132 640h70v75h-70v-75z" />
    <glyph glyph-name="eth" unicode="&#xf0;" horiz-adv-x="664" 
d="M335 -12q74 0 133.5 35t94.5 104.5t35 173.5q0 96 -32.5 193t-94.5 171l56 19v43l-86 -30q-48 45 -109.5 72t-135.5 27q-58 0 -118 -18l13 -42q27 9 52 13t48 4q56 0 106 -20.5t91 -54.5l-137 -48v-42l170 59q47 -48 78 -108.5t42 -122.5q-40 63 -96 87.5t-113 24.5
q-78 0 -138 -35.5t-94 -96.5t-34 -137t35 -137.5t95.5 -97.5t138.5 -36zM331 31q-59 0 -108.5 30t-79 81.5t-29.5 116.5q0 63 28 114.5t77 81.5t112 30t112 -30t77 -81t28 -114q0 -64 -29 -116t-78 -82.5t-110 -30.5z" />
    <glyph glyph-name="ntilde" unicode="&#xf1;" 
d="M88 0h45v320q0 49 18.5 88.5t54 63t85.5 23.5q44 0 79.5 -19t56.5 -53.5t21 -82.5v-340h45v345q0 58 -27.5 101.5t-72.5 67.5t-98 24q-54 0 -97 -24.5t-65 -64.5v77h-45v-526zM342 640q41 0 63 30t22 76h-40q0 -67 -43 -67q-17 0 -28.5 10.5t-23 25t-26.5 25t-40 10.5
q-40 0 -61.5 -29t-21.5 -77h40q0 35 10.5 51t29.5 16q16 0 27 -10.5t22.5 -25t28 -25t41.5 -10.5z" />
    <glyph glyph-name="ograve" unicode="&#xf2;" horiz-adv-x="662" 
d="M331 -12q76 0 135.5 36t94.5 98.5t35 140.5q0 79 -35 141t-94.5 98t-135.5 36q-75 0 -135 -36t-95 -98t-35 -141q0 -78 35 -140.5t95 -98.5t135 -36zM331 31q-61 0 -110 30.5t-78 83.5t-29 118q0 66 28.5 118.5t78 83t110.5 30.5q62 0 111 -30.5t77.5 -83t28.5 -118.5
q0 -65 -29 -118t-78 -83.5t-110 -30.5zM309 640h45l-92 150h-61z" />
    <glyph glyph-name="oacute" unicode="&#xf3;" horiz-adv-x="662" 
d="M331 -12q76 0 135.5 36t94.5 98.5t35 140.5q0 79 -35 141t-94.5 98t-135.5 36q-75 0 -135 -36t-95 -98t-35 -141q0 -78 35 -140.5t95 -98.5t135 -36zM331 31q-61 0 -110 30.5t-78 83.5t-29 118q0 66 28.5 118.5t78 83t110.5 30.5q62 0 111 -30.5t77.5 -83t28.5 -118.5
q0 -65 -29 -118t-78 -83.5t-110 -30.5zM308 640h45l108 150h-61z" />
    <glyph glyph-name="ocircumflex" unicode="&#xf4;" horiz-adv-x="662" 
d="M331 -12q76 0 135.5 36t94.5 98.5t35 140.5q0 79 -35 141t-94.5 98t-135.5 36q-75 0 -135 -36t-95 -98t-35 -141q0 -78 35 -140.5t95 -98.5t135 -36zM331 31q-61 0 -110 30.5t-78 83.5t-29 118q0 66 28.5 118.5t78 83t110.5 30.5q62 0 111 -30.5t77.5 -83t28.5 -118.5
q0 -65 -29 -118t-78 -83.5t-110 -30.5zM184 640h51l96 114l96 -114h51l-126 150h-43z" />
    <glyph glyph-name="otilde" unicode="&#xf5;" horiz-adv-x="662" 
d="M331 -12q76 0 135.5 36t94.5 98.5t35 140.5q0 79 -35 141t-94.5 98t-135.5 36q-75 0 -135 -36t-95 -98t-35 -141q0 -78 35 -140.5t95 -98.5t135 -36zM331 31q-61 0 -110 30.5t-78 83.5t-29 118q0 66 28.5 118.5t78 83t110.5 30.5q62 0 111 -30.5t77.5 -83t28.5 -118.5
q0 -65 -29 -118t-78 -83.5t-110 -30.5zM388 640q41 0 63 30t22 76h-40q0 -67 -43 -67q-17 0 -28.5 10.5t-23 25t-26.5 25t-40 10.5q-40 0 -61.5 -29t-21.5 -77h40q0 35 10.5 51t29.5 16q16 0 27 -10.5t22.5 -25t28 -25t41.5 -10.5z" />
    <glyph glyph-name="odieresis" unicode="&#xf6;" horiz-adv-x="662" 
d="M331 -12q76 0 135.5 36t94.5 98.5t35 140.5q0 79 -35 141t-94.5 98t-135.5 36q-75 0 -135 -36t-95 -98t-35 -141q0 -78 35 -140.5t95 -98.5t135 -36zM331 31q-61 0 -110 30.5t-78 83.5t-29 118q0 66 28.5 118.5t78 83t110.5 30.5q62 0 111 -30.5t77.5 -83t28.5 -118.5
q0 -65 -29 -118t-78 -83.5t-110 -30.5zM221 640h70v75h-70v-75zM371 640h70v75h-70v-75z" />
    <glyph glyph-name="divide" unicode="&#xf7;" horiz-adv-x="596" 
d="M271 422h55v78h-55v-78zM48 228h500v45h-500v-45zM271 0h55v78h-55v-78z" />
    <glyph glyph-name="oslash" unicode="&#xf8;" horiz-adv-x="662" 
d="M63 0h66l39 43q33 -26 74.5 -40.5t88.5 -14.5q76 0 135.5 36t94.5 98.5t35 140.5q0 55 -17.5 102.5t-49.5 83.5l69 77h-66l-38 -43q-33 26 -74.5 40.5t-88.5 14.5q-75 0 -135 -36t-95 -98t-35 -141q0 -55 17.5 -102t48.5 -84zM114 263q0 66 28.5 118.5t78 83t110.5 30.5
q38 0 71.5 -12t60.5 -34l-299 -336q-24 30 -37 68.5t-13 81.5zM331 31q-38 0 -71.5 12.5t-61.5 34.5l300 336q24 -30 37 -68.5t13 -82.5q0 -66 -29 -118.5t-78 -83t-110 -30.5z" />
    <glyph glyph-name="ugrave" unicode="&#xf9;" 
d="M275 -12q55 0 97.5 24.5t64.5 64.5v-77h45v526h-45v-320q0 -48 -18 -88t-53.5 -63.5t-86.5 -23.5q-42 0 -78 17.5t-57.5 52.5t-21.5 85v340h-45v-340q0 -64 28 -108t73 -67t97 -23zM263 640h45l-92 150h-61z" />
    <glyph glyph-name="uacute" unicode="&#xfa;" 
d="M275 -12q55 0 97.5 24.5t64.5 64.5v-77h45v526h-45v-320q0 -48 -18 -88t-53.5 -63.5t-86.5 -23.5q-42 0 -78 17.5t-57.5 52.5t-21.5 85v340h-45v-340q0 -64 28 -108t73 -67t97 -23zM262 640h45l108 150h-61z" />
    <glyph glyph-name="ucircumflex" unicode="&#xfb;" 
d="M275 -12q55 0 97.5 24.5t64.5 64.5v-77h45v526h-45v-320q0 -48 -18 -88t-53.5 -63.5t-86.5 -23.5q-42 0 -78 17.5t-57.5 52.5t-21.5 85v340h-45v-340q0 -64 28 -108t73 -67t97 -23zM138 640h51l96 114l96 -114h51l-126 150h-43z" />
    <glyph glyph-name="udieresis" unicode="&#xfc;" 
d="M275 -12q55 0 97.5 24.5t64.5 64.5v-77h45v526h-45v-320q0 -48 -18 -88t-53.5 -63.5t-86.5 -23.5q-42 0 -78 17.5t-57.5 52.5t-21.5 85v340h-45v-340q0 -64 28 -108t73 -67t97 -23zM175 640h70v75h-70v-75zM325 640h70v75h-70v-75z" />
    <glyph glyph-name="yacute" unicode="&#xfd;" horiz-adv-x="529" 
d="M81 -220q51 0 85.5 23.5t56 56t32.5 59.5l252 607h-52l-189 -462l-187 462h-51l212 -524l-33 -78q-21 -49 -50.5 -74.5t-78.5 -26.5q-11 0 -26.5 1.5t-29.5 5.5v-41q15 -5 31 -7t28 -2zM242 640h45l108 150h-61z" />
    <glyph glyph-name="thorn" unicode="&#xfe;" horiz-adv-x="674" 
d="M88 -200h45v315q31 -58 88 -92.5t128 -34.5q74 0 132.5 36.5t92.5 98.5t34 140t-34 140.5t-92.5 98.5t-132.5 36q-71 0 -128 -34.5t-88 -92.5v334h-45v-945zM349 33q-60 0 -108.5 30t-76.5 82t-28 118q0 67 28 118.5t76.5 81.5t108.5 30q61 0 108.5 -30t75 -82t27.5 -118
t-27.5 -118t-75 -82t-108.5 -30z" />
    <glyph glyph-name="ydieresis" unicode="&#xff;" horiz-adv-x="529" 
d="M81 -220q51 0 85.5 23.5t56 56t32.5 59.5l252 607h-52l-189 -462l-187 462h-51l212 -524l-33 -78q-21 -49 -50.5 -74.5t-78.5 -26.5q-11 0 -26.5 1.5t-29.5 5.5v-41q15 -5 31 -7t28 -2zM155 640h70v75h-70v-75zM305 640h70v75h-70v-75z" />
    <glyph glyph-name="Amacron" unicode="&#x100;" horiz-adv-x="644" 
d="M22 0h55l72 197h346l72 -197h55l-276 745h-48zM165 242l157 429l157 -429h-314zM197 879h250v40h-250v-40z" />
    <glyph glyph-name="amacron" unicode="&#x101;" horiz-adv-x="574" 
d="M237 -12q49 0 89.5 16.5t70 43.5t44.5 58v-106h45v365q0 51 -24.5 90t-68 61t-100.5 22q-47 0 -87 -16t-69.5 -41.5t-44.5 -55.5l40 -21q24 41 67 66t94 25q67 0 107.5 -35.5t40.5 -94.5v-32l-204 -34q-63 -10 -100.5 -35t-54 -58.5t-16.5 -69.5q0 -44 23 -77.5t61.5 -52
t86.5 -18.5zM112 138q0 42 31 75t109 46l189 31v-52q0 -55 -25 -102.5t-69.5 -76.5t-105.5 -29q-55 0 -92 29t-37 79zM168 660h250v40h-250v-40z" />
    <glyph glyph-name="Abreve" unicode="&#x102;" horiz-adv-x="644" 
d="M22 0h55l72 197h346l72 -197h55l-276 745h-48zM165 242l157 429l157 -429h-314zM322 859q65 0 101 39.5t36 100.5h-46q0 -44 -23.5 -72t-67.5 -28t-67.5 28t-23.5 72h-46q0 -61 36.5 -100.5t100.5 -39.5z" />
    <glyph glyph-name="abreve" unicode="&#x103;" horiz-adv-x="574" 
d="M237 -12q49 0 89.5 16.5t70 43.5t44.5 58v-106h45v365q0 51 -24.5 90t-68 61t-100.5 22q-47 0 -87 -16t-69.5 -41.5t-44.5 -55.5l40 -21q24 41 67 66t94 25q67 0 107.5 -35.5t40.5 -94.5v-32l-204 -34q-63 -10 -100.5 -35t-54 -58.5t-16.5 -69.5q0 -44 23 -77.5t61.5 -52
t86.5 -18.5zM112 138q0 42 31 75t109 46l189 31v-52q0 -55 -25 -102.5t-69.5 -76.5t-105.5 -29q-55 0 -92 29t-37 79zM293 640q65 0 101 39.5t36 100.5h-46q0 -44 -23.5 -72t-67.5 -28t-67.5 28t-23.5 72h-46q0 -61 36.5 -100.5t100.5 -39.5z" />
    <glyph glyph-name="Aogonek" unicode="&#x104;" horiz-adv-x="644" 
d="M22 0h55l72 197h346l72 -197h55l-276 745h-48zM165 242l157 429l157 -429h-314zM556 -220q59 0 96 39l-15 32q-16 -17 -37.5 -26.5t-41.5 -9.5q-54 0 -54 56q0 29 15 54.5t38 45t47 29.5v15h-17q-31 -6 -60 -28t-47.5 -53.5t-18.5 -69.5q0 -40 28 -62t67 -22z" />
    <glyph glyph-name="aogonek" unicode="&#x105;" horiz-adv-x="574" 
d="M237 -12q49 0 89.5 16.5t70 43.5t44.5 58v-106h45v365q0 51 -24.5 90t-68 61t-100.5 22q-47 0 -87 -16t-69.5 -41.5t-44.5 -55.5l40 -21q24 41 67 66t94 25q67 0 107.5 -35.5t40.5 -94.5v-32l-204 -34q-63 -10 -100.5 -35t-54 -58.5t-16.5 -69.5q0 -44 23 -77.5t61.5 -52
t86.5 -18.5zM112 138q0 42 31 75t109 46l189 31v-52q0 -55 -25 -102.5t-69.5 -76.5t-105.5 -29q-55 0 -92 29t-37 79zM425 -220q59 0 96 39l-15 32q-16 -17 -37.5 -26.5t-41.5 -9.5q-54 0 -54 56q0 29 15 54.5t38 45t47 29.5v15h-17q-31 -6 -60 -28t-47.5 -53.5t-18.5 -69.5
q0 -40 28 -62t67 -22z" />
    <glyph glyph-name="Cacute" unicode="&#x106;" horiz-adv-x="788" 
d="M430 -12q74 0 133 27.5t100 69t59 84.5l-47 21q-33 -70 -96.5 -112t-148.5 -42q-89 0 -157.5 42.5t-107 118.5t-38.5 176t38.5 175.5t107 118t157.5 42.5q85 0 148.5 -42t96.5 -112l47 21q-18 43 -59 84.5t-100 69t-133 27.5q-76 0 -140 -28.5t-112 -80t-74.5 -122
t-26.5 -153.5q0 -84 26.5 -154t74.5 -122t112 -80.5t140 -28.5zM407 859h45l108 150h-61z" />
    <glyph glyph-name="cacute" unicode="&#x107;" horiz-adv-x="607" 
d="M328 -12q73 0 129.5 36t83.5 89l-38 20q-28 -49 -73 -76t-102 -27q-61 0 -110 29t-78 81.5t-29 122.5t29 122.5t78 81.5t110 29q57 0 102 -26.5t73 -76.5l38 21q-27 53 -83.5 88.5t-129.5 35.5t-132.5 -36t-94.5 -98t-35 -141q0 -78 35 -140.5t94.5 -98.5t132.5 -36z
M305 640h45l108 150h-61z" />
    <glyph glyph-name="Ccircumflex" unicode="&#x108;" horiz-adv-x="788" 
d="M430 -12q74 0 133 27.5t100 69t59 84.5l-47 21q-33 -70 -96.5 -112t-148.5 -42q-89 0 -157.5 42.5t-107 118.5t-38.5 176t38.5 175.5t107 118t157.5 42.5q85 0 148.5 -42t96.5 -112l47 21q-18 43 -59 84.5t-100 69t-133 27.5q-76 0 -140 -28.5t-112 -80t-74.5 -122
t-26.5 -153.5q0 -84 26.5 -154t74.5 -122t112 -80.5t140 -28.5zM283 859h51l96 114l96 -114h51l-126 150h-43z" />
    <glyph glyph-name="ccircumflex" unicode="&#x109;" horiz-adv-x="607" 
d="M328 -12q73 0 129.5 36t83.5 89l-38 20q-28 -49 -73 -76t-102 -27q-61 0 -110 29t-78 81.5t-29 122.5t29 122.5t78 81.5t110 29q57 0 102 -26.5t73 -76.5l38 21q-27 53 -83.5 88.5t-129.5 35.5t-132.5 -36t-94.5 -98t-35 -141q0 -78 35 -140.5t94.5 -98.5t132.5 -36z
M181 640h51l96 114l96 -114h51l-126 150h-43z" />
    <glyph glyph-name="Cdotaccent" unicode="&#x10a;" horiz-adv-x="788" 
d="M430 -12q74 0 133 27.5t100 69t59 84.5l-47 21q-33 -70 -96.5 -112t-148.5 -42q-89 0 -157.5 42.5t-107 118.5t-38.5 176t38.5 175.5t107 118t157.5 42.5q85 0 148.5 -42t96.5 -112l47 21q-18 43 -59 84.5t-100 69t-133 27.5q-76 0 -140 -28.5t-112 -80t-74.5 -122
t-26.5 -153.5q0 -84 26.5 -154t74.5 -122t112 -80.5t140 -28.5zM395 859h70v75h-70v-75z" />
    <glyph glyph-name="cdotaccent" unicode="&#x10b;" horiz-adv-x="607" 
d="M328 -12q73 0 129.5 36t83.5 89l-38 20q-28 -49 -73 -76t-102 -27q-61 0 -110 29t-78 81.5t-29 122.5t29 122.5t78 81.5t110 29q57 0 102 -26.5t73 -76.5l38 21q-27 53 -83.5 88.5t-129.5 35.5t-132.5 -36t-94.5 -98t-35 -141q0 -78 35 -140.5t94.5 -98.5t132.5 -36z
M293 640h70v75h-70v-75z" />
    <glyph glyph-name="Ccaron" unicode="&#x10c;" horiz-adv-x="788" 
d="M430 -12q74 0 133 27.5t100 69t59 84.5l-47 21q-33 -70 -96.5 -112t-148.5 -42q-89 0 -157.5 42.5t-107 118.5t-38.5 176t38.5 175.5t107 118t157.5 42.5q85 0 148.5 -42t96.5 -112l47 21q-18 43 -59 84.5t-100 69t-133 27.5q-76 0 -140 -28.5t-112 -80t-74.5 -122
t-26.5 -153.5q0 -84 26.5 -154t74.5 -122t112 -80.5t140 -28.5zM408 859h43l126 150h-51l-96 -114l-96 114h-51z" />
    <glyph glyph-name="ccaron" unicode="&#x10d;" horiz-adv-x="607" 
d="M328 -12q73 0 129.5 36t83.5 89l-38 20q-28 -49 -73 -76t-102 -27q-61 0 -110 29t-78 81.5t-29 122.5t29 122.5t78 81.5t110 29q57 0 102 -26.5t73 -76.5l38 21q-27 53 -83.5 88.5t-129.5 35.5t-132.5 -36t-94.5 -98t-35 -141q0 -78 35 -140.5t94.5 -98.5t132.5 -36z
M306 640h43l126 150h-51l-96 -114l-96 114h-51z" />
    <glyph glyph-name="Dcaron" unicode="&#x10e;" horiz-adv-x="744" 
d="M99 0h238q108 0 187 46t122 130t43 197q0 114 -43 197.5t-122 129t-187 45.5h-238v-745zM149 45v655h186q91 0 159.5 -41t106.5 -114.5t38 -171.5t-38 -172t-106.5 -115t-159.5 -41h-186zM361 859h43l126 150h-51l-96 -114l-96 114h-51z" />
    <glyph glyph-name="dcaron" unicode="&#x10f;" horiz-adv-x="773" 
d="M325 -12q71 0 128 34.5t88 92.5v-115h45v757h-45v-346q-31 58 -88 92.5t-128 34.5q-73 0 -132 -36t-93 -98.5t-34 -140.5t34 -140t93 -98.5t132 -36.5zM325 33q-61 0 -108.5 30t-75 82t-27.5 118t27.5 118t75 82t108.5 30t109 -30t76 -81.5t28 -118.5q0 -66 -28 -118
t-76 -82t-109 -30zM674 600h41l14 157h-55v-157z" />
    <glyph glyph-name="Dcroat" unicode="&#x110;" horiz-adv-x="744" 
d="M99 0h238q108 0 187 46t122 130t43 197q0 114 -43 197.5t-122 129t-187 45.5h-238v-350h-70v-45h70v-350zM149 45v305h170v45h-170v305h186q91 0 159.5 -41t106.5 -114.5t38 -171.5t-38 -172t-106.5 -115t-159.5 -41h-186z" />
    <glyph glyph-name="dcroat" unicode="&#x111;" horiz-adv-x="674" 
d="M325 -12q71 0 128 34.5t88 92.5v-115h45v620h108v40h-108v97h-45v-97h-107v-40h107v-209q-31 58 -88 92.5t-128 34.5q-73 0 -132 -36t-93 -98.5t-34 -140.5t34 -140t93 -98.5t132 -36.5zM325 33q-61 0 -108.5 30t-75 82t-27.5 118t27.5 118t75 82t108.5 30t109 -30
t76 -81.5t28 -118.5q0 -66 -28 -118t-76 -82t-109 -30z" />
    <glyph glyph-name="Emacron" unicode="&#x112;" horiz-adv-x="614" 
d="M99 0h460v45h-410v306h390v45h-390v304h410v45h-460v-745zM204 879h250v40h-250v-40z" />
    <glyph glyph-name="emacron" unicode="&#x113;" horiz-adv-x="627" 
d="M331 -12q71 0 128.5 33.5t86.5 91.5l-38 20q-28 -49 -74 -76t-103 -27q-61 0 -109.5 28.5t-77.5 78t-33 112.5h447q3 23 3 39q0 71 -31.5 127.5t-85.5 89.5t-123 33q-72 0 -129.5 -36t-91.5 -98.5t-34 -140.5q0 -77 35 -139.5t95 -99t135 -36.5zM321 496q55 0 98.5 -27.5
t69.5 -74t26 -105.5h-403q6 59 34.5 106t74 74t100.5 27zM189 660h250v40h-250v-40z" />
    <glyph glyph-name="Ebreve" unicode="&#x114;" horiz-adv-x="614" 
d="M99 0h460v45h-410v306h390v45h-390v304h410v45h-460v-745zM329 859q65 0 101 39.5t36 100.5h-46q0 -44 -23.5 -72t-67.5 -28t-67.5 28t-23.5 72h-46q0 -61 36.5 -100.5t100.5 -39.5z" />
    <glyph glyph-name="ebreve" unicode="&#x115;" horiz-adv-x="627" 
d="M331 -12q71 0 128.5 33.5t86.5 91.5l-38 20q-28 -49 -74 -76t-103 -27q-61 0 -109.5 28.5t-77.5 78t-33 112.5h447q3 23 3 39q0 71 -31.5 127.5t-85.5 89.5t-123 33q-72 0 -129.5 -36t-91.5 -98.5t-34 -140.5q0 -77 35 -139.5t95 -99t135 -36.5zM321 496q55 0 98.5 -27.5
t69.5 -74t26 -105.5h-403q6 59 34.5 106t74 74t100.5 27zM314 640q65 0 101 39.5t36 100.5h-46q0 -44 -23.5 -72t-67.5 -28t-67.5 28t-23.5 72h-46q0 -61 36.5 -100.5t100.5 -39.5z" />
    <glyph glyph-name="Edotaccent" unicode="&#x116;" horiz-adv-x="614" 
d="M99 0h460v45h-410v306h390v45h-390v304h410v45h-460v-745zM294 859h70v75h-70v-75z" />
    <glyph glyph-name="edotaccent" unicode="&#x117;" horiz-adv-x="627" 
d="M331 -12q71 0 128.5 33.5t86.5 91.5l-38 20q-28 -49 -74 -76t-103 -27q-61 0 -109.5 28.5t-77.5 78t-33 112.5h447q3 23 3 39q0 71 -31.5 127.5t-85.5 89.5t-123 33q-72 0 -129.5 -36t-91.5 -98.5t-34 -140.5q0 -77 35 -139.5t95 -99t135 -36.5zM321 496q55 0 98.5 -27.5
t69.5 -74t26 -105.5h-403q6 59 34.5 106t74 74t100.5 27zM279 640h70v75h-70v-75z" />
    <glyph glyph-name="Eogonek" unicode="&#x118;" horiz-adv-x="614" 
d="M99 0h460v45h-410v306h390v45h-390v304h410v45h-460v-745zM420 -220q59 0 96 39l-15 32q-16 -17 -37.5 -26.5t-41.5 -9.5q-54 0 -54 56q0 29 15 54.5t38 45t47 29.5v15h-17q-31 -6 -60 -28t-47.5 -53.5t-18.5 -69.5q0 -40 28 -62t67 -22z" />
    <glyph glyph-name="eogonek" unicode="&#x119;" horiz-adv-x="627" 
d="M331 -12q71 0 128.5 33.5t86.5 91.5l-38 20q-28 -49 -74 -76t-103 -27q-61 0 -109.5 28.5t-77.5 78t-33 112.5h447q3 23 3 39q0 71 -31.5 127.5t-85.5 89.5t-123 33q-72 0 -129.5 -36t-91.5 -98.5t-34 -140.5q0 -77 35 -139.5t95 -99t135 -36.5zM321 496q55 0 98.5 -27.5
t69.5 -74t26 -105.5h-403q6 59 34.5 106t74 74t100.5 27zM292 -220q59 0 96 39l-15 32q-16 -17 -37.5 -26.5t-41.5 -9.5q-54 0 -54 56q0 29 15 54.5t38 45t47 29.5v15h-17q-31 -6 -60 -28t-47.5 -53.5t-18.5 -69.5q0 -40 28 -62t67 -22z" />
    <glyph glyph-name="Ecaron" unicode="&#x11a;" horiz-adv-x="614" 
d="M99 0h460v45h-410v306h390v45h-390v304h410v45h-460v-745zM307 859h43l126 150h-51l-96 -114l-96 114h-51z" />
    <glyph glyph-name="ecaron" unicode="&#x11b;" horiz-adv-x="627" 
d="M331 -12q71 0 128.5 33.5t86.5 91.5l-38 20q-28 -49 -74 -76t-103 -27q-61 0 -109.5 28.5t-77.5 78t-33 112.5h447q3 23 3 39q0 71 -31.5 127.5t-85.5 89.5t-123 33q-72 0 -129.5 -36t-91.5 -98.5t-34 -140.5q0 -77 35 -139.5t95 -99t135 -36.5zM321 496q55 0 98.5 -27.5
t69.5 -74t26 -105.5h-403q6 59 34.5 106t74 74t100.5 27zM292 640h43l126 150h-51l-96 -114l-96 114h-51z" />
    <glyph glyph-name="Gcircumflex" unicode="&#x11c;" horiz-adv-x="834" 
d="M433 -12q74 0 135 26t105.5 72t69 106t24.5 127v49h-333v-45h283v-4q0 -81 -37 -145t-101 -101t-146 -37q-89 0 -158 42t-108.5 118t-39.5 176t39.5 176t109 118.5t158.5 42.5q90 0 154.5 -42t97.5 -112l47 21q-18 43 -59 84.5t-102 69t-138 27.5q-78 0 -143 -28.5
t-113 -80.5t-74.5 -122t-26.5 -154t26 -154t74 -121.5t113 -80t143 -28.5zM270 859h51l96 114l96 -114h51l-126 150h-43z" />
    <glyph glyph-name="gcircumflex" unicode="&#x11d;" horiz-adv-x="664" 
d="M331 -220q72 0 127 30.5t86.5 84.5t31.5 123v508h-45v-112q-31 57 -86 90.5t-125 33.5q-73 0 -130.5 -36t-90.5 -96t-33 -133t33 -133t90.5 -96t130.5 -36q70 0 125 33.5t86 90.5v-114q0 -68 -29.5 -111.5t-75 -64t-95.5 -20.5q-60 0 -108 28t-77 77l-38 -22
q29 -53 88 -89t135 -36zM320 53q-61 0 -107.5 29.5t-72.5 79.5t-26 111t26 111t72.5 79.5t107.5 29.5t107.5 -29.5t73.5 -79t27 -111.5q0 -61 -27 -111t-73.5 -79.5t-107.5 -29.5zM185 640h51l96 114l96 -114h51l-126 150h-43z" />
    <glyph glyph-name="Gbreve" unicode="&#x11e;" horiz-adv-x="834" 
d="M433 -12q74 0 135 26t105.5 72t69 106t24.5 127v49h-333v-45h283v-4q0 -81 -37 -145t-101 -101t-146 -37q-89 0 -158 42t-108.5 118t-39.5 176t39.5 176t109 118.5t158.5 42.5q90 0 154.5 -42t97.5 -112l47 21q-18 43 -59 84.5t-102 69t-138 27.5q-78 0 -143 -28.5
t-113 -80.5t-74.5 -122t-26.5 -154t26 -154t74 -121.5t113 -80t143 -28.5zM417 859q65 0 101 39.5t36 100.5h-46q0 -44 -23.5 -72t-67.5 -28t-67.5 28t-23.5 72h-46q0 -61 36.5 -100.5t100.5 -39.5z" />
    <glyph glyph-name="gbreve" unicode="&#x11f;" horiz-adv-x="664" 
d="M331 -220q72 0 127 30.5t86.5 84.5t31.5 123v508h-45v-112q-31 57 -86 90.5t-125 33.5q-73 0 -130.5 -36t-90.5 -96t-33 -133t33 -133t90.5 -96t130.5 -36q70 0 125 33.5t86 90.5v-114q0 -68 -29.5 -111.5t-75 -64t-95.5 -20.5q-60 0 -108 28t-77 77l-38 -22
q29 -53 88 -89t135 -36zM320 53q-61 0 -107.5 29.5t-72.5 79.5t-26 111t26 111t72.5 79.5t107.5 29.5t107.5 -29.5t73.5 -79t27 -111.5q0 -61 -27 -111t-73.5 -79.5t-107.5 -29.5zM332 640q65 0 101 39.5t36 100.5h-46q0 -44 -23.5 -72t-67.5 -28t-67.5 28t-23.5 72h-46
q0 -61 36.5 -100.5t100.5 -39.5z" />
    <glyph glyph-name="Gdotaccent" unicode="&#x120;" horiz-adv-x="834" 
d="M433 -12q74 0 135 26t105.5 72t69 106t24.5 127v49h-333v-45h283v-4q0 -81 -37 -145t-101 -101t-146 -37q-89 0 -158 42t-108.5 118t-39.5 176t39.5 176t109 118.5t158.5 42.5q90 0 154.5 -42t97.5 -112l47 21q-18 43 -59 84.5t-102 69t-138 27.5q-78 0 -143 -28.5
t-113 -80.5t-74.5 -122t-26.5 -154t26 -154t74 -121.5t113 -80t143 -28.5zM382 859h70v75h-70v-75z" />
    <glyph glyph-name="gdotaccent" unicode="&#x121;" horiz-adv-x="664" 
d="M331 -220q72 0 127 30.5t86.5 84.5t31.5 123v508h-45v-112q-31 57 -86 90.5t-125 33.5q-73 0 -130.5 -36t-90.5 -96t-33 -133t33 -133t90.5 -96t130.5 -36q70 0 125 33.5t86 90.5v-114q0 -68 -29.5 -111.5t-75 -64t-95.5 -20.5q-60 0 -108 28t-77 77l-38 -22
q29 -53 88 -89t135 -36zM320 53q-61 0 -107.5 29.5t-72.5 79.5t-26 111t26 111t72.5 79.5t107.5 29.5t107.5 -29.5t73.5 -79t27 -111.5q0 -61 -27 -111t-73.5 -79.5t-107.5 -29.5zM297 640h70v75h-70v-75z" />
    <glyph glyph-name="uni0122" unicode="&#x122;" horiz-adv-x="834" 
d="M433 -12q74 0 135 26t105.5 72t69 106t24.5 127v49h-333v-45h283v-4q0 -81 -37 -145t-101 -101t-146 -37q-89 0 -158 42t-108.5 118t-39.5 176t39.5 176t109 118.5t158.5 42.5q90 0 154.5 -42t97.5 -112l47 21q-18 43 -59 84.5t-102 69t-138 27.5q-78 0 -143 -28.5
t-113 -80.5t-74.5 -122t-26.5 -154t26 -154t74 -121.5t113 -80t143 -28.5zM347 -233h35l58 163h-45z" />
    <glyph glyph-name="uni0123" unicode="&#x123;" horiz-adv-x="664" 
d="M331 -220q72 0 127 30.5t86.5 84.5t31.5 123v508h-45v-112q-31 57 -86 90.5t-125 33.5q-73 0 -130.5 -36t-90.5 -96t-33 -133t33 -133t90.5 -96t130.5 -36q70 0 125 33.5t86 90.5v-114q0 -68 -29.5 -111.5t-75 -64t-95.5 -20.5q-60 0 -108 28t-77 77l-38 -22
q29 -53 88 -89t135 -36zM320 53q-61 0 -107.5 29.5t-72.5 79.5t-26 111t26 111t72.5 79.5t107.5 29.5t107.5 -29.5t73.5 -79t27 -111.5q0 -61 -27 -111t-73.5 -79.5t-107.5 -29.5zM309 611h45l48 163h-35z" />
    <glyph glyph-name="Hcircumflex" unicode="&#x124;" horiz-adv-x="738" 
d="M99 0h50v357h440v-357h50v745h-50v-343h-440v343h-50v-745zM222 859h51l96 114l96 -114h51l-126 150h-43z" />
    <glyph glyph-name="hcircumflex" unicode="&#x125;" 
d="M88 0h45v320q0 49 18.5 88.5t54 63t85.5 23.5q44 0 79.5 -19t56.5 -53.5t21 -82.5v-340h45v345q0 58 -27.5 101.5t-72.5 67.5t-98 24q-54 0 -97 -24.5t-65 -64.5v308h-45v-757zM-36 859h51l96 114l96 -114h51l-126 150h-43z" />
    <glyph glyph-name="Hbar" unicode="&#x126;" horiz-adv-x="738" 
d="M99 0h50v357h440v-357h50v573h96v45h-96v127h-50v-127h-440v127h-50v-127h-96v-45h96v-573zM149 402v171h440v-171h-440z" />
    <glyph glyph-name="hbar" unicode="&#x127;" 
d="M88 0h45v320q0 49 18.5 88.5t54 63t85.5 23.5q44 0 79.5 -19t56.5 -53.5t21 -82.5v-340h45v345q0 58 -27.5 101.5t-72.5 67.5t-98 24q-54 0 -97 -24.5t-65 -64.5v171h108v40h-108v97h-45v-97h-107v-40h107v-620z" />
    <glyph glyph-name="Itilde" unicode="&#x128;" horiz-adv-x="248" 
d="M99 0h50v745h-50v-745zM181 859q41 0 63 30t22 76h-40q0 -67 -43 -67q-17 0 -28.5 10.5t-23 25t-26.5 25t-40 10.5q-40 0 -61.5 -29t-21.5 -77h40q0 35 10.5 51t29.5 16q16 0 27 -10.5t22.5 -25t28 -25t41.5 -10.5z" />
    <glyph glyph-name="itilde" unicode="&#x129;" horiz-adv-x="185" 
d="M70 0h45v526h-45v-526zM149 640q41 0 63 30t22 76h-40q0 -67 -43 -67q-17 0 -28.5 10.5t-23 25t-26.5 25t-40 10.5q-40 0 -61.5 -29t-21.5 -77h40q0 35 10.5 51t29.5 16q16 0 27 -10.5t22.5 -25t28 -25t41.5 -10.5z" />
    <glyph glyph-name="Imacron" unicode="&#x12a;" horiz-adv-x="248" 
d="M99 0h50v745h-50v-745zM-1 879h250v40h-250v-40z" />
    <glyph glyph-name="imacron" unicode="&#x12b;" horiz-adv-x="185" 
d="M70 0h45v526h-45v-526zM-33 660h250v40h-250v-40z" />
    <glyph glyph-name="Ibreve" unicode="&#x12c;" horiz-adv-x="248" 
d="M99 0h50v745h-50v-745zM124 859q65 0 101 39.5t36 100.5h-46q0 -44 -23.5 -72t-67.5 -28t-67.5 28t-23.5 72h-46q0 -61 36.5 -100.5t100.5 -39.5z" />
    <glyph glyph-name="ibreve" unicode="&#x12d;" horiz-adv-x="185" 
d="M70 0h45v526h-45v-526zM92 640q65 0 101 39.5t36 100.5h-46q0 -44 -23.5 -72t-67.5 -28t-67.5 28t-23.5 72h-46q0 -61 36.5 -100.5t100.5 -39.5z" />
    <glyph glyph-name="Iogonek" unicode="&#x12e;" horiz-adv-x="248" 
d="M99 0h50v745h-50v-745zM90 -220q59 0 96 39l-15 32q-16 -17 -37.5 -26.5t-41.5 -9.5q-54 0 -54 56q0 29 15 54.5t38 45t47 29.5v15h-17q-31 -6 -60 -28t-47.5 -53.5t-18.5 -69.5q0 -40 28 -62t67 -22z" />
    <glyph glyph-name="iogonek" unicode="&#x12f;" horiz-adv-x="185" 
d="M70 0h45v526h-45v-526zM57 640h70v75h-70v-75zM64 -220q59 0 96 39l-15 32q-16 -17 -37.5 -26.5t-41.5 -9.5q-54 0 -54 56q0 29 15 54.5t38 45t47 29.5v15h-17q-31 -6 -60 -28t-47.5 -53.5t-18.5 -69.5q0 -40 28 -62t67 -22z" />
    <glyph glyph-name="Idotaccent" unicode="&#x130;" horiz-adv-x="248" 
d="M99 0h50v745h-50v-745zM89 859h70v75h-70v-75z" />
    <glyph glyph-name="dotlessi" unicode="&#x131;" horiz-adv-x="185" 
d="M70 0h45v526h-45v-526z" />
    <glyph glyph-name="Jcircumflex" unicode="&#x134;" horiz-adv-x="381" 
d="M66 0h38q81 0 129.5 51t48.5 140v554h-50v-551q0 -71 -34 -107.5t-94 -36.5h-38v-50zM110 859h51l96 114l96 -114h51l-126 150h-43z" />
    <glyph glyph-name="jcircumflex" unicode="&#x135;" horiz-adv-x="221" 
d="M-18 -220q68 0 109.5 40.5t41.5 117.5v588h-45v-588q0 -56 -28.5 -85.5t-80.5 -29.5q-19 0 -36 3v-41q17 -5 39 -5zM-36 640h51l96 114l96 -114h51l-126 150h-43z" />
    <glyph glyph-name="uni0136" unicode="&#x136;" horiz-adv-x="651" 
d="M99 0h50v241l134 149l284 -390h62l-311 426l288 319h-67l-390 -430v430h-50v-745zM256 -233h35l58 163h-45z" />
    <glyph glyph-name="uni0137" unicode="&#x137;" horiz-adv-x="540" 
d="M88 0h45v170l110 112l215 -282h60l-238 313l218 213h-68l-297 -292v523h-45v-757zM200 -233h35l58 163h-45z" />
    <glyph glyph-name="kgreenlandic" unicode="&#x138;" horiz-adv-x="540" 
d="M88 0h45v266h135l194 -266h56l-206 289l166 237h-58l-154 -220h-133v220h-45v-526z" />
    <glyph glyph-name="Lacute" unicode="&#x139;" horiz-adv-x="533" 
d="M99 0h390v45h-340v700h-50v-745zM101 859h45l108 150h-61z" />
    <glyph glyph-name="lacute" unicode="&#x13a;" horiz-adv-x="221" 
d="M88 0h45v757h-45v-757zM88 859h45l108 150h-61z" />
    <glyph glyph-name="uni013B" unicode="&#x13b;" horiz-adv-x="533" 
d="M99 0h390v45h-340v700h-50v-745zM224 -233h35l58 163h-45z" />
    <glyph glyph-name="uni013C" unicode="&#x13c;" horiz-adv-x="221" 
d="M88 0h45v757h-45v-757zM41 -233h35l58 163h-45z" />
    <glyph glyph-name="Lcaron" unicode="&#x13d;" horiz-adv-x="533" 
d="M99 0h390v45h-340v700h-50v-745zM319 600h41l14 157h-55v-157z" />
    <glyph glyph-name="lcaron" unicode="&#x13e;" horiz-adv-x="320" 
d="M88 0h45v757h-45v-757zM221 600h41l14 157h-55v-157z" />
    <glyph glyph-name="Ldot" unicode="&#x13f;" horiz-adv-x="533" 
d="M99 0h390v45h-340v700h-50v-745zM319 332q16 0 28 11.5t12 28.5t-12 28.5t-28 11.5t-28 -11.5t-12 -28.5t12 -28.5t28 -11.5z" />
    <glyph glyph-name="ldot" unicode="&#x140;" horiz-adv-x="355" 
d="M88 0h45v757h-45v-757zM271 332q16 0 28 11.5t12 28.5t-12 28.5t-28 11.5t-28 -11.5t-12 -28.5t12 -28.5t28 -11.5z" />
    <glyph glyph-name="Lslash" unicode="&#x141;" horiz-adv-x="601" 
d="M167 0h390v45h-340v318l116 82v55l-116 -82v327h-50v-362l-117 -83v-55l117 83v-328z" />
    <glyph glyph-name="lslash" unicode="&#x142;" horiz-adv-x="294" 
d="M124 0h45v379l81 57v55l-81 -57v323h-45v-354l-80 -56v-55l80 56v-348z" />
    <glyph glyph-name="Nacute" unicode="&#x143;" horiz-adv-x="738" 
d="M99 0h50v644l450 -644h40v745h-50v-644l-450 644h-40v-745zM346 859h45l108 150h-61z" />
    <glyph glyph-name="nacute" unicode="&#x144;" 
d="M88 0h45v320q0 49 18.5 88.5t54 63t85.5 23.5q44 0 79.5 -19t56.5 -53.5t21 -82.5v-340h45v345q0 58 -27.5 101.5t-72.5 67.5t-98 24q-54 0 -97 -24.5t-65 -64.5v77h-45v-526zM262 640h45l108 150h-61z" />
    <glyph glyph-name="uni0145" unicode="&#x145;" horiz-adv-x="738" 
d="M99 0h50v644l450 -644h40v745h-50v-644l-450 644h-40v-745zM299 -233h35l58 163h-45z" />
    <glyph glyph-name="uni0146" unicode="&#x146;" 
d="M88 0h45v320q0 49 18.5 88.5t54 63t85.5 23.5q44 0 79.5 -19t56.5 -53.5t21 -82.5v-340h45v345q0 58 -27.5 101.5t-72.5 67.5t-98 24q-54 0 -97 -24.5t-65 -64.5v77h-45v-526zM215 -233h35l58 163h-45z" />
    <glyph glyph-name="Ncaron" unicode="&#x147;" horiz-adv-x="738" 
d="M99 0h50v644l450 -644h40v745h-50v-644l-450 644h-40v-745zM347 859h43l126 150h-51l-96 -114l-96 114h-51z" />
    <glyph glyph-name="ncaron" unicode="&#x148;" 
d="M88 0h45v320q0 49 18.5 88.5t54 63t85.5 23.5q44 0 79.5 -19t56.5 -53.5t21 -82.5v-340h45v345q0 58 -27.5 101.5t-72.5 67.5t-98 24q-54 0 -97 -24.5t-65 -64.5v77h-45v-526zM263 640h43l126 150h-51l-96 -114l-96 114h-51z" />
    <glyph glyph-name="Eng" unicode="&#x14a;" horiz-adv-x="738" 
d="M483 -220q68 0 112 40.5t44 117.5v807h-50v-644l-450 644h-40v-745h50v644l440 -630v-76q0 -56 -28.5 -84.5t-80.5 -28.5q-19 0 -36 3v-43q17 -5 39 -5z" />
    <glyph glyph-name="eng" unicode="&#x14b;" horiz-adv-x="600" 
d="M331 -220q68 0 109.5 40.5t41.5 117.5v407q0 58 -27.5 101.5t-72.5 67.5t-98 24q-54 0 -97 -24.5t-65 -64.5v77h-45v-526h45v320q0 49 18.5 88.5t54 63t85.5 23.5q44 0 79.5 -19t56.5 -53.5t21 -82.5v-402q0 -56 -28.5 -85.5t-80.5 -29.5q-19 0 -36 3v-41q17 -5 39 -5z
" />
    <glyph glyph-name="Omacron" unicode="&#x14c;" horiz-adv-x="884" 
d="M442 -12q75 0 141.5 28t116.5 79.5t78.5 122t28.5 155.5q0 84 -28.5 154.5t-79 122t-116.5 79.5t-141 28t-141 -28t-116.5 -79.5t-79 -121.5t-28.5 -155t28.5 -155.5t78.5 -122t116.5 -79.5t141.5 -28zM442 36q-70 0 -128 26.5t-100 73.5t-64.5 108t-22.5 129
q0 67 22.5 127.5t64.5 107.5t100 74t128 27q71 0 129 -27t99.5 -74t64 -107.5t22.5 -127.5q0 -68 -22.5 -129t-64.5 -108t-100 -73.5t-128 -26.5zM317 879h250v40h-250v-40z" />
    <glyph glyph-name="omacron" unicode="&#x14d;" horiz-adv-x="662" 
d="M331 -12q76 0 135.5 36t94.5 98.5t35 140.5q0 79 -35 141t-94.5 98t-135.5 36q-75 0 -135 -36t-95 -98t-35 -141q0 -78 35 -140.5t95 -98.5t135 -36zM331 31q-61 0 -110 30.5t-78 83.5t-29 118q0 66 28.5 118.5t78 83t110.5 30.5q62 0 111 -30.5t77.5 -83t28.5 -118.5
q0 -65 -29 -118t-78 -83.5t-110 -30.5zM206 660h250v40h-250v-40z" />
    <glyph glyph-name="Obreve" unicode="&#x14e;" horiz-adv-x="884" 
d="M442 -12q75 0 141.5 28t116.5 79.5t78.5 122t28.5 155.5q0 84 -28.5 154.5t-79 122t-116.5 79.5t-141 28t-141 -28t-116.5 -79.5t-79 -121.5t-28.5 -155t28.5 -155.5t78.5 -122t116.5 -79.5t141.5 -28zM442 36q-70 0 -128 26.5t-100 73.5t-64.5 108t-22.5 129
q0 67 22.5 127.5t64.5 107.5t100 74t128 27q71 0 129 -27t99.5 -74t64 -107.5t22.5 -127.5q0 -68 -22.5 -129t-64.5 -108t-100 -73.5t-128 -26.5zM442 859q65 0 101 39.5t36 100.5h-46q0 -44 -23.5 -72t-67.5 -28t-67.5 28t-23.5 72h-46q0 -61 36.5 -100.5t100.5 -39.5z" />
    <glyph glyph-name="obreve" unicode="&#x14f;" horiz-adv-x="662" 
d="M331 -12q76 0 135.5 36t94.5 98.5t35 140.5q0 79 -35 141t-94.5 98t-135.5 36q-75 0 -135 -36t-95 -98t-35 -141q0 -78 35 -140.5t95 -98.5t135 -36zM331 31q-61 0 -110 30.5t-78 83.5t-29 118q0 66 28.5 118.5t78 83t110.5 30.5q62 0 111 -30.5t77.5 -83t28.5 -118.5
q0 -65 -29 -118t-78 -83.5t-110 -30.5zM331 640q65 0 101 39.5t36 100.5h-46q0 -44 -23.5 -72t-67.5 -28t-67.5 28t-23.5 72h-46q0 -61 36.5 -100.5t100.5 -39.5z" />
    <glyph glyph-name="Ohungarumlaut" unicode="&#x150;" horiz-adv-x="884" 
d="M442 -12q75 0 141.5 28t116.5 79.5t78.5 122t28.5 155.5q0 84 -28.5 154.5t-79 122t-116.5 79.5t-141 28t-141 -28t-116.5 -79.5t-79 -121.5t-28.5 -155t28.5 -155.5t78.5 -122t116.5 -79.5t141.5 -28zM442 36q-70 0 -128 26.5t-100 73.5t-64.5 108t-22.5 129
q0 67 22.5 127.5t64.5 107.5t100 74t128 27q71 0 129 -27t99.5 -74t64 -107.5t22.5 -127.5q0 -68 -22.5 -129t-64.5 -108t-100 -73.5t-128 -26.5zM349 859h45l68 150h-61zM490 859h45l68 150h-61z" />
    <glyph glyph-name="ohungarumlaut" unicode="&#x151;" horiz-adv-x="662" 
d="M331 -12q76 0 135.5 36t94.5 98.5t35 140.5q0 79 -35 141t-94.5 98t-135.5 36q-75 0 -135 -36t-95 -98t-35 -141q0 -78 35 -140.5t95 -98.5t135 -36zM331 31q-61 0 -110 30.5t-78 83.5t-29 118q0 66 28.5 118.5t78 83t110.5 30.5q62 0 111 -30.5t77.5 -83t28.5 -118.5
q0 -65 -29 -118t-78 -83.5t-110 -30.5zM238 640h45l68 150h-61zM379 640h45l68 150h-61z" />
    <glyph glyph-name="OE" unicode="&#x152;" horiz-adv-x="1278" 
d="M442 -12q103 0 188.5 52.5t132.5 143.5v-184h460v45h-410v306h390v45h-390v304h410v45h-460v-184q-47 91 -132.5 143.5t-188.5 52.5q-75 0 -141 -28t-116.5 -79.5t-79 -121.5t-28.5 -155t28.5 -155.5t78.5 -122t116.5 -79.5t141.5 -28zM442 36q-70 0 -128 26.5t-100 73.5
t-64.5 108t-22.5 129q0 67 22.5 127.5t64.5 107.5t100 74t128 27q71 0 129 -27t99.5 -74t64 -107.5t22.5 -127.5q0 -68 -22.5 -129t-64.5 -108t-100 -73.5t-128 -26.5z" />
    <glyph glyph-name="oe" unicode="&#x153;" horiz-adv-x="1113" 
d="M331 -12q84 0 148.5 44.5t94.5 117.5q31 -73 95 -117.5t148 -44.5q71 0 128.5 33.5t86.5 91.5l-38 20q-28 -49 -74 -76t-103 -27q-61 0 -109.5 28.5t-77.5 78t-33 112.5h447q3 23 3 39q0 71 -31.5 127.5t-85.5 89.5t-123 33q-79 0 -141.5 -44.5t-91.5 -117.5
q-30 73 -94.5 117.5t-148.5 44.5q-75 0 -135 -36t-95 -98t-35 -141q0 -78 35 -140.5t95 -98.5t135 -36zM598 289q6 59 34.5 106t74 74t100.5 27t99 -27.5t69.5 -74t25.5 -105.5h-403zM331 31q-61 0 -110 30.5t-78 83.5t-29 118q0 66 28.5 118.5t78 83t110.5 30.5
q62 0 111 -30.5t77.5 -83t28.5 -118.5q0 -65 -29 -118t-78 -83.5t-110 -30.5z" />
    <glyph glyph-name="Racute" unicode="&#x154;" horiz-adv-x="635" 
d="M99 0h50v300h212l171 -300h59l-178 308q76 19 121 76t45 138q0 66 -30 116.5t-83 78.5t-123 28h-244v-745zM149 345v355h194q55 0 97 -22.5t65.5 -62t23.5 -92.5q0 -52 -24 -92.5t-65.5 -63t-96.5 -22.5h-194zM289 859h45l108 150h-61z" />
    <glyph glyph-name="racute" unicode="&#x155;" horiz-adv-x="340" 
d="M88 0h45v320q0 73 39.5 120t111.5 47h34v45h-33q-50 0 -90.5 -21.5t-61.5 -60.5v76h-45v-526zM180 640h45l108 150h-61z" />
    <glyph glyph-name="uni0156" unicode="&#x156;" horiz-adv-x="635" 
d="M99 0h50v300h212l171 -300h59l-178 308q76 19 121 76t45 138q0 66 -30 116.5t-83 78.5t-123 28h-244v-745zM149 345v355h194q55 0 97 -22.5t65.5 -62t23.5 -92.5q0 -52 -24 -92.5t-65.5 -63t-96.5 -22.5h-194zM242 -233h35l58 163h-45z" />
    <glyph glyph-name="uni0157" unicode="&#x157;" horiz-adv-x="340" 
d="M88 0h45v320q0 73 39.5 120t111.5 47h34v45h-33q-50 0 -90.5 -21.5t-61.5 -60.5v76h-45v-526zM41 -233h35l58 163h-45z" />
    <glyph glyph-name="Rcaron" unicode="&#x158;" horiz-adv-x="635" 
d="M99 0h50v300h212l171 -300h59l-178 308q76 19 121 76t45 138q0 66 -30 116.5t-83 78.5t-123 28h-244v-745zM149 345v355h194q55 0 97 -22.5t65.5 -62t23.5 -92.5q0 -52 -24 -92.5t-65.5 -63t-96.5 -22.5h-194zM290 859h43l126 150h-51l-96 -114l-96 114h-51z" />
    <glyph glyph-name="rcaron" unicode="&#x159;" horiz-adv-x="340" 
d="M88 0h45v320q0 73 39.5 120t111.5 47h34v45h-33q-50 0 -90.5 -21.5t-61.5 -60.5v76h-45v-526zM181 640h43l126 150h-51l-96 -114l-96 114h-51z" />
    <glyph glyph-name="Sacute" unicode="&#x15a;" horiz-adv-x="639" 
d="M332 -12q66 0 118 25t82 68.5t30 101.5q0 70 -42 119.5t-115 71.5l-126 38q-76 23 -105 59t-29 91q0 47 22 81t59.5 52.5t83.5 18.5q66 0 119 -37t79 -108l45 14q-14 46 -48.5 85.5t-84 64t-111.5 24.5q-60 0 -108 -24.5t-76 -68t-28 -101.5q0 -67 37 -120t123 -78
l139 -40q47 -13 82.5 -46.5t35.5 -94.5q0 -48 -24 -82t-65 -52.5t-94 -18.5q-79 0 -135 40.5t-85 116.5l-45 -14q15 -47 50.5 -90t90 -69.5t125.5 -26.5zM297 859h45l108 150h-61z" />
    <glyph glyph-name="sacute" unicode="&#x15b;" horiz-adv-x="506" 
d="M260 -12q51 0 91.5 19t64.5 52.5t24 75.5q0 52 -35 89.5t-100 55.5l-88 25q-89 25 -89 91q0 43 33 71t83 28q47 0 85 -25t60 -70l44 20q-20 53 -72.5 85.5t-116.5 32.5q-45 0 -82 -18t-58.5 -50.5t-21.5 -74.5q0 -104 128 -139l87 -24q96 -26 96 -99q0 -46 -38.5 -74
t-94.5 -28q-52 0 -94.5 28t-68.5 78l-42 -19q27 -61 81 -95.5t124 -34.5zM230 640h45l108 150h-61z" />
    <glyph glyph-name="Scircumflex" unicode="&#x15c;" horiz-adv-x="639" 
d="M332 -12q66 0 118 25t82 68.5t30 101.5q0 70 -42 119.5t-115 71.5l-126 38q-76 23 -105 59t-29 91q0 47 22 81t59.5 52.5t83.5 18.5q66 0 119 -37t79 -108l45 14q-14 46 -48.5 85.5t-84 64t-111.5 24.5q-60 0 -108 -24.5t-76 -68t-28 -101.5q0 -67 37 -120t123 -78
l139 -40q47 -13 82.5 -46.5t35.5 -94.5q0 -48 -24 -82t-65 -52.5t-94 -18.5q-79 0 -135 40.5t-85 116.5l-45 -14q15 -47 50.5 -90t90 -69.5t125.5 -26.5zM173 859h51l96 114l96 -114h51l-126 150h-43z" />
    <glyph glyph-name="scircumflex" unicode="&#x15d;" horiz-adv-x="506" 
d="M260 -12q51 0 91.5 19t64.5 52.5t24 75.5q0 52 -35 89.5t-100 55.5l-88 25q-89 25 -89 91q0 43 33 71t83 28q47 0 85 -25t60 -70l44 20q-20 53 -72.5 85.5t-116.5 32.5q-45 0 -82 -18t-58.5 -50.5t-21.5 -74.5q0 -104 128 -139l87 -24q96 -26 96 -99q0 -46 -38.5 -74
t-94.5 -28q-52 0 -94.5 28t-68.5 78l-42 -19q27 -61 81 -95.5t124 -34.5zM106 640h51l96 114l96 -114h51l-126 150h-43z" />
    <glyph glyph-name="Scedilla" unicode="&#x15e;" horiz-adv-x="639" 
d="M332 -12q66 0 118 25t82 68.5t30 101.5q0 70 -42 119.5t-115 71.5l-126 38q-76 23 -105 59t-29 91q0 47 22 81t59.5 52.5t83.5 18.5q66 0 119 -37t79 -108l45 14q-14 46 -48.5 85.5t-84 64t-111.5 24.5q-60 0 -108 -24.5t-76 -68t-28 -101.5q0 -67 37 -120t123 -78
l139 -40q47 -13 82.5 -46.5t35.5 -94.5q0 -48 -24 -82t-65 -52.5t-94 -18.5q-79 0 -135 40.5t-85 116.5l-45 -14q15 -47 50.5 -90t90 -69.5t125.5 -26.5zM339 -220q42 0 68.5 23t26.5 61q0 32 -25.5 56t-68.5 31l16 59h-43l-25 -86q47 -4 75 -19.5t28 -43.5
q0 -19 -14.5 -32.5t-39.5 -13.5q-20 0 -41.5 9.5t-37.5 26.5l-15 -32q37 -39 96 -39z" />
    <glyph glyph-name="scedilla" unicode="&#x15f;" horiz-adv-x="506" 
d="M260 -12q51 0 91.5 19t64.5 52.5t24 75.5q0 52 -35 89.5t-100 55.5l-88 25q-89 25 -89 91q0 43 33 71t83 28q47 0 85 -25t60 -70l44 20q-20 53 -72.5 85.5t-116.5 32.5q-45 0 -82 -18t-58.5 -50.5t-21.5 -74.5q0 -104 128 -139l87 -24q96 -26 96 -99q0 -46 -38.5 -74
t-94.5 -28q-52 0 -94.5 28t-68.5 78l-42 -19q27 -61 81 -95.5t124 -34.5zM261 -220q42 0 68.5 23t26.5 61q0 32 -25.5 56t-68.5 31l16 59h-43l-25 -86q47 -4 75 -19.5t28 -43.5q0 -19 -14.5 -32.5t-39.5 -13.5q-20 0 -41.5 9.5t-37.5 26.5l-15 -32q37 -39 96 -39z" />
    <glyph glyph-name="Scaron" unicode="&#x160;" horiz-adv-x="639" 
d="M332 -12q66 0 118 25t82 68.5t30 101.5q0 70 -42 119.5t-115 71.5l-126 38q-76 23 -105 59t-29 91q0 47 22 81t59.5 52.5t83.5 18.5q66 0 119 -37t79 -108l45 14q-14 46 -48.5 85.5t-84 64t-111.5 24.5q-60 0 -108 -24.5t-76 -68t-28 -101.5q0 -67 37 -120t123 -78
l139 -40q47 -13 82.5 -46.5t35.5 -94.5q0 -48 -24 -82t-65 -52.5t-94 -18.5q-79 0 -135 40.5t-85 116.5l-45 -14q15 -47 50.5 -90t90 -69.5t125.5 -26.5zM298 859h43l126 150h-51l-96 -114l-96 114h-51z" />
    <glyph glyph-name="scaron" unicode="&#x161;" horiz-adv-x="506" 
d="M260 -12q51 0 91.5 19t64.5 52.5t24 75.5q0 52 -35 89.5t-100 55.5l-88 25q-89 25 -89 91q0 43 33 71t83 28q47 0 85 -25t60 -70l44 20q-20 53 -72.5 85.5t-116.5 32.5q-45 0 -82 -18t-58.5 -50.5t-21.5 -74.5q0 -104 128 -139l87 -24q96 -26 96 -99q0 -46 -38.5 -74
t-94.5 -28q-52 0 -94.5 28t-68.5 78l-42 -19q27 -61 81 -95.5t124 -34.5zM231 640h43l126 150h-51l-96 -114l-96 114h-51z" />
    <glyph glyph-name="uni0162" unicode="&#x162;" horiz-adv-x="514" 
d="M233 0h50v700h209v45h-470v-45h211v-700zM265 -220q42 0 68.5 23t26.5 61q0 32 -25.5 56t-68.5 31l16 59h-43l-25 -86q47 -4 75 -19.5t28 -43.5q0 -19 -14.5 -32.5t-39.5 -13.5q-20 0 -41.5 9.5t-37.5 26.5l-15 -32q37 -39 96 -39z" />
    <glyph glyph-name="uni0163" unicode="&#x163;" horiz-adv-x="379" 
d="M270 -6q6 0 19.5 1.5t23.5 4.5v40q-7 -1 -19 -2t-20 -1q-38 0 -56.5 14.5t-24 35.5t-5.5 39v360h114v40h-114v124h-45v-70q0 -54 -50 -54h-50v-40h100v-360q0 -66 33 -99t94 -33zM248 -220q42 0 68.5 23t26.5 61q0 32 -25.5 56t-68.5 31l16 59h-43l-25 -86
q47 -4 75 -19.5t28 -43.5q0 -19 -14.5 -32.5t-39.5 -13.5q-20 0 -41.5 9.5t-37.5 26.5l-15 -32q37 -39 96 -39z" />
    <glyph glyph-name="Tcaron" unicode="&#x164;" horiz-adv-x="514" 
d="M233 0h50v700h209v45h-470v-45h211v-700zM235 859h43l126 150h-51l-96 -114l-96 114h-51z" />
    <glyph glyph-name="tcaron" unicode="&#x165;" horiz-adv-x="346" 
d="M270 -6q6 0 19.5 1.5t23.5 4.5v40q-7 -1 -19 -2t-20 -1q-38 0 -56.5 14.5t-24 35.5t-5.5 39v360h114v40h-114v124h-45v-70q0 -54 -50 -54h-50v-40h100v-360q0 -66 33 -99t94 -33zM245 600h41l14 157h-55v-157z" />
    <glyph glyph-name="Tbar" unicode="&#x166;" horiz-adv-x="514" 
d="M233 0h50v350h119v45h-119v305h209v45h-470v-45h211v-305h-121v-45h121v-350z" />
    <glyph glyph-name="tbar" unicode="&#x167;" horiz-adv-x="379" 
d="M270 -6q6 0 19.5 1.5t23.5 4.5v40q-7 -1 -19 -2t-20 -1q-38 0 -56.5 14.5t-24 35.5t-5.5 39v360h114v40h-114v124h-45v-70q0 -54 -50 -54h-50v-40h100v-360q0 -66 33 -99t94 -33zM36 243h259v40h-259v-40z" />
    <glyph glyph-name="Utilde" unicode="&#x168;" horiz-adv-x="690" 
d="M345 -12q75 0 131 33t87.5 92t31.5 138v494h-50v-498q0 -63 -25 -111t-70 -75.5t-105 -27.5q-59 0 -104.5 27.5t-70.5 75.5t-25 111v498h-50v-494q0 -79 31.5 -138t88 -92t130.5 -33zM402 859q41 0 63 30t22 76h-40q0 -67 -43 -67q-17 0 -28.5 10.5t-23 25t-26.5 25
t-40 10.5q-40 0 -61.5 -29t-21.5 -77h40q0 35 10.5 51t29.5 16q16 0 27 -10.5t22.5 -25t28 -25t41.5 -10.5z" />
    <glyph glyph-name="utilde" unicode="&#x169;" 
d="M275 -12q55 0 97.5 24.5t64.5 64.5v-77h45v526h-45v-320q0 -48 -18 -88t-53.5 -63.5t-86.5 -23.5q-42 0 -78 17.5t-57.5 52.5t-21.5 85v340h-45v-340q0 -64 28 -108t73 -67t97 -23zM342 640q41 0 63 30t22 76h-40q0 -67 -43 -67q-17 0 -28.5 10.5t-23 25t-26.5 25
t-40 10.5q-40 0 -61.5 -29t-21.5 -77h40q0 35 10.5 51t29.5 16q16 0 27 -10.5t22.5 -25t28 -25t41.5 -10.5z" />
    <glyph glyph-name="Umacron" unicode="&#x16a;" horiz-adv-x="690" 
d="M345 -12q75 0 131 33t87.5 92t31.5 138v494h-50v-498q0 -63 -25 -111t-70 -75.5t-105 -27.5q-59 0 -104.5 27.5t-70.5 75.5t-25 111v498h-50v-494q0 -79 31.5 -138t88 -92t130.5 -33zM220 879h250v40h-250v-40z" />
    <glyph glyph-name="umacron" unicode="&#x16b;" 
d="M275 -12q55 0 97.5 24.5t64.5 64.5v-77h45v526h-45v-320q0 -48 -18 -88t-53.5 -63.5t-86.5 -23.5q-42 0 -78 17.5t-57.5 52.5t-21.5 85v340h-45v-340q0 -64 28 -108t73 -67t97 -23zM160 660h250v40h-250v-40z" />
    <glyph glyph-name="Ubreve" unicode="&#x16c;" horiz-adv-x="690" 
d="M345 -12q75 0 131 33t87.5 92t31.5 138v494h-50v-498q0 -63 -25 -111t-70 -75.5t-105 -27.5q-59 0 -104.5 27.5t-70.5 75.5t-25 111v498h-50v-494q0 -79 31.5 -138t88 -92t130.5 -33zM345 859q65 0 101 39.5t36 100.5h-46q0 -44 -23.5 -72t-67.5 -28t-67.5 28t-23.5 72
h-46q0 -61 36.5 -100.5t100.5 -39.5z" />
    <glyph glyph-name="ubreve" unicode="&#x16d;" 
d="M275 -12q55 0 97.5 24.5t64.5 64.5v-77h45v526h-45v-320q0 -48 -18 -88t-53.5 -63.5t-86.5 -23.5q-42 0 -78 17.5t-57.5 52.5t-21.5 85v340h-45v-340q0 -64 28 -108t73 -67t97 -23zM285 640q65 0 101 39.5t36 100.5h-46q0 -44 -23.5 -72t-67.5 -28t-67.5 28t-23.5 72h-46
q0 -61 36.5 -100.5t100.5 -39.5z" />
    <glyph glyph-name="Uring" unicode="&#x16e;" horiz-adv-x="690" 
d="M345 -12q75 0 131 33t87.5 92t31.5 138v494h-50v-498q0 -63 -25 -111t-70 -75.5t-105 -27.5q-59 0 -104.5 27.5t-70.5 75.5t-25 111v498h-50v-494q0 -79 31.5 -138t88 -92t130.5 -33zM344 839q39 0 67 25.5t28 68.5q0 42 -28 68t-67 26q-38 0 -66 -25.5t-28 -68.5
t28 -68.5t66 -25.5zM344 875q-23 0 -39.5 16t-16.5 42t16.5 41.5t39.5 15.5t40.5 -15.5t17.5 -41.5t-17.5 -42t-40.5 -16z" />
    <glyph glyph-name="uring" unicode="&#x16f;" 
d="M275 -12q55 0 97.5 24.5t64.5 64.5v-77h45v526h-45v-320q0 -48 -18 -88t-53.5 -63.5t-86.5 -23.5q-42 0 -78 17.5t-57.5 52.5t-21.5 85v340h-45v-340q0 -64 28 -108t73 -67t97 -23zM284 620q39 0 67 25.5t28 68.5q0 42 -28 68t-67 26q-38 0 -66 -25.5t-28 -68.5t28 -68.5
t66 -25.5zM284 656q-23 0 -39.5 16t-16.5 42t16.5 41.5t39.5 15.5t40.5 -15.5t17.5 -41.5t-17.5 -42t-40.5 -16z" />
    <glyph glyph-name="Uhungarumlaut" unicode="&#x170;" horiz-adv-x="690" 
d="M345 -12q75 0 131 33t87.5 92t31.5 138v494h-50v-498q0 -63 -25 -111t-70 -75.5t-105 -27.5q-59 0 -104.5 27.5t-70.5 75.5t-25 111v498h-50v-494q0 -79 31.5 -138t88 -92t130.5 -33zM252 859h45l68 150h-61zM393 859h45l68 150h-61z" />
    <glyph glyph-name="uhungarumlaut" unicode="&#x171;" 
d="M275 -12q55 0 97.5 24.5t64.5 64.5v-77h45v526h-45v-320q0 -48 -18 -88t-53.5 -63.5t-86.5 -23.5q-42 0 -78 17.5t-57.5 52.5t-21.5 85v340h-45v-340q0 -64 28 -108t73 -67t97 -23zM192 640h45l68 150h-61zM333 640h45l68 150h-61z" />
    <glyph glyph-name="Uogonek" unicode="&#x172;" horiz-adv-x="690" 
d="M345 -12q75 0 131 33t87.5 92t31.5 138v494h-50v-498q0 -63 -25 -111t-70 -75.5t-105 -27.5q-59 0 -104.5 27.5t-70.5 75.5t-25 111v498h-50v-494q0 -79 31.5 -138t88 -92t130.5 -33zM326 -220q59 0 96 39l-15 32q-16 -17 -37.5 -26.5t-41.5 -9.5q-54 0 -54 56
q0 29 15 54.5t38 45t47 29.5v15h-17q-31 -6 -60 -28t-47.5 -53.5t-18.5 -69.5q0 -40 28 -62t67 -22z" />
    <glyph glyph-name="uogonek" unicode="&#x173;" 
d="M275 -12q55 0 97.5 24.5t64.5 64.5v-77h45v526h-45v-320q0 -48 -18 -88t-53.5 -63.5t-86.5 -23.5q-42 0 -78 17.5t-57.5 52.5t-21.5 85v340h-45v-340q0 -64 28 -108t73 -67t97 -23zM421 -220q59 0 96 39l-15 32q-16 -17 -37.5 -26.5t-41.5 -9.5q-54 0 -54 56
q0 29 15 54.5t38 45t47 29.5v15h-17q-31 -6 -60 -28t-47.5 -53.5t-18.5 -69.5q0 -40 28 -62t67 -22z" />
    <glyph glyph-name="Wcircumflex" unicode="&#x174;" horiz-adv-x="988" 
d="M245 0h48l201 660l201 -660h48l223 745h-54l-193 -657l-201 657h-48l-201 -657l-193 657h-54zM347 859h51l96 114l96 -114h51l-126 150h-43z" />
    <glyph glyph-name="wcircumflex" unicode="&#x175;" horiz-adv-x="769" 
d="M202 0h48l134 455l134 -455h48l181 526h-50l-155 -458l-134 458h-48l-134 -459l-154 459h-50zM238 640h51l96 114l96 -114h51l-126 150h-43z" />
    <glyph glyph-name="Ycircumflex" unicode="&#x176;" horiz-adv-x="624" 
d="M287 0h50v333l265 412h-57l-232 -356l-234 356h-57l265 -412v-333zM165 859h51l96 114l96 -114h51l-126 150h-43z" />
    <glyph glyph-name="ycircumflex" unicode="&#x177;" horiz-adv-x="529" 
d="M81 -220q51 0 85.5 23.5t56 56t32.5 59.5l252 607h-52l-189 -462l-187 462h-51l212 -524l-33 -78q-21 -49 -50.5 -74.5t-78.5 -26.5q-11 0 -26.5 1.5t-29.5 5.5v-41q15 -5 31 -7t28 -2zM118 640h51l96 114l96 -114h51l-126 150h-43z" />
    <glyph glyph-name="Ydieresis" unicode="&#x178;" horiz-adv-x="624" 
d="M287 0h50v333l265 412h-57l-232 -356l-234 356h-57l265 -412v-333zM202 859h70v75h-70v-75zM352 859h70v75h-70v-75z" />
    <glyph glyph-name="Zacute" unicode="&#x179;" horiz-adv-x="606" 
d="M33 0h540v45h-471l461 670v30h-503v-45h435l-462 -670v-30zM280 859h45l108 150h-61z" />
    <glyph glyph-name="zacute" unicode="&#x17a;" horiz-adv-x="435" 
d="M33 0h380v40h-320l317 456v30h-358v-40h297l-316 -456v-30zM195 640h45l108 150h-61z" />
    <glyph glyph-name="Zdotaccent" unicode="&#x17b;" horiz-adv-x="606" 
d="M33 0h540v45h-471l461 670v30h-503v-45h435l-462 -670v-30zM268 859h70v75h-70v-75z" />
    <glyph glyph-name="zdotaccent" unicode="&#x17c;" horiz-adv-x="435" 
d="M33 0h380v40h-320l317 456v30h-358v-40h297l-316 -456v-30zM183 640h70v75h-70v-75z" />
    <glyph glyph-name="Zcaron" unicode="&#x17d;" horiz-adv-x="606" 
d="M33 0h540v45h-471l461 670v30h-503v-45h435l-462 -670v-30zM281 859h43l126 150h-51l-96 -114l-96 114h-51z" />
    <glyph glyph-name="zcaron" unicode="&#x17e;" horiz-adv-x="435" 
d="M33 0h380v40h-320l317 456v30h-358v-40h297l-316 -456v-30zM196 640h43l126 150h-51l-96 -114l-96 114h-51z" />
    <glyph glyph-name="uni018F" unicode="&#x18f;" horiz-adv-x="844" 
d="M410 -12q75 0 140 29.5t114 81.5t76 121.5t27 150.5q0 82 -28 152t-78.5 122.5t-117.5 82t-145 29.5q-68 0 -129 -22t-108 -61.5t-74 -91.5l41 -22q40 69 112 109t158 40q89 0 160 -42t113 -114.5t46 -164.5h-636q-4 -27 -4 -50q0 -75 25 -138.5t70.5 -111t106 -74
t131.5 -26.5zM409 36q-80 0 -144 40t-101 109t-38 157h590q-7 -87 -49.5 -156t-109.5 -109.5t-148 -40.5z" />
    <glyph glyph-name="florin" unicode="&#x192;" horiz-adv-x="462" 
d="M92 -12q73 0 117.5 48.5t44.5 139.5v175h133v45h-133v173q0 71 32 108t88 37q20 0 36 -3v41q-17 5 -39 5q-73 0 -117.5 -48t-44.5 -140v-173h-133v-45h133v-175q0 -71 -32 -108t-88 -37q-19 0 -36 3v-41q17 -5 39 -5z" />
    <glyph glyph-name="Ohorn" unicode="&#x1a0;" horiz-adv-x="884" 
d="M442 -12q75 0 141.5 28t116.5 79.5t78.5 122t28.5 155.5q0 118 -55 208t-143 135h49q42 0 69 23t27 67q0 22 -6.5 43.5t-14.5 43.5h-45q8 -20 14 -40t6 -41q0 -29 -14.5 -42t-38.5 -13h-213q-75 0 -141 -28t-116.5 -79.5t-79 -121.5t-28.5 -155t28.5 -155.5t78.5 -122
t116.5 -79.5t141.5 -28zM442 36q-70 0 -128 26.5t-100 73.5t-64.5 108t-22.5 129q0 67 22.5 127.5t64.5 107.5t100 74t128 27q71 0 129 -27t99.5 -74t64 -107.5t22.5 -127.5q0 -68 -22.5 -129t-64.5 -108t-100 -73.5t-128 -26.5z" />
    <glyph glyph-name="ohorn" unicode="&#x1a1;" horiz-adv-x="662" 
d="M331 -12q76 0 135.5 36t94.5 98.5t35 140.5t-34 139.5t-91 96.5q33 6 52.5 28.5t19.5 59.5q0 22 -6.5 43.5t-14.5 43.5h-45q8 -20 14 -40t6 -41q0 -29 -14.5 -42t-38.5 -13h-113q-75 0 -135 -36t-95 -98t-35 -141q0 -78 35 -140.5t95 -98.5t135 -36zM331 31
q-61 0 -110 30.5t-78 83.5t-29 118q0 66 28.5 118.5t78 83t110.5 30.5q62 0 111 -30.5t77.5 -83t28.5 -118.5q0 -65 -29 -118t-78 -83.5t-110 -30.5z" />
    <glyph glyph-name="Uhorn" unicode="&#x1af;" horiz-adv-x="690" 
d="M345 -12q75 0 131 33t87.5 92t31.5 138v453h7q38 0 61.5 24t23.5 66q0 22 -6.5 43.5t-14.5 43.5h-45q8 -20 14 -40t6 -41q0 -29 -14.5 -42t-38.5 -13h-43v-498q0 -63 -25 -111t-70 -75.5t-105 -27.5q-59 0 -104.5 27.5t-70.5 75.5t-25 111v498h-50v-494q0 -79 31.5 -138
t88 -92t130.5 -33z" />
    <glyph glyph-name="uhorn" unicode="&#x1b0;" horiz-adv-x="575" 
d="M275 -12q55 0 97.5 24.5t64.5 64.5v-77h45v486q37 4 59.5 26.5t22.5 62.5q0 22 -6.5 43.5t-14.5 43.5h-45q8 -20 14 -40t6 -41q0 -29 -14.5 -42t-38.5 -13h-28v-320q0 -48 -18 -88t-53.5 -63.5t-86.5 -23.5q-42 0 -78 17.5t-57.5 52.5t-21.5 85v340h-45v-340
q0 -64 28 -108t73 -67t97 -23z" />
    <glyph glyph-name="uni01C4" unicode="&#x1c4;" horiz-adv-x="1350" 
d="M99 0h238q108 0 187 46t122 130t43 197q0 114 -43 197.5t-122 129t-187 45.5h-238v-745zM149 45v655h186q91 0 159.5 -41t106.5 -114.5t38 -171.5t-38 -172t-106.5 -115t-159.5 -41h-186zM777 0h540v45h-471l461 670v30h-503v-45h435l-462 -670v-30zM1025 859h43l126 150
h-51l-96 -114l-96 114h-51z" />
    <glyph glyph-name="uni01C5" unicode="&#x1c5;" horiz-adv-x="1179" 
d="M99 0h238q108 0 187 46t122 130t43 197q0 114 -43 197.5t-122 129t-187 45.5h-238v-745zM149 45v655h186q91 0 159.5 -41t106.5 -114.5t38 -171.5t-38 -172t-106.5 -115t-159.5 -41h-186zM777 0h380v40h-320l317 456v30h-358v-40h297l-316 -456v-30zM940 640h43l126 150
h-51l-96 -114l-96 114h-51z" />
    <glyph glyph-name="uni01C6" unicode="&#x1c6;" horiz-adv-x="1109" 
d="M325 -12q71 0 128 34.5t88 92.5v-115h45v757h-45v-346q-31 58 -88 92.5t-128 34.5q-73 0 -132 -36t-93 -98.5t-34 -140.5t34 -140t93 -98.5t132 -36.5zM325 33q-61 0 -108.5 30t-75 82t-27.5 118t27.5 118t75 82t108.5 30t109 -30t76 -81.5t28 -118.5q0 -66 -28 -118
t-76 -82t-109 -30zM707 0h380v40h-320l317 456v30h-358v-40h297l-316 -456v-30zM870 640h43l126 150h-51l-96 -114l-96 114h-51z" />
    <glyph glyph-name="uni01C7" unicode="&#x1c7;" horiz-adv-x="1087" 
d="M99 0h390v45h-340v700h-50v-745zM789 -12q57 0 102 24t71 68t26 105v560h-50v-560q0 -47 -20 -81t-53.5 -52.5t-74.5 -18.5q-64 0 -106 37.5t-60 95.5l-46 -15q21 -73 75 -118t136 -45z" />
    <glyph glyph-name="uni01C8" unicode="&#x1c8;" horiz-adv-x="754" 
d="M99 0h390v45h-340v700h-50v-745zM621 635h45v110h-45v-110zM515 -220q68 0 109.5 40.5t41.5 117.5v588h-45v-588q0 -56 -28.5 -85.5t-80.5 -29.5q-19 0 -36 3v-41q17 -5 39 -5z" />
    <glyph glyph-name="uni01C9" unicode="&#x1c9;" horiz-adv-x="442" 
d="M88 0h45v757h-45v-757zM309 635h45v110h-45v-110zM203 -220q68 0 109.5 40.5t41.5 117.5v588h-45v-588q0 -56 -28.5 -85.5t-80.5 -29.5q-19 0 -36 3v-41q17 -5 39 -5z" />
    <glyph glyph-name="uni01CA" unicode="&#x1ca;" horiz-adv-x="1119" 
d="M99 0h50v644l450 -644h40v745h-50v-644l-450 644h-40v-745zM804 0h38q81 0 129.5 51t48.5 140v554h-50v-551q0 -71 -34 -107.5t-94 -36.5h-38v-50z" />
    <glyph glyph-name="uni01CB" unicode="&#x1cb;" horiz-adv-x="959" 
d="M99 0h50v644l450 -644h40v745h-50v-644l-450 644h-40v-745zM826 635h45v110h-45v-110zM720 -220q68 0 109.5 40.5t41.5 117.5v588h-45v-588q0 -56 -28.5 -85.5t-80.5 -29.5q-19 0 -36 3v-41q17 -5 39 -5z" />
    <glyph glyph-name="uni01CC" unicode="&#x1cc;" horiz-adv-x="791" 
d="M88 0h45v320q0 49 18.5 88.5t54 63t85.5 23.5q44 0 79.5 -19t56.5 -53.5t21 -82.5v-340h45v345q0 58 -27.5 101.5t-72.5 67.5t-98 24q-54 0 -97 -24.5t-65 -64.5v77h-45v-526zM658 635h45v110h-45v-110zM552 -220q68 0 109.5 40.5t41.5 117.5v588h-45v-588
q0 -56 -28.5 -85.5t-80.5 -29.5q-19 0 -36 3v-41q17 -5 39 -5z" />
    <glyph glyph-name="Gcaron" unicode="&#x1e6;" horiz-adv-x="834" 
d="M433 -12q74 0 135 26t105.5 72t69 106t24.5 127v49h-333v-45h283v-4q0 -81 -37 -145t-101 -101t-146 -37q-89 0 -158 42t-108.5 118t-39.5 176t39.5 176t109 118.5t158.5 42.5q90 0 154.5 -42t97.5 -112l47 21q-18 43 -59 84.5t-102 69t-138 27.5q-78 0 -143 -28.5
t-113 -80.5t-74.5 -122t-26.5 -154t26 -154t74 -121.5t113 -80t143 -28.5zM395 859h43l126 150h-51l-96 -114l-96 114h-51z" />
    <glyph glyph-name="gcaron" unicode="&#x1e7;" horiz-adv-x="664" 
d="M331 -220q72 0 127 30.5t86.5 84.5t31.5 123v508h-45v-112q-31 57 -86 90.5t-125 33.5q-73 0 -130.5 -36t-90.5 -96t-33 -133t33 -133t90.5 -96t130.5 -36q70 0 125 33.5t86 90.5v-114q0 -68 -29.5 -111.5t-75 -64t-95.5 -20.5q-60 0 -108 28t-77 77l-38 -22
q29 -53 88 -89t135 -36zM320 53q-61 0 -107.5 29.5t-72.5 79.5t-26 111t26 111t72.5 79.5t107.5 29.5t107.5 -29.5t73.5 -79t27 -111.5q0 -61 -27 -111t-73.5 -79.5t-107.5 -29.5zM310 640h43l126 150h-51l-96 -114l-96 114h-51z" />
    <glyph glyph-name="uni01EA" unicode="&#x1ea;" horiz-adv-x="884" 
d="M442 -12q75 0 141.5 28t116.5 79.5t78.5 122t28.5 155.5q0 84 -28.5 154.5t-79 122t-116.5 79.5t-141 28t-141 -28t-116.5 -79.5t-79 -121.5t-28.5 -155t28.5 -155.5t78.5 -122t116.5 -79.5t141.5 -28zM442 36q-70 0 -128 26.5t-100 73.5t-64.5 108t-22.5 129
q0 67 22.5 127.5t64.5 107.5t100 74t128 27q71 0 129 -27t99.5 -74t64 -107.5t22.5 -127.5q0 -68 -22.5 -129t-64.5 -108t-100 -73.5t-128 -26.5zM453 -220q59 0 96 39l-15 32q-16 -17 -37.5 -26.5t-41.5 -9.5q-54 0 -54 56q0 29 15 54.5t38 45t47 29.5v15h-17
q-31 -6 -60 -28t-47.5 -53.5t-18.5 -69.5q0 -40 28 -62t67 -22z" />
    <glyph glyph-name="uni01EB" unicode="&#x1eb;" horiz-adv-x="662" 
d="M331 -12q76 0 135.5 36t94.5 98.5t35 140.5q0 79 -35 141t-94.5 98t-135.5 36q-75 0 -135 -36t-95 -98t-35 -141q0 -78 35 -140.5t95 -98.5t135 -36zM331 31q-61 0 -110 30.5t-78 83.5t-29 118q0 66 28.5 118.5t78 83t110.5 30.5q62 0 111 -30.5t77.5 -83t28.5 -118.5
q0 -65 -29 -118t-78 -83.5t-110 -30.5zM342 -220q59 0 96 39l-15 32q-16 -17 -37.5 -26.5t-41.5 -9.5q-54 0 -54 56q0 29 15 54.5t38 45t47 29.5v15h-17q-31 -6 -60 -28t-47.5 -53.5t-18.5 -69.5q0 -40 28 -62t67 -22z" />
    <glyph glyph-name="Aringacute" unicode="&#x1fa;" horiz-adv-x="644" 
d="M22 0h55l72 197h346l72 -197h55l-276 745h-48zM165 242l157 429l157 -429h-314zM321 839q39 0 67 25.5t28 68.5q0 23 -9 41.5t-23 30.5l68 114h-61l-48 -94q-11 2 -22 2q-38 0 -66 -25.5t-28 -68.5t28 -68.5t66 -25.5zM321 875q-23 0 -39.5 16t-16.5 42t16.5 41.5
t39.5 15.5t40.5 -15.5t17.5 -41.5t-17.5 -42t-40.5 -16z" />
    <glyph glyph-name="aringacute" unicode="&#x1fb;" horiz-adv-x="574" 
d="M237 -12q49 0 89.5 16.5t70 43.5t44.5 58v-106h45v365q0 51 -24.5 90t-68 61t-100.5 22q-47 0 -87 -16t-69.5 -41.5t-44.5 -55.5l40 -21q24 41 67 66t94 25q67 0 107.5 -35.5t40.5 -94.5v-32l-204 -34q-63 -10 -100.5 -35t-54 -58.5t-16.5 -69.5q0 -44 23 -77.5t61.5 -52
t86.5 -18.5zM112 138q0 42 31 75t109 46l189 31v-52q0 -55 -25 -102.5t-69.5 -76.5t-105.5 -29q-55 0 -92 29t-37 79zM292 620q39 0 67 25.5t28 68.5q0 23 -9 41.5t-23 30.5l68 114h-61l-48 -94q-11 2 -22 2q-38 0 -66 -25.5t-28 -68.5t28 -68.5t66 -25.5zM292 656
q-23 0 -39.5 16t-16.5 42t16.5 41.5t39.5 15.5t40.5 -15.5t17.5 -41.5t-17.5 -42t-40.5 -16z" />
    <glyph glyph-name="AEacute" unicode="&#x1fc;" horiz-adv-x="987" 
d="M22 0h55l72 197h323v-197h460v45h-410v306h390v45h-390v304h410v45h-634zM165 242l168 458h139v-458h-307zM471 859h45l108 150h-61z" />
    <glyph glyph-name="aeacute" unicode="&#x1fd;" horiz-adv-x="1002" 
d="M237 -12q72 0 126 34.5t77 80.5v-103h46v107q35 -55 92.5 -87t127.5 -32q71 0 128.5 33.5t86.5 91.5l-38 20q-28 -49 -74 -76t-103 -27q-61 0 -109.5 28.5t-77.5 78t-33 112.5h447q3 23 3 39q0 71 -31.5 127.5t-85.5 89.5t-123 33q-70 0 -126.5 -34t-89.5 -92
q-16 57 -66 91.5t-121 34.5q-47 0 -87 -16t-69.5 -41.5t-44.5 -55.5l40 -21q24 41 67 66t94 25q67 0 107 -35.5t40 -94.5v-32l-203 -34q-63 -10 -100.5 -35t-54 -58.5t-16.5 -69.5q0 -44 23 -77.5t61.5 -52t86.5 -18.5zM487 289q6 59 34.5 106t74 74t100.5 27t99 -27.5
t69.5 -74t25.5 -105.5h-403zM241 30q-55 0 -92 29t-37 79q0 42 31 75t109 46l188 31v-52q0 -55 -24.5 -102.5t-69 -76.5t-105.5 -29zM478 640h45l108 150h-61z" />
    <glyph glyph-name="Oslashacute" unicode="&#x1fe;" horiz-adv-x="884" 
d="M105 0h64l52 63q46 -36 102.5 -55.5t118.5 -19.5q75 0 141.5 28t116.5 79.5t78.5 122t28.5 155.5q0 84 -28.5 154.5t-78.5 121.5l79 96h-64l-52 -63q-46 36 -102.5 55.5t-118.5 19.5q-75 0 -141 -28t-116.5 -79.5t-79 -121.5t-28.5 -155t28.5 -155.5t78.5 -121.5z
M127 373q0 67 22.5 127.5t64.5 107.5t100 74t128 27q56 0 104 -17.5t86 -47.5l-416 -509q-43 46 -66 107.5t-23 130.5zM442 36q-56 0 -104 17.5t-86 47.5l417 509q42 -46 65 -107.5t23 -129.5t-22.5 -129t-64.5 -108t-100 -73.5t-128 -26.5zM419 859h45l108 150h-61z" />
    <glyph glyph-name="oslashacute" unicode="&#x1ff;" horiz-adv-x="662" 
d="M63 0h66l39 43q33 -26 74.5 -40.5t88.5 -14.5q76 0 135.5 36t94.5 98.5t35 140.5q0 55 -17.5 102.5t-49.5 83.5l69 77h-66l-38 -43q-33 26 -74.5 40.5t-88.5 14.5q-75 0 -135 -36t-95 -98t-35 -141q0 -55 17.5 -102t48.5 -84zM114 263q0 66 28.5 118.5t78 83t110.5 30.5
q38 0 71.5 -12t60.5 -34l-299 -336q-24 30 -37 68.5t-13 81.5zM331 31q-38 0 -71.5 12.5t-61.5 34.5l300 336q24 -30 37 -68.5t13 -82.5q0 -66 -29 -118.5t-78 -83t-110 -30.5zM308 640h45l108 150h-61z" />
    <glyph glyph-name="uni0200" unicode="&#x200;" horiz-adv-x="644" 
d="M22 0h55l72 197h346l72 -197h55l-276 745h-48zM165 242l157 429l157 -429h-314zM229 859h45l-92 148h-61zM370 859h45l-92 148h-61z" />
    <glyph glyph-name="uni0201" unicode="&#x201;" horiz-adv-x="574" 
d="M237 -12q49 0 89.5 16.5t70 43.5t44.5 58v-106h45v365q0 51 -24.5 90t-68 61t-100.5 22q-47 0 -87 -16t-69.5 -41.5t-44.5 -55.5l40 -21q24 41 67 66t94 25q67 0 107.5 -35.5t40.5 -94.5v-32l-204 -34q-63 -10 -100.5 -35t-54 -58.5t-16.5 -69.5q0 -44 23 -77.5t61.5 -52
t86.5 -18.5zM112 138q0 42 31 75t109 46l189 31v-52q0 -55 -25 -102.5t-69.5 -76.5t-105.5 -29q-55 0 -92 29t-37 79zM200 640h45l-92 148h-61zM341 640h45l-92 148h-61z" />
    <glyph glyph-name="uni0202" unicode="&#x202;" horiz-adv-x="644" 
d="M22 0h55l72 197h346l72 -197h55l-276 745h-48zM165 242l157 429l157 -429h-314zM185 859h46q0 44 23.5 72t67.5 28t67.5 -28t23.5 -72h46q0 62 -36 101t-101 39q-64 0 -100.5 -39t-36.5 -101z" />
    <glyph glyph-name="uni0203" unicode="&#x203;" horiz-adv-x="574" 
d="M237 -12q49 0 89.5 16.5t70 43.5t44.5 58v-106h45v365q0 51 -24.5 90t-68 61t-100.5 22q-47 0 -87 -16t-69.5 -41.5t-44.5 -55.5l40 -21q24 41 67 66t94 25q67 0 107.5 -35.5t40.5 -94.5v-32l-204 -34q-63 -10 -100.5 -35t-54 -58.5t-16.5 -69.5q0 -44 23 -77.5t61.5 -52
t86.5 -18.5zM112 138q0 42 31 75t109 46l189 31v-52q0 -55 -25 -102.5t-69.5 -76.5t-105.5 -29q-55 0 -92 29t-37 79zM156 640h46q0 44 23.5 72t67.5 28t67.5 -28t23.5 -72h46q0 62 -36 101t-101 39q-64 0 -100.5 -39t-36.5 -101z" />
    <glyph glyph-name="uni0204" unicode="&#x204;" horiz-adv-x="614" 
d="M99 0h460v45h-410v306h390v45h-390v304h410v45h-460v-745zM236 859h45l-92 148h-61zM377 859h45l-92 148h-61z" />
    <glyph glyph-name="uni0205" unicode="&#x205;" horiz-adv-x="627" 
d="M331 -12q71 0 128.5 33.5t86.5 91.5l-38 20q-28 -49 -74 -76t-103 -27q-61 0 -109.5 28.5t-77.5 78t-33 112.5h447q3 23 3 39q0 71 -31.5 127.5t-85.5 89.5t-123 33q-72 0 -129.5 -36t-91.5 -98.5t-34 -140.5q0 -77 35 -139.5t95 -99t135 -36.5zM321 496q55 0 98.5 -27.5
t69.5 -74t26 -105.5h-403q6 59 34.5 106t74 74t100.5 27zM221 640h45l-92 148h-61zM362 640h45l-92 148h-61z" />
    <glyph glyph-name="uni0206" unicode="&#x206;" horiz-adv-x="614" 
d="M99 0h460v45h-410v306h390v45h-390v304h410v45h-460v-745zM192 859h46q0 44 23.5 72t67.5 28t67.5 -28t23.5 -72h46q0 62 -36 101t-101 39q-64 0 -100.5 -39t-36.5 -101z" />
    <glyph glyph-name="uni0207" unicode="&#x207;" horiz-adv-x="627" 
d="M331 -12q71 0 128.5 33.5t86.5 91.5l-38 20q-28 -49 -74 -76t-103 -27q-61 0 -109.5 28.5t-77.5 78t-33 112.5h447q3 23 3 39q0 71 -31.5 127.5t-85.5 89.5t-123 33q-72 0 -129.5 -36t-91.5 -98.5t-34 -140.5q0 -77 35 -139.5t95 -99t135 -36.5zM321 496q55 0 98.5 -27.5
t69.5 -74t26 -105.5h-403q6 59 34.5 106t74 74t100.5 27zM177 640h46q0 44 23.5 72t67.5 28t67.5 -28t23.5 -72h46q0 62 -36 101t-101 39q-64 0 -100.5 -39t-36.5 -101z" />
    <glyph glyph-name="uni0208" unicode="&#x208;" horiz-adv-x="248" 
d="M99 0h50v745h-50v-745zM31 859h45l-92 148h-61zM172 859h45l-92 148h-61z" />
    <glyph glyph-name="uni0209" unicode="&#x209;" horiz-adv-x="185" 
d="M70 0h45v526h-45v-526zM-1 640h45l-92 148h-61zM140 640h45l-92 148h-61z" />
    <glyph glyph-name="uni020A" unicode="&#x20a;" horiz-adv-x="248" 
d="M99 0h50v745h-50v-745zM-13 859h46q0 44 23.5 72t67.5 28t67.5 -28t23.5 -72h46q0 62 -36 101t-101 39q-64 0 -100.5 -39t-36.5 -101z" />
    <glyph glyph-name="uni020B" unicode="&#x20b;" horiz-adv-x="185" 
d="M70 0h45v526h-45v-526zM-45 640h46q0 44 23.5 72t67.5 28t67.5 -28t23.5 -72h46q0 62 -36 101t-101 39q-64 0 -100.5 -39t-36.5 -101z" />
    <glyph glyph-name="uni020C" unicode="&#x20c;" horiz-adv-x="884" 
d="M442 -12q75 0 141.5 28t116.5 79.5t78.5 122t28.5 155.5q0 84 -28.5 154.5t-79 122t-116.5 79.5t-141 28t-141 -28t-116.5 -79.5t-79 -121.5t-28.5 -155t28.5 -155.5t78.5 -122t116.5 -79.5t141.5 -28zM442 36q-70 0 -128 26.5t-100 73.5t-64.5 108t-22.5 129
q0 67 22.5 127.5t64.5 107.5t100 74t128 27q71 0 129 -27t99.5 -74t64 -107.5t22.5 -127.5q0 -68 -22.5 -129t-64.5 -108t-100 -73.5t-128 -26.5zM349 859h45l-92 148h-61zM490 859h45l-92 148h-61z" />
    <glyph glyph-name="uni020D" unicode="&#x20d;" horiz-adv-x="662" 
d="M331 -12q76 0 135.5 36t94.5 98.5t35 140.5q0 79 -35 141t-94.5 98t-135.5 36q-75 0 -135 -36t-95 -98t-35 -141q0 -78 35 -140.5t95 -98.5t135 -36zM331 31q-61 0 -110 30.5t-78 83.5t-29 118q0 66 28.5 118.5t78 83t110.5 30.5q62 0 111 -30.5t77.5 -83t28.5 -118.5
q0 -65 -29 -118t-78 -83.5t-110 -30.5zM238 640h45l-92 148h-61zM379 640h45l-92 148h-61z" />
    <glyph glyph-name="uni020E" unicode="&#x20e;" horiz-adv-x="884" 
d="M442 -12q75 0 141.5 28t116.5 79.5t78.5 122t28.5 155.5q0 84 -28.5 154.5t-79 122t-116.5 79.5t-141 28t-141 -28t-116.5 -79.5t-79 -121.5t-28.5 -155t28.5 -155.5t78.5 -122t116.5 -79.5t141.5 -28zM442 36q-70 0 -128 26.5t-100 73.5t-64.5 108t-22.5 129
q0 67 22.5 127.5t64.5 107.5t100 74t128 27q71 0 129 -27t99.5 -74t64 -107.5t22.5 -127.5q0 -68 -22.5 -129t-64.5 -108t-100 -73.5t-128 -26.5zM305 859h46q0 44 23.5 72t67.5 28t67.5 -28t23.5 -72h46q0 62 -36 101t-101 39q-64 0 -100.5 -39t-36.5 -101z" />
    <glyph glyph-name="uni020F" unicode="&#x20f;" horiz-adv-x="662" 
d="M331 -12q76 0 135.5 36t94.5 98.5t35 140.5q0 79 -35 141t-94.5 98t-135.5 36q-75 0 -135 -36t-95 -98t-35 -141q0 -78 35 -140.5t95 -98.5t135 -36zM331 31q-61 0 -110 30.5t-78 83.5t-29 118q0 66 28.5 118.5t78 83t110.5 30.5q62 0 111 -30.5t77.5 -83t28.5 -118.5
q0 -65 -29 -118t-78 -83.5t-110 -30.5zM194 640h46q0 44 23.5 72t67.5 28t67.5 -28t23.5 -72h46q0 62 -36 101t-101 39q-64 0 -100.5 -39t-36.5 -101z" />
    <glyph glyph-name="uni0210" unicode="&#x210;" horiz-adv-x="635" 
d="M99 0h50v300h212l171 -300h59l-178 308q76 19 121 76t45 138q0 66 -30 116.5t-83 78.5t-123 28h-244v-745zM149 345v355h194q55 0 97 -22.5t65.5 -62t23.5 -92.5q0 -52 -24 -92.5t-65.5 -63t-96.5 -22.5h-194zM219 859h45l-92 148h-61zM360 859h45l-92 148h-61z" />
    <glyph glyph-name="uni0211" unicode="&#x211;" horiz-adv-x="340" 
d="M88 0h45v320q0 73 39.5 120t111.5 47h34v45h-33q-50 0 -90.5 -21.5t-61.5 -60.5v76h-45v-526zM110 640h45l-92 148h-61zM251 640h45l-92 148h-61z" />
    <glyph glyph-name="uni0212" unicode="&#x212;" horiz-adv-x="635" 
d="M99 0h50v300h212l171 -300h59l-178 308q76 19 121 76t45 138q0 66 -30 116.5t-83 78.5t-123 28h-244v-745zM149 345v355h194q55 0 97 -22.5t65.5 -62t23.5 -92.5q0 -52 -24 -92.5t-65.5 -63t-96.5 -22.5h-194zM175 859h46q0 44 23.5 72t67.5 28t67.5 -28t23.5 -72h46
q0 62 -36 101t-101 39q-64 0 -100.5 -39t-36.5 -101z" />
    <glyph glyph-name="uni0213" unicode="&#x213;" horiz-adv-x="340" 
d="M88 0h45v320q0 73 39.5 120t111.5 47h34v45h-33q-50 0 -90.5 -21.5t-61.5 -60.5v76h-45v-526zM66 640h46q0 44 23.5 72t67.5 28t67.5 -28t23.5 -72h46q0 62 -36 101t-101 39q-64 0 -100.5 -39t-36.5 -101z" />
    <glyph glyph-name="uni0214" unicode="&#x214;" horiz-adv-x="690" 
d="M345 -12q75 0 131 33t87.5 92t31.5 138v494h-50v-498q0 -63 -25 -111t-70 -75.5t-105 -27.5q-59 0 -104.5 27.5t-70.5 75.5t-25 111v498h-50v-494q0 -79 31.5 -138t88 -92t130.5 -33zM252 859h45l-92 148h-61zM393 859h45l-92 148h-61z" />
    <glyph glyph-name="uni0215" unicode="&#x215;" 
d="M275 -12q55 0 97.5 24.5t64.5 64.5v-77h45v526h-45v-320q0 -48 -18 -88t-53.5 -63.5t-86.5 -23.5q-42 0 -78 17.5t-57.5 52.5t-21.5 85v340h-45v-340q0 -64 28 -108t73 -67t97 -23zM192 640h45l-92 148h-61zM333 640h45l-92 148h-61z" />
    <glyph glyph-name="uni0216" unicode="&#x216;" horiz-adv-x="690" 
d="M345 -12q75 0 131 33t87.5 92t31.5 138v494h-50v-498q0 -63 -25 -111t-70 -75.5t-105 -27.5q-59 0 -104.5 27.5t-70.5 75.5t-25 111v498h-50v-494q0 -79 31.5 -138t88 -92t130.5 -33zM208 859h46q0 44 23.5 72t67.5 28t67.5 -28t23.5 -72h46q0 62 -36 101t-101 39
q-64 0 -100.5 -39t-36.5 -101z" />
    <glyph glyph-name="uni0217" unicode="&#x217;" 
d="M275 -12q55 0 97.5 24.5t64.5 64.5v-77h45v526h-45v-320q0 -48 -18 -88t-53.5 -63.5t-86.5 -23.5q-42 0 -78 17.5t-57.5 52.5t-21.5 85v340h-45v-340q0 -64 28 -108t73 -67t97 -23zM148 640h46q0 44 23.5 72t67.5 28t67.5 -28t23.5 -72h46q0 62 -36 101t-101 39
q-64 0 -100.5 -39t-36.5 -101z" />
    <glyph glyph-name="uni0218" unicode="&#x218;" horiz-adv-x="639" 
d="M332 -12q66 0 118 25t82 68.5t30 101.5q0 70 -42 119.5t-115 71.5l-126 38q-76 23 -105 59t-29 91q0 47 22 81t59.5 52.5t83.5 18.5q66 0 119 -37t79 -108l45 14q-14 46 -48.5 85.5t-84 64t-111.5 24.5q-60 0 -108 -24.5t-76 -68t-28 -101.5q0 -67 37 -120t123 -78
l139 -40q47 -13 82.5 -46.5t35.5 -94.5q0 -48 -24 -82t-65 -52.5t-94 -18.5q-79 0 -135 40.5t-85 116.5l-45 -14q15 -47 50.5 -90t90 -69.5t125.5 -26.5zM261 -233h35l58 163h-45z" />
    <glyph glyph-name="uni0219" unicode="&#x219;" horiz-adv-x="506" 
d="M260 -12q51 0 91.5 19t64.5 52.5t24 75.5q0 52 -35 89.5t-100 55.5l-88 25q-89 25 -89 91q0 43 33 71t83 28q47 0 85 -25t60 -70l44 20q-20 53 -72.5 85.5t-116.5 32.5q-45 0 -82 -18t-58.5 -50.5t-21.5 -74.5q0 -104 128 -139l87 -24q96 -26 96 -99q0 -46 -38.5 -74
t-94.5 -28q-52 0 -94.5 28t-68.5 78l-42 -19q27 -61 81 -95.5t124 -34.5zM183 -233h35l58 163h-45z" />
    <glyph glyph-name="uni021A" unicode="&#x21a;" horiz-adv-x="514" 
d="M233 0h50v700h209v45h-470v-45h211v-700zM187 -233h35l58 163h-45z" />
    <glyph glyph-name="uni021B" unicode="&#x21b;" horiz-adv-x="379" 
d="M270 -6q6 0 19.5 1.5t23.5 4.5v40q-7 -1 -19 -2t-20 -1q-38 0 -56.5 14.5t-24 35.5t-5.5 39v360h114v40h-114v124h-45v-70q0 -54 -50 -54h-50v-40h100v-360q0 -66 33 -99t94 -33zM170 -233h35l58 163h-45z" />
    <glyph glyph-name="uni022A" unicode="&#x22a;" horiz-adv-x="884" 
d="M442 -12q75 0 141.5 28t116.5 79.5t78.5 122t28.5 155.5q0 84 -28.5 154.5t-79 122t-116.5 79.5t-141 28t-141 -28t-116.5 -79.5t-79 -121.5t-28.5 -155t28.5 -155.5t78.5 -122t116.5 -79.5t141.5 -28zM442 36q-70 0 -128 26.5t-100 73.5t-64.5 108t-22.5 129
q0 67 22.5 127.5t64.5 107.5t100 74t128 27q71 0 129 -27t99.5 -74t64 -107.5t22.5 -127.5q0 -68 -22.5 -129t-64.5 -108t-100 -73.5t-128 -26.5zM317 1049h250v40h-250v-40zM332 859h70v75h-70v-75zM482 859h70v75h-70v-75z" />
    <glyph glyph-name="uni022B" unicode="&#x22b;" horiz-adv-x="662" 
d="M331 -12q76 0 135.5 36t94.5 98.5t35 140.5q0 79 -35 141t-94.5 98t-135.5 36q-75 0 -135 -36t-95 -98t-35 -141q0 -78 35 -140.5t95 -98.5t135 -36zM331 31q-61 0 -110 30.5t-78 83.5t-29 118q0 66 28.5 118.5t78 83t110.5 30.5q62 0 111 -30.5t77.5 -83t28.5 -118.5
q0 -65 -29 -118t-78 -83.5t-110 -30.5zM206 830h250v40h-250v-40zM221 640h70v75h-70v-75zM371 640h70v75h-70v-75z" />
    <glyph glyph-name="uni022C" unicode="&#x22c;" horiz-adv-x="884" 
d="M442 -12q75 0 141.5 28t116.5 79.5t78.5 122t28.5 155.5q0 84 -28.5 154.5t-79 122t-116.5 79.5t-141 28t-141 -28t-116.5 -79.5t-79 -121.5t-28.5 -155t28.5 -155.5t78.5 -122t116.5 -79.5t141.5 -28zM442 36q-70 0 -128 26.5t-100 73.5t-64.5 108t-22.5 129
q0 67 22.5 127.5t64.5 107.5t100 74t128 27q71 0 129 -27t99.5 -74t64 -107.5t22.5 -127.5q0 -68 -22.5 -129t-64.5 -108t-100 -73.5t-128 -26.5zM317 1049h250v40h-250v-40zM499 859q41 0 63 30t22 76h-40q0 -67 -43 -67q-17 0 -28.5 10.5t-23 25t-26.5 25t-40 10.5
q-40 0 -61.5 -29t-21.5 -77h40q0 35 10.5 51t29.5 16q16 0 27 -10.5t22.5 -25t28 -25t41.5 -10.5z" />
    <glyph glyph-name="uni022D" unicode="&#x22d;" horiz-adv-x="662" 
d="M331 -12q76 0 135.5 36t94.5 98.5t35 140.5q0 79 -35 141t-94.5 98t-135.5 36q-75 0 -135 -36t-95 -98t-35 -141q0 -78 35 -140.5t95 -98.5t135 -36zM331 31q-61 0 -110 30.5t-78 83.5t-29 118q0 66 28.5 118.5t78 83t110.5 30.5q62 0 111 -30.5t77.5 -83t28.5 -118.5
q0 -65 -29 -118t-78 -83.5t-110 -30.5zM206 830h250v40h-250v-40zM388 640q41 0 63 30t22 76h-40q0 -67 -43 -67q-17 0 -28.5 10.5t-23 25t-26.5 25t-40 10.5q-40 0 -61.5 -29t-21.5 -77h40q0 35 10.5 51t29.5 16q16 0 27 -10.5t22.5 -25t28 -25t41.5 -10.5z" />
    <glyph glyph-name="uni0230" unicode="&#x230;" horiz-adv-x="884" 
d="M442 -12q75 0 141.5 28t116.5 79.5t78.5 122t28.5 155.5q0 84 -28.5 154.5t-79 122t-116.5 79.5t-141 28t-141 -28t-116.5 -79.5t-79 -121.5t-28.5 -155t28.5 -155.5t78.5 -122t116.5 -79.5t141.5 -28zM442 36q-70 0 -128 26.5t-100 73.5t-64.5 108t-22.5 129
q0 67 22.5 127.5t64.5 107.5t100 74t128 27q71 0 129 -27t99.5 -74t64 -107.5t22.5 -127.5q0 -68 -22.5 -129t-64.5 -108t-100 -73.5t-128 -26.5zM317 1049h250v40h-250v-40zM407 859h70v75h-70v-75z" />
    <glyph glyph-name="uni0231" unicode="&#x231;" horiz-adv-x="662" 
d="M331 -12q76 0 135.5 36t94.5 98.5t35 140.5q0 79 -35 141t-94.5 98t-135.5 36q-75 0 -135 -36t-95 -98t-35 -141q0 -78 35 -140.5t95 -98.5t135 -36zM331 31q-61 0 -110 30.5t-78 83.5t-29 118q0 66 28.5 118.5t78 83t110.5 30.5q62 0 111 -30.5t77.5 -83t28.5 -118.5
q0 -65 -29 -118t-78 -83.5t-110 -30.5zM206 830h250v40h-250v-40zM296 640h70v75h-70v-75z" />
    <glyph glyph-name="uni0232" unicode="&#x232;" horiz-adv-x="624" 
d="M287 0h50v333l265 412h-57l-232 -356l-234 356h-57l265 -412v-333zM187 879h250v40h-250v-40z" />
    <glyph glyph-name="uni0233" unicode="&#x233;" horiz-adv-x="529" 
d="M81 -220q51 0 85.5 23.5t56 56t32.5 59.5l252 607h-52l-189 -462l-187 462h-51l212 -524l-33 -78q-21 -49 -50.5 -74.5t-78.5 -26.5q-11 0 -26.5 1.5t-29.5 5.5v-41q15 -5 31 -7t28 -2zM140 660h250v40h-250v-40z" />
    <glyph glyph-name="uni0237" unicode="&#x237;" horiz-adv-x="221" 
d="M-18 -220q68 0 109.5 40.5t41.5 117.5v588h-45v-588q0 -56 -28.5 -85.5t-80.5 -29.5q-19 0 -36 3v-41q17 -5 39 -5z" />
    <glyph glyph-name="uni0259" unicode="&#x259;" horiz-adv-x="627" 
d="M306 -12q72 0 130 36.5t91.5 98.5t33.5 140t-35 140t-95 98.5t-135 36.5q-70 0 -128 -33.5t-87 -91.5l38 -20q28 49 74 76t103 27q61 0 109.5 -28.5t77.5 -78t33 -112.5h-447q-3 -22 -3 -39q0 -71 31.5 -127.5t85.5 -89.5t123 -33zM306 30q-55 0 -98.5 27.5t-69.5 74
t-26 105.5h403q-6 -59 -34.5 -106t-74 -74t-100.5 -27z" />
    <glyph glyph-name="circumflex" unicode="&#x2c6;" horiz-adv-x="474" 
d="M103 640h51l96 114l96 -114h51l-126 150h-43z" />
    <glyph glyph-name="caron" unicode="&#x2c7;" horiz-adv-x="474" 
d="M228 640h43l126 150h-51l-96 -114l-96 114h-51z" />
    <glyph glyph-name="breve" unicode="&#x2d8;" horiz-adv-x="446" 
d="M240 640q65 0 101 39.5t36 100.5h-46q0 -44 -23.5 -72t-67.5 -28t-67.5 28t-23.5 72h-46q0 -61 36.5 -100.5t100.5 -39.5z" />
    <glyph glyph-name="dotaccent" unicode="&#x2d9;" horiz-adv-x="258" 
d="M103 640h70v75h-70v-75z" />
    <glyph glyph-name="ring" unicode="&#x2da;" horiz-adv-x="365" 
d="M197 620q39 0 67 25.5t28 68.5q0 42 -28 68t-67 26q-38 0 -66 -25.5t-28 -68.5t28 -68.5t66 -25.5zM197 656q-23 0 -39.5 16t-16.5 42t16.5 41.5t39.5 15.5t40.5 -15.5t17.5 -41.5t-17.5 -42t-40.5 -16z" />
    <glyph glyph-name="ogonek" unicode="&#x2db;" horiz-adv-x="382" 
d="M198 -220q59 0 96 39l-15 32q-16 -17 -37.5 -26.5t-41.5 -9.5q-54 0 -54 56q0 29 15 54.5t38 45t47 29.5v15h-17q-31 -6 -60 -28t-47.5 -53.5t-18.5 -69.5q0 -40 28 -62t67 -22z" />
    <glyph glyph-name="tilde" unicode="&#x2dc;" horiz-adv-x="462" 
d="M302 640q41 0 63 30t22 76h-40q0 -67 -43 -67q-17 0 -28.5 10.5t-23 25t-26.5 25t-40 10.5q-40 0 -61.5 -29t-21.5 -77h40q0 35 10.5 51t29.5 16q16 0 27 -10.5t22.5 -25t28 -25t41.5 -10.5z" />
    <glyph glyph-name="hungarumlaut" unicode="&#x2dd;" horiz-adv-x="453" 
d="M103 640h45l68 150h-61zM244 640h45l68 150h-61z" />
    <glyph glyph-name="gravecomb" unicode="&#x300;" horiz-adv-x="0" 
d="M211 640h45l-92 150h-61z" />
    <glyph glyph-name="acutecomb" unicode="&#x301;" horiz-adv-x="0" 
d="M103 640h45l108 150h-61z" />
    <glyph glyph-name="uni0302" unicode="&#x302;" horiz-adv-x="0" 
d="M103 640h51l96 114l96 -114h51l-126 150h-43z" />
    <glyph glyph-name="tildecomb" unicode="&#x303;" horiz-adv-x="0" 
d="M302 640q41 0 63 30t22 76h-40q0 -67 -43 -67q-17 0 -28.5 10.5t-23 25t-26.5 25t-40 10.5q-40 0 -61.5 -29t-21.5 -77h40q0 35 10.5 51t29.5 16q16 0 27 -10.5t22.5 -25t28 -25t41.5 -10.5z" />
    <glyph glyph-name="uni0304" unicode="&#x304;" horiz-adv-x="0" 
d="M103 660h250v40h-250v-40z" />
    <glyph glyph-name="uni0306" unicode="&#x306;" horiz-adv-x="0" 
d="M240 640q65 0 101 39.5t36 100.5h-46q0 -44 -23.5 -72t-67.5 -28t-67.5 28t-23.5 72h-46q0 -61 36.5 -100.5t100.5 -39.5z" />
    <glyph glyph-name="uni0307" unicode="&#x307;" horiz-adv-x="0" 
d="M103 640h70v75h-70v-75z" />
    <glyph glyph-name="uni0308" unicode="&#x308;" horiz-adv-x="0" 
d="M103 640h70v75h-70v-75zM253 640h70v75h-70v-75z" />
    <glyph glyph-name="hookabovecomb" unicode="&#x309;" horiz-adv-x="0" 
d="M194 600q29 12 46.5 37t17.5 52q0 36 -24.5 58.5t-65.5 22.5q-17 0 -35 -5t-30 -13l8 -32q24 15 52 15q24 0 39.5 -13.5t15.5 -34.5q0 -19 -11.5 -35.5t-33.5 -24.5z" />
    <glyph glyph-name="uni030A" unicode="&#x30a;" horiz-adv-x="0" 
d="M197 620q39 0 67 25.5t28 68.5q0 42 -28 68t-67 26q-38 0 -66 -25.5t-28 -68.5t28 -68.5t66 -25.5zM197 656q-23 0 -39.5 16t-16.5 42t16.5 41.5t39.5 15.5t40.5 -15.5t17.5 -41.5t-17.5 -42t-40.5 -16z" />
    <glyph glyph-name="uni030B" unicode="&#x30b;" horiz-adv-x="0" 
d="M103 640h45l68 150h-61zM244 640h45l68 150h-61z" />
    <glyph glyph-name="uni030C" unicode="&#x30c;" horiz-adv-x="0" 
d="M228 640h43l126 150h-51l-96 -114l-96 114h-51z" />
    <glyph glyph-name="uni030F" unicode="&#x30f;" horiz-adv-x="0" 
d="M211 640h45l-92 148h-61zM352 640h45l-92 148h-61z" />
    <glyph glyph-name="uni0311" unicode="&#x311;" horiz-adv-x="0" 
d="M103 640h46q0 44 23.5 72t67.5 28t67.5 -28t23.5 -72h46q0 62 -36 101t-101 39q-64 0 -100.5 -39t-36.5 -101z" />
    <glyph glyph-name="uni0312" unicode="&#x312;" horiz-adv-x="0" 
d="M103 600h45l48 163h-35z" />
    <glyph glyph-name="uni031B" unicode="&#x31b;" horiz-adv-x="0" 
d="M103 640h16q42 0 69 23t27 67q0 22 -6.5 43.5t-14.5 43.5h-45q8 -20 14 -40t6 -41q0 -29 -14.5 -42t-38.5 -13h-13v-41z" />
    <glyph glyph-name="dotbelowcomb" unicode="&#x323;" horiz-adv-x="0" 
d="M103 -165h70v75h-70v-75z" />
    <glyph glyph-name="uni0324" unicode="&#x324;" horiz-adv-x="0" 
d="M103 -165h70v75h-70v-75zM253 -165h70v75h-70v-75z" />
    <glyph glyph-name="uni0326" unicode="&#x326;" horiz-adv-x="0" 
d="M103 -233h35l58 163h-45z" />
    <glyph glyph-name="uni0327" unicode="&#x327;" horiz-adv-x="0" 
d="M199 -220q42 0 68.5 23t26.5 61q0 32 -25.5 56t-68.5 31l16 59h-43l-25 -86q47 -4 75 -19.5t28 -43.5q0 -19 -14.5 -32.5t-39.5 -13.5q-20 0 -41.5 9.5t-37.5 26.5l-15 -32q37 -39 96 -39z" />
    <glyph glyph-name="uni0328" unicode="&#x328;" horiz-adv-x="0" 
d="M198 -220q59 0 96 39l-15 32q-16 -17 -37.5 -26.5t-41.5 -9.5q-54 0 -54 56q0 29 15 54.5t38 45t47 29.5v15h-17q-31 -6 -60 -28t-47.5 -53.5t-18.5 -69.5q0 -40 28 -62t67 -22z" />
    <glyph glyph-name="uni032E" unicode="&#x32e;" horiz-adv-x="0" 
d="M240 -230q65 0 101 39.5t36 100.5h-46q0 -44 -23.5 -72t-67.5 -28t-67.5 28t-23.5 72h-46q0 -61 36.5 -100.5t100.5 -39.5z" />
    <glyph glyph-name="uni0331" unicode="&#x331;" horiz-adv-x="0" 
d="M103 -140h250v40h-250v-40z" />
    <glyph glyph-name="uni0394" unicode="&#x394;" horiz-adv-x="610" 
d="M22 0h566v45l-259 700h-48l-259 -700v-45zM76 45l229 627l229 -627h-458z" />
    <glyph glyph-name="uni03A9" unicode="&#x3a9;" horiz-adv-x="884" 
d="M77 0h250v45q-61 27 -106 76t-69.5 114t-24.5 138q0 67 22.5 127.5t64.5 107.5t100 74t128 27q71 0 128.5 -27t99.5 -74t64.5 -107.5t22.5 -127.5q0 -73 -24.5 -138t-69 -114t-106.5 -76v-45h250v45h-175q79 50 127 134.5t48 193.5q0 85 -28.5 155t-79 121.5t-116.5 79.5
t-141 28t-141 -28t-116.5 -79.5t-79 -121.5t-28.5 -155q0 -109 48 -193.5t127 -134.5h-175v-45z" />
    <glyph glyph-name="pi" unicode="&#x3c0;" horiz-adv-x="626" 
d="M143 0h45v486h250v-486h45v486h100v40h-540v-40h100v-486z" />
    <glyph glyph-name="uni0E3F" unicode="&#xe3f;" horiz-adv-x="695" 
d="M99 0h217v-100h45v100h39q111 0 170 57t59 151q0 66 -36 117.5t-97 71.5q48 20 75.5 62.5t27.5 97.5q0 54 -25 96.5t-69.5 67t-104.5 24.5h-39v100h-45v-100h-217v-745zM149 415v285h167v-285h-167zM394 700q74 0 114.5 -38.5t40.5 -103.5t-42 -104t-113 -39h-33v285h33z
M149 45v325h167v-325h-167zM401 370q81 0 129.5 -44.5t48.5 -118.5q0 -73 -50 -117.5t-138 -44.5h-30v325h40z" />
    <glyph glyph-name="uni1E08" unicode="&#x1e08;" horiz-adv-x="788" 
d="M430 -12q74 0 133 27.5t100 69t59 84.5l-47 21q-33 -70 -96.5 -112t-148.5 -42q-89 0 -157.5 42.5t-107 118.5t-38.5 176t38.5 175.5t107 118t157.5 42.5q85 0 148.5 -42t96.5 -112l47 21q-18 43 -59 84.5t-100 69t-133 27.5q-76 0 -140 -28.5t-112 -80t-74.5 -122
t-26.5 -153.5q0 -84 26.5 -154t74.5 -122t112 -80.5t140 -28.5zM438 -220q42 0 68.5 23t26.5 61q0 32 -25.5 56t-68.5 31l16 59h-43l-25 -86q47 -4 75 -19.5t28 -43.5q0 -19 -14.5 -32.5t-39.5 -13.5q-20 0 -41.5 9.5t-37.5 26.5l-15 -32q37 -39 96 -39zM407 859h45l108 150
h-61z" />
    <glyph glyph-name="uni1E09" unicode="&#x1e09;" horiz-adv-x="607" 
d="M328 -12q73 0 129.5 36t83.5 89l-38 20q-28 -49 -73 -76t-102 -27q-61 0 -110 29t-78 81.5t-29 122.5t29 122.5t78 81.5t110 29q57 0 102 -26.5t73 -76.5l38 21q-27 53 -83.5 88.5t-129.5 35.5t-132.5 -36t-94.5 -98t-35 -141q0 -78 35 -140.5t94.5 -98.5t132.5 -36z
M336 -220q42 0 68.5 23t26.5 61q0 32 -25.5 56t-68.5 31l16 59h-43l-25 -86q47 -4 75 -19.5t28 -43.5q0 -19 -14.5 -32.5t-39.5 -13.5q-20 0 -41.5 9.5t-37.5 26.5l-15 -32q37 -39 96 -39zM305 640h45l108 150h-61z" />
    <glyph glyph-name="uni1E0C" unicode="&#x1e0c;" horiz-adv-x="744" 
d="M99 0h238q108 0 187 46t122 130t43 197q0 114 -43 197.5t-122 129t-187 45.5h-238v-745zM149 45v655h186q91 0 159.5 -41t106.5 -114.5t38 -171.5t-38 -172t-106.5 -115t-159.5 -41h-186zM348 -165h70v75h-70v-75z" />
    <glyph glyph-name="uni1E0D" unicode="&#x1e0d;" horiz-adv-x="674" 
d="M325 -12q71 0 128 34.5t88 92.5v-115h45v757h-45v-346q-31 58 -88 92.5t-128 34.5q-73 0 -132 -36t-93 -98.5t-34 -140.5t34 -140t93 -98.5t132 -36.5zM325 33q-61 0 -108.5 30t-75 82t-27.5 118t27.5 118t75 82t108.5 30t109 -30t76 -81.5t28 -118.5q0 -66 -28 -118
t-76 -82t-109 -30zM302 -165h70v75h-70v-75z" />
    <glyph glyph-name="uni1E0E" unicode="&#x1e0e;" horiz-adv-x="744" 
d="M99 0h238q108 0 187 46t122 130t43 197q0 114 -43 197.5t-122 129t-187 45.5h-238v-745zM149 45v655h186q91 0 159.5 -41t106.5 -114.5t38 -171.5t-38 -172t-106.5 -115t-159.5 -41h-186zM258 -140h250v40h-250v-40z" />
    <glyph glyph-name="uni1E0F" unicode="&#x1e0f;" horiz-adv-x="674" 
d="M325 -12q71 0 128 34.5t88 92.5v-115h45v757h-45v-346q-31 58 -88 92.5t-128 34.5q-73 0 -132 -36t-93 -98.5t-34 -140.5t34 -140t93 -98.5t132 -36.5zM325 33q-61 0 -108.5 30t-75 82t-27.5 118t27.5 118t75 82t108.5 30t109 -30t76 -81.5t28 -118.5q0 -66 -28 -118
t-76 -82t-109 -30zM212 -140h250v40h-250v-40z" />
    <glyph glyph-name="uni1E14" unicode="&#x1e14;" horiz-adv-x="614" 
d="M99 0h460v45h-410v306h390v45h-390v304h410v45h-460v-745zM307 1009h45l-92 150h-61zM204 879h250v40h-250v-40z" />
    <glyph glyph-name="uni1E15" unicode="&#x1e15;" horiz-adv-x="627" 
d="M331 -12q71 0 128.5 33.5t86.5 91.5l-38 20q-28 -49 -74 -76t-103 -27q-61 0 -109.5 28.5t-77.5 78t-33 112.5h447q3 23 3 39q0 71 -31.5 127.5t-85.5 89.5t-123 33q-72 0 -129.5 -36t-91.5 -98.5t-34 -140.5q0 -77 35 -139.5t95 -99t135 -36.5zM321 496q55 0 98.5 -27.5
t69.5 -74t26 -105.5h-403q6 59 34.5 106t74 74t100.5 27zM292 790h45l-92 150h-61zM189 660h250v40h-250v-40z" />
    <glyph glyph-name="uni1E16" unicode="&#x1e16;" horiz-adv-x="614" 
d="M99 0h460v45h-410v306h390v45h-390v304h410v45h-460v-745zM303 1009h45l108 150h-61zM201 879h250v40h-250v-40z" />
    <glyph glyph-name="uni1E17" unicode="&#x1e17;" horiz-adv-x="627" 
d="M331 -12q71 0 128.5 33.5t86.5 91.5l-38 20q-28 -49 -74 -76t-103 -27q-61 0 -109.5 28.5t-77.5 78t-33 112.5h447q3 23 3 39q0 71 -31.5 127.5t-85.5 89.5t-123 33q-72 0 -129.5 -36t-91.5 -98.5t-34 -140.5q0 -77 35 -139.5t95 -99t135 -36.5zM321 496q55 0 98.5 -27.5
t69.5 -74t26 -105.5h-403q6 59 34.5 106t74 74t100.5 27zM288 790h45l108 150h-61zM186 660h250v40h-250v-40z" />
    <glyph glyph-name="uni1E1C" unicode="&#x1e1c;" horiz-adv-x="614" 
d="M99 0h460v45h-410v306h390v45h-390v304h410v45h-460v-745zM337 -220q42 0 68.5 23t26.5 61q0 32 -25.5 56t-68.5 31l16 59h-43l-25 -86q47 -4 75 -19.5t28 -43.5q0 -19 -14.5 -32.5t-39.5 -13.5q-20 0 -41.5 9.5t-37.5 26.5l-15 -32q37 -39 96 -39zM329 859
q65 0 101 39.5t36 100.5h-46q0 -44 -23.5 -72t-67.5 -28t-67.5 28t-23.5 72h-46q0 -61 36.5 -100.5t100.5 -39.5z" />
    <glyph glyph-name="uni1E1D" unicode="&#x1e1d;" horiz-adv-x="627" 
d="M331 -12q71 0 128.5 33.5t86.5 91.5l-38 20q-28 -49 -74 -76t-103 -27q-61 0 -109.5 28.5t-77.5 78t-33 112.5h447q3 23 3 39q0 71 -31.5 127.5t-85.5 89.5t-123 33q-72 0 -129.5 -36t-91.5 -98.5t-34 -140.5q0 -77 35 -139.5t95 -99t135 -36.5zM321 496q55 0 98.5 -27.5
t69.5 -74t26 -105.5h-403q6 59 34.5 106t74 74t100.5 27zM322 -220q42 0 68.5 23t26.5 61q0 32 -25.5 56t-68.5 31l16 59h-43l-25 -86q47 -4 75 -19.5t28 -43.5q0 -19 -14.5 -32.5t-39.5 -13.5q-20 0 -41.5 9.5t-37.5 26.5l-15 -32q37 -39 96 -39zM314 640q65 0 101 39.5
t36 100.5h-46q0 -44 -23.5 -72t-67.5 -28t-67.5 28t-23.5 72h-46q0 -61 36.5 -100.5t100.5 -39.5z" />
    <glyph glyph-name="uni1E20" unicode="&#x1e20;" horiz-adv-x="834" 
d="M433 -12q74 0 135 26t105.5 72t69 106t24.5 127v49h-333v-45h283v-4q0 -81 -37 -145t-101 -101t-146 -37q-89 0 -158 42t-108.5 118t-39.5 176t39.5 176t109 118.5t158.5 42.5q90 0 154.5 -42t97.5 -112l47 21q-18 43 -59 84.5t-102 69t-138 27.5q-78 0 -143 -28.5
t-113 -80.5t-74.5 -122t-26.5 -154t26 -154t74 -121.5t113 -80t143 -28.5zM292 879h250v40h-250v-40z" />
    <glyph glyph-name="uni1E21" unicode="&#x1e21;" horiz-adv-x="664" 
d="M331 -220q72 0 127 30.5t86.5 84.5t31.5 123v508h-45v-112q-31 57 -86 90.5t-125 33.5q-73 0 -130.5 -36t-90.5 -96t-33 -133t33 -133t90.5 -96t130.5 -36q70 0 125 33.5t86 90.5v-114q0 -68 -29.5 -111.5t-75 -64t-95.5 -20.5q-60 0 -108 28t-77 77l-38 -22
q29 -53 88 -89t135 -36zM320 53q-61 0 -107.5 29.5t-72.5 79.5t-26 111t26 111t72.5 79.5t107.5 29.5t107.5 -29.5t73.5 -79t27 -111.5q0 -61 -27 -111t-73.5 -79.5t-107.5 -29.5zM207 660h250v40h-250v-40z" />
    <glyph glyph-name="uni1E24" unicode="&#x1e24;" horiz-adv-x="738" 
d="M99 0h50v357h440v-357h50v745h-50v-343h-440v343h-50v-745zM334 -165h70v75h-70v-75z" />
    <glyph glyph-name="uni1E25" unicode="&#x1e25;" 
d="M88 0h45v320q0 49 18.5 88.5t54 63t85.5 23.5q44 0 79.5 -19t56.5 -53.5t21 -82.5v-340h45v345q0 58 -27.5 101.5t-72.5 67.5t-98 24q-54 0 -97 -24.5t-65 -64.5v308h-45v-757zM250 -165h70v75h-70v-75z" />
    <glyph glyph-name="uni1E2A" unicode="&#x1e2a;" horiz-adv-x="738" 
d="M99 0h50v357h440v-357h50v745h-50v-343h-440v343h-50v-745zM369 -230q65 0 101 39.5t36 100.5h-46q0 -44 -23.5 -72t-67.5 -28t-67.5 28t-23.5 72h-46q0 -61 36.5 -100.5t100.5 -39.5z" />
    <glyph glyph-name="uni1E2B" unicode="&#x1e2b;" 
d="M88 0h45v320q0 49 18.5 88.5t54 63t85.5 23.5q44 0 79.5 -19t56.5 -53.5t21 -82.5v-340h45v345q0 58 -27.5 101.5t-72.5 67.5t-98 24q-54 0 -97 -24.5t-65 -64.5v308h-45v-757zM285 -230q65 0 101 39.5t36 100.5h-46q0 -44 -23.5 -72t-67.5 -28t-67.5 28t-23.5 72h-46
q0 -61 36.5 -100.5t100.5 -39.5z" />
    <glyph glyph-name="uni1E2E" unicode="&#x1e2e;" horiz-adv-x="248" 
d="M99 0h50v745h-50v-745zM90 1009h45l108 150h-61zM6 859h70v75h-70v-75zM156 859h70v75h-70v-75z" />
    <glyph glyph-name="uni1E2F" unicode="&#x1e2f;" horiz-adv-x="185" 
d="M70 0h45v526h-45v-526zM58 790h45l108 150h-61zM-26 640h70v75h-70v-75zM124 640h70v75h-70v-75z" />
    <glyph glyph-name="uni1E36" unicode="&#x1e36;" horiz-adv-x="533" 
d="M99 0h390v45h-340v700h-50v-745zM259 -165h70v75h-70v-75z" />
    <glyph glyph-name="uni1E37" unicode="&#x1e37;" horiz-adv-x="221" 
d="M88 0h45v757h-45v-757zM76 -165h70v75h-70v-75z" />
    <glyph glyph-name="uni1E3A" unicode="&#x1e3a;" horiz-adv-x="533" 
d="M99 0h390v45h-340v700h-50v-745zM169 -140h250v40h-250v-40z" />
    <glyph glyph-name="uni1E3B" unicode="&#x1e3b;" horiz-adv-x="221" 
d="M88 0h45v757h-45v-757zM-14 -140h250v40h-250v-40z" />
    <glyph glyph-name="uni1E42" unicode="&#x1e42;" horiz-adv-x="818" 
d="M99 0h50v642l259 -396h2l259 399v-645h50v745h-40l-271 -411l-269 411h-40v-745zM374 -165h70v75h-70v-75z" />
    <glyph glyph-name="uni1E43" unicode="&#x1e43;" horiz-adv-x="910" 
d="M88 0h45v320q0 49 18.5 88.5t53 63t81.5 23.5q41 0 75.5 -19t55.5 -53.5t21 -82.5v-340h45v320q0 49 18.5 88.5t53 63t81.5 23.5q41 0 75.5 -19t55.5 -53.5t21 -82.5v-340h45v345q0 58 -27 101.5t-71 67.5t-95 24q-59 0 -106.5 -30.5t-67.5 -81.5q-23 52 -71.5 82
t-104.5 30q-51 0 -93.5 -24.5t-63.5 -64.5v77h-45v-526zM420 -165h70v75h-70v-75z" />
    <glyph glyph-name="uni1E44" unicode="&#x1e44;" horiz-adv-x="738" 
d="M99 0h50v644l450 -644h40v745h-50v-644l-450 644h-40v-745zM334 859h70v75h-70v-75z" />
    <glyph glyph-name="uni1E45" unicode="&#x1e45;" 
d="M88 0h45v320q0 49 18.5 88.5t54 63t85.5 23.5q44 0 79.5 -19t56.5 -53.5t21 -82.5v-340h45v345q0 58 -27.5 101.5t-72.5 67.5t-98 24q-54 0 -97 -24.5t-65 -64.5v77h-45v-526zM250 640h70v75h-70v-75z" />
    <glyph glyph-name="uni1E46" unicode="&#x1e46;" horiz-adv-x="738" 
d="M99 0h50v644l450 -644h40v745h-50v-644l-450 644h-40v-745zM334 -165h70v75h-70v-75z" />
    <glyph glyph-name="uni1E47" unicode="&#x1e47;" 
d="M88 0h45v320q0 49 18.5 88.5t54 63t85.5 23.5q44 0 79.5 -19t56.5 -53.5t21 -82.5v-340h45v345q0 58 -27.5 101.5t-72.5 67.5t-98 24q-54 0 -97 -24.5t-65 -64.5v77h-45v-526zM250 -165h70v75h-70v-75z" />
    <glyph glyph-name="uni1E48" unicode="&#x1e48;" horiz-adv-x="738" 
d="M99 0h50v644l450 -644h40v745h-50v-644l-450 644h-40v-745zM244 -140h250v40h-250v-40z" />
    <glyph glyph-name="uni1E49" unicode="&#x1e49;" 
d="M88 0h45v320q0 49 18.5 88.5t54 63t85.5 23.5q44 0 79.5 -19t56.5 -53.5t21 -82.5v-340h45v345q0 58 -27.5 101.5t-72.5 67.5t-98 24q-54 0 -97 -24.5t-65 -64.5v77h-45v-526zM160 -140h250v40h-250v-40z" />
    <glyph glyph-name="uni1E4C" unicode="&#x1e4c;" horiz-adv-x="884" 
d="M442 -12q75 0 141.5 28t116.5 79.5t78.5 122t28.5 155.5q0 84 -28.5 154.5t-79 122t-116.5 79.5t-141 28t-141 -28t-116.5 -79.5t-79 -121.5t-28.5 -155t28.5 -155.5t78.5 -122t116.5 -79.5t141.5 -28zM442 36q-70 0 -128 26.5t-100 73.5t-64.5 108t-22.5 129
q0 67 22.5 127.5t64.5 107.5t100 74t128 27q71 0 129 -27t99.5 -74t64 -107.5t22.5 -127.5q0 -68 -22.5 -129t-64.5 -108t-100 -73.5t-128 -26.5zM419 1009h45l108 150h-61zM499 859q41 0 63 30t22 76h-40q0 -67 -43 -67q-17 0 -28.5 10.5t-23 25t-26.5 25t-40 10.5
q-40 0 -61.5 -29t-21.5 -77h40q0 35 10.5 51t29.5 16q16 0 27 -10.5t22.5 -25t28 -25t41.5 -10.5z" />
    <glyph glyph-name="uni1E4D" unicode="&#x1e4d;" horiz-adv-x="662" 
d="M331 -12q76 0 135.5 36t94.5 98.5t35 140.5q0 79 -35 141t-94.5 98t-135.5 36q-75 0 -135 -36t-95 -98t-35 -141q0 -78 35 -140.5t95 -98.5t135 -36zM331 31q-61 0 -110 30.5t-78 83.5t-29 118q0 66 28.5 118.5t78 83t110.5 30.5q62 0 111 -30.5t77.5 -83t28.5 -118.5
q0 -65 -29 -118t-78 -83.5t-110 -30.5zM308 790h45l108 150h-61zM388 640q41 0 63 30t22 76h-40q0 -67 -43 -67q-17 0 -28.5 10.5t-23 25t-26.5 25t-40 10.5q-40 0 -61.5 -29t-21.5 -77h40q0 35 10.5 51t29.5 16q16 0 27 -10.5t22.5 -25t28 -25t41.5 -10.5z" />
    <glyph glyph-name="uni1E4E" unicode="&#x1e4e;" horiz-adv-x="884" 
d="M442 -12q75 0 141.5 28t116.5 79.5t78.5 122t28.5 155.5q0 84 -28.5 154.5t-79 122t-116.5 79.5t-141 28t-141 -28t-116.5 -79.5t-79 -121.5t-28.5 -155t28.5 -155.5t78.5 -122t116.5 -79.5t141.5 -28zM442 36q-70 0 -128 26.5t-100 73.5t-64.5 108t-22.5 129
q0 67 22.5 127.5t64.5 107.5t100 74t128 27q71 0 129 -27t99.5 -74t64 -107.5t22.5 -127.5q0 -68 -22.5 -129t-64.5 -108t-100 -73.5t-128 -26.5zM332 1044h70v75h-70v-75zM482 1044h70v75h-70v-75zM499 859q41 0 63 30t22 76h-40q0 -67 -43 -67q-17 0 -28.5 10.5t-23 25
t-26.5 25t-40 10.5q-40 0 -61.5 -29t-21.5 -77h40q0 35 10.5 51t29.5 16q16 0 27 -10.5t22.5 -25t28 -25t41.5 -10.5z" />
    <glyph glyph-name="uni1E4F" unicode="&#x1e4f;" horiz-adv-x="662" 
d="M331 -12q76 0 135.5 36t94.5 98.5t35 140.5q0 79 -35 141t-94.5 98t-135.5 36q-75 0 -135 -36t-95 -98t-35 -141q0 -78 35 -140.5t95 -98.5t135 -36zM331 31q-61 0 -110 30.5t-78 83.5t-29 118q0 66 28.5 118.5t78 83t110.5 30.5q62 0 111 -30.5t77.5 -83t28.5 -118.5
q0 -65 -29 -118t-78 -83.5t-110 -30.5zM221 825h70v75h-70v-75zM371 825h70v75h-70v-75zM388 640q41 0 63 30t22 76h-40q0 -67 -43 -67q-17 0 -28.5 10.5t-23 25t-26.5 25t-40 10.5q-40 0 -61.5 -29t-21.5 -77h40q0 35 10.5 51t29.5 16q16 0 27 -10.5t22.5 -25t28 -25
t41.5 -10.5z" />
    <glyph glyph-name="uni1E50" unicode="&#x1e50;" horiz-adv-x="884" 
d="M442 -12q75 0 141.5 28t116.5 79.5t78.5 122t28.5 155.5q0 84 -28.5 154.5t-79 122t-116.5 79.5t-141 28t-141 -28t-116.5 -79.5t-79 -121.5t-28.5 -155t28.5 -155.5t78.5 -122t116.5 -79.5t141.5 -28zM442 36q-70 0 -128 26.5t-100 73.5t-64.5 108t-22.5 129
q0 67 22.5 127.5t64.5 107.5t100 74t128 27q71 0 129 -27t99.5 -74t64 -107.5t22.5 -127.5q0 -68 -22.5 -129t-64.5 -108t-100 -73.5t-128 -26.5zM420 1009h45l-92 150h-61zM317 879h250v40h-250v-40z" />
    <glyph glyph-name="uni1E51" unicode="&#x1e51;" horiz-adv-x="662" 
d="M331 -12q76 0 135.5 36t94.5 98.5t35 140.5q0 79 -35 141t-94.5 98t-135.5 36q-75 0 -135 -36t-95 -98t-35 -141q0 -78 35 -140.5t95 -98.5t135 -36zM331 31q-61 0 -110 30.5t-78 83.5t-29 118q0 66 28.5 118.5t78 83t110.5 30.5q62 0 111 -30.5t77.5 -83t28.5 -118.5
q0 -65 -29 -118t-78 -83.5t-110 -30.5zM309 790h45l-92 150h-61zM206 660h250v40h-250v-40z" />
    <glyph glyph-name="uni1E52" unicode="&#x1e52;" horiz-adv-x="884" 
d="M442 -12q75 0 141.5 28t116.5 79.5t78.5 122t28.5 155.5q0 84 -28.5 154.5t-79 122t-116.5 79.5t-141 28t-141 -28t-116.5 -79.5t-79 -121.5t-28.5 -155t28.5 -155.5t78.5 -122t116.5 -79.5t141.5 -28zM442 36q-70 0 -128 26.5t-100 73.5t-64.5 108t-22.5 129
q0 67 22.5 127.5t64.5 107.5t100 74t128 27q71 0 129 -27t99.5 -74t64 -107.5t22.5 -127.5q0 -68 -22.5 -129t-64.5 -108t-100 -73.5t-128 -26.5zM416 1009h45l108 150h-61zM314 879h250v40h-250v-40z" />
    <glyph glyph-name="uni1E53" unicode="&#x1e53;" horiz-adv-x="662" 
d="M331 -12q76 0 135.5 36t94.5 98.5t35 140.5q0 79 -35 141t-94.5 98t-135.5 36q-75 0 -135 -36t-95 -98t-35 -141q0 -78 35 -140.5t95 -98.5t135 -36zM331 31q-61 0 -110 30.5t-78 83.5t-29 118q0 66 28.5 118.5t78 83t110.5 30.5q62 0 111 -30.5t77.5 -83t28.5 -118.5
q0 -65 -29 -118t-78 -83.5t-110 -30.5zM305 790h45l108 150h-61zM203 660h250v40h-250v-40z" />
    <glyph glyph-name="uni1E5A" unicode="&#x1e5a;" horiz-adv-x="635" 
d="M99 0h50v300h212l171 -300h59l-178 308q76 19 121 76t45 138q0 66 -30 116.5t-83 78.5t-123 28h-244v-745zM149 345v355h194q55 0 97 -22.5t65.5 -62t23.5 -92.5q0 -52 -24 -92.5t-65.5 -63t-96.5 -22.5h-194zM277 -165h70v75h-70v-75z" />
    <glyph glyph-name="uni1E5B" unicode="&#x1e5b;" horiz-adv-x="340" 
d="M88 0h45v320q0 73 39.5 120t111.5 47h34v45h-33q-50 0 -90.5 -21.5t-61.5 -60.5v76h-45v-526zM76 -165h70v75h-70v-75z" />
    <glyph glyph-name="uni1E5E" unicode="&#x1e5e;" horiz-adv-x="635" 
d="M99 0h50v300h212l171 -300h59l-178 308q76 19 121 76t45 138q0 66 -30 116.5t-83 78.5t-123 28h-244v-745zM149 345v355h194q55 0 97 -22.5t65.5 -62t23.5 -92.5q0 -52 -24 -92.5t-65.5 -63t-96.5 -22.5h-194zM187 -140h250v40h-250v-40z" />
    <glyph glyph-name="uni1E5F" unicode="&#x1e5f;" horiz-adv-x="340" 
d="M88 0h45v320q0 73 39.5 120t111.5 47h34v45h-33q-50 0 -90.5 -21.5t-61.5 -60.5v76h-45v-526zM-14 -140h250v40h-250v-40z" />
    <glyph glyph-name="uni1E60" unicode="&#x1e60;" horiz-adv-x="639" 
d="M332 -12q66 0 118 25t82 68.5t30 101.5q0 70 -42 119.5t-115 71.5l-126 38q-76 23 -105 59t-29 91q0 47 22 81t59.5 52.5t83.5 18.5q66 0 119 -37t79 -108l45 14q-14 46 -48.5 85.5t-84 64t-111.5 24.5q-60 0 -108 -24.5t-76 -68t-28 -101.5q0 -67 37 -120t123 -78
l139 -40q47 -13 82.5 -46.5t35.5 -94.5q0 -48 -24 -82t-65 -52.5t-94 -18.5q-79 0 -135 40.5t-85 116.5l-45 -14q15 -47 50.5 -90t90 -69.5t125.5 -26.5zM285 859h70v75h-70v-75z" />
    <glyph glyph-name="uni1E61" unicode="&#x1e61;" horiz-adv-x="506" 
d="M260 -12q51 0 91.5 19t64.5 52.5t24 75.5q0 52 -35 89.5t-100 55.5l-88 25q-89 25 -89 91q0 43 33 71t83 28q47 0 85 -25t60 -70l44 20q-20 53 -72.5 85.5t-116.5 32.5q-45 0 -82 -18t-58.5 -50.5t-21.5 -74.5q0 -104 128 -139l87 -24q96 -26 96 -99q0 -46 -38.5 -74
t-94.5 -28q-52 0 -94.5 28t-68.5 78l-42 -19q27 -61 81 -95.5t124 -34.5zM218 640h70v75h-70v-75z" />
    <glyph glyph-name="uni1E62" unicode="&#x1e62;" horiz-adv-x="639" 
d="M332 -12q66 0 118 25t82 68.5t30 101.5q0 70 -42 119.5t-115 71.5l-126 38q-76 23 -105 59t-29 91q0 47 22 81t59.5 52.5t83.5 18.5q66 0 119 -37t79 -108l45 14q-14 46 -48.5 85.5t-84 64t-111.5 24.5q-60 0 -108 -24.5t-76 -68t-28 -101.5q0 -67 37 -120t123 -78
l139 -40q47 -13 82.5 -46.5t35.5 -94.5q0 -48 -24 -82t-65 -52.5t-94 -18.5q-79 0 -135 40.5t-85 116.5l-45 -14q15 -47 50.5 -90t90 -69.5t125.5 -26.5zM296 -165h70v75h-70v-75z" />
    <glyph glyph-name="uni1E63" unicode="&#x1e63;" horiz-adv-x="506" 
d="M260 -12q51 0 91.5 19t64.5 52.5t24 75.5q0 52 -35 89.5t-100 55.5l-88 25q-89 25 -89 91q0 43 33 71t83 28q47 0 85 -25t60 -70l44 20q-20 53 -72.5 85.5t-116.5 32.5q-45 0 -82 -18t-58.5 -50.5t-21.5 -74.5q0 -104 128 -139l87 -24q96 -26 96 -99q0 -46 -38.5 -74
t-94.5 -28q-52 0 -94.5 28t-68.5 78l-42 -19q27 -61 81 -95.5t124 -34.5zM218 -165h70v75h-70v-75z" />
    <glyph glyph-name="uni1E64" unicode="&#x1e64;" horiz-adv-x="639" 
d="M332 -12q66 0 118 25t82 68.5t30 101.5q0 70 -42 119.5t-115 71.5l-126 38q-76 23 -105 59t-29 91q0 47 22 81t59.5 52.5t83.5 18.5q66 0 119 -37t79 -108l45 14q-14 46 -48.5 85.5t-84 64t-111.5 24.5q-60 0 -108 -24.5t-76 -68t-28 -101.5q0 -67 37 -120t123 -78
l139 -40q47 -13 82.5 -46.5t35.5 -94.5q0 -48 -24 -82t-65 -52.5t-94 -18.5q-79 0 -135 40.5t-85 116.5l-45 -14q15 -47 50.5 -90t90 -69.5t125.5 -26.5zM241 924h70v75h-70v-75zM297 859h45l108 120h-61z" />
    <glyph glyph-name="uni1E65" unicode="&#x1e65;" horiz-adv-x="506" 
d="M260 -12q51 0 91.5 19t64.5 52.5t24 75.5q0 52 -35 89.5t-100 55.5l-88 25q-89 25 -89 91q0 43 33 71t83 28q47 0 85 -25t60 -70l44 20q-20 53 -72.5 85.5t-116.5 32.5q-45 0 -82 -18t-58.5 -50.5t-21.5 -74.5q0 -104 128 -139l87 -24q96 -26 96 -99q0 -46 -38.5 -74
t-94.5 -28q-52 0 -94.5 28t-68.5 78l-42 -19q27 -61 81 -95.5t124 -34.5zM174 705h70v75h-70v-75zM230 640h45l108 120h-61z" />
    <glyph glyph-name="uni1E66" unicode="&#x1e66;" horiz-adv-x="639" 
d="M332 -12q66 0 118 25t82 68.5t30 101.5q0 70 -42 119.5t-115 71.5l-126 38q-76 23 -105 59t-29 91q0 47 22 81t59.5 52.5t83.5 18.5q66 0 119 -37t79 -108l45 14q-14 46 -48.5 85.5t-84 64t-111.5 24.5q-60 0 -108 -24.5t-76 -68t-28 -101.5q0 -67 37 -120t123 -78
l139 -40q47 -13 82.5 -46.5t35.5 -94.5q0 -48 -24 -82t-65 -52.5t-94 -18.5q-79 0 -135 40.5t-85 116.5l-45 -14q15 -47 50.5 -90t90 -69.5t125.5 -26.5zM285 1044h70v75h-70v-75zM298 859h43l126 130h-55l-92 -94l-92 94h-55z" />
    <glyph glyph-name="uni1E67" unicode="&#x1e67;" horiz-adv-x="506" 
d="M260 -12q51 0 91.5 19t64.5 52.5t24 75.5q0 52 -35 89.5t-100 55.5l-88 25q-89 25 -89 91q0 43 33 71t83 28q47 0 85 -25t60 -70l44 20q-20 53 -72.5 85.5t-116.5 32.5q-45 0 -82 -18t-58.5 -50.5t-21.5 -74.5q0 -104 128 -139l87 -24q96 -26 96 -99q0 -46 -38.5 -74
t-94.5 -28q-52 0 -94.5 28t-68.5 78l-42 -19q27 -61 81 -95.5t124 -34.5zM218 825h70v75h-70v-75zM231 640h43l126 130h-55l-92 -94l-92 94h-55z" />
    <glyph glyph-name="uni1E68" unicode="&#x1e68;" horiz-adv-x="639" 
d="M332 -12q66 0 118 25t82 68.5t30 101.5q0 70 -42 119.5t-115 71.5l-126 38q-76 23 -105 59t-29 91q0 47 22 81t59.5 52.5t83.5 18.5q66 0 119 -37t79 -108l45 14q-14 46 -48.5 85.5t-84 64t-111.5 24.5q-60 0 -108 -24.5t-76 -68t-28 -101.5q0 -67 37 -120t123 -78
l139 -40q47 -13 82.5 -46.5t35.5 -94.5q0 -48 -24 -82t-65 -52.5t-94 -18.5q-79 0 -135 40.5t-85 116.5l-45 -14q15 -47 50.5 -90t90 -69.5t125.5 -26.5zM296 -165h70v75h-70v-75zM285 859h70v75h-70v-75z" />
    <glyph glyph-name="uni1E69" unicode="&#x1e69;" horiz-adv-x="506" 
d="M260 -12q51 0 91.5 19t64.5 52.5t24 75.5q0 52 -35 89.5t-100 55.5l-88 25q-89 25 -89 91q0 43 33 71t83 28q47 0 85 -25t60 -70l44 20q-20 53 -72.5 85.5t-116.5 32.5q-45 0 -82 -18t-58.5 -50.5t-21.5 -74.5q0 -104 128 -139l87 -24q96 -26 96 -99q0 -46 -38.5 -74
t-94.5 -28q-52 0 -94.5 28t-68.5 78l-42 -19q27 -61 81 -95.5t124 -34.5zM218 -165h70v75h-70v-75zM218 640h70v75h-70v-75z" />
    <glyph glyph-name="uni1E6C" unicode="&#x1e6c;" horiz-adv-x="514" 
d="M233 0h50v700h209v45h-470v-45h211v-700zM222 -165h70v75h-70v-75z" />
    <glyph glyph-name="uni1E6D" unicode="&#x1e6d;" horiz-adv-x="379" 
d="M270 -6q6 0 19.5 1.5t23.5 4.5v40q-7 -1 -19 -2t-20 -1q-38 0 -56.5 14.5t-24 35.5t-5.5 39v360h114v40h-114v124h-45v-70q0 -54 -50 -54h-50v-40h100v-360q0 -66 33 -99t94 -33zM205 -165h70v75h-70v-75z" />
    <glyph glyph-name="uni1E6E" unicode="&#x1e6e;" horiz-adv-x="514" 
d="M233 0h50v700h209v45h-470v-45h211v-700zM132 -140h250v40h-250v-40z" />
    <glyph glyph-name="uni1E6F" unicode="&#x1e6f;" horiz-adv-x="379" 
d="M270 -6q6 0 19.5 1.5t23.5 4.5v40q-7 -1 -19 -2t-20 -1q-38 0 -56.5 14.5t-24 35.5t-5.5 39v360h114v40h-114v124h-45v-70q0 -54 -50 -54h-50v-40h100v-360q0 -66 33 -99t94 -33zM115 -140h250v40h-250v-40z" />
    <glyph glyph-name="uni1E78" unicode="&#x1e78;" horiz-adv-x="690" 
d="M345 -12q75 0 131 33t87.5 92t31.5 138v494h-50v-498q0 -63 -25 -111t-70 -75.5t-105 -27.5q-59 0 -104.5 27.5t-70.5 75.5t-25 111v498h-50v-494q0 -79 31.5 -138t88 -92t130.5 -33zM322 1009h45l108 150h-61zM402 859q41 0 63 30t22 76h-40q0 -67 -43 -67
q-17 0 -28.5 10.5t-23 25t-26.5 25t-40 10.5q-40 0 -61.5 -29t-21.5 -77h40q0 35 10.5 51t29.5 16q16 0 27 -10.5t22.5 -25t28 -25t41.5 -10.5z" />
    <glyph glyph-name="uni1E79" unicode="&#x1e79;" 
d="M275 -12q55 0 97.5 24.5t64.5 64.5v-77h45v526h-45v-320q0 -48 -18 -88t-53.5 -63.5t-86.5 -23.5q-42 0 -78 17.5t-57.5 52.5t-21.5 85v340h-45v-340q0 -64 28 -108t73 -67t97 -23zM262 790h45l108 150h-61zM342 640q41 0 63 30t22 76h-40q0 -67 -43 -67
q-17 0 -28.5 10.5t-23 25t-26.5 25t-40 10.5q-40 0 -61.5 -29t-21.5 -77h40q0 35 10.5 51t29.5 16q16 0 27 -10.5t22.5 -25t28 -25t41.5 -10.5z" />
    <glyph glyph-name="uni1E7A" unicode="&#x1e7a;" horiz-adv-x="690" 
d="M345 -12q75 0 131 33t87.5 92t31.5 138v494h-50v-498q0 -63 -25 -111t-70 -75.5t-105 -27.5q-59 0 -104.5 27.5t-70.5 75.5t-25 111v498h-50v-494q0 -79 31.5 -138t88 -92t130.5 -33zM235 1044h70v75h-70v-75zM385 1044h70v75h-70v-75zM220 879h250v40h-250v-40z" />
    <glyph glyph-name="uni1E7B" unicode="&#x1e7b;" 
d="M275 -12q55 0 97.5 24.5t64.5 64.5v-77h45v526h-45v-320q0 -48 -18 -88t-53.5 -63.5t-86.5 -23.5q-42 0 -78 17.5t-57.5 52.5t-21.5 85v340h-45v-340q0 -64 28 -108t73 -67t97 -23zM175 825h70v75h-70v-75zM325 825h70v75h-70v-75zM160 660h250v40h-250v-40z" />
    <glyph glyph-name="Wgrave" unicode="&#x1e80;" horiz-adv-x="988" 
d="M245 0h48l201 660l201 -660h48l223 745h-54l-193 -657l-201 657h-48l-201 -657l-193 657h-54zM472 859h45l-92 150h-61z" />
    <glyph glyph-name="wgrave" unicode="&#x1e81;" horiz-adv-x="769" 
d="M202 0h48l134 455l134 -455h48l181 526h-50l-155 -458l-134 458h-48l-134 -459l-154 459h-50zM363 640h45l-92 150h-61z" />
    <glyph glyph-name="Wacute" unicode="&#x1e82;" horiz-adv-x="988" 
d="M245 0h48l201 660l201 -660h48l223 745h-54l-193 -657l-201 657h-48l-201 -657l-193 657h-54zM471 859h45l108 150h-61z" />
    <glyph glyph-name="wacute" unicode="&#x1e83;" horiz-adv-x="769" 
d="M202 0h48l134 455l134 -455h48l181 526h-50l-155 -458l-134 458h-48l-134 -459l-154 459h-50zM362 640h45l108 150h-61z" />
    <glyph glyph-name="Wdieresis" unicode="&#x1e84;" horiz-adv-x="988" 
d="M245 0h48l201 660l201 -660h48l223 745h-54l-193 -657l-201 657h-48l-201 -657l-193 657h-54zM384 859h70v75h-70v-75zM534 859h70v75h-70v-75z" />
    <glyph glyph-name="wdieresis" unicode="&#x1e85;" horiz-adv-x="769" 
d="M202 0h48l134 455l134 -455h48l181 526h-50l-155 -458l-134 458h-48l-134 -459l-154 459h-50zM275 640h70v75h-70v-75zM425 640h70v75h-70v-75z" />
    <glyph glyph-name="uni1E8E" unicode="&#x1e8e;" horiz-adv-x="624" 
d="M287 0h50v333l265 412h-57l-232 -356l-234 356h-57l265 -412v-333zM277 859h70v75h-70v-75z" />
    <glyph glyph-name="uni1E8F" unicode="&#x1e8f;" horiz-adv-x="529" 
d="M81 -220q51 0 85.5 23.5t56 56t32.5 59.5l252 607h-52l-189 -462l-187 462h-51l212 -524l-33 -78q-21 -49 -50.5 -74.5t-78.5 -26.5q-11 0 -26.5 1.5t-29.5 5.5v-41q15 -5 31 -7t28 -2zM230 640h70v75h-70v-75z" />
    <glyph glyph-name="uni1E92" unicode="&#x1e92;" horiz-adv-x="606" 
d="M33 0h540v45h-471l461 670v30h-503v-45h435l-462 -670v-30zM268 -165h70v75h-70v-75z" />
    <glyph glyph-name="uni1E93" unicode="&#x1e93;" horiz-adv-x="435" 
d="M33 0h380v40h-320l317 456v30h-358v-40h297l-316 -456v-30zM183 -165h70v75h-70v-75z" />
    <glyph glyph-name="uni1E97" unicode="&#x1e97;" horiz-adv-x="379" 
d="M270 -6q6 0 19.5 1.5t23.5 4.5v40q-7 -1 -19 -2t-20 -1q-38 0 -56.5 14.5t-24 35.5t-5.5 39v360h114v40h-114v124h-45v-70q0 -54 -50 -54h-50v-40h100v-360q0 -66 33 -99t94 -33zM56 764h70v75h-70v-75zM206 764h70v75h-70v-75z" />
    <glyph glyph-name="uni1E9E" unicode="&#x1e9e;" horiz-adv-x="1278" 
d="M332 -12q66 0 118 25t82 68.5t30 101.5q0 70 -42 119.5t-115 71.5l-126 38q-76 23 -105 59t-29 91q0 47 22 81t59.5 52.5t83.5 18.5q66 0 119 -37t79 -108l45 14q-14 46 -48.5 85.5t-84 64t-111.5 24.5q-60 0 -108 -24.5t-76 -68t-28 -101.5q0 -67 37 -120t123 -78
l139 -40q47 -13 82.5 -46.5t35.5 -94.5q0 -48 -24 -82t-65 -52.5t-94 -18.5q-79 0 -135 40.5t-85 116.5l-45 -14q15 -47 50.5 -90t90 -69.5t125.5 -26.5zM971 -12q66 0 118 25t82 68.5t30 101.5q0 70 -42 119.5t-115 71.5l-126 38q-76 23 -105 59t-29 91q0 47 22 81
t59.5 52.5t83.5 18.5q66 0 119 -37t79 -108l45 14q-14 46 -48.5 85.5t-84 64t-111.5 24.5q-60 0 -108 -24.5t-76 -68t-28 -101.5q0 -67 37 -120t123 -78l139 -40q47 -13 82.5 -46.5t35.5 -94.5q0 -48 -24 -82t-65 -52.5t-94 -18.5q-79 0 -135 40.5t-85 116.5l-45 -14
q15 -47 50.5 -90t90 -69.5t125.5 -26.5z" />
    <glyph glyph-name="uni1EA0" unicode="&#x1ea0;" horiz-adv-x="644" 
d="M22 0h55l72 197h346l72 -197h55l-276 745h-48zM165 242l157 429l157 -429h-314zM287 -165h70v75h-70v-75z" />
    <glyph glyph-name="uni1EA1" unicode="&#x1ea1;" horiz-adv-x="574" 
d="M237 -12q49 0 89.5 16.5t70 43.5t44.5 58v-106h45v365q0 51 -24.5 90t-68 61t-100.5 22q-47 0 -87 -16t-69.5 -41.5t-44.5 -55.5l40 -21q24 41 67 66t94 25q67 0 107.5 -35.5t40.5 -94.5v-32l-204 -34q-63 -10 -100.5 -35t-54 -58.5t-16.5 -69.5q0 -44 23 -77.5t61.5 -52
t86.5 -18.5zM112 138q0 42 31 75t109 46l189 31v-52q0 -55 -25 -102.5t-69.5 -76.5t-105.5 -29q-55 0 -92 29t-37 79zM252 -165h70v75h-70v-75z" />
    <glyph glyph-name="uni1EA2" unicode="&#x1ea2;" horiz-adv-x="644" 
d="M22 0h55l72 197h346l72 -197h55l-276 745h-48zM165 242l157 429l157 -429h-314zM335 819q29 12 46.5 37t17.5 52q0 36 -24.5 58.5t-65.5 22.5q-17 0 -35 -5t-30 -13l8 -32q24 15 52 15q24 0 39.5 -13.5t15.5 -34.5q0 -19 -11.5 -35.5t-33.5 -24.5z" />
    <glyph glyph-name="uni1EA3" unicode="&#x1ea3;" horiz-adv-x="574" 
d="M237 -12q49 0 89.5 16.5t70 43.5t44.5 58v-106h45v365q0 51 -24.5 90t-68 61t-100.5 22q-47 0 -87 -16t-69.5 -41.5t-44.5 -55.5l40 -21q24 41 67 66t94 25q67 0 107.5 -35.5t40.5 -94.5v-32l-204 -34q-63 -10 -100.5 -35t-54 -58.5t-16.5 -69.5q0 -44 23 -77.5t61.5 -52
t86.5 -18.5zM112 138q0 42 31 75t109 46l189 31v-52q0 -55 -25 -102.5t-69.5 -76.5t-105.5 -29q-55 0 -92 29t-37 79zM306 600q29 12 46.5 37t17.5 52q0 36 -24.5 58.5t-65.5 22.5q-17 0 -35 -5t-30 -13l8 -32q24 15 52 15q24 0 39.5 -13.5t15.5 -34.5q0 -19 -11.5 -35.5
t-33.5 -24.5z" />
    <glyph glyph-name="uni1EA4" unicode="&#x1ea4;" horiz-adv-x="644" 
d="M22 0h55l72 197h346l72 -197h55l-276 745h-48zM165 242l157 429l157 -429h-314zM428 924h45l88 125h-61zM175 859h55l92 94l92 -94h55l-126 130h-43z" />
    <glyph glyph-name="uni1EA5" unicode="&#x1ea5;" horiz-adv-x="574" 
d="M237 -12q49 0 89.5 16.5t70 43.5t44.5 58v-106h45v365q0 51 -24.5 90t-68 61t-100.5 22q-47 0 -87 -16t-69.5 -41.5t-44.5 -55.5l40 -21q24 41 67 66t94 25q67 0 107.5 -35.5t40.5 -94.5v-32l-204 -34q-63 -10 -100.5 -35t-54 -58.5t-16.5 -69.5q0 -44 23 -77.5t61.5 -52
t86.5 -18.5zM112 138q0 42 31 75t109 46l189 31v-52q0 -55 -25 -102.5t-69.5 -76.5t-105.5 -29q-55 0 -92 29t-37 79zM399 705h45l88 125h-61zM146 640h55l92 94l92 -94h55l-126 130h-43z" />
    <glyph glyph-name="uni1EA6" unicode="&#x1ea6;" horiz-adv-x="644" 
d="M22 0h55l72 197h346l72 -197h55l-276 745h-48zM165 242l157 429l157 -429h-314zM476 924h45l-72 125h-61zM175 859h55l92 94l92 -94h55l-126 130h-43z" />
    <glyph glyph-name="uni1EA7" unicode="&#x1ea7;" horiz-adv-x="574" 
d="M237 -12q49 0 89.5 16.5t70 43.5t44.5 58v-106h45v365q0 51 -24.5 90t-68 61t-100.5 22q-47 0 -87 -16t-69.5 -41.5t-44.5 -55.5l40 -21q24 41 67 66t94 25q67 0 107.5 -35.5t40.5 -94.5v-32l-204 -34q-63 -10 -100.5 -35t-54 -58.5t-16.5 -69.5q0 -44 23 -77.5t61.5 -52
t86.5 -18.5zM112 138q0 42 31 75t109 46l189 31v-52q0 -55 -25 -102.5t-69.5 -76.5t-105.5 -29q-55 0 -92 29t-37 79zM447 705h45l-72 125h-61zM146 640h55l92 94l92 -94h55l-126 130h-43z" />
    <glyph glyph-name="uni1EA8" unicode="&#x1ea8;" horiz-adv-x="644" 
d="M22 0h55l72 197h346l72 -197h55l-276 745h-48zM165 242l157 429l157 -429h-314zM449 929q29 12 46.5 37t17.5 52q0 36 -24.5 58.5t-65.5 22.5q-17 0 -35 -5t-30 -13l8 -32q24 15 52 15q24 0 39.5 -13.5t15.5 -34.5q0 -19 -11.5 -35.5t-33.5 -24.5zM174 859h55l92 94
l92 -94h55l-126 130h-43z" />
    <glyph glyph-name="uni1EA9" unicode="&#x1ea9;" horiz-adv-x="574" 
d="M237 -12q49 0 89.5 16.5t70 43.5t44.5 58v-106h45v365q0 51 -24.5 90t-68 61t-100.5 22q-47 0 -87 -16t-69.5 -41.5t-44.5 -55.5l40 -21q24 41 67 66t94 25q67 0 107.5 -35.5t40.5 -94.5v-32l-204 -34q-63 -10 -100.5 -35t-54 -58.5t-16.5 -69.5q0 -44 23 -77.5t61.5 -52
t86.5 -18.5zM112 138q0 42 31 75t109 46l189 31v-52q0 -55 -25 -102.5t-69.5 -76.5t-105.5 -29q-55 0 -92 29t-37 79zM420 710q29 12 46.5 37t17.5 52q0 36 -24.5 58.5t-65.5 22.5q-17 0 -35 -5t-30 -13l8 -32q24 15 52 15q24 0 39.5 -13.5t15.5 -34.5q0 -19 -11.5 -35.5
t-33.5 -24.5zM145 640h55l92 94l92 -94h55l-126 130h-43z" />
    <glyph glyph-name="uni1EAA" unicode="&#x1eaa;" horiz-adv-x="644" 
d="M22 0h55l72 197h346l72 -197h55l-276 745h-48zM165 242l157 429l157 -429h-314zM367 1049q34 0 52.5 30t18.5 76h-36q0 -67 -34 -67q-14 0 -23 10.5t-18 25t-21.5 25t-32.5 10.5q-32 0 -50.5 -29t-18.5 -77h36q0 35 8.5 51t23.5 16q13 0 22 -10.5t18 -25t21.5 -25
t33.5 -10.5zM175 859h55l92 94l92 -94h55l-126 130h-43z" />
    <glyph glyph-name="uni1EAB" unicode="&#x1eab;" horiz-adv-x="574" 
d="M237 -12q49 0 89.5 16.5t70 43.5t44.5 58v-106h45v365q0 51 -24.5 90t-68 61t-100.5 22q-47 0 -87 -16t-69.5 -41.5t-44.5 -55.5l40 -21q24 41 67 66t94 25q67 0 107.5 -35.5t40.5 -94.5v-32l-204 -34q-63 -10 -100.5 -35t-54 -58.5t-16.5 -69.5q0 -44 23 -77.5t61.5 -52
t86.5 -18.5zM112 138q0 42 31 75t109 46l189 31v-52q0 -55 -25 -102.5t-69.5 -76.5t-105.5 -29q-55 0 -92 29t-37 79zM338 830q34 0 52.5 30t18.5 76h-36q0 -67 -34 -67q-14 0 -23 10.5t-18 25t-21.5 25t-32.5 10.5q-32 0 -50.5 -29t-18.5 -77h36q0 35 8.5 51t23.5 16
q13 0 22 -10.5t18 -25t21.5 -25t33.5 -10.5zM146 640h55l92 94l92 -94h55l-126 130h-43z" />
    <glyph glyph-name="uni1EAC" unicode="&#x1eac;" horiz-adv-x="644" 
d="M22 0h55l72 197h346l72 -197h55l-276 745h-48zM165 242l157 429l157 -429h-314zM287 -165h70v75h-70v-75zM175 859h51l96 114l96 -114h51l-126 150h-43z" />
    <glyph glyph-name="uni1EAD" unicode="&#x1ead;" horiz-adv-x="574" 
d="M237 -12q49 0 89.5 16.5t70 43.5t44.5 58v-106h45v365q0 51 -24.5 90t-68 61t-100.5 22q-47 0 -87 -16t-69.5 -41.5t-44.5 -55.5l40 -21q24 41 67 66t94 25q67 0 107.5 -35.5t40.5 -94.5v-32l-204 -34q-63 -10 -100.5 -35t-54 -58.5t-16.5 -69.5q0 -44 23 -77.5t61.5 -52
t86.5 -18.5zM112 138q0 42 31 75t109 46l189 31v-52q0 -55 -25 -102.5t-69.5 -76.5t-105.5 -29q-55 0 -92 29t-37 79zM252 -165h70v75h-70v-75zM146 640h51l96 114l96 -114h51l-126 150h-43z" />
    <glyph glyph-name="uni1EAE" unicode="&#x1eae;" horiz-adv-x="644" 
d="M22 0h55l72 197h346l72 -197h55l-276 745h-48zM165 242l157 429l157 -429h-314zM299 1009h45l108 150h-61zM322 859q65 0 101 34t36 86h-46q0 -35 -23.5 -57.5t-67.5 -22.5t-67.5 22.5t-23.5 57.5h-46q0 -52 36.5 -86t100.5 -34z" />
    <glyph glyph-name="uni1EAF" unicode="&#x1eaf;" horiz-adv-x="574" 
d="M237 -12q49 0 89.5 16.5t70 43.5t44.5 58v-106h45v365q0 51 -24.5 90t-68 61t-100.5 22q-47 0 -87 -16t-69.5 -41.5t-44.5 -55.5l40 -21q24 41 67 66t94 25q67 0 107.5 -35.5t40.5 -94.5v-32l-204 -34q-63 -10 -100.5 -35t-54 -58.5t-16.5 -69.5q0 -44 23 -77.5t61.5 -52
t86.5 -18.5zM112 138q0 42 31 75t109 46l189 31v-52q0 -55 -25 -102.5t-69.5 -76.5t-105.5 -29q-55 0 -92 29t-37 79zM270 790h45l108 150h-61zM293 640q65 0 101 34t36 86h-46q0 -35 -23.5 -57.5t-67.5 -22.5t-67.5 22.5t-23.5 57.5h-46q0 -52 36.5 -86t100.5 -34z" />
    <glyph glyph-name="uni1EB0" unicode="&#x1eb0;" horiz-adv-x="644" 
d="M22 0h55l72 197h346l72 -197h55l-276 745h-48zM165 242l157 429l157 -429h-314zM300 1009h45l-92 150h-61zM322 859q65 0 101 34t36 86h-46q0 -35 -23.5 -57.5t-67.5 -22.5t-67.5 22.5t-23.5 57.5h-46q0 -52 36.5 -86t100.5 -34z" />
    <glyph glyph-name="uni1EB1" unicode="&#x1eb1;" horiz-adv-x="574" 
d="M237 -12q49 0 89.5 16.5t70 43.5t44.5 58v-106h45v365q0 51 -24.5 90t-68 61t-100.5 22q-47 0 -87 -16t-69.5 -41.5t-44.5 -55.5l40 -21q24 41 67 66t94 25q67 0 107.5 -35.5t40.5 -94.5v-32l-204 -34q-63 -10 -100.5 -35t-54 -58.5t-16.5 -69.5q0 -44 23 -77.5t61.5 -52
t86.5 -18.5zM112 138q0 42 31 75t109 46l189 31v-52q0 -55 -25 -102.5t-69.5 -76.5t-105.5 -29q-55 0 -92 29t-37 79zM271 790h45l-92 150h-61zM293 640q65 0 101 34t36 86h-46q0 -35 -23.5 -57.5t-67.5 -22.5t-67.5 22.5t-23.5 57.5h-46q0 -52 36.5 -86t100.5 -34z" />
    <glyph glyph-name="uni1EB2" unicode="&#x1eb2;" horiz-adv-x="644" 
d="M22 0h55l72 197h346l72 -197h55l-276 745h-48zM165 242l157 429l157 -429h-314zM334 999q29 12 46.5 37t17.5 52q0 36 -24.5 58.5t-65.5 22.5q-17 0 -35 -5t-30 -13l8 -32q24 15 52 15q24 0 39.5 -13.5t15.5 -34.5q0 -19 -11.5 -35.5t-33.5 -24.5zM322 859q65 0 101 34
t36 86h-46q0 -35 -23.5 -57.5t-67.5 -22.5t-67.5 22.5t-23.5 57.5h-46q0 -52 36.5 -86t100.5 -34z" />
    <glyph glyph-name="uni1EB3" unicode="&#x1eb3;" horiz-adv-x="574" 
d="M237 -12q49 0 89.5 16.5t70 43.5t44.5 58v-106h45v365q0 51 -24.5 90t-68 61t-100.5 22q-47 0 -87 -16t-69.5 -41.5t-44.5 -55.5l40 -21q24 41 67 66t94 25q67 0 107.5 -35.5t40.5 -94.5v-32l-204 -34q-63 -10 -100.5 -35t-54 -58.5t-16.5 -69.5q0 -44 23 -77.5t61.5 -52
t86.5 -18.5zM112 138q0 42 31 75t109 46l189 31v-52q0 -55 -25 -102.5t-69.5 -76.5t-105.5 -29q-55 0 -92 29t-37 79zM305 780q29 12 46.5 37t17.5 52q0 36 -24.5 58.5t-65.5 22.5q-17 0 -35 -5t-30 -13l8 -32q24 15 52 15q24 0 39.5 -13.5t15.5 -34.5q0 -19 -11.5 -35.5
t-33.5 -24.5zM293 640q65 0 101 34t36 86h-46q0 -35 -23.5 -57.5t-67.5 -22.5t-67.5 22.5t-23.5 57.5h-46q0 -52 36.5 -86t100.5 -34z" />
    <glyph glyph-name="uni1EB4" unicode="&#x1eb4;" horiz-adv-x="644" 
d="M22 0h55l72 197h346l72 -197h55l-276 745h-48zM165 242l157 429l157 -429h-314zM368 1049q34 0 52.5 30t18.5 76h-36q0 -67 -34 -67q-14 0 -23 10.5t-18 25t-21.5 25t-32.5 10.5q-32 0 -50.5 -29t-18.5 -77h36q0 35 8.5 51t23.5 16q13 0 22 -10.5t18 -25t21.5 -25
t33.5 -10.5zM322 859q65 0 101 34t36 86h-46q0 -35 -23.5 -57.5t-67.5 -22.5t-67.5 22.5t-23.5 57.5h-46q0 -52 36.5 -86t100.5 -34z" />
    <glyph glyph-name="uni1EB5" unicode="&#x1eb5;" horiz-adv-x="574" 
d="M237 -12q49 0 89.5 16.5t70 43.5t44.5 58v-106h45v365q0 51 -24.5 90t-68 61t-100.5 22q-47 0 -87 -16t-69.5 -41.5t-44.5 -55.5l40 -21q24 41 67 66t94 25q67 0 107.5 -35.5t40.5 -94.5v-32l-204 -34q-63 -10 -100.5 -35t-54 -58.5t-16.5 -69.5q0 -44 23 -77.5t61.5 -52
t86.5 -18.5zM112 138q0 42 31 75t109 46l189 31v-52q0 -55 -25 -102.5t-69.5 -76.5t-105.5 -29q-55 0 -92 29t-37 79zM339 830q34 0 52.5 30t18.5 76h-36q0 -67 -34 -67q-14 0 -23 10.5t-18 25t-21.5 25t-32.5 10.5q-32 0 -50.5 -29t-18.5 -77h36q0 35 8.5 51t23.5 16
q13 0 22 -10.5t18 -25t21.5 -25t33.5 -10.5zM293 640q65 0 101 34t36 86h-46q0 -35 -23.5 -57.5t-67.5 -22.5t-67.5 22.5t-23.5 57.5h-46q0 -52 36.5 -86t100.5 -34z" />
    <glyph glyph-name="uni1EB6" unicode="&#x1eb6;" horiz-adv-x="644" 
d="M22 0h55l72 197h346l72 -197h55l-276 745h-48zM165 242l157 429l157 -429h-314zM287 -165h70v75h-70v-75zM322 859q65 0 101 39.5t36 100.5h-46q0 -44 -23.5 -72t-67.5 -28t-67.5 28t-23.5 72h-46q0 -61 36.5 -100.5t100.5 -39.5z" />
    <glyph glyph-name="uni1EB7" unicode="&#x1eb7;" horiz-adv-x="574" 
d="M237 -12q49 0 89.5 16.5t70 43.5t44.5 58v-106h45v365q0 51 -24.5 90t-68 61t-100.5 22q-47 0 -87 -16t-69.5 -41.5t-44.5 -55.5l40 -21q24 41 67 66t94 25q67 0 107.5 -35.5t40.5 -94.5v-32l-204 -34q-63 -10 -100.5 -35t-54 -58.5t-16.5 -69.5q0 -44 23 -77.5t61.5 -52
t86.5 -18.5zM112 138q0 42 31 75t109 46l189 31v-52q0 -55 -25 -102.5t-69.5 -76.5t-105.5 -29q-55 0 -92 29t-37 79zM252 -165h70v75h-70v-75zM293 640q65 0 101 39.5t36 100.5h-46q0 -44 -23.5 -72t-67.5 -28t-67.5 28t-23.5 72h-46q0 -61 36.5 -100.5t100.5 -39.5z" />
    <glyph glyph-name="uni1EB8" unicode="&#x1eb8;" horiz-adv-x="614" 
d="M99 0h460v45h-410v306h390v45h-390v304h410v45h-460v-745zM294 -165h70v75h-70v-75z" />
    <glyph glyph-name="uni1EB9" unicode="&#x1eb9;" horiz-adv-x="627" 
d="M331 -12q71 0 128.5 33.5t86.5 91.5l-38 20q-28 -49 -74 -76t-103 -27q-61 0 -109.5 28.5t-77.5 78t-33 112.5h447q3 23 3 39q0 71 -31.5 127.5t-85.5 89.5t-123 33q-72 0 -129.5 -36t-91.5 -98.5t-34 -140.5q0 -77 35 -139.5t95 -99t135 -36.5zM321 496q55 0 98.5 -27.5
t69.5 -74t26 -105.5h-403q6 59 34.5 106t74 74t100.5 27zM279 -165h70v75h-70v-75z" />
    <glyph glyph-name="uni1EBA" unicode="&#x1eba;" horiz-adv-x="614" 
d="M99 0h460v45h-410v306h390v45h-390v304h410v45h-460v-745zM342 819q29 12 46.5 37t17.5 52q0 36 -24.5 58.5t-65.5 22.5q-17 0 -35 -5t-30 -13l8 -32q24 15 52 15q24 0 39.5 -13.5t15.5 -34.5q0 -19 -11.5 -35.5t-33.5 -24.5z" />
    <glyph glyph-name="uni1EBB" unicode="&#x1ebb;" horiz-adv-x="627" 
d="M331 -12q71 0 128.5 33.5t86.5 91.5l-38 20q-28 -49 -74 -76t-103 -27q-61 0 -109.5 28.5t-77.5 78t-33 112.5h447q3 23 3 39q0 71 -31.5 127.5t-85.5 89.5t-123 33q-72 0 -129.5 -36t-91.5 -98.5t-34 -140.5q0 -77 35 -139.5t95 -99t135 -36.5zM321 496q55 0 98.5 -27.5
t69.5 -74t26 -105.5h-403q6 59 34.5 106t74 74t100.5 27zM327 600q29 12 46.5 37t17.5 52q0 36 -24.5 58.5t-65.5 22.5q-17 0 -35 -5t-30 -13l8 -32q24 15 52 15q24 0 39.5 -13.5t15.5 -34.5q0 -19 -11.5 -35.5t-33.5 -24.5z" />
    <glyph glyph-name="uni1EBC" unicode="&#x1ebc;" horiz-adv-x="614" 
d="M99 0h460v45h-410v306h390v45h-390v304h410v45h-460v-745zM386 859q41 0 63 30t22 76h-40q0 -67 -43 -67q-17 0 -28.5 10.5t-23 25t-26.5 25t-40 10.5q-40 0 -61.5 -29t-21.5 -77h40q0 35 10.5 51t29.5 16q16 0 27 -10.5t22.5 -25t28 -25t41.5 -10.5z" />
    <glyph glyph-name="uni1EBD" unicode="&#x1ebd;" horiz-adv-x="627" 
d="M331 -12q71 0 128.5 33.5t86.5 91.5l-38 20q-28 -49 -74 -76t-103 -27q-61 0 -109.5 28.5t-77.5 78t-33 112.5h447q3 23 3 39q0 71 -31.5 127.5t-85.5 89.5t-123 33q-72 0 -129.5 -36t-91.5 -98.5t-34 -140.5q0 -77 35 -139.5t95 -99t135 -36.5zM321 496q55 0 98.5 -27.5
t69.5 -74t26 -105.5h-403q6 59 34.5 106t74 74t100.5 27zM371 640q41 0 63 30t22 76h-40q0 -67 -43 -67q-17 0 -28.5 10.5t-23 25t-26.5 25t-40 10.5q-40 0 -61.5 -29t-21.5 -77h40q0 35 10.5 51t29.5 16q16 0 27 -10.5t22.5 -25t28 -25t41.5 -10.5z" />
    <glyph glyph-name="uni1EBE" unicode="&#x1ebe;" horiz-adv-x="614" 
d="M99 0h460v45h-410v306h390v45h-390v304h410v45h-460v-745zM435 924h45l88 125h-61zM182 859h55l92 94l92 -94h55l-126 130h-43z" />
    <glyph glyph-name="uni1EBF" unicode="&#x1ebf;" horiz-adv-x="627" 
d="M331 -12q71 0 128.5 33.5t86.5 91.5l-38 20q-28 -49 -74 -76t-103 -27q-61 0 -109.5 28.5t-77.5 78t-33 112.5h447q3 23 3 39q0 71 -31.5 127.5t-85.5 89.5t-123 33q-72 0 -129.5 -36t-91.5 -98.5t-34 -140.5q0 -77 35 -139.5t95 -99t135 -36.5zM321 496q55 0 98.5 -27.5
t69.5 -74t26 -105.5h-403q6 59 34.5 106t74 74t100.5 27zM420 705h45l88 125h-61zM167 640h55l92 94l92 -94h55l-126 130h-43z" />
    <glyph glyph-name="uni1EC0" unicode="&#x1ec0;" horiz-adv-x="614" 
d="M99 0h460v45h-410v306h390v45h-390v304h410v45h-460v-745zM483 924h45l-72 125h-61zM182 859h55l92 94l92 -94h55l-126 130h-43z" />
    <glyph glyph-name="uni1EC1" unicode="&#x1ec1;" horiz-adv-x="627" 
d="M331 -12q71 0 128.5 33.5t86.5 91.5l-38 20q-28 -49 -74 -76t-103 -27q-61 0 -109.5 28.5t-77.5 78t-33 112.5h447q3 23 3 39q0 71 -31.5 127.5t-85.5 89.5t-123 33q-72 0 -129.5 -36t-91.5 -98.5t-34 -140.5q0 -77 35 -139.5t95 -99t135 -36.5zM321 496q55 0 98.5 -27.5
t69.5 -74t26 -105.5h-403q6 59 34.5 106t74 74t100.5 27zM468 705h45l-72 125h-61zM167 640h55l92 94l92 -94h55l-126 130h-43z" />
    <glyph glyph-name="uni1EC2" unicode="&#x1ec2;" horiz-adv-x="614" 
d="M99 0h460v45h-410v306h390v45h-390v304h410v45h-460v-745zM456 929q29 12 46.5 37t17.5 52q0 36 -24.5 58.5t-65.5 22.5q-17 0 -35 -5t-30 -13l8 -32q24 15 52 15q24 0 39.5 -13.5t15.5 -34.5q0 -19 -11.5 -35.5t-33.5 -24.5zM181 859h55l92 94l92 -94h55l-126 130h-43z
" />
    <glyph glyph-name="uni1EC3" unicode="&#x1ec3;" horiz-adv-x="627" 
d="M331 -12q71 0 128.5 33.5t86.5 91.5l-38 20q-28 -49 -74 -76t-103 -27q-61 0 -109.5 28.5t-77.5 78t-33 112.5h447q3 23 3 39q0 71 -31.5 127.5t-85.5 89.5t-123 33q-72 0 -129.5 -36t-91.5 -98.5t-34 -140.5q0 -77 35 -139.5t95 -99t135 -36.5zM321 496q55 0 98.5 -27.5
t69.5 -74t26 -105.5h-403q6 59 34.5 106t74 74t100.5 27zM441 710q29 12 46.5 37t17.5 52q0 36 -24.5 58.5t-65.5 22.5q-17 0 -35 -5t-30 -13l8 -32q24 15 52 15q24 0 39.5 -13.5t15.5 -34.5q0 -19 -11.5 -35.5t-33.5 -24.5zM166 640h55l92 94l92 -94h55l-126 130h-43z" />
    <glyph glyph-name="uni1EC4" unicode="&#x1ec4;" horiz-adv-x="614" 
d="M99 0h460v45h-410v306h390v45h-390v304h410v45h-460v-745zM374 1049q34 0 52.5 30t18.5 76h-36q0 -67 -34 -67q-14 0 -23 10.5t-18 25t-21.5 25t-32.5 10.5q-32 0 -50.5 -29t-18.5 -77h36q0 35 8.5 51t23.5 16q13 0 22 -10.5t18 -25t21.5 -25t33.5 -10.5zM182 859h55
l92 94l92 -94h55l-126 130h-43z" />
    <glyph glyph-name="uni1EC5" unicode="&#x1ec5;" horiz-adv-x="627" 
d="M331 -12q71 0 128.5 33.5t86.5 91.5l-38 20q-28 -49 -74 -76t-103 -27q-61 0 -109.5 28.5t-77.5 78t-33 112.5h447q3 23 3 39q0 71 -31.5 127.5t-85.5 89.5t-123 33q-72 0 -129.5 -36t-91.5 -98.5t-34 -140.5q0 -77 35 -139.5t95 -99t135 -36.5zM321 496q55 0 98.5 -27.5
t69.5 -74t26 -105.5h-403q6 59 34.5 106t74 74t100.5 27zM359 830q34 0 52.5 30t18.5 76h-36q0 -67 -34 -67q-14 0 -23 10.5t-18 25t-21.5 25t-32.5 10.5q-32 0 -50.5 -29t-18.5 -77h36q0 35 8.5 51t23.5 16q13 0 22 -10.5t18 -25t21.5 -25t33.5 -10.5zM167 640h55l92 94
l92 -94h55l-126 130h-43z" />
    <glyph glyph-name="uni1EC6" unicode="&#x1ec6;" horiz-adv-x="614" 
d="M99 0h460v45h-410v306h390v45h-390v304h410v45h-460v-745zM294 -165h70v75h-70v-75zM182 859h51l96 114l96 -114h51l-126 150h-43z" />
    <glyph glyph-name="uni1EC7" unicode="&#x1ec7;" horiz-adv-x="627" 
d="M331 -12q71 0 128.5 33.5t86.5 91.5l-38 20q-28 -49 -74 -76t-103 -27q-61 0 -109.5 28.5t-77.5 78t-33 112.5h447q3 23 3 39q0 71 -31.5 127.5t-85.5 89.5t-123 33q-72 0 -129.5 -36t-91.5 -98.5t-34 -140.5q0 -77 35 -139.5t95 -99t135 -36.5zM321 496q55 0 98.5 -27.5
t69.5 -74t26 -105.5h-403q6 59 34.5 106t74 74t100.5 27zM279 -165h70v75h-70v-75zM167 640h51l96 114l96 -114h51l-126 150h-43z" />
    <glyph glyph-name="uni1EC8" unicode="&#x1ec8;" horiz-adv-x="248" 
d="M99 0h50v745h-50v-745zM137 819q29 12 46.5 37t17.5 52q0 36 -24.5 58.5t-65.5 22.5q-17 0 -35 -5t-30 -13l8 -32q24 15 52 15q24 0 39.5 -13.5t15.5 -34.5q0 -19 -11.5 -35.5t-33.5 -24.5z" />
    <glyph glyph-name="uni1EC9" unicode="&#x1ec9;" horiz-adv-x="185" 
d="M70 0h45v526h-45v-526zM105 600q29 12 46.5 37t17.5 52q0 36 -24.5 58.5t-65.5 22.5q-17 0 -35 -5t-30 -13l8 -32q24 15 52 15q24 0 39.5 -13.5t15.5 -34.5q0 -19 -11.5 -35.5t-33.5 -24.5z" />
    <glyph glyph-name="uni1ECA" unicode="&#x1eca;" horiz-adv-x="248" 
d="M99 0h50v745h-50v-745zM89 -165h70v75h-70v-75z" />
    <glyph glyph-name="uni1ECB" unicode="&#x1ecb;" horiz-adv-x="221" 
d="M88 635h45v110h-45v-110zM88 0h45v526h-45v-526zM76 -165h70v75h-70v-75z" />
    <glyph glyph-name="uni1ECC" unicode="&#x1ecc;" horiz-adv-x="884" 
d="M442 -12q75 0 141.5 28t116.5 79.5t78.5 122t28.5 155.5q0 84 -28.5 154.5t-79 122t-116.5 79.5t-141 28t-141 -28t-116.5 -79.5t-79 -121.5t-28.5 -155t28.5 -155.5t78.5 -122t116.5 -79.5t141.5 -28zM442 36q-70 0 -128 26.5t-100 73.5t-64.5 108t-22.5 129
q0 67 22.5 127.5t64.5 107.5t100 74t128 27q71 0 129 -27t99.5 -74t64 -107.5t22.5 -127.5q0 -68 -22.5 -129t-64.5 -108t-100 -73.5t-128 -26.5zM407 -165h70v75h-70v-75z" />
    <glyph glyph-name="uni1ECD" unicode="&#x1ecd;" horiz-adv-x="662" 
d="M331 -12q76 0 135.5 36t94.5 98.5t35 140.5q0 79 -35 141t-94.5 98t-135.5 36q-75 0 -135 -36t-95 -98t-35 -141q0 -78 35 -140.5t95 -98.5t135 -36zM331 31q-61 0 -110 30.5t-78 83.5t-29 118q0 66 28.5 118.5t78 83t110.5 30.5q62 0 111 -30.5t77.5 -83t28.5 -118.5
q0 -65 -29 -118t-78 -83.5t-110 -30.5zM296 -165h70v75h-70v-75z" />
    <glyph glyph-name="uni1ECE" unicode="&#x1ece;" horiz-adv-x="884" 
d="M442 -12q75 0 141.5 28t116.5 79.5t78.5 122t28.5 155.5q0 84 -28.5 154.5t-79 122t-116.5 79.5t-141 28t-141 -28t-116.5 -79.5t-79 -121.5t-28.5 -155t28.5 -155.5t78.5 -122t116.5 -79.5t141.5 -28zM442 36q-70 0 -128 26.5t-100 73.5t-64.5 108t-22.5 129
q0 67 22.5 127.5t64.5 107.5t100 74t128 27q71 0 129 -27t99.5 -74t64 -107.5t22.5 -127.5q0 -68 -22.5 -129t-64.5 -108t-100 -73.5t-128 -26.5zM455 819q29 12 46.5 37t17.5 52q0 36 -24.5 58.5t-65.5 22.5q-17 0 -35 -5t-30 -13l8 -32q24 15 52 15q24 0 39.5 -13.5
t15.5 -34.5q0 -19 -11.5 -35.5t-33.5 -24.5z" />
    <glyph glyph-name="uni1ECF" unicode="&#x1ecf;" horiz-adv-x="662" 
d="M331 -12q76 0 135.5 36t94.5 98.5t35 140.5q0 79 -35 141t-94.5 98t-135.5 36q-75 0 -135 -36t-95 -98t-35 -141q0 -78 35 -140.5t95 -98.5t135 -36zM331 31q-61 0 -110 30.5t-78 83.5t-29 118q0 66 28.5 118.5t78 83t110.5 30.5q62 0 111 -30.5t77.5 -83t28.5 -118.5
q0 -65 -29 -118t-78 -83.5t-110 -30.5zM344 600q29 12 46.5 37t17.5 52q0 36 -24.5 58.5t-65.5 22.5q-17 0 -35 -5t-30 -13l8 -32q24 15 52 15q24 0 39.5 -13.5t15.5 -34.5q0 -19 -11.5 -35.5t-33.5 -24.5z" />
    <glyph glyph-name="uni1ED0" unicode="&#x1ed0;" horiz-adv-x="884" 
d="M442 -12q75 0 141.5 28t116.5 79.5t78.5 122t28.5 155.5q0 84 -28.5 154.5t-79 122t-116.5 79.5t-141 28t-141 -28t-116.5 -79.5t-79 -121.5t-28.5 -155t28.5 -155.5t78.5 -122t116.5 -79.5t141.5 -28zM442 36q-70 0 -128 26.5t-100 73.5t-64.5 108t-22.5 129
q0 67 22.5 127.5t64.5 107.5t100 74t128 27q71 0 129 -27t99.5 -74t64 -107.5t22.5 -127.5q0 -68 -22.5 -129t-64.5 -108t-100 -73.5t-128 -26.5zM548 924h45l88 125h-61zM295 859h55l92 94l92 -94h55l-126 130h-43z" />
    <glyph glyph-name="uni1ED1" unicode="&#x1ed1;" horiz-adv-x="662" 
d="M331 -12q76 0 135.5 36t94.5 98.5t35 140.5q0 79 -35 141t-94.5 98t-135.5 36q-75 0 -135 -36t-95 -98t-35 -141q0 -78 35 -140.5t95 -98.5t135 -36zM331 31q-61 0 -110 30.5t-78 83.5t-29 118q0 66 28.5 118.5t78 83t110.5 30.5q62 0 111 -30.5t77.5 -83t28.5 -118.5
q0 -65 -29 -118t-78 -83.5t-110 -30.5zM437 705h45l88 125h-61zM184 640h55l92 94l92 -94h55l-126 130h-43z" />
    <glyph glyph-name="uni1ED2" unicode="&#x1ed2;" horiz-adv-x="884" 
d="M442 -12q75 0 141.5 28t116.5 79.5t78.5 122t28.5 155.5q0 84 -28.5 154.5t-79 122t-116.5 79.5t-141 28t-141 -28t-116.5 -79.5t-79 -121.5t-28.5 -155t28.5 -155.5t78.5 -122t116.5 -79.5t141.5 -28zM442 36q-70 0 -128 26.5t-100 73.5t-64.5 108t-22.5 129
q0 67 22.5 127.5t64.5 107.5t100 74t128 27q71 0 129 -27t99.5 -74t64 -107.5t22.5 -127.5q0 -68 -22.5 -129t-64.5 -108t-100 -73.5t-128 -26.5zM596 924h45l-72 125h-61zM295 859h55l92 94l92 -94h55l-126 130h-43z" />
    <glyph glyph-name="uni1ED3" unicode="&#x1ed3;" horiz-adv-x="662" 
d="M331 -12q76 0 135.5 36t94.5 98.5t35 140.5q0 79 -35 141t-94.5 98t-135.5 36q-75 0 -135 -36t-95 -98t-35 -141q0 -78 35 -140.5t95 -98.5t135 -36zM331 31q-61 0 -110 30.5t-78 83.5t-29 118q0 66 28.5 118.5t78 83t110.5 30.5q62 0 111 -30.5t77.5 -83t28.5 -118.5
q0 -65 -29 -118t-78 -83.5t-110 -30.5zM485 705h45l-72 125h-61zM184 640h55l92 94l92 -94h55l-126 130h-43z" />
    <glyph glyph-name="uni1ED4" unicode="&#x1ed4;" horiz-adv-x="884" 
d="M442 -12q75 0 141.5 28t116.5 79.5t78.5 122t28.5 155.5q0 84 -28.5 154.5t-79 122t-116.5 79.5t-141 28t-141 -28t-116.5 -79.5t-79 -121.5t-28.5 -155t28.5 -155.5t78.5 -122t116.5 -79.5t141.5 -28zM442 36q-70 0 -128 26.5t-100 73.5t-64.5 108t-22.5 129
q0 67 22.5 127.5t64.5 107.5t100 74t128 27q71 0 129 -27t99.5 -74t64 -107.5t22.5 -127.5q0 -68 -22.5 -129t-64.5 -108t-100 -73.5t-128 -26.5zM569 929q29 12 46.5 37t17.5 52q0 36 -24.5 58.5t-65.5 22.5q-17 0 -35 -5t-30 -13l8 -32q24 15 52 15q24 0 39.5 -13.5
t15.5 -34.5q0 -19 -11.5 -35.5t-33.5 -24.5zM294 859h55l92 94l92 -94h55l-126 130h-43z" />
    <glyph glyph-name="uni1ED5" unicode="&#x1ed5;" horiz-adv-x="662" 
d="M331 -12q76 0 135.5 36t94.5 98.5t35 140.5q0 79 -35 141t-94.5 98t-135.5 36q-75 0 -135 -36t-95 -98t-35 -141q0 -78 35 -140.5t95 -98.5t135 -36zM331 31q-61 0 -110 30.5t-78 83.5t-29 118q0 66 28.5 118.5t78 83t110.5 30.5q62 0 111 -30.5t77.5 -83t28.5 -118.5
q0 -65 -29 -118t-78 -83.5t-110 -30.5zM458 710q29 12 46.5 37t17.5 52q0 36 -24.5 58.5t-65.5 22.5q-17 0 -35 -5t-30 -13l8 -32q24 15 52 15q24 0 39.5 -13.5t15.5 -34.5q0 -19 -11.5 -35.5t-33.5 -24.5zM183 640h55l92 94l92 -94h55l-126 130h-43z" />
    <glyph glyph-name="uni1ED6" unicode="&#x1ed6;" horiz-adv-x="884" 
d="M442 -12q75 0 141.5 28t116.5 79.5t78.5 122t28.5 155.5q0 84 -28.5 154.5t-79 122t-116.5 79.5t-141 28t-141 -28t-116.5 -79.5t-79 -121.5t-28.5 -155t28.5 -155.5t78.5 -122t116.5 -79.5t141.5 -28zM442 36q-70 0 -128 26.5t-100 73.5t-64.5 108t-22.5 129
q0 67 22.5 127.5t64.5 107.5t100 74t128 27q71 0 129 -27t99.5 -74t64 -107.5t22.5 -127.5q0 -68 -22.5 -129t-64.5 -108t-100 -73.5t-128 -26.5zM487 1049q34 0 52.5 30t18.5 76h-36q0 -67 -34 -67q-14 0 -23 10.5t-18 25t-21.5 25t-32.5 10.5q-32 0 -50.5 -29t-18.5 -77
h36q0 35 8.5 51t23.5 16q13 0 22 -10.5t18 -25t21.5 -25t33.5 -10.5zM295 859h55l92 94l92 -94h55l-126 130h-43z" />
    <glyph glyph-name="uni1ED7" unicode="&#x1ed7;" horiz-adv-x="662" 
d="M331 -12q76 0 135.5 36t94.5 98.5t35 140.5q0 79 -35 141t-94.5 98t-135.5 36q-75 0 -135 -36t-95 -98t-35 -141q0 -78 35 -140.5t95 -98.5t135 -36zM331 31q-61 0 -110 30.5t-78 83.5t-29 118q0 66 28.5 118.5t78 83t110.5 30.5q62 0 111 -30.5t77.5 -83t28.5 -118.5
q0 -65 -29 -118t-78 -83.5t-110 -30.5zM376 830q34 0 52.5 30t18.5 76h-36q0 -67 -34 -67q-14 0 -23 10.5t-18 25t-21.5 25t-32.5 10.5q-32 0 -50.5 -29t-18.5 -77h36q0 35 8.5 51t23.5 16q13 0 22 -10.5t18 -25t21.5 -25t33.5 -10.5zM184 640h55l92 94l92 -94h55l-126 130
h-43z" />
    <glyph glyph-name="uni1ED8" unicode="&#x1ed8;" horiz-adv-x="884" 
d="M442 -12q75 0 141.5 28t116.5 79.5t78.5 122t28.5 155.5q0 84 -28.5 154.5t-79 122t-116.5 79.5t-141 28t-141 -28t-116.5 -79.5t-79 -121.5t-28.5 -155t28.5 -155.5t78.5 -122t116.5 -79.5t141.5 -28zM442 36q-70 0 -128 26.5t-100 73.5t-64.5 108t-22.5 129
q0 67 22.5 127.5t64.5 107.5t100 74t128 27q71 0 129 -27t99.5 -74t64 -107.5t22.5 -127.5q0 -68 -22.5 -129t-64.5 -108t-100 -73.5t-128 -26.5zM407 -165h70v75h-70v-75zM295 859h51l96 114l96 -114h51l-126 150h-43z" />
    <glyph glyph-name="uni1ED9" unicode="&#x1ed9;" horiz-adv-x="662" 
d="M331 -12q76 0 135.5 36t94.5 98.5t35 140.5q0 79 -35 141t-94.5 98t-135.5 36q-75 0 -135 -36t-95 -98t-35 -141q0 -78 35 -140.5t95 -98.5t135 -36zM331 31q-61 0 -110 30.5t-78 83.5t-29 118q0 66 28.5 118.5t78 83t110.5 30.5q62 0 111 -30.5t77.5 -83t28.5 -118.5
q0 -65 -29 -118t-78 -83.5t-110 -30.5zM296 -165h70v75h-70v-75zM184 640h51l96 114l96 -114h51l-126 150h-43z" />
    <glyph glyph-name="uni1EDA" unicode="&#x1eda;" horiz-adv-x="884" 
d="M442 -12q75 0 141.5 28t116.5 79.5t78.5 122t28.5 155.5q0 118 -55 208t-143 135h49q42 0 69 23t27 67q0 22 -6.5 43.5t-14.5 43.5h-45q8 -20 14 -40t6 -41q0 -29 -14.5 -42t-38.5 -13h-213q-75 0 -141 -28t-116.5 -79.5t-79 -121.5t-28.5 -155t28.5 -155.5t78.5 -122
t116.5 -79.5t141.5 -28zM442 36q-70 0 -128 26.5t-100 73.5t-64.5 108t-22.5 129q0 67 22.5 127.5t64.5 107.5t100 74t128 27q71 0 129 -27t99.5 -74t64 -107.5t22.5 -127.5q0 -68 -22.5 -129t-64.5 -108t-100 -73.5t-128 -26.5zM419 859h45l108 150h-61z" />
    <glyph glyph-name="uni1EDB" unicode="&#x1edb;" horiz-adv-x="662" 
d="M331 -12q76 0 135.5 36t94.5 98.5t35 140.5t-34 139.5t-91 96.5q33 6 52.5 28.5t19.5 59.5q0 22 -6.5 43.5t-14.5 43.5h-45q8 -20 14 -40t6 -41q0 -29 -14.5 -42t-38.5 -13h-113q-75 0 -135 -36t-95 -98t-35 -141q0 -78 35 -140.5t95 -98.5t135 -36zM331 31
q-61 0 -110 30.5t-78 83.5t-29 118q0 66 28.5 118.5t78 83t110.5 30.5q62 0 111 -30.5t77.5 -83t28.5 -118.5q0 -65 -29 -118t-78 -83.5t-110 -30.5zM308 640h45l108 150h-61z" />
    <glyph glyph-name="uni1EDC" unicode="&#x1edc;" horiz-adv-x="884" 
d="M442 -12q75 0 141.5 28t116.5 79.5t78.5 122t28.5 155.5q0 118 -55 208t-143 135h49q42 0 69 23t27 67q0 22 -6.5 43.5t-14.5 43.5h-45q8 -20 14 -40t6 -41q0 -29 -14.5 -42t-38.5 -13h-213q-75 0 -141 -28t-116.5 -79.5t-79 -121.5t-28.5 -155t28.5 -155.5t78.5 -122
t116.5 -79.5t141.5 -28zM442 36q-70 0 -128 26.5t-100 73.5t-64.5 108t-22.5 129q0 67 22.5 127.5t64.5 107.5t100 74t128 27q71 0 129 -27t99.5 -74t64 -107.5t22.5 -127.5q0 -68 -22.5 -129t-64.5 -108t-100 -73.5t-128 -26.5zM420 859h45l-92 150h-61z" />
    <glyph glyph-name="uni1EDD" unicode="&#x1edd;" horiz-adv-x="662" 
d="M331 -12q76 0 135.5 36t94.5 98.5t35 140.5t-34 139.5t-91 96.5q33 6 52.5 28.5t19.5 59.5q0 22 -6.5 43.5t-14.5 43.5h-45q8 -20 14 -40t6 -41q0 -29 -14.5 -42t-38.5 -13h-113q-75 0 -135 -36t-95 -98t-35 -141q0 -78 35 -140.5t95 -98.5t135 -36zM331 31
q-61 0 -110 30.5t-78 83.5t-29 118q0 66 28.5 118.5t78 83t110.5 30.5q62 0 111 -30.5t77.5 -83t28.5 -118.5q0 -65 -29 -118t-78 -83.5t-110 -30.5zM309 640h45l-92 150h-61z" />
    <glyph glyph-name="uni1EDE" unicode="&#x1ede;" horiz-adv-x="884" 
d="M442 -12q75 0 141.5 28t116.5 79.5t78.5 122t28.5 155.5q0 118 -55 208t-143 135h49q42 0 69 23t27 67q0 22 -6.5 43.5t-14.5 43.5h-45q8 -20 14 -40t6 -41q0 -29 -14.5 -42t-38.5 -13h-213q-75 0 -141 -28t-116.5 -79.5t-79 -121.5t-28.5 -155t28.5 -155.5t78.5 -122
t116.5 -79.5t141.5 -28zM442 36q-70 0 -128 26.5t-100 73.5t-64.5 108t-22.5 129q0 67 22.5 127.5t64.5 107.5t100 74t128 27q71 0 129 -27t99.5 -74t64 -107.5t22.5 -127.5q0 -68 -22.5 -129t-64.5 -108t-100 -73.5t-128 -26.5zM455 819q29 12 46.5 37t17.5 52
q0 36 -24.5 58.5t-65.5 22.5q-17 0 -35 -5t-30 -13l8 -32q24 15 52 15q24 0 39.5 -13.5t15.5 -34.5q0 -19 -11.5 -35.5t-33.5 -24.5z" />
    <glyph glyph-name="uni1EDF" unicode="&#x1edf;" horiz-adv-x="662" 
d="M331 -12q76 0 135.5 36t94.5 98.5t35 140.5t-34 139.5t-91 96.5q33 6 52.5 28.5t19.5 59.5q0 22 -6.5 43.5t-14.5 43.5h-45q8 -20 14 -40t6 -41q0 -29 -14.5 -42t-38.5 -13h-113q-75 0 -135 -36t-95 -98t-35 -141q0 -78 35 -140.5t95 -98.5t135 -36zM331 31
q-61 0 -110 30.5t-78 83.5t-29 118q0 66 28.5 118.5t78 83t110.5 30.5q62 0 111 -30.5t77.5 -83t28.5 -118.5q0 -65 -29 -118t-78 -83.5t-110 -30.5zM344 600q29 12 46.5 37t17.5 52q0 36 -24.5 58.5t-65.5 22.5q-17 0 -35 -5t-30 -13l8 -32q24 15 52 15q24 0 39.5 -13.5
t15.5 -34.5q0 -19 -11.5 -35.5t-33.5 -24.5z" />
    <glyph glyph-name="uni1EE0" unicode="&#x1ee0;" horiz-adv-x="884" 
d="M442 -12q75 0 141.5 28t116.5 79.5t78.5 122t28.5 155.5q0 118 -55 208t-143 135h49q42 0 69 23t27 67q0 22 -6.5 43.5t-14.5 43.5h-45q8 -20 14 -40t6 -41q0 -29 -14.5 -42t-38.5 -13h-213q-75 0 -141 -28t-116.5 -79.5t-79 -121.5t-28.5 -155t28.5 -155.5t78.5 -122
t116.5 -79.5t141.5 -28zM442 36q-70 0 -128 26.5t-100 73.5t-64.5 108t-22.5 129q0 67 22.5 127.5t64.5 107.5t100 74t128 27q71 0 129 -27t99.5 -74t64 -107.5t22.5 -127.5q0 -68 -22.5 -129t-64.5 -108t-100 -73.5t-128 -26.5zM499 859q41 0 63 30t22 76h-40
q0 -67 -43 -67q-17 0 -28.5 10.5t-23 25t-26.5 25t-40 10.5q-40 0 -61.5 -29t-21.5 -77h40q0 35 10.5 51t29.5 16q16 0 27 -10.5t22.5 -25t28 -25t41.5 -10.5z" />
    <glyph glyph-name="uni1EE1" unicode="&#x1ee1;" horiz-adv-x="662" 
d="M331 -12q76 0 135.5 36t94.5 98.5t35 140.5t-34 139.5t-91 96.5q33 6 52.5 28.5t19.5 59.5q0 22 -6.5 43.5t-14.5 43.5h-45q8 -20 14 -40t6 -41q0 -29 -14.5 -42t-38.5 -13h-113q-75 0 -135 -36t-95 -98t-35 -141q0 -78 35 -140.5t95 -98.5t135 -36zM331 31
q-61 0 -110 30.5t-78 83.5t-29 118q0 66 28.5 118.5t78 83t110.5 30.5q62 0 111 -30.5t77.5 -83t28.5 -118.5q0 -65 -29 -118t-78 -83.5t-110 -30.5zM388 640q41 0 63 30t22 76h-40q0 -67 -43 -67q-17 0 -28.5 10.5t-23 25t-26.5 25t-40 10.5q-40 0 -61.5 -29t-21.5 -77h40
q0 35 10.5 51t29.5 16q16 0 27 -10.5t22.5 -25t28 -25t41.5 -10.5z" />
    <glyph glyph-name="uni1EE2" unicode="&#x1ee2;" horiz-adv-x="884" 
d="M442 -12q75 0 141.5 28t116.5 79.5t78.5 122t28.5 155.5q0 118 -55 208t-143 135h49q42 0 69 23t27 67q0 22 -6.5 43.5t-14.5 43.5h-45q8 -20 14 -40t6 -41q0 -29 -14.5 -42t-38.5 -13h-213q-75 0 -141 -28t-116.5 -79.5t-79 -121.5t-28.5 -155t28.5 -155.5t78.5 -122
t116.5 -79.5t141.5 -28zM442 36q-70 0 -128 26.5t-100 73.5t-64.5 108t-22.5 129q0 67 22.5 127.5t64.5 107.5t100 74t128 27q71 0 129 -27t99.5 -74t64 -107.5t22.5 -127.5q0 -68 -22.5 -129t-64.5 -108t-100 -73.5t-128 -26.5zM407 -165h70v75h-70v-75z" />
    <glyph glyph-name="uni1EE3" unicode="&#x1ee3;" horiz-adv-x="662" 
d="M331 -12q76 0 135.5 36t94.5 98.5t35 140.5t-34 139.5t-91 96.5q33 6 52.5 28.5t19.5 59.5q0 22 -6.5 43.5t-14.5 43.5h-45q8 -20 14 -40t6 -41q0 -29 -14.5 -42t-38.5 -13h-113q-75 0 -135 -36t-95 -98t-35 -141q0 -78 35 -140.5t95 -98.5t135 -36zM331 31
q-61 0 -110 30.5t-78 83.5t-29 118q0 66 28.5 118.5t78 83t110.5 30.5q62 0 111 -30.5t77.5 -83t28.5 -118.5q0 -65 -29 -118t-78 -83.5t-110 -30.5zM296 -165h70v75h-70v-75z" />
    <glyph glyph-name="uni1EE4" unicode="&#x1ee4;" horiz-adv-x="690" 
d="M345 -12q75 0 131 33t87.5 92t31.5 138v494h-50v-498q0 -63 -25 -111t-70 -75.5t-105 -27.5q-59 0 -104.5 27.5t-70.5 75.5t-25 111v498h-50v-494q0 -79 31.5 -138t88 -92t130.5 -33zM310 -165h70v75h-70v-75z" />
    <glyph glyph-name="uni1EE5" unicode="&#x1ee5;" 
d="M275 -12q55 0 97.5 24.5t64.5 64.5v-77h45v526h-45v-320q0 -48 -18 -88t-53.5 -63.5t-86.5 -23.5q-42 0 -78 17.5t-57.5 52.5t-21.5 85v340h-45v-340q0 -64 28 -108t73 -67t97 -23zM250 -165h70v75h-70v-75z" />
    <glyph glyph-name="uni1EE6" unicode="&#x1ee6;" horiz-adv-x="690" 
d="M345 -12q75 0 131 33t87.5 92t31.5 138v494h-50v-498q0 -63 -25 -111t-70 -75.5t-105 -27.5q-59 0 -104.5 27.5t-70.5 75.5t-25 111v498h-50v-494q0 -79 31.5 -138t88 -92t130.5 -33zM358 819q29 12 46.5 37t17.5 52q0 36 -24.5 58.5t-65.5 22.5q-17 0 -35 -5t-30 -13
l8 -32q24 15 52 15q24 0 39.5 -13.5t15.5 -34.5q0 -19 -11.5 -35.5t-33.5 -24.5z" />
    <glyph glyph-name="uni1EE7" unicode="&#x1ee7;" 
d="M275 -12q55 0 97.5 24.5t64.5 64.5v-77h45v526h-45v-320q0 -48 -18 -88t-53.5 -63.5t-86.5 -23.5q-42 0 -78 17.5t-57.5 52.5t-21.5 85v340h-45v-340q0 -64 28 -108t73 -67t97 -23zM298 600q29 12 46.5 37t17.5 52q0 36 -24.5 58.5t-65.5 22.5q-17 0 -35 -5t-30 -13
l8 -32q24 15 52 15q24 0 39.5 -13.5t15.5 -34.5q0 -19 -11.5 -35.5t-33.5 -24.5z" />
    <glyph glyph-name="uni1EE8" unicode="&#x1ee8;" horiz-adv-x="690" 
d="M345 -12q75 0 131 33t87.5 92t31.5 138v453h7q38 0 61.5 24t23.5 66q0 22 -6.5 43.5t-14.5 43.5h-45q8 -20 14 -40t6 -41q0 -29 -14.5 -42t-38.5 -13h-43v-498q0 -63 -25 -111t-70 -75.5t-105 -27.5q-59 0 -104.5 27.5t-70.5 75.5t-25 111v498h-50v-494q0 -79 31.5 -138
t88 -92t130.5 -33zM322 859h45l108 150h-61z" />
    <glyph glyph-name="uni1EE9" unicode="&#x1ee9;" horiz-adv-x="575" 
d="M275 -12q55 0 97.5 24.5t64.5 64.5v-77h45v486q37 4 59.5 26.5t22.5 62.5q0 22 -6.5 43.5t-14.5 43.5h-45q8 -20 14 -40t6 -41q0 -29 -14.5 -42t-38.5 -13h-28v-320q0 -48 -18 -88t-53.5 -63.5t-86.5 -23.5q-42 0 -78 17.5t-57.5 52.5t-21.5 85v340h-45v-340
q0 -64 28 -108t73 -67t97 -23zM262 640h45l108 150h-61z" />
    <glyph glyph-name="uni1EEA" unicode="&#x1eea;" horiz-adv-x="690" 
d="M345 -12q75 0 131 33t87.5 92t31.5 138v453h7q38 0 61.5 24t23.5 66q0 22 -6.5 43.5t-14.5 43.5h-45q8 -20 14 -40t6 -41q0 -29 -14.5 -42t-38.5 -13h-43v-498q0 -63 -25 -111t-70 -75.5t-105 -27.5q-59 0 -104.5 27.5t-70.5 75.5t-25 111v498h-50v-494q0 -79 31.5 -138
t88 -92t130.5 -33zM323 859h45l-92 150h-61z" />
    <glyph glyph-name="uni1EEB" unicode="&#x1eeb;" horiz-adv-x="575" 
d="M275 -12q55 0 97.5 24.5t64.5 64.5v-77h45v486q37 4 59.5 26.5t22.5 62.5q0 22 -6.5 43.5t-14.5 43.5h-45q8 -20 14 -40t6 -41q0 -29 -14.5 -42t-38.5 -13h-28v-320q0 -48 -18 -88t-53.5 -63.5t-86.5 -23.5q-42 0 -78 17.5t-57.5 52.5t-21.5 85v340h-45v-340
q0 -64 28 -108t73 -67t97 -23zM263 640h45l-92 150h-61z" />
    <glyph glyph-name="uni1EEC" unicode="&#x1eec;" horiz-adv-x="690" 
d="M345 -12q75 0 131 33t87.5 92t31.5 138v453h7q38 0 61.5 24t23.5 66q0 22 -6.5 43.5t-14.5 43.5h-45q8 -20 14 -40t6 -41q0 -29 -14.5 -42t-38.5 -13h-43v-498q0 -63 -25 -111t-70 -75.5t-105 -27.5q-59 0 -104.5 27.5t-70.5 75.5t-25 111v498h-50v-494q0 -79 31.5 -138
t88 -92t130.5 -33zM358 819q29 12 46.5 37t17.5 52q0 36 -24.5 58.5t-65.5 22.5q-17 0 -35 -5t-30 -13l8 -32q24 15 52 15q24 0 39.5 -13.5t15.5 -34.5q0 -19 -11.5 -35.5t-33.5 -24.5z" />
    <glyph glyph-name="uni1EED" unicode="&#x1eed;" horiz-adv-x="575" 
d="M275 -12q55 0 97.5 24.5t64.5 64.5v-77h45v486q37 4 59.5 26.5t22.5 62.5q0 22 -6.5 43.5t-14.5 43.5h-45q8 -20 14 -40t6 -41q0 -29 -14.5 -42t-38.5 -13h-28v-320q0 -48 -18 -88t-53.5 -63.5t-86.5 -23.5q-42 0 -78 17.5t-57.5 52.5t-21.5 85v340h-45v-340
q0 -64 28 -108t73 -67t97 -23zM298 600q29 12 46.5 37t17.5 52q0 36 -24.5 58.5t-65.5 22.5q-17 0 -35 -5t-30 -13l8 -32q24 15 52 15q24 0 39.5 -13.5t15.5 -34.5q0 -19 -11.5 -35.5t-33.5 -24.5z" />
    <glyph glyph-name="uni1EEE" unicode="&#x1eee;" horiz-adv-x="690" 
d="M345 -12q75 0 131 33t87.5 92t31.5 138v453h7q38 0 61.5 24t23.5 66q0 22 -6.5 43.5t-14.5 43.5h-45q8 -20 14 -40t6 -41q0 -29 -14.5 -42t-38.5 -13h-43v-498q0 -63 -25 -111t-70 -75.5t-105 -27.5q-59 0 -104.5 27.5t-70.5 75.5t-25 111v498h-50v-494q0 -79 31.5 -138
t88 -92t130.5 -33zM402 859q41 0 63 30t22 76h-40q0 -67 -43 -67q-17 0 -28.5 10.5t-23 25t-26.5 25t-40 10.5q-40 0 -61.5 -29t-21.5 -77h40q0 35 10.5 51t29.5 16q16 0 27 -10.5t22.5 -25t28 -25t41.5 -10.5z" />
    <glyph glyph-name="uni1EEF" unicode="&#x1eef;" horiz-adv-x="575" 
d="M275 -12q55 0 97.5 24.5t64.5 64.5v-77h45v486q37 4 59.5 26.5t22.5 62.5q0 22 -6.5 43.5t-14.5 43.5h-45q8 -20 14 -40t6 -41q0 -29 -14.5 -42t-38.5 -13h-28v-320q0 -48 -18 -88t-53.5 -63.5t-86.5 -23.5q-42 0 -78 17.5t-57.5 52.5t-21.5 85v340h-45v-340
q0 -64 28 -108t73 -67t97 -23zM342 640q41 0 63 30t22 76h-40q0 -67 -43 -67q-17 0 -28.5 10.5t-23 25t-26.5 25t-40 10.5q-40 0 -61.5 -29t-21.5 -77h40q0 35 10.5 51t29.5 16q16 0 27 -10.5t22.5 -25t28 -25t41.5 -10.5z" />
    <glyph glyph-name="uni1EF0" unicode="&#x1ef0;" horiz-adv-x="690" 
d="M345 -12q75 0 131 33t87.5 92t31.5 138v453h7q38 0 61.5 24t23.5 66q0 22 -6.5 43.5t-14.5 43.5h-45q8 -20 14 -40t6 -41q0 -29 -14.5 -42t-38.5 -13h-43v-498q0 -63 -25 -111t-70 -75.5t-105 -27.5q-59 0 -104.5 27.5t-70.5 75.5t-25 111v498h-50v-494q0 -79 31.5 -138
t88 -92t130.5 -33zM310 -165h70v75h-70v-75z" />
    <glyph glyph-name="uni1EF1" unicode="&#x1ef1;" horiz-adv-x="575" 
d="M275 -12q55 0 97.5 24.5t64.5 64.5v-77h45v486q37 4 59.5 26.5t22.5 62.5q0 22 -6.5 43.5t-14.5 43.5h-45q8 -20 14 -40t6 -41q0 -29 -14.5 -42t-38.5 -13h-28v-320q0 -48 -18 -88t-53.5 -63.5t-86.5 -23.5q-42 0 -78 17.5t-57.5 52.5t-21.5 85v340h-45v-340
q0 -64 28 -108t73 -67t97 -23zM250 -165h70v75h-70v-75z" />
    <glyph glyph-name="Ygrave" unicode="&#x1ef2;" horiz-adv-x="624" 
d="M287 0h50v333l265 412h-57l-232 -356l-234 356h-57l265 -412v-333zM290 859h45l-92 150h-61z" />
    <glyph glyph-name="ygrave" unicode="&#x1ef3;" horiz-adv-x="529" 
d="M81 -220q51 0 85.5 23.5t56 56t32.5 59.5l252 607h-52l-189 -462l-187 462h-51l212 -524l-33 -78q-21 -49 -50.5 -74.5t-78.5 -26.5q-11 0 -26.5 1.5t-29.5 5.5v-41q15 -5 31 -7t28 -2zM243 640h45l-92 150h-61z" />
    <glyph glyph-name="uni1EF4" unicode="&#x1ef4;" horiz-adv-x="624" 
d="M287 0h50v333l265 412h-57l-232 -356l-234 356h-57l265 -412v-333zM277 -165h70v75h-70v-75z" />
    <glyph glyph-name="uni1EF5" unicode="&#x1ef5;" horiz-adv-x="529" 
d="M81 -220q51 0 85.5 23.5t56 56t32.5 59.5l252 607h-52l-189 -462l-187 462h-51l212 -524l-33 -78q-21 -49 -50.5 -74.5t-78.5 -26.5q-11 0 -26.5 1.5t-29.5 5.5v-41q15 -5 31 -7t28 -2zM444 -65h70v75h-70v-75z" />
    <glyph glyph-name="uni1EF6" unicode="&#x1ef6;" horiz-adv-x="624" 
d="M287 0h50v333l265 412h-57l-232 -356l-234 356h-57l265 -412v-333zM325 819q29 12 46.5 37t17.5 52q0 36 -24.5 58.5t-65.5 22.5q-17 0 -35 -5t-30 -13l8 -32q24 15 52 15q24 0 39.5 -13.5t15.5 -34.5q0 -19 -11.5 -35.5t-33.5 -24.5z" />
    <glyph glyph-name="uni1EF7" unicode="&#x1ef7;" horiz-adv-x="529" 
d="M81 -220q51 0 85.5 23.5t56 56t32.5 59.5l252 607h-52l-189 -462l-187 462h-51l212 -524l-33 -78q-21 -49 -50.5 -74.5t-78.5 -26.5q-11 0 -26.5 1.5t-29.5 5.5v-41q15 -5 31 -7t28 -2zM278 600q29 12 46.5 37t17.5 52q0 36 -24.5 58.5t-65.5 22.5q-17 0 -35 -5t-30 -13
l8 -32q24 15 52 15q24 0 39.5 -13.5t15.5 -34.5q0 -19 -11.5 -35.5t-33.5 -24.5z" />
    <glyph glyph-name="uni1EF8" unicode="&#x1ef8;" horiz-adv-x="624" 
d="M287 0h50v333l265 412h-57l-232 -356l-234 356h-57l265 -412v-333zM369 859q41 0 63 30t22 76h-40q0 -67 -43 -67q-17 0 -28.5 10.5t-23 25t-26.5 25t-40 10.5q-40 0 -61.5 -29t-21.5 -77h40q0 35 10.5 51t29.5 16q16 0 27 -10.5t22.5 -25t28 -25t41.5 -10.5z" />
    <glyph glyph-name="uni1EF9" unicode="&#x1ef9;" horiz-adv-x="529" 
d="M81 -220q51 0 85.5 23.5t56 56t32.5 59.5l252 607h-52l-189 -462l-187 462h-51l212 -524l-33 -78q-21 -49 -50.5 -74.5t-78.5 -26.5q-11 0 -26.5 1.5t-29.5 5.5v-41q15 -5 31 -7t28 -2zM322 640q41 0 63 30t22 76h-40q0 -67 -43 -67q-17 0 -28.5 10.5t-23 25t-26.5 25
t-40 10.5q-40 0 -61.5 -29t-21.5 -77h40q0 35 10.5 51t29.5 16q16 0 27 -10.5t22.5 -25t28 -25t41.5 -10.5z" />
    <glyph glyph-name="uni2002" unicode="&#x2002;" horiz-adv-x="500" 
 />
    <glyph glyph-name="uni2003" unicode="&#x2003;" horiz-adv-x="1000" 
 />
    <glyph glyph-name="uni2007" unicode="&#x2007;" horiz-adv-x="600" 
 />
    <glyph glyph-name="uni2008" unicode="&#x2008;" horiz-adv-x="261" 
 />
    <glyph glyph-name="uni2009" unicode="&#x2009;" horiz-adv-x="205" 
 />
    <glyph glyph-name="uni200A" unicode="&#x200a;" horiz-adv-x="42" 
 />
    <glyph glyph-name="uni200B" unicode="&#x200b;" horiz-adv-x="0" 
 />
    <glyph glyph-name="uni2010" unicode="&#x2010;" horiz-adv-x="468" 
d="M38 241h320v45h-320v-45z" />
    <glyph glyph-name="figuredash" unicode="&#x2012;" horiz-adv-x="548" 
d="M38 241h400v45h-400v-45z" />
    <glyph glyph-name="endash" unicode="&#x2013;" horiz-adv-x="548" 
d="M74 241h400v45h-400v-45z" />
    <glyph glyph-name="emdash" unicode="&#x2014;" horiz-adv-x="888" 
d="M74 241h740v45h-740v-45z" />
    <glyph glyph-name="uni2015" unicode="&#x2015;" horiz-adv-x="888" 
d="M38 241h740v45h-740v-45z" />
    <glyph glyph-name="quoteleft" unicode="&#x2018;" horiz-adv-x="248" 
d="M81 562h55v90h-24q0 29 11.5 49t32.5 24v32q-33 -9 -54 -41.5t-21 -77.5v-76z" />
    <glyph glyph-name="quoteright" unicode="&#x2019;" horiz-adv-x="248" 
d="M81 550q33 9 54 41.5t21 77.5v76h-55v-90h24q0 -29 -11.5 -48.5t-32.5 -24.5v-32z" />
    <glyph glyph-name="quotesinglbase" unicode="&#x201a;" horiz-adv-x="248" 
d="M81 -105q33 9 54 41.5t21 77.5v76h-55v-90h24q0 -29 -11.5 -48.5t-32.5 -24.5v-32z" />
    <glyph glyph-name="quotedblleft" unicode="&#x201c;" horiz-adv-x="378" 
d="M211 562h55v90h-24q0 29 11.5 49t32.5 24v32q-33 -9 -54 -41.5t-21 -77.5v-76zM81 562h55v90h-24q0 29 11.5 49t32.5 24v32q-33 -9 -54 -41.5t-21 -77.5v-76z" />
    <glyph glyph-name="quotedblright" unicode="&#x201d;" horiz-adv-x="378" 
d="M211 550q33 9 54 41.5t21 77.5v76h-55v-90h24q0 -29 -11.5 -48.5t-32.5 -24.5v-32zM81 550q33 9 54 41.5t21 77.5v76h-55v-90h24q0 -29 -11.5 -48.5t-32.5 -24.5v-32z" />
    <glyph glyph-name="quotedblbase" unicode="&#x201e;" horiz-adv-x="378" 
d="M81 -105q33 9 54 41.5t21 77.5v76h-55v-90h24q0 -29 -11.5 -48.5t-32.5 -24.5v-32zM211 -105q33 9 54 41.5t21 77.5v76h-55v-90h24q0 -29 -11.5 -48.5t-32.5 -24.5v-32z" />
    <glyph glyph-name="dagger" unicode="&#x2020;" horiz-adv-x="618" 
d="M284 -190h50v671h245v45h-245v219h-50v-219h-245v-45h245v-671z" />
    <glyph glyph-name="daggerdbl" unicode="&#x2021;" horiz-adv-x="640" 
d="M295 -190h50v220h245v45h-245v406h245v45h-245v219h-50v-219h-245v-45h245v-406h-245v-45h245v-220z" />
    <glyph glyph-name="bullet" unicode="&#x2022;" horiz-adv-x="456" 
d="M230 138q52 0 87.5 36t35.5 91q-1 51 -36 87t-87 36q-36 0 -64.5 -16.5t-45.5 -44.5t-17 -62q0 -55 36.5 -91t90.5 -36z" />
    <glyph glyph-name="ellipsis" unicode="&#x2026;" horiz-adv-x="661" 
d="M103 0h55v90h-55v-90zM303 0h55v90h-55v-90zM503 0h55v90h-55v-90z" />
    <glyph glyph-name="perthousand" unicode="&#x2030;" horiz-adv-x="1356" 
d="M237 385q50 0 91.5 25t66.5 67.5t25 93.5q0 52 -25 94t-66.5 67t-91.5 25t-92 -25t-67.5 -67t-25.5 -94q0 -51 25.5 -93.5t67.5 -67.5t92 -25zM124 0h61l615 745h-61zM237 428q-40 0 -71.5 21t-50 53.5t-18.5 68.5t18.5 69t50 53.5t71.5 20.5t71 -21t49 -53.5t18 -68.5
q0 -35 -18 -68t-49 -54t-71 -21zM693 -12q50 0 91.5 25t66.5 67t25 94t-25 94t-66.5 67t-91.5 25t-92 -25t-67.5 -67t-25.5 -94t25.5 -94t67.5 -67t92 -25zM1121 -12q50 0 91.5 25t66.5 67t25 94t-25 94t-66.5 67t-91.5 25t-92 -25t-67.5 -67t-25.5 -94t25.5 -94t67.5 -67
t92 -25zM693 31q-40 0 -71.5 21t-50 53.5t-18.5 68.5t18.5 69t50 53.5t71.5 20.5t71 -21t49 -53.5t18 -68.5q0 -35 -18 -68t-49 -54t-71 -21zM1121 31q-40 0 -71.5 21t-50 53.5t-18.5 68.5t18.5 69t50 53.5t71.5 20.5t71 -21t49 -53.5t18 -68.5q0 -35 -18 -68t-49 -54
t-71 -21z" />
    <glyph glyph-name="minute" unicode="&#x2032;" horiz-adv-x="270" 
d="M110 560h45l10 185h-55v-185z" />
    <glyph glyph-name="second" unicode="&#x2033;" horiz-adv-x="395" 
d="M110 560h45l10 185h-55v-185zM235 560h45l10 185h-55v-185z" />
    <glyph glyph-name="guilsinglleft" unicode="&#x2039;" horiz-adv-x="256" 
d="M180 83h47l-147 186l147 186h-47l-151 -186z" />
    <glyph glyph-name="guilsinglright" unicode="&#x203a;" horiz-adv-x="256" 
d="M29 83h47l151 186l-151 186h-47l147 -186z" />
    <glyph glyph-name="fraction" unicode="&#x2044;" horiz-adv-x="200" 
d="M-149 0h52l446 745h-52z" />
    <glyph glyph-name="uni2070" unicode="&#x2070;" horiz-adv-x="516" 
d="M259 215q60 0 105.5 34t70.5 94.5t25 140.5t-25.5 140.5t-70.5 94.5t-106 34q-60 0 -106 -34t-71.5 -94.5t-25.5 -140.5q0 -79 25.5 -140t71.5 -95t107 -34zM259 259q-48 0 -83.5 28.5t-55 79.5t-19.5 117q0 67 19.5 117.5t54.5 79t83 28.5q49 0 83.5 -28.5t53.5 -79
t19 -117.5q0 -66 -18.5 -117t-53.5 -79.5t-83 -28.5z" />
    <glyph glyph-name="uni2074" unicode="&#x2074;" horiz-adv-x="461" 
d="M308 223h44v123h62v39h-62v360h-41l-270 -362v-37h267v-123zM308 385h-217l217 290v-290z" />
    <glyph glyph-name="uni2075" unicode="&#x2075;" horiz-adv-x="446" 
d="M216 215q51 0 90 22.5t61 60.5t22 87q0 48 -22.5 87t-60.5 61.5t-86 22.5q-29 0 -56.5 -9t-48.5 -27l25 184h227v41h-262l-38 -282l38 -8q14 24 45.5 41t66.5 17t63.5 -17t45 -45.5t16.5 -65.5q0 -55 -35 -92t-91 -37q-48 0 -84.5 27t-50.5 76l-39 -15q15 -58 62.5 -93.5
t111.5 -35.5z" />
    <glyph glyph-name="uni2076" unicode="&#x2076;" horiz-adv-x="412" 
d="M205 215q47 0 85 21.5t60.5 59t22.5 85.5q0 49 -21.5 86t-58 58t-81.5 21q-16 0 -34.5 -3.5t-35.5 -13.5l162 216h-56l-142 -188q-32 -43 -49.5 -83.5t-17.5 -87.5q0 -49 21.5 -88t59.5 -61t85 -22zM206 256q-50 0 -85 35t-35 89q0 53 34.5 88.5t85.5 35.5t85.5 -35
t34.5 -89t-34.5 -89t-85.5 -35z" />
    <glyph glyph-name="uni2077" unicode="&#x2077;" horiz-adv-x="374" 
d="M64 223h51l239 483v39h-314v-41h264z" />
    <glyph glyph-name="uni2078" unicode="&#x2078;" horiz-adv-x="451" 
d="M225 215q49 0 88 21t61.5 56.5t22.5 80.5t-24 83t-69 57q29 17 46.5 44t17.5 63q0 38 -18.5 68t-51 47.5t-73.5 17.5q-40 0 -72.5 -17.5t-51.5 -47.5t-19 -68q0 -31 16 -60t47 -46q-41 -19 -66.5 -56.5t-25.5 -84.5q0 -45 22.5 -80.5t61.5 -56.5t88 -21zM225 531
q-41 0 -68.5 25.5t-27.5 65.5q0 39 27.5 64t68.5 25q40 0 67.5 -25t27.5 -64q0 -40 -27 -65.5t-68 -25.5zM225 256q-55 0 -90.5 32t-35.5 84q0 53 35.5 85.5t90.5 32.5q56 0 90.5 -32.5t34.5 -85.5q0 -52 -35 -84t-90 -32z" />
    <glyph glyph-name="uni2079" unicode="&#x2079;" horiz-adv-x="412" 
d="M108 223h56l141 188q29 39 48.5 79.5t19.5 90.5t-22 89t-59.5 61t-85.5 22q-47 0 -85 -21.5t-60 -59t-22 -85.5t21.5 -85t58 -58t81.5 -21q18 0 36.5 3.5t35.5 13.5zM206 464q-51 0 -85.5 35t-34.5 90q0 53 34.5 87.5t85.5 34.5q50 0 85 -34.5t35 -87.5q0 -55 -34.5 -90
t-85.5 -35z" />
    <glyph glyph-name="uni207A" unicode="&#x207a;" horiz-adv-x="446" 
d="M202 308h42v155h154v41h-154v154h-42v-154h-154v-41h154v-155z" />
    <glyph glyph-name="uni207B" unicode="&#x207b;" horiz-adv-x="461" 
d="M73 463h315v41h-315v-41z" />
    <glyph glyph-name="uni207C" unicode="&#x207c;" horiz-adv-x="461" 
d="M73 544h315v43h-315v-43zM73 380h315v42h-315v-42z" />
    <glyph glyph-name="uni207D" unicode="&#x207d;" horiz-adv-x="220" 
d="M158 127h42q-50 71 -77 151t-27 158q0 82 27 161t77 148h-42q-53 -62 -80.5 -141t-27.5 -168q0 -86 27.5 -166.5t80.5 -142.5z" />
    <glyph glyph-name="uni207E" unicode="&#x207e;" horiz-adv-x="221" 
d="M20 127h42q53 62 81 142.5t28 166.5q0 182 -109 309h-42q51 -69 77.5 -148.5t26.5 -160.5q0 -79 -26.5 -158.5t-77.5 -150.5z" />
    <glyph glyph-name="uni2080" unicode="&#x2080;" horiz-adv-x="516" 
d="M259 -8q60 0 105.5 34t70.5 94.5t25 140.5t-25.5 140.5t-70.5 94.5t-106 34q-60 0 -106 -34t-71.5 -94.5t-25.5 -140.5q0 -79 25.5 -140t71.5 -95t107 -34zM259 36q-48 0 -83.5 28.5t-55 79.5t-19.5 117q0 67 19.5 117.5t54.5 79t83 28.5q49 0 83.5 -28.5t53.5 -79
t19 -117.5q0 -66 -18.5 -117t-53.5 -79.5t-83 -28.5z" />
    <glyph glyph-name="uni2081" unicode="&#x2081;" horiz-adv-x="292" 
d="M126 0h47v522h-145v-42h98v-480z" />
    <glyph glyph-name="uni2082" unicode="&#x2082;" horiz-adv-x="428" 
d="M45 0h332v42h-265l138 149q57 62 86.5 106t29.5 91q0 43 -20.5 74.5t-55.5 49.5t-79 18q-65 0 -110.5 -38t-59.5 -102l42 -10q12 52 46 80t83 28q50 0 78.5 -27t28.5 -74q0 -33 -14 -60.5t-42 -59.5t-71 -78l-147 -159v-30z" />
    <glyph glyph-name="uni2083" unicode="&#x2083;" horiz-adv-x="430" 
d="M212 -8q52 0 91 22.5t61.5 60t22.5 82.5t-20.5 79.5t-55 54.5t-76.5 23l132 172v36h-306v-42h251l-144 -186l8 -20q18 3 36 3q53 0 90.5 -30t37.5 -89q0 -57 -35.5 -91t-92.5 -34q-50 0 -84.5 27.5t-48.5 75.5l-40 -15q16 -61 63 -95t110 -34z" />
    <glyph glyph-name="uni2084" unicode="&#x2084;" horiz-adv-x="461" 
d="M308 0h44v123h62v39h-62v360h-41l-270 -362v-37h267v-123zM308 162h-217l217 290v-290z" />
    <glyph glyph-name="uni2085" unicode="&#x2085;" horiz-adv-x="446" 
d="M216 -8q51 0 90 22.5t61 60.5t22 87q0 48 -22.5 87t-60.5 61.5t-86 22.5q-29 0 -56.5 -9t-48.5 -27l25 184h227v41h-262l-38 -282l38 -8q14 24 45.5 41t66.5 17t63.5 -17t45 -45.5t16.5 -65.5q0 -55 -35 -92t-91 -37q-48 0 -84.5 27t-50.5 76l-39 -15q15 -58 62.5 -93.5
t111.5 -35.5z" />
    <glyph glyph-name="uni2086" unicode="&#x2086;" horiz-adv-x="412" 
d="M205 -8q47 0 85 21.5t60.5 59t22.5 85.5q0 49 -21.5 86t-58 58t-81.5 21q-16 0 -34.5 -3.5t-35.5 -13.5l162 216h-56l-142 -188q-32 -43 -49.5 -83.5t-17.5 -87.5q0 -49 21.5 -88t59.5 -61t85 -22zM206 33q-50 0 -85 35t-35 89q0 53 34.5 88.5t85.5 35.5t85.5 -35
t34.5 -89t-34.5 -89t-85.5 -35z" />
    <glyph glyph-name="uni2087" unicode="&#x2087;" horiz-adv-x="374" 
d="M64 0h51l239 483v39h-314v-41h264z" />
    <glyph glyph-name="uni2088" unicode="&#x2088;" horiz-adv-x="451" 
d="M225 -8q49 0 88 21t61.5 56.5t22.5 80.5t-24 83t-69 57q29 17 46.5 44t17.5 63q0 38 -18.5 68t-51 47.5t-73.5 17.5q-40 0 -72.5 -17.5t-51.5 -47.5t-19 -68q0 -31 16 -60t47 -46q-41 -19 -66.5 -56.5t-25.5 -84.5q0 -45 22.5 -80.5t61.5 -56.5t88 -21zM225 308
q-41 0 -68.5 25.5t-27.5 65.5q0 39 27.5 64t68.5 25q40 0 67.5 -25t27.5 -64q0 -40 -27 -65.5t-68 -25.5zM225 33q-55 0 -90.5 32t-35.5 84q0 53 35.5 85.5t90.5 32.5q56 0 90.5 -32.5t34.5 -85.5q0 -52 -35 -84t-90 -32z" />
    <glyph glyph-name="uni2089" unicode="&#x2089;" horiz-adv-x="412" 
d="M108 0h56l141 188q29 39 48.5 79.5t19.5 90.5t-22 89t-59.5 61t-85.5 22q-47 0 -85 -21.5t-60 -59t-22 -85.5t21.5 -85t58 -58t81.5 -21q18 0 36.5 3.5t35.5 13.5zM206 241q-51 0 -85.5 35t-34.5 90q0 53 34.5 87.5t85.5 34.5q50 0 85 -34.5t35 -87.5q0 -55 -34.5 -90
t-85.5 -35z" />
    <glyph glyph-name="uni208A" unicode="&#x208a;" horiz-adv-x="446" 
d="M202 85h42v155h154v41h-154v154h-42v-154h-154v-41h154v-155z" />
    <glyph glyph-name="uni208B" unicode="&#x208b;" horiz-adv-x="461" 
d="M73 240h315v41h-315v-41z" />
    <glyph glyph-name="uni208C" unicode="&#x208c;" horiz-adv-x="461" 
d="M73 321h315v43h-315v-43zM73 157h315v42h-315v-42z" />
    <glyph glyph-name="uni208D" unicode="&#x208d;" horiz-adv-x="220" 
d="M158 -96h42q-50 71 -77 151t-27 158q0 82 27 161t77 148h-42q-53 -62 -80.5 -141t-27.5 -168q0 -86 27.5 -166.5t80.5 -142.5z" />
    <glyph glyph-name="uni208E" unicode="&#x208e;" horiz-adv-x="221" 
d="M20 -96h42q53 62 81 142.5t28 166.5q0 182 -109 309h-42q51 -69 77.5 -148.5t26.5 -160.5q0 -79 -26.5 -158.5t-77.5 -150.5z" />
    <glyph glyph-name="colonmonetary" unicode="&#x20a1;" horiz-adv-x="788" 
d="M256 -100h45l15 107q54 -19 114 -19h8l-12 -88h45l13 92q60 10 108 38t81 64.5t49 74.5l-47 21q-27 -57 -74 -95.5t-110 -52.5l87 625q63 -41 97 -112l47 21q-16 39 -51.5 77.5t-85.5 64.5l18 127h-45l-15 -108q-26 10 -54 15t-59 5h-9l12 88h-45l-13 -92
q-87 -13 -154 -65t-105.5 -133t-38.5 -182q0 -120 53.5 -212t142.5 -137zM430 709q57 0 106 -20l-91 -653h-15q-57 0 -107 19l91 654h16zM127 373q0 88 30 157t84.5 114t126.5 59l-88 -629q-71 41 -112 118.5t-41 180.5z" />
    <glyph glyph-name="franc" unicode="&#x20a3;" horiz-adv-x="624" 
d="M130 0h50v153h200v45h-200v153h360v45h-360v304h400v45h-450v-547h-80v-45h80v-153z" />
    <glyph glyph-name="lira" unicode="&#x20a4;" horiz-adv-x="648" 
d="M50 0h499v45h-349v228h200v45h-200v110h200v45h-200v61q0 82 46.5 130t122.5 48q77 0 125.5 -41t58.5 -115l45 10q-13 93 -77 142t-152 49q-65 0 -114.5 -28t-77 -78t-27.5 -117v-61h-100v-45h100v-110h-100v-45h100v-228h-100v-45z" />
    <glyph glyph-name="uni20A6" unicode="&#x20a6;" horiz-adv-x="746" 
d="M130 0h45v350h186l209 -350h46v350h80v45h-80v350h-45v-350h-187l-208 350h-46v-350h-80v-45h80v-350zM175 395v267l159 -267h-159zM411 350h160v-268z" />
    <glyph glyph-name="peseta" unicode="&#x20a7;" horiz-adv-x="736" 
d="M130 0h50v300h194q66 0 117 25t82 70t36 105h61v45h-61q-5 60 -36 105t-82.5 70t-116.5 25h-244v-200h-80v-45h80v-500zM180 700h194q77 0 127 -42.5t58 -112.5h-379v155zM180 345v155h379q-8 -69 -58.5 -112t-126.5 -43h-194z" />
    <glyph glyph-name="uni20A8" unicode="&#x20a8;" horiz-adv-x="1141" 
d="M99 0h50v300h212l171 -300h59l-178 308q76 19 121 76t45 138q0 66 -30 116.5t-83 78.5t-123 28h-244v-745zM149 345v355h194q55 0 97 -22.5t65.5 -62t23.5 -92.5q0 -52 -24 -92.5t-65.5 -63t-96.5 -22.5h-194zM895 -12q51 0 91.5 19t64.5 52.5t24 75.5q0 52 -35 89.5
t-100 55.5l-88 25q-89 25 -89 91q0 43 33 71t83 28q47 0 85 -25t60 -70l44 20q-20 53 -72.5 85.5t-116.5 32.5q-45 0 -82 -18t-58.5 -50.5t-21.5 -74.5q0 -104 128 -139l87 -24q96 -26 96 -99q0 -46 -38.5 -74t-94.5 -28q-52 0 -94.5 28t-68.5 78l-42 -19q27 -61 81 -95.5
t124 -34.5z" />
    <glyph glyph-name="uni20A9" unicode="&#x20a9;" horiz-adv-x="894" 
d="M224 0h45l94 350h168l94 -350h45l93 350h109v45h-96l93 350h-50l-91 -350h-164l-95 350h-44l-95 -350h-164l-91 350h-50l93 -350h-96v-45h109zM375 395l72 266l72 -266h-144zM178 350h140l-71 -262zM576 350h140l-69 -262z" />
    <glyph glyph-name="uni20AA" unicode="&#x20aa;" horiz-adv-x="670" 
d="M239 0h254q34 0 56 21t22 55v669h-50v-663q0 -16 -9.5 -26.5t-23.5 -10.5h-199v565h-50v-610zM99 0h50v700h195q15 0 25.5 -10.5t10.5 -26.5v-528h50v534q0 33 -21 54.5t-55 21.5h-255v-745z" />
    <glyph glyph-name="dong" unicode="&#x20ab;" horiz-adv-x="654" 
d="M275 139q53 0 97 25t69 67v-82h45v492h80v44h-80v60h-45v-60h-80v-44h80v-149q-26 42 -69.5 66t-96.5 24q-59 0 -106.5 -29t-75 -79t-27.5 -113t27.5 -113.5t75 -79.5t106.5 -29zM276 185q-46 0 -83 23t-58 63t-21 90t21 90t58 63t83 23t83 -23t58.5 -62.5t21.5 -90.5
q0 -50 -21.5 -90t-58 -63t-83.5 -23zM66 0h441v44h-441v-44z" />
    <glyph glyph-name="Euro" unicode="&#x20ac;" horiz-adv-x="781" 
d="M39 273h100q18 -86 63 -150t109.5 -99.5t140.5 -35.5q89 0 159.5 46.5t103.5 134.5l-45 17q-28 -75 -87 -114t-131 -39q-64 0 -117.5 30t-91 84t-53.5 126h339v45h-347q-3 27 -3 55t3 55h347v45h-339q16 71 53.5 125t91 84t117.5 30q72 0 131 -39t87 -114l45 17
q-33 88 -103.5 134.5t-159.5 46.5q-76 0 -140.5 -35.5t-109.5 -99.5t-63 -149h-100v-45h93q-3 -27 -3 -55t3 -55h-93v-45z" />
    </font>
</defs>
</svg>
