<svg width="147" height="128" viewBox="0 0 147 128" fill="none" xmlns="http://www.w3.org/2000/svg">
<path opacity="0.3" d="M70.236 119.666C53.1741 129.835 35.6134 130.732 18.4867 122.17C1.76402 113.768 -4.26251 90.1253 3.08607 64.8602C6.70798 52.3978 10.3099 45.333 19.7588 35.199C34.9549 18.5258 53.2889 4.55137 73.5037 0.751095C100.034 -4.23583 129.045 15.9422 141.681 51.4065C146.59 65.1906 148.381 79.7508 142.998 94.0257C137.451 108.731 127.952 112.381 117.615 111.55C114.283 111.295 82.4936 112.346 70.236 119.666Z" fill="#95DF88"/>
<path d="M64.6543 52.7389V51.1718C64.6543 43.7354 67.5977 36.6036 72.837 31.3452C78.0763 26.0869 85.1823 23.1328 92.5918 23.1328V23.1328C100.001 23.1328 107.107 26.0869 112.347 31.3452C117.586 36.6036 120.529 43.7354 120.529 51.1718V54.8769H63.437C62.4685 54.8769 61.5396 55.2631 60.8548 55.9504C60.1699 56.6377 59.7852 57.57 59.7852 58.542V58.542C59.7852 59.514 60.1699 60.4463 60.8548 61.1336C61.5396 61.821 62.4685 62.2071 63.437 62.2071H124.101C124.53 62.2071 124.941 62.0362 125.244 61.7319C125.548 61.4277 125.718 61.0151 125.718 60.5848V60.5848C125.718 60.1546 125.548 59.742 125.244 59.4377C124.941 59.1335 124.53 58.9626 124.101 58.9626H121.228C120.847 58.9629 120.478 59.0983 120.187 59.3447C119.896 59.5911 119.701 59.9328 119.636 60.3095L110.776 111.606C110.712 111.982 110.516 112.324 110.225 112.571C109.934 112.817 109.566 112.952 109.185 112.953H78.8226" stroke="#306826" stroke-width="2" stroke-linecap="round" stroke-linejoin="round"/>
<path d="M31.4278 70.503C31.4278 105.902 26 112.952 26 112.952H53.1942C49.8517 101.191 51.1986 87.0861 51.1986 87.0861C51.1986 100.5 55.7784 112.952 55.7784 112.952H75.3347C67.2727 104.866 69.2483 73.4872 69.2483 73.4872H71.5831C72.4458 73.4872 73.2731 73.1432 73.8831 72.531C74.4931 71.9188 74.8358 71.0885 74.8358 70.2227C74.8345 69.3577 74.4912 68.5287 73.8814 67.9175C73.2715 67.3064 72.4449 66.9631 71.5831 66.9631H29.0432C28.1818 66.9631 27.3557 67.3065 26.7467 67.9178C26.1376 68.5291 25.7954 69.3582 25.7954 70.2227V70.2227C25.7948 70.6511 25.8783 71.0755 26.0412 71.4716C26.2041 71.8676 26.4432 72.2275 26.7449 72.5307C27.0465 72.8339 27.4048 73.0745 27.7991 73.2386C28.1935 73.4027 28.6162 73.4872 29.0432 73.4872H51.9619V4.00566C51.9626 3.76088 51.915 3.51838 51.822 3.2921C51.729 3.06582 51.5923 2.86023 51.4198 2.68714C51.2474 2.51405 51.0425 2.37688 50.8171 2.28351C50.5916 2.19014 50.35 2.14241 50.1061 2.14307C49.6139 2.14307 49.1418 2.33931 48.7938 2.68861C48.4458 3.03792 48.2502 3.51167 48.2502 4.00566V63.4232" stroke="#306826" stroke-width="2" stroke-linecap="round" stroke-linejoin="round"/>
<path d="M43.9342 78.6094C43.9342 78.6094 42.9614 106.919 47.1371 112.952" stroke="#306826" stroke-width="2" stroke-linecap="round" stroke-linejoin="round"/>
<path d="M37.4133 91.0415C37.4133 91.0415 37.5529 107.755 34.3501 112.952" stroke="#306826" stroke-width="2" stroke-linecap="round" stroke-linejoin="round"/>
<path d="M62.1746 78.6094C62.1746 78.6094 61.3365 106.779 68.3009 112.952" stroke="#306826" stroke-width="2" stroke-linecap="round" stroke-linejoin="round"/>
<path d="M74.0273 16.9286C72.8703 16.9292 71.7247 17.1586 70.6561 17.6036C69.5874 18.0486 68.6165 18.7004 67.7989 19.522C66.9812 20.3435 66.3328 21.3187 65.8907 22.3917C65.4485 23.4647 65.2213 24.6147 65.2219 25.7759C65.2219 23.4303 64.2939 21.1807 62.6418 19.5217C60.9896 17.8626 58.7487 16.9299 56.4116 16.9286C58.7474 16.9286 60.9876 15.9977 62.6397 14.3405C64.2918 12.6833 65.2206 10.4356 65.2219 8.09131C65.2219 10.4351 66.1496 12.6829 67.801 14.3402C69.4523 15.9975 71.6919 16.9286 74.0273 16.9286V16.9286Z" stroke="#306826" stroke-width="2" stroke-linecap="round" stroke-linejoin="round"/>
</svg>
