<svg width="132" height="128" viewBox="0 0 132 128" fill="none" xmlns="http://www.w3.org/2000/svg">
<g clip-path="url(#clip0_7_5100)">
<path opacity="0.4" d="M52.0984 22.7385C62.6976 7.72558 77.2901 -0.034918 95.1547 0.000118105C112.601 0.0307747 126.82 16.6028 130.303 39.8537C132.023 51.3236 131.469 62.3293 127.541 70.3745C118.561 88.7684 110.829 108.446 95.0931 119.605C74.449 134.245 42.0095 129.651 17.6139 106.208C8.13185 97.1114 1.00712 86.1276 0.0879457 72.4942C-0.853222 58.4535 5.80532 51.709 14.9223 48.2273C17.8558 47.1061 44.4855 33.5209 52.0984 22.7385Z" fill="#9DB2F4"/>
<path d="M57.0726 93.9494L57.1385 104.78C57.1362 107.772 55.9411 110.64 53.8159 112.755C51.6907 114.869 48.8093 116.057 45.8049 116.057V116.057C42.8006 116.056 39.9197 114.867 37.7953 112.752C35.6709 110.636 34.4769 107.767 34.4757 104.776V96.7128H30.346C29.4222 96.7128 28.5363 96.3474 27.8831 95.6969C27.2298 95.0464 26.8628 94.1642 26.8628 93.2443V84.1261C26.8628 83.2062 27.2298 82.324 27.8831 81.6735C28.5363 81.023 29.4222 80.6575 30.346 80.6575H58.4052C59.3286 80.6587 60.2139 81.0245 60.8669 81.6747C61.5198 82.325 61.8872 83.2066 61.8884 84.1261V90.1567C61.8884 91.0766 61.5214 91.9589 60.8681 92.6094C60.2149 93.2598 59.329 93.6253 58.4052 93.6253H36.7583C35.8345 93.6253 34.9485 93.2598 34.2953 92.6094C33.6421 91.9589 33.2751 91.0766 33.2751 90.1567V81.6429C33.2697 74.9637 30.8214 68.5151 26.3879 63.503L22.5308 59.1235C18.6532 54.7384 16.5155 49.095 16.5188 43.2521V43.2521C16.5188 36.8835 19.0594 30.7758 23.5817 26.2725C28.1039 21.7692 34.2375 19.2393 40.6329 19.2393H48.9891C55.383 19.2416 61.5143 21.7725 66.0347 26.2756C70.555 30.7786 73.0944 36.885 73.0944 43.2521V43.2521C73.0941 49.0952 70.9551 54.7378 67.078 59.1235L62.3501 64.4665C59.4813 67.7054 57.5413 71.6538 56.7339 75.897H36.943V42.4069C36.9367 42.0242 37.0089 41.6443 37.1553 41.2904C37.3016 40.9364 37.5189 40.616 37.794 40.3487C38.069 40.0813 38.396 39.8727 38.7548 39.7357C39.1137 39.5986 39.4968 39.5359 39.8809 39.5514C40.7297 39.6084 41.6049 40.0682 42.291 41.347C42.291 41.347 45.4971 36.1661 48.6197 41.347C48.6197 41.347 52.6218 36.9675 53.9852 41.9865V70.3701" stroke="#5970E1" stroke-width="2" stroke-linecap="round" stroke-linejoin="round"/>
<path d="M57.0725 93.9495C57.6023 98.4136 59.7584 102.529 63.1322 105.516C66.5059 108.502 70.8628 110.153 75.3769 110.154H86.4598C86.785 110.154 87.1069 110.217 87.4074 110.341C87.7078 110.465 87.9807 110.647 88.2106 110.876C88.4406 111.105 88.623 111.377 88.7474 111.676C88.8718 111.975 88.9359 112.296 88.9359 112.619V115.103" stroke="#5970E1" stroke-width="2" stroke-linecap="round" stroke-linejoin="round"/>
<path d="M103.137 79.3394H124.41C125.343 79.3394 126.238 78.9702 126.898 78.3132C127.558 77.6561 127.928 76.765 127.928 75.8358C127.928 74.9066 127.558 74.0154 126.898 73.3583C126.238 72.7013 125.343 72.3322 124.41 72.3322H106.321V100.882H124.41C125.343 100.882 126.238 101.251 126.898 101.908C127.558 102.565 127.928 103.457 127.928 104.386V104.609C127.928 105.538 127.558 106.43 126.898 107.087C126.238 107.744 125.343 108.113 124.41 108.113H106.321V113.552C106.321 114.694 105.866 115.789 105.055 116.596C104.244 117.404 103.145 117.857 101.998 117.857H98.3564C97.2106 117.856 96.1121 117.402 95.3023 116.595C94.4925 115.787 94.0376 114.693 94.0376 113.552V66.4242C94.0376 65.2832 94.4925 64.1888 95.3023 63.3816C96.1121 62.5744 97.2106 62.1203 98.3564 62.1191H101.545C102.692 62.1191 103.791 62.5727 104.602 63.3801C105.413 64.1874 105.868 65.2824 105.868 66.4242H92.2081C91.4857 66.4254 90.7932 66.712 90.2828 67.221C89.7724 67.7301 89.4857 68.4201 89.4857 69.1395V70.738C89.4857 71.0944 89.4152 71.4473 89.2781 71.7765C89.141 72.1056 88.9401 72.4047 88.6868 72.6565C88.4336 72.9083 88.1329 73.1079 87.8021 73.2438C87.4713 73.3798 87.1169 73.4495 86.759 73.4489H75.377C71.4265 73.4432 67.5796 74.7073 64.4084 77.0533" stroke="#5970E1" stroke-width="2" stroke-linecap="round" stroke-linejoin="round"/>
<path d="M90.6554 37.4448L85.4658 46.5717H90.6554L85.4658 55.4797" stroke="#5970E1" stroke-width="2" stroke-linecap="round" stroke-linejoin="round"/>
</g>
<defs>
<clipPath id="clip0_7_5100">
<rect width="131.227" height="128" fill="white"/>
</clipPath>
</defs>
</svg>
