<svg width="130" height="128" viewBox="0 0 130 128" fill="none" xmlns="http://www.w3.org/2000/svg">
<g clip-path="url(#clip0_7_5044)">
<path opacity="0.3" d="M51.9901 22.7385C62.5672 7.72558 77.1294 -0.034918 94.9568 0.000118105C112.367 0.0307747 124.726 11.3868 128.202 34.6464C129.918 46.1164 129.181 71.9117 125.266 79.9569C116.304 98.3508 110.594 108.463 94.8954 119.622C74.2942 134.263 41.9221 129.669 17.5773 106.225C8.11494 97.1114 1.00503 86.1276 0.0877614 72.4942C-0.851449 58.4535 5.79325 51.709 14.8913 48.2273C17.8187 47.1062 44.393 33.5209 51.9901 22.7385Z" fill="#FFB43F"/>
<path d="M80.715 71.1584V62.3293C80.7162 59.8954 80.2367 57.4851 79.304 55.2362C78.3712 52.9873 77.0036 50.9439 75.2791 49.2227C73.5546 47.5014 71.5071 46.1362 69.2537 45.2049C67.0002 44.2736 64.5849 43.7946 62.1459 43.7952H41.2989C38.8606 43.7946 36.446 44.2733 34.1931 45.2041C31.9402 46.1348 29.8932 47.4993 28.1688 49.2196C26.4444 50.9399 25.0766 52.9823 24.1433 55.2302C23.2101 57.478 22.7298 59.8874 22.7298 62.3205V72.0693C22.7298 72.6501 22.4986 73.207 22.087 73.6177C21.6755 74.0283 21.1173 74.2591 20.5353 74.2591H18.7798C17.9225 74.2602 17.076 74.4504 16.301 74.816C15.5259 75.1816 14.8413 75.7135 14.2962 76.3738C13.7511 77.0341 13.3589 77.8064 13.1477 78.6355C12.9364 79.4646 12.9114 80.33 13.0743 81.1699L18.6306 109.926C18.7258 110.428 18.9937 110.88 19.388 111.206C19.7823 111.531 20.2782 111.709 20.7899 111.708H27.5443C27.9886 111.705 28.4235 111.836 28.7913 112.085C29.1592 112.334 29.4427 112.688 29.6045 113.101C29.7662 113.514 29.7985 113.966 29.6971 114.398C29.5957 114.829 29.3653 115.22 29.0365 115.518C28.723 115.81 28.3306 116.004 27.9079 116.076C27.4853 116.147 27.0508 116.094 26.6582 115.922C26.2656 115.75 25.932 115.467 25.6987 115.108C25.4654 114.75 25.3426 114.33 25.3455 113.902V110.031C25.3455 109.45 25.5767 108.893 25.9882 108.483C26.3998 108.072 26.9579 107.841 27.5399 107.841H75.9707C76.5527 107.841 77.1109 108.072 77.5224 108.483C77.9339 108.893 78.1651 109.45 78.1651 110.031V113.71C78.1686 114.146 78.0416 114.573 77.8004 114.936C77.5592 115.299 77.2149 115.583 76.8114 115.75C76.4079 115.917 75.9637 115.96 75.5356 115.873C75.1075 115.787 74.715 115.575 74.4083 115.264V115.264C74.0975 114.959 73.8852 114.567 73.7985 114.141C73.7117 113.714 73.7545 113.271 73.9213 112.868C74.088 112.466 74.3713 112.122 74.7348 111.881C75.0983 111.64 75.5255 111.513 75.9619 111.516H82.5101C83.0167 111.517 83.5081 111.343 83.9009 111.024C84.2937 110.704 84.5637 110.259 84.665 109.764L90.41 81.2356C90.581 80.3923 90.5621 79.5216 90.3546 78.6864C90.1471 77.8513 89.7562 77.0726 89.2102 76.4066C88.6642 75.7406 87.9768 75.2041 87.1975 74.8357C86.4183 74.4673 85.5667 74.2764 84.7045 74.2766H74.6979C74.2449 74.2753 73.8026 74.4139 73.4317 74.6735C73.0608 74.933 72.7795 75.3008 72.6264 75.7262L68.9047 86.0618C68.7523 86.4881 68.4713 86.8568 68.1003 87.1171C67.7294 87.3775 67.2867 87.5168 66.8331 87.5158H37.7045C37.3064 87.5168 36.9156 87.4097 36.5739 87.206C36.2322 87.0024 35.9525 86.7098 35.7646 86.3596L29.787 75.2707C29.5938 74.9123 29.3069 74.6127 28.9569 74.4038C28.6069 74.1948 28.2067 74.0843 27.7989 74.0839H24.9286" stroke="#CE7E00" stroke-width="2" stroke-linecap="round" stroke-linejoin="round"/>
<path d="M18.0205 86.1014C40.5052 82.2992 63.4706 82.2992 85.9553 86.1014" stroke="#CE7E00" stroke-width="2" stroke-linecap="round" stroke-linejoin="round"/>
<path d="M51.9858 40.5852V19.292H81.8167V49.9967" stroke="#CE7E00" stroke-width="2" stroke-linecap="round" stroke-linejoin="round"/>
<path d="M56.3533 23.6724H85.6528V19.292H112.745V116.215H81.8166" stroke="#CE7E00" stroke-width="2" stroke-linecap="round" stroke-linejoin="round"/>
<path d="M87.2368 59.9993C87.2368 59.5662 87.3655 59.1429 87.6066 58.7828C87.8478 58.4227 88.1905 58.142 88.5915 57.9763C88.9924 57.8105 89.4337 57.7672 89.8593 57.8516C90.285 57.9361 90.676 58.1447 90.9829 58.4509C91.2898 58.7572 91.4988 59.1474 91.5835 59.5721C91.6682 59.9969 91.6247 60.4372 91.4586 60.8373C91.2925 61.2374 91.0113 61.5794 90.6504 61.82C90.2895 62.0607 89.8653 62.1891 89.4312 62.1891" stroke="#CE7E00" stroke-width="2" stroke-linecap="round" stroke-linejoin="round"/>
</g>
<defs>
<clipPath id="clip0_7_5044">
<rect width="129.076" height="128" fill="white"/>
</clipPath>
</defs>
</svg>
