<svg width="138" height="128" viewBox="0 0 138 128" fill="none" xmlns="http://www.w3.org/2000/svg">
<g clip-path="url(#clip0_7_5074)">
<path opacity="0.4" d="M34.3413 87.243C16.6679 80.4856 5.26135 67.9844 0.821132 50.2848C-3.50249 33.0099 9.52667 14.7987 31.9415 5.54582C42.9886 0.989393 54.1377 -1.20677 63.1542 0.675655C83.8104 4.97627 105.419 7.73233 120.517 20.5232C140.328 37.3154 143.836 70.5715 126.473 100.57C119.721 112.231 110.515 122.024 97.1019 126.33C83.2857 130.766 74.8717 125.847 69.1149 117.695C67.2786 115.074 47.0304 92.0939 34.3413 87.243Z" fill="#FFB43F"/>
<path d="M47.1277 49.749V91.2299" stroke="#CE7E00" stroke-width="2" stroke-linecap="round" stroke-linejoin="round"/>
<path d="M42.0168 53.5188L47.1129 58.582L52.2089 53.5188" stroke="#CE7E00" stroke-width="2" stroke-linecap="round" stroke-linejoin="round"/>
<path d="M52.2089 87.4553L47.1129 82.3921L42.0168 87.4553" stroke="#CE7E00" stroke-width="2" stroke-linecap="round" stroke-linejoin="round"/>
<path d="M67.9877 70.5039H26.238" stroke="#CE7E00" stroke-width="2" stroke-linecap="round" stroke-linejoin="round"/>
<path d="M64.1888 65.4263L59.0977 70.4895L64.1888 75.5527" stroke="#CE7E00" stroke-width="2" stroke-linecap="round" stroke-linejoin="round"/>
<path d="M30.0322 75.5527L35.1283 70.4895L30.0322 65.4263" stroke="#CE7E00" stroke-width="2" stroke-linecap="round" stroke-linejoin="round"/>
<path d="M61.8619 85.1628L32.3398 55.8308" stroke="#CE7E00" stroke-width="2" stroke-linecap="round" stroke-linejoin="round"/>
<path d="M62.7899 78.9072H55.5854V86.0653" stroke="#CE7E00" stroke-width="2" stroke-linecap="round" stroke-linejoin="round"/>
<path d="M31.4314 62.0667H38.6358V54.9087" stroke="#CE7E00" stroke-width="2" stroke-linecap="round" stroke-linejoin="round"/>
<path d="M32.3398 85.1433L61.8619 55.8113" stroke="#CE7E00" stroke-width="2" stroke-linecap="round" stroke-linejoin="round"/>
<path d="M38.6358 86.0653V78.9072H31.4314" stroke="#CE7E00" stroke-width="2" stroke-linecap="round" stroke-linejoin="round"/>
<path d="M55.5854 54.9087V62.0667H62.7899" stroke="#CE7E00" stroke-width="2" stroke-linecap="round" stroke-linejoin="round"/>
<path d="M65.4034 58.5432H107.245C107.459 58.5432 107.67 58.5013 107.867 58.42C108.065 58.3387 108.244 58.2195 108.394 58.0693C108.545 57.9191 108.665 57.7408 108.746 57.5447C108.827 57.3485 108.869 57.1384 108.868 56.9262V53.4365C108.868 53.0077 109.039 52.5964 109.345 52.2932C109.65 51.9899 110.064 51.8196 110.495 51.8196H122.971C123.402 51.8196 123.816 51.6492 124.122 51.346C124.427 51.0427 124.598 50.6315 124.598 50.2026V4.41627C124.598 3.98743 124.427 3.57615 124.122 3.27291C123.816 2.96967 123.402 2.79932 122.971 2.79932H40.2729C39.8413 2.79932 39.4274 2.96967 39.1222 3.27291C38.817 3.57615 38.6455 3.98743 38.6455 4.41627V18.964C38.6455 19.3929 38.817 19.8041 39.1222 20.1074C39.4274 20.4106 39.8413 20.581 40.2729 20.581H111.584C112.012 20.5772 112.422 20.405 112.723 20.102C113.024 19.799 113.193 19.3899 113.192 18.964V7.65018C113.192 7.43806 113.151 7.22791 113.069 7.03176C112.988 6.83561 112.869 6.65732 112.718 6.50711C112.567 6.3569 112.388 6.23772 112.191 6.1564C111.994 6.07508 111.782 6.03322 111.569 6.03322H35.6627C35.2311 6.03322 34.8171 5.86287 34.5119 5.55963C34.2067 5.25639 34.0353 4.84511 34.0353 4.41627V4.41627C34.0353 3.98743 33.8638 3.57615 33.5586 3.27291C33.2534 2.96967 32.8395 2.79932 32.4078 2.79932H28.0356C27.604 2.79932 27.1901 2.96967 26.8849 3.27291C26.5797 3.57615 26.4082 3.98743 26.4082 4.41627V49.7875C26.4082 50.2164 26.5797 50.6276 26.8849 50.9309C27.1901 51.2341 27.604 51.4045 28.0356 51.4045H35.7501" stroke="#CE7E00" stroke-width="2" stroke-linecap="round" stroke-linejoin="round"/>
<path d="M113.192 58.5432V53.1855C113.192 51.0409 112.334 48.984 110.809 47.467C109.283 45.9501 107.213 45.0972 105.054 45.0959H46.7827C44.9702 45.0969 43.2097 45.6983 41.7799 46.805C40.3501 47.9118 39.3326 49.4607 38.8884 51.2066" stroke="#CE7E00" stroke-width="2" stroke-linecap="round" stroke-linejoin="round"/>
<path d="M109.956 27.4495H116.733" stroke="#CE7E00" stroke-width="2" stroke-linecap="round" stroke-linejoin="round"/>
<path d="M109.956 32.03H116.733" stroke="#CE7E00" stroke-width="2" stroke-linecap="round" stroke-linejoin="round"/>
<path d="M102.504 13.2444C102.504 12.7671 102.646 12.3005 102.913 11.9036C103.18 11.5068 103.56 11.1974 104.003 11.0148C104.447 10.8321 104.936 10.7843 105.407 10.8774C105.878 10.9705 106.311 11.2004 106.65 11.5379C106.99 11.8754 107.222 12.3054 107.315 12.7736C107.409 13.2417 107.361 13.727 107.177 14.168C106.993 14.609 106.682 14.9859 106.282 15.2511C105.883 15.5162 105.413 15.6578 104.933 15.6578" stroke="#CE7E00" stroke-width="2" stroke-linecap="round" stroke-linejoin="round"/>
<path d="M75.5032 64.0024V109.591" stroke="#CE7E00" stroke-width="2" stroke-linecap="round" stroke-linejoin="round"/>
<path d="M91.967 64.0024V98.388" stroke="#CE7E00" stroke-width="2" stroke-linecap="round" stroke-linejoin="round"/>
<path d="M108.868 64.0024V84.4146" stroke="#CE7E00" stroke-width="2" stroke-linecap="round" stroke-linejoin="round"/>
</g>
<defs>
<clipPath id="clip0_7_5074">
<rect width="137.681" height="128" fill="white"/>
</clipPath>
</defs>
</svg>
