<svg width="155" height="129" viewBox="0 0 155 129" fill="none" xmlns="http://www.w3.org/2000/svg">
<path opacity="0.4" d="M75.5661 118.028C57.7825 128.028 39.4679 128.893 21.59 120.403C4.13897 112.102 -4.89924 89.8788 2.72442 64.9248C6.48166 52.6379 11.311 46.1834 22.7812 34.6224C40.6988 18.6169 57.7081 4.44355 78.7873 0.729836C106.448 -4.15429 136.739 15.802 149.966 50.7959C155.108 64.4013 156.999 78.7623 151.406 92.8369C145.643 107.331 135.741 110.922 124.961 110.092C121.492 109.83 88.3467 110.818 75.5661 118.028Z" fill="#95DF88"/>
<path d="M127.688 67.216H62.7987C61.877 67.216 60.9931 66.8518 60.3414 66.2033C59.6897 65.5549 59.3236 64.6754 59.3236 63.7584V57.4948C59.3236 57.0409 59.4135 56.5916 59.5882 56.1724C59.7629 55.7532 60.019 55.3724 60.3417 55.0517C60.6645 54.7311 61.0476 54.4769 61.4692 54.3037C61.8908 54.1306 62.3426 54.0418 62.7987 54.0425H127.981C128.901 54.0425 129.783 54.4062 130.434 55.0536C131.085 55.7011 131.45 56.5792 131.45 57.4948V124.542C131.451 124.996 131.362 125.445 131.188 125.865C131.014 126.284 130.758 126.666 130.436 126.987C130.114 127.308 129.731 127.563 129.31 127.736C128.888 127.91 128.437 128 127.981 128H58.4521C57.9958 128 57.5439 127.91 57.1223 127.737C56.7007 127.563 56.3176 127.308 55.9949 126.987C55.6722 126.666 55.4162 126.285 55.2416 125.865C55.0669 125.446 54.9771 124.996 54.9771 124.542V65.0833C54.9785 63.8758 55.4616 62.7183 56.3202 61.8649C57.1788 61.0116 58.3428 60.5323 59.5563 60.5323H80.8289" stroke="#306826" stroke-width="2" stroke-linecap="round" stroke-linejoin="round"/>
<path d="M75.9519 101.853C77.6847 106.125 80.9552 109.603 85.1253 111.606C89.2954 113.61 94.066 113.996 98.5067 112.689C102.947 111.382 106.74 108.477 109.144 104.538C111.548 100.6 112.391 95.9124 111.509 91.3891C110.628 86.8658 108.084 82.8315 104.375 80.0731C100.665 77.3147 96.0564 76.0301 91.4467 76.4699C86.837 76.9097 82.5573 79.0422 79.4423 82.4516C76.3273 85.861 74.6005 90.3027 74.5986 94.9103C74.5986 94.9103 80.1306 89.1691 84.5367 95.7721C88.9969 102.456 94.9619 101.077 98.2367 96.7361C102.101 91.6089 108.684 94.5172 108.684 94.5172" stroke="#306826" stroke-width="2" stroke-linecap="round" stroke-linejoin="round"/>
<path d="M115.13 60.5327C115.13 60.0001 115.289 59.4795 115.586 59.0366C115.884 58.5938 116.307 58.2486 116.801 58.0448C117.296 57.841 117.84 57.7877 118.365 57.8916C118.89 57.9955 119.372 58.252 119.751 58.6286C120.129 59.0052 120.387 59.485 120.491 60.0074C120.596 60.5297 120.542 61.0712 120.337 61.5632C120.132 62.0553 119.785 62.4759 119.34 62.7718C118.895 63.0677 118.372 63.2256 117.837 63.2256" stroke="#306826" stroke-width="2" stroke-linecap="round" stroke-linejoin="round"/>
<path d="M110.259 61.6421C110.039 61.8609 109.758 62.0098 109.452 62.07C109.147 62.1302 108.83 62.0989 108.543 61.9802C108.255 61.8615 108.009 61.6606 107.836 61.4029C107.664 61.1453 107.571 60.8424 107.571 60.5326C107.571 60.2228 107.664 59.9199 107.836 59.6622C108.009 59.4046 108.255 59.2037 108.543 59.085C108.83 58.9662 109.147 58.935 109.452 58.9952C109.758 59.0554 110.039 59.2043 110.259 59.4231" stroke="#306826" stroke-width="2" stroke-linecap="round" stroke-linejoin="round"/>
<path d="M90.0905 49.8472V14.9852C90.0905 14.1903 89.9331 13.4031 89.6274 12.6686C89.3216 11.9342 88.8735 11.2668 88.3085 10.7047C87.7435 10.1426 87.0728 9.69666 86.3347 9.39244C85.5965 9.08822 84.8054 8.93164 84.0064 8.93164H28.086C27.2873 8.93164 26.4964 9.08826 25.7585 9.39255C25.0207 9.69684 24.3503 10.1428 23.7858 10.705C23.2213 11.2672 22.7736 11.9346 22.4685 12.669C22.1633 13.4035 22.0066 14.1905 22.0073 14.9852V121.946C22.0066 122.741 22.1633 123.528 22.4685 124.263C22.7736 124.997 23.2213 125.664 23.7858 126.227C24.3503 126.789 25.0207 127.235 25.7585 127.539C26.4964 127.843 27.2873 128 28.086 128H44.4383V47.6283" stroke="#306826" stroke-width="2" stroke-linecap="round" stroke-linejoin="round"/>
<path d="M44.4165 8.93164V40.0452" stroke="#306826" stroke-width="2" stroke-linecap="round" stroke-linejoin="round"/>
<path d="M39.2314 64.0278V77.9231" stroke="#306826" stroke-width="2" stroke-linecap="round" stroke-linejoin="round"/>
<path d="M62.3008 34.7944H78.2904C78.9628 34.7958 79.6071 35.0626 80.082 35.5361C80.5569 36.0097 80.8236 36.6513 80.8236 37.3203V44.7042C80.8236 45.3727 80.5567 46.0138 80.0817 46.4865C79.6066 46.9592 78.9623 47.2247 78.2904 47.2247H66.2955C65.6236 47.2247 64.9793 46.9592 64.5042 46.4865C64.0291 46.0138 63.7623 45.3727 63.7623 44.7042V33.0117" stroke="#306826" stroke-width="2" stroke-linecap="round" stroke-linejoin="round"/>
</svg>
