<svg width="134" height="128" viewBox="0 0 134 128" fill="none" xmlns="http://www.w3.org/2000/svg">
<g clip-path="url(#clip0_7_5065)">
<path opacity="0.4" d="M102.797 43.6302C119.55 51.4406 129.818 64.4945 132.956 82.1785C136.019 99.4394 122.12 116.467 99.6829 124.069C88.6233 127.815 77.6207 129.231 68.9503 126.783C49.1256 121.178 28.2675 117.033 14.4348 103.461C-3.73072 85.6488 -4.92532 52.7337 13.9608 24.4107C21.3322 13.401 30.9412 4.39259 44.2809 1.05069C58.0283 -2.37678 65.8927 3.00924 70.9555 11.4091C72.5863 14.0998 90.766 38.0303 102.797 43.6302Z" fill="#95DF88"/>
<path d="M46.9309 66.182H75.9853C76.4304 66.182 76.8572 66.3593 77.1719 66.6749C77.4866 66.9905 77.6634 67.4185 77.6634 67.8649V69.4764C77.6634 69.9227 77.4866 70.3507 77.1719 70.6663C76.8572 70.9819 76.4304 71.1592 75.9853 71.1592H58.4645C58.0194 71.1592 57.5926 70.9819 57.2779 70.6663C56.9632 70.3507 56.7864 69.9227 56.7864 69.4764V57.8106C56.7864 57.3643 56.9632 56.9363 57.2779 56.6207C57.5926 56.3051 58.0194 56.1278 58.4645 56.1278H61.6264C62.0715 56.1278 62.4983 55.9505 62.813 55.6349C63.1277 55.3193 63.3045 54.8913 63.3045 54.445V47.6946C63.3045 47.2483 63.1277 46.8203 62.813 46.5047C62.4983 46.1891 62.0715 46.0118 61.6264 46.0118H49.4007C49.1803 46.0118 48.9621 45.9683 48.7585 45.8837C48.5549 45.7991 48.3699 45.6752 48.2141 45.5189C48.0583 45.3626 47.9346 45.1771 47.8503 44.973C47.766 44.7688 47.7226 44.55 47.7226 44.329V40.8349C47.7219 40.6138 47.7649 40.3947 47.849 40.1902C47.9331 39.9858 48.0567 39.8 48.2127 39.6436C48.3686 39.4872 48.5539 39.3633 48.7578 39.2789C48.9616 39.1946 49.1801 39.1515 49.4007 39.1521H85.836C86.0566 39.1515 86.2751 39.1946 86.4789 39.2789C86.6828 39.3633 86.8681 39.4872 87.024 39.6436C87.18 39.8 87.3036 39.9858 87.3877 40.1902C87.4718 40.3947 87.5148 40.6138 87.5141 40.8349V44.2577C87.5141 44.704 87.3373 45.132 87.0226 45.4476C86.7079 45.7632 86.2811 45.9405 85.836 45.9405H73.6814C73.4613 45.9405 73.2433 45.984 73.04 46.0687C72.8366 46.1533 72.6519 46.2773 72.4965 46.4337C72.341 46.59 72.2179 46.7755 72.1341 46.9797C72.0502 47.1838 72.0074 47.4026 72.008 47.6233V54.2786C72.0074 54.4994 72.0502 54.7181 72.1341 54.9222C72.2179 55.1264 72.341 55.3119 72.4965 55.4683C72.6519 55.6246 72.8366 55.7486 73.04 55.8332C73.2433 55.9179 73.4613 55.9614 73.6814 55.9614H76.1417C76.3621 55.9614 76.5803 56.005 76.7839 56.0895C76.9875 56.1741 77.1725 56.2981 77.3284 56.4543C77.4842 56.6106 77.6078 56.7961 77.6921 57.0003C77.7765 57.2044 77.8199 57.4233 77.8199 57.6443V60.9339" stroke="#306826" stroke-width="2" stroke-linecap="round" stroke-linejoin="round"/>
<path d="M46.9307 60.9292H75.1365C84.6766 60.9292 93.8259 64.7296 100.572 71.4943C107.318 78.2591 111.107 87.434 111.107 97.0008V110.397C111.107 110.849 111.019 111.296 110.846 111.714C110.674 112.132 110.421 112.511 110.102 112.831C109.783 113.15 109.405 113.404 108.989 113.577C108.572 113.75 108.126 113.839 107.675 113.839H88.7607C87.8504 113.839 86.9775 113.476 86.3338 112.831C85.6902 112.185 85.3286 111.31 85.3286 110.397V97.8185C85.3292 96.4066 85.0524 95.0084 84.5141 93.7038C83.9757 92.3992 83.1863 91.2138 82.191 90.2152C81.1956 89.2166 80.0138 88.4245 78.7131 87.884C77.4124 87.3436 76.0183 87.0654 74.6103 87.0654H70.818C70.8186 89.1671 70.4063 91.2484 69.6047 93.1903C68.8031 95.1322 67.6279 96.8967 66.1461 98.383C64.6643 99.8694 62.9051 101.048 60.9689 101.853C59.0326 102.657 56.9573 103.071 54.8615 103.071H54.487C50.4003 103.077 46.4683 101.504 43.5081 98.6789" stroke="#306826" stroke-width="2" stroke-linecap="round" stroke-linejoin="round"/>
<path d="M21.6404 42.4037H2.10962C1.74144 42.4098 1.38997 42.5588 1.12915 42.8195C0.868326 43.0801 0.718496 43.4321 0.711182 43.8013V59.8976C0.711182 60.2758 0.861014 60.6385 1.12772 60.906C1.39442 61.1734 1.75615 61.3237 2.13333 61.3237H16.6724C17.0454 61.3174 17.4011 61.1644 17.6627 60.8977C17.9243 60.6309 18.0709 60.2717 18.0708 59.8976V58.4191C18.0635 58.0499 17.9137 57.698 17.6529 57.4373C17.392 57.1767 17.0406 57.0276 16.6724 57.0215H6.57516C6.20698 57.0276 5.8555 57.1767 5.59468 57.4373C5.33386 57.698 5.18403 58.0499 5.17672 58.4191V68.0313C5.19003 68.3963 5.34249 68.7423 5.60269 68.9979C5.86288 69.2535 6.21096 69.3992 6.57516 69.4051H18.3316C18.7005 69.399 19.0527 69.2493 19.3137 68.9876C19.5746 68.7259 19.7239 68.3727 19.73 68.0027V62.7498C19.7299 62.3765 19.8758 62.018 20.1364 61.7513C20.397 61.4847 20.7515 61.3311 21.1237 61.3237H25.4802V74.2825H13.0981V75.585C13.1056 77.2266 13.7612 78.7984 14.9214 79.9566C16.0816 81.1147 17.6521 81.7649 19.2891 81.7649V81.7649C20.9315 81.7661 22.5063 82.4213 23.6672 83.5864C24.8281 84.7514 25.4802 86.3311 25.4802 87.9781V116.391C25.4796 117.343 25.6662 118.285 26.0295 119.164C26.3928 120.043 26.9255 120.842 27.5971 121.514C28.2687 122.186 29.066 122.719 29.9433 123.081C30.8206 123.444 31.7606 123.629 32.7094 123.627V123.627C34.6205 123.627 36.4532 122.865 37.8045 121.51C39.1558 120.155 39.915 118.317 39.915 116.401V64.1094C39.915 62.2838 40.6382 60.5329 41.9255 59.2421C43.2127 57.9512 44.9587 57.2259 46.7792 57.2259H47.9596V49.715H6.25755C5.88449 49.7087 5.52882 49.5557 5.26723 49.289C5.00563 49.0222 4.85905 48.663 4.8591 48.2888V32.5444C4.8591 30.688 5.22402 28.8499 5.93299 27.1352C6.64196 25.4204 7.68108 23.8626 8.99091 22.5508C10.3007 21.2391 11.8556 20.1992 13.5665 19.4905C15.2774 18.7819 17.1109 18.4184 18.962 18.4209H21.8774C31.5857 18.4216 40.8961 22.2896 47.7605 29.1739V29.1739V34.3555H22.233C21.0779 34.3568 19.9706 34.8175 19.1538 35.6365C18.3371 36.4555 17.8777 37.566 17.8765 38.7243" stroke="#306826" stroke-width="2" stroke-linecap="round" stroke-linejoin="round"/>
</g>
<defs>
<clipPath id="clip0_7_5065">
<rect width="133.378" height="128" fill="white"/>
</clipPath>
</defs>
</svg>
