<svg width="122" height="129" viewBox="0 0 122 129" fill="none" xmlns="http://www.w3.org/2000/svg">
<path opacity="0.3" d="M27.8528 89.8008C12.5949 82.8348 3.24113 71.0829 0.38351 55.0654C-2.40546 39.4306 10.2522 23.8817 30.6932 16.8168C40.7635 13.3381 60.4709 12.6931 68.3615 14.8474C86.4212 19.7795 95.7321 22.6605 108.338 34.8683C124.883 50.8858 125.973 80.7364 108.767 106.566C102.074 116.607 93.3207 124.854 81.1607 127.985C68.6404 131.21 61.4792 126.372 56.8709 118.8C55.352 116.375 38.8113 94.7974 27.8528 89.8008Z" fill="#9DB2F4"/>
<path d="M86.1152 62.4452V101.675C86.1233 103.768 86.906 105.773 88.2942 107.257C89.6824 108.741 91.5646 109.585 93.5338 109.607V109.607C95.5219 109.607 97.4285 108.768 98.8343 107.274C100.24 105.781 101.03 103.755 101.03 101.642V62.4452H91.2107V19.6606L87.1219 13.9176L91.1487 1H95.795L99.6049 13.2101L96.0428 19.5455V59.7629" stroke="#5970E1" stroke-width="2" stroke-linecap="round" stroke-linejoin="round"/>
<path d="M89.895 66.7236V108.636" stroke="#5970E1" stroke-width="2" stroke-linecap="round" stroke-linejoin="round"/>
<path d="M93.5327 66.7236V82.521" stroke="#5970E1" stroke-width="2" stroke-linecap="round" stroke-linejoin="round"/>
<path d="M82.1654 13.6708V1H58.934V13.6708C56.2181 14.53 53.5921 15.6824 51.0972 17.11L42.6409 8.14173L26.1312 25.6834L34.5719 34.6517C33.231 37.3039 32.1465 40.0937 31.335 42.9782H19.394V67.6616H31.335C32.1465 70.5462 33.231 73.3359 34.5719 75.9881L26.1312 84.9235L42.5945 102.465L51.0507 93.4969C53.5456 94.9245 56.1716 96.0769 58.8875 96.9361V109.607H82.1189V96.9361" stroke="#5970E1" stroke-width="2" stroke-linecap="round" stroke-linejoin="round"/>
<path d="M81.3453 79.9868C77.9064 81.7287 74.1433 82.6284 70.3336 82.6197C66.2322 82.6213 62.1896 81.5829 58.5419 79.5907C54.8941 77.5985 51.7466 74.71 49.3608 71.1653C46.9751 67.6207 45.4201 63.5222 44.825 59.2105C44.2299 54.8989 44.6119 50.4986 45.9393 46.3753C47.2668 42.2521 49.5013 38.5251 52.4571 35.504C55.4129 32.4828 59.0046 30.2549 62.9338 29.0053C66.863 27.7558 71.0162 27.5206 75.0481 28.3195C79.08 29.1184 82.8743 30.9282 86.1155 33.5985L76.2344 45.1174H65.0523L59.4923 55.3034L65.0523 65.5388H76.1724L81.7325 55.3034" stroke="#5970E1" stroke-width="2" stroke-linecap="round" stroke-linejoin="round"/>
</svg>
