<svg width="180" height="153" viewBox="0 0 180 153" fill="none" xmlns="http://www.w3.org/2000/svg">
<path d="M160.459 9.72458C161.053 12.7711 163.102 15.2996 165.492 17.7052C168.818 21.0547 170.787 25.1877 171.248 29.8927C171.7 34.4863 168.703 37.63 164.062 37.6859C161.78 37.7128 159.521 37.1678 157.783 35.8293C153.809 32.7813 149.604 30.0178 146.92 25.4604C143.403 19.4835 143.484 11.0974 147.609 5.52884C149.213 3.36909 151.255 1.89028 154.006 2.14687C156.838 2.4145 158.385 4.41995 159.326 6.94796C159.639 7.78321 159.989 8.57942 160.459 9.72458Z" fill="#FF8702"/>
<path d="M140.941 137.988C139.229 133.775 141.896 127.786 146.337 125.907C149.886 124.404 155.812 126.767 157.083 130.169C158.46 133.872 155.04 140.669 150.937 142.403C147.223 143.969 142.537 141.897 140.941 137.988Z" fill="#899EF4"/>
<path d="M8.37555 118.546C7.08823 118.184 5.76207 117.946 4.57089 117.234C1.38015 115.327 0.65227 112.346 2.67991 109.203C4.18861 106.876 6.38901 105.299 8.68433 103.889C15.8616 99.4936 23.795 96.8748 31.6949 94.1781C49.6274 88.0522 68.0374 83.6453 86.369 78.9487C96.1261 76.454 105.777 73.5508 115.48 70.8407C117.089 70.3949 118.725 70.0995 120.411 70.0287C121.672 69.9715 122.812 70.243 123.209 71.5424C123.573 72.71 122.954 73.6689 121.959 74.3275C119.074 76.2456 116.174 78.147 113.274 80.0484C92.3462 93.7432 70.389 105.348 46.4641 112.95C35.9263 116.297 25.241 119.014 14.079 119.172C12.1701 119.208 10.2554 119.069 8.37555 118.546Z" fill="#FFB43F"/>
</svg>
