<svg width="116" height="97" viewBox="0 0 116 97" fill="none" xmlns="http://www.w3.org/2000/svg">
<path d="M10.9255 34.418C11.7872 31.4997 14.1458 30.2006 16.8942 30.2734C29.3901 30.6034 37.5112 23.5704 44.2553 14.2662C46.1165 11.7031 47.7659 9.02337 51.3983 10.6864C54.83 12.2588 54.5536 15.4642 53.9891 18.5011C53.3656 21.8481 53.0837 25.2021 53.4444 28.5646C53.9647 33.3901 56.2921 36.9229 60.9388 38.9041C63.7554 40.1021 66.5412 41.8907 65.8363 45.5497C65.1075 49.3499 61.9194 49.5433 58.755 49.4339C53.2767 49.242 49.0273 51.639 45.5077 55.6617C41.6562 60.0582 38.6596 65.0106 35.7783 70.0521C34.4997 72.2876 32.6168 73.8516 29.8235 73.4595C27.2381 73.0857 25.4587 71.1493 25.6063 68.8613C26.3349 57.364 19.2096 49.6906 12.8786 41.5909C11.2251 39.5001 9.54017 37.4076 10.9255 34.418Z" fill="#899EF4"/>
<path d="M103.863 82.159C107.147 80.9702 111.643 83.193 112.949 86.6416C113.991 89.4035 112.017 93.8701 109.366 94.7405C106.493 95.6837 101.394 92.8655 100.181 89.6693C99.0929 86.7812 100.819 83.2602 103.863 82.159Z" fill="#FF8702"/>
</svg>
