<svg width="108" height="32" viewBox="0 0 108 32" fill="none" xmlns="http://www.w3.org/2000/svg">
<path d="M107.275 28.2206C107.275 28.6233 107.195 29.0221 107.041 29.3941C106.887 29.7662 106.661 30.1041 106.376 30.3887C106.091 30.6734 105.752 30.899 105.38 31.0528C105.008 31.2067 104.609 31.2856 104.206 31.2852H3.7849C2.97098 31.2861 2.19005 30.9637 1.61385 30.389C1.03765 29.8143 0.713356 29.0343 0.712296 28.2206V3.78153C0.713356 2.96746 1.03752 2.18709 1.61361 1.61175C2.18969 1.03642 2.97061 0.713155 3.7849 0.712944H104.205C104.608 0.712944 105.007 0.792321 105.38 0.946542C105.752 1.10076 106.09 1.32681 106.375 1.61176C106.66 1.89672 106.886 2.235 107.04 2.6073C107.195 2.97959 107.274 3.3786 107.274 3.78153L107.275 28.2206Z" fill="white"/>
<path d="M104.206 31.9995H3.78491C2.78225 31.9993 1.82063 31.6014 1.11105 30.8932C0.40147 30.185 0.00188488 29.2244 -2.28882e-05 28.222L-2.28882e-05 3.78367C0.00146039 2.78079 0.400781 1.81944 1.11034 1.11052C1.8199 0.401597 2.78176 0.00299224 3.78491 0.00214577L104.205 0.00214577C105.208 0.00341461 106.17 0.402155 106.879 1.11099C107.589 1.81982 107.988 2.78092 107.99 3.78367V28.222C107.992 30.3056 106.291 31.9995 104.206 31.9995V31.9995Z" fill="white"/>
<path d="M107.275 28.2206C107.275 28.6233 107.195 29.0221 107.041 29.3941C106.887 29.7662 106.661 30.1041 106.376 30.3887C106.091 30.6734 105.752 30.899 105.38 31.0528C105.008 31.2067 104.609 31.2856 104.206 31.2852H3.7849C2.97098 31.2861 2.19005 30.9637 1.61385 30.389C1.03765 29.8143 0.713356 29.0343 0.712296 28.2206V3.78153C0.713356 2.96746 1.03752 2.18709 1.61361 1.61175C2.18969 1.03642 2.97061 0.713155 3.7849 0.712944H104.205C104.608 0.712944 105.007 0.792321 105.38 0.946542C105.752 1.10076 106.09 1.32681 106.375 1.61176C106.66 1.89672 106.886 2.235 107.04 2.6073C107.195 2.97959 107.274 3.3786 107.274 3.78153L107.275 28.2206Z" fill="white"/>
<path d="M24.1135 15.831C24.0903 13.2521 26.2256 11.9975 26.3233 11.939C25.1139 10.1763 23.2395 9.93546 22.5808 9.91626C21.0065 9.75063 19.4794 10.858 18.6774 10.858C17.8594 10.858 16.6245 9.93226 15.2934 9.95947C13.5807 9.98587 11.9783 10.9773 11.0995 12.5168C9.2859 15.6558 10.6385 20.2686 12.3761 22.8059C13.2453 24.0494 14.261 25.436 15.5904 25.3872C16.891 25.3344 17.3768 24.5591 18.9463 24.5591C20.5014 24.5591 20.9576 25.3872 22.3134 25.356C23.7093 25.3344 24.5881 24.1078 25.4269 22.8539C26.4313 21.4305 26.8347 20.027 26.8507 19.955C26.8187 19.9438 24.1407 18.9212 24.1135 15.831V15.831ZM21.5523 8.24714C22.2518 7.37257 22.7304 6.18275 22.5976 4.97531C21.5851 5.02012 20.3189 5.67545 19.5898 6.53081C18.9447 7.28456 18.3684 8.51999 18.5173 9.68182C19.6546 9.76663 20.8224 9.10811 21.5523 8.24714V8.24714Z" fill="#333333"/>
<path d="M42.9517 25.2088H41.1341L40.1384 22.081H36.6777L35.7292 25.2088H33.9596L37.3892 14.5604H39.5069L42.9517 25.2088V25.2088ZM39.8383 20.7688L38.9379 17.9882C38.8426 17.7042 38.6634 17.0352 38.4008 15.9822H38.3688C38.2632 16.4351 38.0943 17.1041 37.863 17.9882L36.9778 20.7688H39.8383ZM51.7542 21.2753C51.7542 22.5811 51.3996 23.6133 50.6897 24.3711C50.0542 25.0456 49.2642 25.3824 48.3222 25.3824C47.3049 25.3824 46.5734 25.02 46.1292 24.2934V28.3222H44.4228V20.0542C44.4228 19.2341 44.4012 18.3931 44.3596 17.5305H45.8603L45.9555 18.7476H45.9875C46.5566 17.8306 47.4202 17.3721 48.5791 17.3721C49.4851 17.3721 50.2415 17.7298 50.8465 18.4459C51.4508 19.1637 51.7542 20.1062 51.7542 21.2753ZM50.0158 21.3377C50.0158 20.5903 49.8477 19.9742 49.5099 19.4885C49.141 18.9836 48.6455 18.7308 48.0244 18.7308C47.6034 18.7308 47.2209 18.8716 46.8791 19.1493C46.5366 19.4293 46.3125 19.795 46.2076 20.2479C46.1608 20.4172 46.1342 20.5915 46.1284 20.7672V22.0482C46.1284 22.6059 46.2997 23.0772 46.6422 23.4629C46.9848 23.847 47.4298 24.0398 47.9772 24.0398C48.6199 24.0398 49.1201 23.7909 49.4779 23.2972C49.8365 22.802 50.0158 22.149 50.0158 21.3377V21.3377ZM60.5878 21.2753C60.5878 22.5811 60.2332 23.6133 59.5233 24.3711C58.887 25.0456 58.0979 25.3824 57.155 25.3824C56.1378 25.3824 55.4062 25.02 54.962 24.2934V28.3222H53.2556V20.0542C53.2556 19.2341 53.234 18.3931 53.1924 17.5305H54.6931L54.7883 18.7476H54.8204C55.3886 17.8306 56.2522 17.3721 57.4119 17.3721C58.3172 17.3721 59.0735 17.7298 59.6802 18.4459C60.2837 19.1637 60.5878 20.1062 60.5878 21.2753V21.2753ZM58.8486 21.3377C58.8486 20.5903 58.6797 19.9742 58.342 19.4885C57.973 18.9836 57.4792 18.7308 56.8581 18.7308C56.4371 18.7308 56.0545 18.8716 55.7112 19.1493C55.3686 19.4293 55.1453 19.795 55.0404 20.2479C54.9884 20.4591 54.9604 20.6311 54.9604 20.7672V22.0482C54.9604 22.6059 55.1325 23.0772 55.4734 23.4629C55.816 23.8462 56.261 24.0398 56.8101 24.0398C57.4536 24.0398 57.9538 23.7909 58.3108 23.2972C58.6693 22.802 58.8486 22.149 58.8486 21.3377V21.3377ZM70.4643 22.2218C70.4643 23.1284 70.1474 23.8654 69.5175 24.4343C68.8244 25.0552 67.8567 25.3664 66.6161 25.3664C65.47 25.3664 64.5512 25.1456 63.8581 24.7031L64.2527 23.2812C65.001 23.7245 65.823 23.9454 66.7178 23.9454C67.3613 23.9454 67.8615 23.7997 68.2185 23.5109C68.5762 23.2212 68.7571 22.834 68.7571 22.3507C68.7571 21.9178 68.6075 21.5553 68.3137 21.2601C68.0184 20.9656 67.5302 20.6911 66.8442 20.4391C64.9794 19.7438 64.0462 18.7268 64.0462 17.3889C64.0462 16.5151 64.3759 15.7998 65.0338 15.2405C65.6917 14.682 66.5641 14.4027 67.6494 14.4027C68.6187 14.4027 69.4262 14.5716 70.0673 14.9084L69.6391 16.2991C69.0357 15.9726 68.3545 15.8094 67.5926 15.8094C66.9907 15.8094 66.5185 15.9574 66.1807 16.2519C65.8966 16.5151 65.7526 16.836 65.7526 17.2169C65.7526 17.637 65.9166 17.9858 66.2432 18.2595C66.5265 18.5115 67.0435 18.786 67.7911 19.0804C68.7083 19.4501 69.3822 19.8806 69.8136 20.3751C70.2482 20.8696 70.4643 21.4865 70.4643 22.2218ZM76.1205 18.8108H74.2396V22.5387C74.2396 23.4869 74.571 23.9598 75.2353 23.9598C75.5402 23.9598 75.7931 23.9342 75.9932 23.8806L76.0405 25.176C75.7043 25.3016 75.2617 25.3648 74.7134 25.3648C74.0395 25.3648 73.5129 25.1592 73.1327 24.7479C72.7542 24.3366 72.5637 23.6477 72.5637 22.6779V18.8076H71.4432V17.5273H72.5637V16.1215L74.2396 15.6158V17.5273H76.1205V18.8108V18.8108ZM84.59 21.3065C84.59 22.4867 84.2522 23.4557 83.5783 24.2134C82.8732 24.9936 81.9352 25.3824 80.7658 25.3824C79.6373 25.3824 78.7401 25.0088 78.071 24.2622C77.4019 23.5141 77.0673 22.5715 77.0673 21.4345C77.0673 20.2447 77.4131 19.2701 78.1022 18.5123C78.7929 17.7538 79.7229 17.3745 80.8923 17.3745C82.0192 17.3745 82.9244 17.749 83.6095 18.4963C84.2642 19.2213 84.59 20.1574 84.59 21.3065ZM82.8212 21.3457C82.8212 20.6423 82.6691 20.039 82.3641 19.5341C82.0064 18.9244 81.4941 18.6195 80.8306 18.6195C80.1471 18.6195 79.6229 18.9244 79.2659 19.5341C78.9602 20.039 78.8081 20.6527 78.8081 21.3777C78.8081 22.0818 78.9602 22.6867 79.2659 23.19C79.6349 23.7997 80.1495 24.1046 80.8162 24.1046C81.4685 24.1046 81.98 23.7933 82.3497 23.1748C82.6635 22.6579 82.8212 22.0506 82.8212 21.3457ZM90.1389 19.0308C89.9614 18.9988 89.7814 18.983 89.6011 18.9836C89.0008 18.9836 88.5366 19.2093 88.21 19.6638C87.9267 20.0638 87.7842 20.5695 87.7842 21.18V25.2088H86.0778V19.9486C86.0794 19.1426 86.0628 18.3366 86.0282 17.5313H87.5145L87.5769 19.0004H87.6242C87.805 18.4955 88.0884 18.0882 88.4773 17.7834C88.8334 17.517 89.266 17.3727 89.7107 17.3721C89.8684 17.3721 90.0108 17.3833 90.1373 17.4033L90.1389 19.0308V19.0308ZM97.7704 21.0064C97.7747 21.2657 97.7538 21.5249 97.708 21.7802H92.5888C92.608 22.5387 92.8561 23.1196 93.3316 23.5197C93.763 23.8766 94.3208 24.0558 95.0059 24.0558C95.7639 24.0558 96.4554 23.9358 97.0773 23.6933L97.3446 24.8768C96.6179 25.1936 95.7599 25.3512 94.7698 25.3512C93.5789 25.3512 92.6441 25.0008 91.9637 24.3014C91.285 23.6013 90.9449 22.6603 90.9449 21.4817C90.9449 20.3247 91.261 19.3605 91.8941 18.5915C92.5568 17.7706 93.4524 17.3601 94.5793 17.3601C95.6862 17.3601 96.5242 17.7706 97.0933 18.5915C97.5439 19.2421 97.7704 20.0486 97.7704 21.0064V21.0064ZM96.1433 20.5639C96.1553 20.0574 96.0432 19.6213 95.8119 19.2525C95.5166 18.7772 95.062 18.5403 94.4529 18.5403C93.895 18.5403 93.4404 18.7716 93.0947 19.2357C92.8105 19.6045 92.6416 20.0478 92.5896 20.5623L96.1433 20.5639Z" fill="#333333"/>
<path d="M36.1853 10.7957C35.7107 10.7957 35.3001 10.7725 34.9584 10.7333V5.58507C35.4363 5.51125 35.9194 5.47487 36.403 5.47625C38.3599 5.47625 39.2611 6.43884 39.2611 8.00794C39.2611 9.81788 38.1966 10.7957 36.1853 10.7957ZM36.4718 6.13638C36.2077 6.13638 35.9828 6.15238 35.7963 6.19079V10.1043C35.8972 10.1203 36.0909 10.1275 36.363 10.1275C37.6452 10.1275 38.3751 9.3978 38.3751 8.03114C38.3751 6.81251 37.7148 6.13638 36.4718 6.13638V6.13638ZM42.0696 10.8349C40.9667 10.8349 40.252 10.0115 40.252 8.89371C40.252 7.72868 40.9819 6.89812 42.132 6.89812C43.2189 6.89812 43.9497 7.68227 43.9497 8.83209C43.9497 10.0115 43.1965 10.8349 42.0696 10.8349ZM42.1016 7.51104C41.4957 7.51104 41.1076 8.07755 41.1076 8.8697C41.1076 9.64665 41.5037 10.2132 42.0936 10.2132C42.6835 10.2132 43.0797 9.60744 43.0797 8.8537C43.0797 8.08555 42.6915 7.51104 42.1016 7.51104ZM50.2389 6.97574L49.0584 10.7493H48.2892L47.8002 9.11055C47.6786 8.70971 47.5774 8.30298 47.4969 7.89191H47.4809C47.4192 8.30319 47.3024 8.71527 47.1783 9.11055L46.6581 10.7493H45.8809L44.77 6.97574H45.632L46.0594 8.76968C46.1603 9.19696 46.2451 9.60024 46.3155 9.98111H46.3315C46.3932 9.66345 46.494 9.26658 46.6421 8.77768L47.1783 6.97654H47.8618L48.3749 8.73928C48.4989 9.16656 48.5998 9.58584 48.6782 9.98191H48.7006C48.755 9.59384 48.8407 9.18176 48.9567 8.73928L49.4153 6.97654L50.2389 6.97574V6.97574ZM54.5849 10.7493H53.7461V8.58245C53.7461 7.91512 53.49 7.58065 52.985 7.58065C52.4879 7.58065 52.1462 8.00794 52.1462 8.50483V10.7493H51.3074V8.05434C51.3074 7.72068 51.2994 7.36301 51.2762 6.97494H52.0141L52.0534 7.55745H52.0766C52.3023 7.15417 52.7601 6.89812 53.2731 6.89812C54.0655 6.89812 54.5857 7.50384 54.5857 8.48963L54.5849 10.7493V10.7493ZM56.898 10.7493H56.0584V5.24421H56.898V10.7493ZM59.9562 10.8349C58.8541 10.8349 58.1385 10.0115 58.1385 8.89371C58.1385 7.72868 58.8685 6.89812 60.0178 6.89812C61.1055 6.89812 61.8354 7.68227 61.8354 8.83209C61.8362 10.0115 61.0823 10.8349 59.9562 10.8349ZM59.9874 7.51104C59.3815 7.51104 58.9933 8.07755 58.9933 8.8697C58.9933 9.64665 59.3903 10.2132 59.9786 10.2132C60.5692 10.2132 60.9646 9.60744 60.9646 8.8537C60.9654 8.08555 60.578 7.51104 59.9874 7.51104V7.51104ZM65.1425 10.7493L65.0817 10.3148H65.0593C64.8032 10.6644 64.4294 10.8349 63.9556 10.8349C63.2793 10.8349 62.7991 10.3612 62.7991 9.72426C62.7991 8.79289 63.6066 8.31119 65.0049 8.31119V8.24158C65.0049 7.74469 64.7415 7.49584 64.2213 7.49584C63.8491 7.49584 63.5226 7.58946 63.2353 7.77589L63.0648 7.22459C63.4137 7.00694 63.8491 6.89812 64.3606 6.89812C65.3466 6.89812 65.8444 7.41822 65.8444 8.45922V9.84909C65.8444 10.23 65.8612 10.5252 65.8989 10.7501L65.1425 10.7493V10.7493ZM65.0273 8.8697C64.0956 8.8697 63.6282 9.09534 63.6282 9.63065C63.6282 10.0267 63.8691 10.2204 64.2037 10.2204C64.6303 10.2204 65.0273 9.8947 65.0273 9.45221V8.8697V8.8697ZM69.9175 10.7493L69.8783 10.1435H69.8551C69.6142 10.6012 69.2092 10.8349 68.6433 10.8349C67.7333 10.8349 67.0594 10.0347 67.0594 8.90891C67.0594 7.72868 67.7581 6.89732 68.7121 6.89732C69.2172 6.89732 69.5749 7.06776 69.7766 7.41022H69.7934V5.24421H70.633V9.73227C70.633 10.0971 70.6418 10.4388 70.6642 10.7493H69.9175ZM69.7934 8.52884C69.7934 8.00073 69.4437 7.55025 68.9098 7.55025C68.288 7.55025 67.9078 8.10155 67.9078 8.8777C67.9078 9.63865 68.3024 10.1595 68.893 10.1595C69.4205 10.1595 69.7934 9.70106 69.7934 9.15776V8.52884ZM75.9563 10.8349C74.8542 10.8349 74.1394 10.0115 74.1394 8.89371C74.1394 7.72868 74.8694 6.89812 76.0187 6.89812C77.1064 6.89812 77.8363 7.68227 77.8363 8.83209C77.8371 10.0115 77.084 10.8349 75.9563 10.8349ZM75.9875 7.51104C75.3824 7.51104 74.9942 8.07755 74.9942 8.8697C74.9942 9.64665 75.3904 10.2132 75.9795 10.2132C76.5701 10.2132 76.9655 9.60744 76.9655 8.8537C76.9671 8.08555 76.5789 7.51104 75.9875 7.51104ZM82.3472 10.7493H81.5076V8.58245C81.5076 7.91512 81.2515 7.58065 80.7464 7.58065C80.2494 7.58065 79.9085 8.00794 79.9085 8.50483V10.7493H79.0689V8.05434C79.0689 7.72068 79.0609 7.36301 79.0377 6.97494H79.7756L79.8148 7.55745H79.838C80.0629 7.15417 80.5215 6.89732 81.0338 6.89732C81.8261 6.89732 82.3472 7.50304 82.3472 8.48883V10.7493ZM87.9905 7.60466H87.0677V9.43701C87.0677 9.9035 87.2294 10.1363 87.5559 10.1363C87.704 10.1363 87.8281 10.1203 87.9281 10.0971L87.9513 10.7341C87.7889 10.7965 87.5712 10.8277 87.3006 10.8277C86.6395 10.8277 86.2441 10.4628 86.2441 9.50742V7.60466H85.6935V6.97574H86.2441V6.28441L87.0677 6.03556V6.97494H87.9905V7.60466V7.60466ZM92.431 10.7493H91.593V8.59845C91.593 7.92312 91.3377 7.58145 90.8318 7.58145C90.3972 7.58145 89.9923 7.87671 89.9923 8.47443V10.7493H89.1543V5.24421H89.9923V7.51104H90.0091C90.2732 7.09976 90.6558 6.89732 91.144 6.89732C91.9427 6.89732 92.431 7.51824 92.431 8.50483V10.7493V10.7493ZM96.9802 9.06414H94.4631C94.4791 9.77867 94.9521 10.182 95.6524 10.182C96.0246 10.182 96.3672 10.1195 96.6697 10.0035L96.8002 10.586C96.4432 10.7413 96.023 10.8189 95.534 10.8189C94.3534 10.8189 93.6547 10.0731 93.6547 8.91691C93.6547 7.75989 94.3703 6.89012 95.4395 6.89012C96.404 6.89012 97.0091 7.60466 97.0091 8.68407C97.0145 8.81145 97.0048 8.93903 96.9802 9.06414V9.06414ZM96.2111 8.46642C96.2111 7.88391 95.9174 7.47263 95.3811 7.47263C94.8993 7.47263 94.5183 7.89191 94.4639 8.46642H96.2111V8.46642Z" fill="#333333"/>
</svg>
