<svg width="108" height="32" viewBox="0 0 108 32" fill="none" xmlns="http://www.w3.org/2000/svg">
<g clip-path="url(#clip0_193_76)">
<path d="M107.274 28.2206C107.274 28.6233 107.195 29.0221 107.041 29.3941C106.886 29.7661 106.66 30.1041 106.375 30.3887C106.09 30.6733 105.752 30.899 105.38 31.0528C105.007 31.2066 104.608 31.2856 104.206 31.2852H3.78452C2.9706 31.286 2.18967 30.9636 1.61347 30.3889C1.03727 29.8142 0.712975 29.0343 0.711914 28.2206V3.78148C0.712974 2.96741 1.03714 2.18703 1.61322 1.6117C2.18931 1.03636 2.97023 0.713102 3.78452 0.712891H104.205C104.608 0.712891 105.007 0.792268 105.379 0.946489C105.752 1.10071 106.09 1.32675 106.375 1.61171C106.66 1.89666 106.886 2.23495 107.04 2.60724C107.194 2.97954 107.274 3.37854 107.273 3.78148L107.274 28.2206Z" fill="white"/>
<path d="M104.206 31.9995H3.78493C2.78228 31.9993 1.82066 31.6015 1.11107 30.8933C0.401492 30.1851 0.00190777 29.2244 0 28.222L0 3.78372C0.00148328 2.78084 0.400804 1.81949 1.11036 1.11057C1.81992 0.401649 2.78178 0.00304374 3.78493 0.00219727L104.205 0.00219727C105.208 0.00346611 106.17 0.402207 106.879 1.11104C107.589 1.81987 107.988 2.78097 107.99 3.78372V28.222C107.992 30.3056 106.291 31.9995 104.206 31.9995Z" fill="black"/>
<path d="M107.274 28.2206C107.274 28.6233 107.195 29.0221 107.041 29.3941C106.886 29.7661 106.66 30.1041 106.375 30.3887C106.09 30.6733 105.752 30.899 105.38 31.0528C105.007 31.2066 104.608 31.2856 104.206 31.2852H3.78452C2.9706 31.286 2.18967 30.9636 1.61347 30.3889C1.03727 29.8142 0.712975 29.0343 0.711914 28.2206V3.78148C0.712974 2.96741 1.03714 2.18703 1.61322 1.6117C2.18931 1.03636 2.97023 0.713102 3.78452 0.712891H104.205C104.608 0.712891 105.007 0.792268 105.379 0.946489C105.752 1.10071 106.09 1.32675 106.375 1.61171C106.66 1.89666 106.886 2.23495 107.04 2.60724C107.194 2.97954 107.274 3.37854 107.273 3.78148L107.274 28.2206Z" fill="black"/>
<path d="M24.1135 15.831C24.0903 13.2521 26.2257 11.9975 26.3233 11.9391C25.1139 10.1763 23.2395 9.93549 22.5808 9.91629C21.0065 9.75066 19.4794 10.8581 18.6774 10.8581C17.8594 10.8581 16.6245 9.93229 15.2935 9.9595C13.5807 9.9859 11.9784 10.9773 11.0996 12.5168C9.28592 15.6558 10.6385 20.2687 12.3761 22.806C13.2453 24.0494 14.261 25.4361 15.5904 25.3873C16.891 25.3344 17.3768 24.5591 18.9463 24.5591C20.5014 24.5591 20.9577 25.3873 22.3135 25.356C23.7093 25.3344 24.5881 24.1078 25.4269 22.854C26.4313 21.4305 26.8347 20.027 26.8507 19.955C26.8187 19.9438 24.1407 18.9212 24.1135 15.831ZM21.5523 8.24717C22.2518 7.3726 22.7305 6.18277 22.5976 4.97534C21.5851 5.02015 20.319 5.67548 19.5898 6.53084C18.9447 7.28458 18.3685 8.52002 18.5173 9.68184C19.6547 9.76666 20.8224 9.10813 21.5523 8.24717Z" fill="white"/>
<path d="M104.206 0.000732422H50.417L71.485 31.9981H104.206C105.208 31.9972 106.17 31.5988 106.88 30.8903C107.589 30.1817 107.989 29.2208 107.991 28.2181V3.78226C107.989 2.77944 107.589 1.81821 106.88 1.10934C106.17 0.400463 105.209 0.00179016 104.206 0.000732422V0.000732422Z" fill="url(#paint0_linear_193_76)"/>
<path d="M42.9521 25.2089H41.1344L40.1388 22.0811H36.678L35.7296 25.2089H33.96L37.3895 14.5605H39.5073L42.9521 25.2089ZM39.8387 20.7689L38.9382 17.9883C38.843 17.7043 38.6637 17.0353 38.4012 15.9823H38.3692C38.2635 16.4352 38.0947 17.1042 37.8633 17.9883L36.9781 20.7689H39.8387ZM51.7545 21.2754C51.7545 22.5812 51.3999 23.6134 50.69 24.3711C50.0545 25.0457 49.2646 25.3825 48.3225 25.3825C47.3053 25.3825 46.5737 25.0201 46.1295 24.2935V28.3223H44.4231V20.0543C44.4231 19.2342 44.4015 18.3932 44.3599 17.5306H45.8606L45.9558 18.7477H45.9879C46.5569 17.8307 47.4205 17.3722 48.5794 17.3722C49.4855 17.3722 50.2418 17.7299 50.8469 18.446C51.4512 19.1637 51.7545 20.1063 51.7545 21.2754ZM50.0161 21.3378C50.0161 20.5904 49.848 19.9743 49.5103 19.4886C49.1413 18.9837 48.6459 18.7309 48.0248 18.7309C47.6038 18.7309 47.2212 18.8717 46.8795 19.1493C46.5369 19.4294 46.3128 19.7951 46.208 20.248C46.1612 20.4173 46.1346 20.5916 46.1287 20.7673V22.0483C46.1287 22.606 46.3 23.0773 46.6426 23.463C46.9851 23.847 47.4301 24.0399 47.9776 24.0399C48.6203 24.0399 49.1205 23.791 49.4783 23.2973C49.8368 22.802 50.0161 22.1491 50.0161 21.3378ZM60.5881 21.2754C60.5881 22.5812 60.2336 23.6134 59.5237 24.3711C58.8874 25.0457 58.0982 25.3825 57.1554 25.3825C56.1381 25.3825 55.4066 25.0201 54.9624 24.2935V28.3223H53.256V20.0543C53.256 19.2342 53.2344 18.3932 53.1928 17.5306H54.6934L54.7887 18.7477H54.8207C55.389 17.8307 56.2526 17.3722 57.4123 17.3722C58.3175 17.3722 59.0738 17.7299 59.6805 18.446C60.284 19.1637 60.5881 20.1063 60.5881 21.2754ZM58.8489 21.3378C58.8489 20.5904 58.6801 19.9743 58.3423 19.4886C57.9733 18.9837 57.4795 18.7309 56.8584 18.7309C56.4374 18.7309 56.0549 18.8717 55.7115 19.1493C55.369 19.4294 55.1456 19.7951 55.0408 20.248C54.9888 20.4592 54.9608 20.6312 54.9608 20.7673V22.0483C54.9608 22.606 55.1328 23.0773 55.4738 23.463C55.8164 23.8462 56.2614 24.0399 56.8104 24.0399C57.4539 24.0399 57.9541 23.791 58.3111 23.2973C58.6697 22.802 58.8489 22.1491 58.8489 21.3378ZM70.4647 22.2219C70.4647 23.1285 70.1477 23.8654 69.5178 24.4344C68.8247 25.0553 67.8571 25.3665 66.6165 25.3665C65.4704 25.3665 64.5516 25.1457 63.8584 24.7032L64.253 23.2813C65.0014 23.7246 65.8233 23.9455 66.7181 23.9455C67.3616 23.9455 67.8619 23.7998 68.2188 23.511C68.5766 23.2213 68.7575 22.8341 68.7575 22.3508C68.7575 21.9179 68.6078 21.5554 68.3141 21.2601C68.0187 20.9657 67.5305 20.6912 66.8446 20.4392C64.9797 19.7439 64.0465 18.7269 64.0465 17.389C64.0465 16.5152 64.3763 15.7999 65.0342 15.2406C65.6921 14.6821 66.5645 14.4028 67.6498 14.4028C68.619 14.4028 69.4266 14.5717 70.0677 14.9085L69.6395 16.2992C69.036 15.9727 68.3549 15.8095 67.5929 15.8095C66.9911 15.8095 66.5189 15.9575 66.1811 16.252C65.897 16.5152 65.7529 16.8361 65.7529 17.217C65.7529 17.6371 65.917 17.9859 66.2435 18.2596C66.5269 18.5116 67.0439 18.7861 67.7914 19.0805C68.7087 19.4502 69.3826 19.8807 69.814 20.3752C70.2486 20.8697 70.4647 21.4866 70.4647 22.2219ZM76.1208 18.8109H74.24V22.5388C74.24 23.487 74.5713 23.9599 75.2356 23.9599C75.5406 23.9599 75.7935 23.9343 75.9936 23.8807L76.0408 25.1761C75.7047 25.3017 75.262 25.3649 74.7138 25.3649C74.0399 25.3649 73.5133 25.1593 73.1331 24.748C72.7545 24.3367 72.564 23.6478 72.564 22.678V18.8077H71.4435V17.5274H72.564V16.1216L74.24 15.6159V17.5274H76.1208V18.8109ZM84.5903 21.3066C84.5903 22.4868 84.2526 23.4558 83.5787 24.2135C82.8735 24.9937 81.9355 25.3825 80.7662 25.3825C79.6377 25.3825 78.7404 25.0089 78.0713 24.2623C77.4022 23.5142 77.0677 22.5716 77.0677 21.4346C77.0677 20.2448 77.4134 19.2702 78.1025 18.5124C78.7933 17.7539 79.7233 17.3746 80.8926 17.3746C82.0195 17.3746 82.9248 17.7491 83.6099 18.4964C84.2646 19.2214 84.5903 20.1575 84.5903 21.3066ZM82.8215 21.3458C82.8215 20.6424 82.6694 20.0391 82.3645 19.5342C82.0067 18.9245 81.4945 18.6196 80.831 18.6196C80.1475 18.6196 79.6232 18.9245 79.2663 19.5342C78.9605 20.0391 78.8085 20.6528 78.8085 21.3778C78.8085 22.0819 78.9605 22.6868 79.2663 23.1901C79.6353 23.7998 80.1499 24.1047 80.8166 24.1047C81.4689 24.1047 81.9803 23.7934 82.3501 23.1749C82.6638 22.658 82.8215 22.0507 82.8215 21.3458ZM90.1393 19.0309C89.9618 18.9989 89.7817 18.9831 89.6014 18.9837C89.0011 18.9837 88.5369 19.2094 88.2104 19.6638C87.927 20.0639 87.7846 20.5696 87.7846 21.1801V25.2089H86.0782V19.9487C86.0797 19.1427 86.0632 18.3367 86.0286 17.5314H87.5149L87.5773 19.0005H87.6245C87.8054 18.4956 88.0887 18.0883 88.4777 17.7835C88.8337 17.5171 89.2663 17.3728 89.7111 17.3722C89.8687 17.3722 90.0112 17.3834 90.1377 17.4034L90.1393 19.0309ZM97.7707 21.0065C97.7751 21.2658 97.7542 21.525 97.7083 21.7802H92.5892C92.6084 22.5388 92.8565 23.1197 93.3319 23.5198C93.7633 23.8767 94.3212 24.0559 95.0063 24.0559C95.7642 24.0559 96.4557 23.9359 97.0776 23.6934L97.345 24.8768C96.6182 25.1937 95.7602 25.3513 94.7702 25.3513C93.5792 25.3513 92.6444 25.0009 91.9641 24.3015C91.2854 23.6014 90.9452 22.6604 90.9452 21.4818C90.9452 20.3248 91.2614 19.3606 91.8945 18.5916C92.5572 17.7707 93.4528 17.3602 94.5797 17.3602C95.6866 17.3602 96.5246 17.7707 97.0936 18.5916C97.5442 19.2422 97.7707 20.0487 97.7707 21.0065ZM96.1436 20.564C96.1556 20.0575 96.0436 19.6214 95.8122 19.2526C95.5169 18.7773 95.0623 18.5404 94.4532 18.5404C93.8954 18.5404 93.4408 18.7717 93.095 19.2358C92.8109 19.6046 92.642 20.0479 92.59 20.5624L96.1436 20.564Z" fill="white"/>
<path d="M36.185 10.7956C35.7103 10.7956 35.2998 10.7724 34.958 10.7332V5.58501C35.436 5.51119 35.919 5.4748 36.4027 5.47618C38.3596 5.47618 39.2608 6.43877 39.2608 8.00787C39.2608 9.81782 38.1963 10.7956 36.185 10.7956ZM36.4715 6.13631C36.2074 6.13631 35.9825 6.15231 35.796 6.19072V10.1043C35.8968 10.1203 36.0905 10.1275 36.3626 10.1275C37.6448 10.1275 38.3748 9.39774 38.3748 8.03107C38.3748 6.81244 37.7145 6.13631 36.4715 6.13631ZM42.0693 10.8348C40.9663 10.8348 40.2516 10.0115 40.2516 8.89364C40.2516 7.72862 40.9816 6.89806 42.1317 6.89806C43.2186 6.89806 43.9493 7.68221 43.9493 8.83203C43.9493 10.0115 43.1962 10.8348 42.0693 10.8348ZM42.1013 7.51097C41.4954 7.51097 41.1072 8.07748 41.1072 8.86963C41.1072 9.64658 41.5034 10.2131 42.0933 10.2131C42.6831 10.2131 43.0793 9.60738 43.0793 8.85363C43.0793 8.08548 42.6911 7.51097 42.1013 7.51097ZM50.2386 6.97567L49.058 10.7492H48.2889L47.7999 9.11048C47.6783 8.70964 47.577 8.30291 47.4965 7.89185H47.4805C47.4189 8.30313 47.302 8.7152 47.178 9.11048L46.6577 10.7492H45.8806L44.7697 6.97567H45.6317L46.0591 8.76961C46.1599 9.1969 46.2448 9.60017 46.3152 9.98105H46.3312C46.3928 9.66339 46.4937 9.26651 46.6417 8.77762L47.178 6.97647H47.8615L48.3745 8.73921C48.4986 9.16649 48.5994 9.58577 48.6779 9.98185H48.7003C48.7547 9.59377 48.8403 9.18169 48.9564 8.73921L49.415 6.97647L50.2386 6.97567ZM54.5846 10.7492H53.7458V8.58238C53.7458 7.91505 53.4897 7.58059 52.9846 7.58059C52.4876 7.58059 52.1458 8.00787 52.1458 8.50476V10.7492H51.3071V8.05428C51.3071 7.72061 51.2991 7.36295 51.2759 6.97487H52.0138L52.053 7.55738H52.0762C52.3019 7.15411 52.7597 6.89806 53.2728 6.89806C54.0651 6.89806 54.5854 7.50377 54.5854 8.48956L54.5846 10.7492ZM56.8976 10.7492H56.058V5.24414H56.8976V10.7492ZM59.9558 10.8348C58.8537 10.8348 58.1382 10.0115 58.1382 8.89364C58.1382 7.72862 58.8681 6.89806 60.0174 6.89806C61.1051 6.89806 61.8351 7.68221 61.8351 8.83203C61.8359 10.0115 61.0819 10.8348 59.9558 10.8348ZM59.987 7.51097C59.3811 7.51097 58.993 8.07748 58.993 8.86963C58.993 9.64658 59.39 10.2131 59.9782 10.2131C60.5689 10.2131 60.9643 9.60738 60.9643 8.85363C60.9651 8.08548 60.5777 7.51097 59.987 7.51097ZM65.1422 10.7492L65.0814 10.3147H65.0589C64.8028 10.6644 64.4291 10.8348 63.9552 10.8348C63.2789 10.8348 62.7987 10.3611 62.7987 9.7242C62.7987 8.79282 63.6063 8.31113 65.0045 8.31113V8.24151C65.0045 7.74462 64.7412 7.49577 64.221 7.49577C63.8488 7.49577 63.5222 7.58939 63.2349 7.77582L63.0644 7.22452C63.4134 7.00688 63.8488 6.89806 64.3602 6.89806C65.3463 6.89806 65.8441 7.41816 65.8441 8.45916V9.84902C65.8441 10.2299 65.8609 10.5252 65.8985 10.75L65.1422 10.7492ZM65.0269 8.86963C64.0953 8.86963 63.6279 9.09528 63.6279 9.63058C63.6279 10.0267 63.8688 10.2203 64.2034 10.2203C64.6299 10.2203 65.0269 9.89463 65.0269 9.45215V8.86963ZM69.9172 10.7492L69.8779 10.1435H69.8547C69.6138 10.6012 69.2088 10.8348 68.643 10.8348C67.733 10.8348 67.0591 10.0347 67.0591 8.90884C67.0591 7.72862 67.7578 6.89726 68.7118 6.89726C69.2168 6.89726 69.5746 7.06769 69.7763 7.41016H69.7931V5.24414H70.6327V9.7322C70.6327 10.0971 70.6415 10.4387 70.6639 10.7492H69.9172ZM69.7931 8.52877C69.7931 8.00067 69.4433 7.55018 68.9095 7.55018C68.2876 7.55018 67.9074 8.10149 67.9074 8.87764C67.9074 9.63858 68.302 10.1595 68.8927 10.1595C69.4201 10.1595 69.7931 9.70099 69.7931 9.15769V8.52877ZM75.9559 10.8348C74.8538 10.8348 74.1391 10.0115 74.1391 8.89364C74.1391 7.72862 74.869 6.89806 76.0183 6.89806C77.106 6.89806 77.836 7.68221 77.836 8.83203C77.8368 10.0115 77.0836 10.8348 75.9559 10.8348ZM75.9871 7.51097C75.3821 7.51097 74.9939 8.07748 74.9939 8.86963C74.9939 9.64658 75.3901 10.2131 75.9791 10.2131C76.5698 10.2131 76.9652 9.60738 76.9652 8.85363C76.9668 8.08548 76.5786 7.51097 75.9871 7.51097ZM82.3468 10.7492H81.5072V8.58238C81.5072 7.91505 81.2511 7.58059 80.7461 7.58059C80.2491 7.58059 79.9081 8.00787 79.9081 8.50476V10.7492H79.0685V8.05428C79.0685 7.72061 79.0605 7.36295 79.0373 6.97487H79.7753L79.8145 7.55738H79.8377C80.0626 7.15411 80.5212 6.89726 81.0334 6.89726C81.8258 6.89726 82.3468 7.50297 82.3468 8.48876V10.7492ZM87.9902 7.60459H87.0674V9.43694C87.0674 9.90343 87.2291 10.1363 87.5556 10.1363C87.7037 10.1363 87.8277 10.1203 87.9278 10.0971L87.951 10.734C87.7885 10.7964 87.5708 10.8276 87.3003 10.8276C86.6392 10.8276 86.2438 10.4627 86.2438 9.50736V7.60459H85.6932V6.97567H86.2438V6.28434L87.0674 6.03549V6.97487H87.9902V7.60459ZM92.4306 10.7492H91.5926V8.59838C91.5926 7.92305 91.3373 7.58139 90.8315 7.58139C90.3969 7.58139 89.9919 7.87664 89.9919 8.47436V10.7492H89.1539V5.24414H89.9919V7.51097H90.0087C90.2728 7.0997 90.6554 6.89726 91.1436 6.89726C91.9424 6.89726 92.4306 7.51818 92.4306 8.50476V10.7492ZM96.9799 9.06407H94.4628C94.4788 9.77861 94.9518 10.1819 95.6521 10.1819C96.0243 10.1819 96.3668 10.1195 96.6694 10.0035L96.7998 10.586C96.4429 10.7412 96.0227 10.8188 95.5336 10.8188C94.3531 10.8188 93.6544 10.0731 93.6544 8.91684C93.6544 7.75982 94.3699 6.89006 95.4392 6.89006C96.4036 6.89006 97.0087 7.60459 97.0087 8.684C97.0141 8.81138 97.0045 8.93896 96.9799 9.06407ZM96.2108 8.46636C96.2108 7.88385 95.917 7.47257 95.3808 7.47257C94.899 7.47257 94.518 7.89185 94.4636 8.46636H96.2108Z" fill="white"/>
</g>
<defs>
<linearGradient id="paint0_linear_193_76" x1="79.2029" y1="32.083" x2="79.2029" y2="-83.3148" gradientUnits="userSpaceOnUse">
<stop stop-color="#1A1A1A" stop-opacity="0.1"/>
<stop offset="0.123" stop-color="#212121" stop-opacity="0.151"/>
<stop offset="0.308" stop-color="#353535" stop-opacity="0.227"/>
<stop offset="0.532" stop-color="#575757" stop-opacity="0.318"/>
<stop offset="0.783" stop-color="#858585" stop-opacity="0.421"/>
<stop offset="1" stop-color="#B3B3B3" stop-opacity="0.51"/>
</linearGradient>
<clipPath id="clip0_193_76">
<rect width="107.962" height="32" fill="white"/>
</clipPath>
</defs>
</svg>
