<svg width="16" height="16" viewBox="0 0 16 16" fill="none" xmlns="http://www.w3.org/2000/svg">
<g clip-path="url(#clip0_54_6795)">
<path d="M6 14.0002C6.3866 14.3868 7.0134 14.3868 7.4 14.0002C7.7866 13.6136 7.7866 12.9868 7.4 12.6002L3.8 9.00019L15 9.0002C15.5523 9.0002 16 8.55248 16 8.0002C16 7.44791 15.5523 7.0002 15 7.0002L3.8 7.00019L7.4 3.4002C7.7866 3.0136 7.7866 2.38679 7.4 2.00019C7.0134 1.6136 6.3866 1.6136 6 2.00019L0.859624 7.14057C0.384867 7.61533 0.384866 8.38506 0.859623 8.85982L6 14.0002Z" fill="black"/>
</g>
<defs>
<clipPath id="clip0_54_6795">
<rect width="16" height="16" fill="white" transform="translate(16 16) rotate(-180)"/>
</clipPath>
</defs>
</svg>
