<svg width="54" height="59" viewBox="0 0 54 59" fill="none" xmlns="http://www.w3.org/2000/svg">
<path fill-rule="evenodd" clip-rule="evenodd" d="M26.3886 8.74888C34.8423 8.10178 44.6261 6.29549 50.2616 12.5071C56.0695 18.9088 53.8622 28.5315 51.9137 36.8834C49.9667 45.2285 47.6907 54.8398 39.6217 58.1117C31.8021 61.2824 23.9371 55.2515 16.5366 51.2284C9.92376 47.6335 2.63114 44.0856 0.657107 36.9296C-1.39083 29.5057 1.54124 21.566 6.77333 15.8359C11.6631 10.4807 19.0795 9.30836 26.3886 8.74888Z" fill="#D9DEF5"/>
<g clip-path="url(#clip0_41_16338)">
<path d="M13.7599 36.6101C10.2921 32.5081 8.47537 27.2621 8.66369 21.894C8.85201 16.5259 11.0319 11.4202 14.7786 7.57129C18.5253 3.72241 23.5706 1.40608 28.9317 1.07349C34.2928 0.740907 39.5857 2.41589 43.7795 5.77216C47.9732 9.12842 50.7674 13.9256 51.6178 19.2293C52.4681 24.5329 51.3137 29.9632 48.3795 34.4624C45.4453 38.9615 40.9413 42.2072 35.745 43.5674C30.5487 44.9275 25.0321 44.3046 20.2699 41.8201C19.9291 41.6394 19.6356 41.3811 19.4131 41.0661C19.1905 40.7511 19.0452 40.3882 18.9887 40.0067C18.9323 39.6252 18.9663 39.2357 19.0881 38.8698C19.2099 38.5038 19.416 38.1717 19.6899 37.9001L35.0699 22.5201C36.1889 22.8417 37.3705 22.8791 38.5076 22.629C39.6447 22.3788 40.7015 21.849 41.5822 21.0874C42.4629 20.3258 43.1398 19.3566 43.5514 18.2675C43.9631 17.1784 44.0966 16.0038 43.9399 14.8501L39.8799 18.9101L35.0999 17.6301L33.8199 12.8401L37.8199 8.84005C36.6731 8.69994 35.5095 8.84584 34.4328 9.26473C33.3562 9.68362 32.3999 10.3625 31.6494 11.2408C30.8988 12.119 30.3773 13.1694 30.1314 14.2982C29.8855 15.427 29.9227 16.5992 30.2399 17.7101L17.4099 30.5401C17.1142 30.8167 16.9094 31.1766 16.8227 31.5722C16.7359 31.9677 16.7713 32.3803 16.9241 32.7553C17.077 33.1303 17.34 33.4501 17.6785 33.6723C18.017 33.8946 18.415 34.0089 18.8199 34.0001V34.0001" stroke="#5970E1" stroke-linecap="round" stroke-linejoin="round"/>
</g>
<defs>
<clipPath id="clip0_41_16338">
<rect width="44.77" height="44.77" fill="white" transform="translate(8)"/>
</clipPath>
</defs>
</svg>
