<svg width="55" height="59" viewBox="0 0 55 59" fill="none" xmlns="http://www.w3.org/2000/svg">
<path fill-rule="evenodd" clip-rule="evenodd" d="M26.3886 8.74888C34.8423 8.10178 44.6261 6.29549 50.2616 12.5071C56.0695 18.9088 53.8622 28.5315 51.9137 36.8834C49.9667 45.2285 47.6907 54.8398 39.6217 58.1117C31.8021 61.2824 23.9371 55.2515 16.5366 51.2284C9.92376 47.6335 2.63114 44.0856 0.657107 36.9296C-1.39083 29.5057 1.54124 21.566 6.77333 15.8359C11.6631 10.4807 19.0795 9.30836 26.3886 8.74888Z" fill="#D9DEF5"/>
<g clip-path="url(#clip0_41_16358)">
<path d="M50 42.69H12V35.58H53.3C53.6183 35.58 53.9235 35.4535 54.1485 35.2285C54.3736 35.0034 54.5 34.6982 54.5 34.38V16.25C54.4975 15.584 54.2346 14.9454 53.7674 14.4707C53.3002 13.9961 52.6659 13.723 52 13.71H44" stroke="#5970E1" stroke-linecap="round" stroke-linejoin="round"/>
<path d="M21 13.71H11.71C10.8587 13.71 10.0422 14.0482 9.44019 14.6501C8.8382 15.2521 8.5 16.0686 8.5 16.92V42.69C8.5 43.5413 8.8382 44.3578 9.44019 44.9598C10.0422 45.5618 10.8587 45.9 11.71 45.9H51.29C52.1413 45.9 52.9578 45.5618 53.5598 44.9598C54.1618 44.3578 54.5 43.5413 54.5 42.69V39" stroke="#5970E1" stroke-linecap="round" stroke-linejoin="round"/>
<path d="M23.18 8.37C23.1774 6.29058 23.9988 4.29483 25.4645 2.81978C26.9302 1.34473 28.9207 0.510581 31 0.5V0.5C32.0336 0.5 33.0569 0.703564 34.0118 1.09907C34.9666 1.49457 35.8342 2.07427 36.565 2.80507C37.2958 3.53587 37.8755 4.40345 38.271 5.35828C38.6665 6.31311 38.87 7.3365 38.87 8.37V10.18H23.42C22.8578 10.18 22.3186 10.4034 21.921 10.8009C21.5234 11.1985 21.3 11.7377 21.3 12.3V18.62C21.3 21.2403 22.341 23.7534 24.1938 25.6062C26.0467 27.4591 28.5597 28.5 31.18 28.5V28.5C32.4775 28.5 33.7623 28.2444 34.961 27.7479C36.1597 27.2514 37.2488 26.5237 38.1663 25.6062C39.0837 24.6888 39.8115 23.5996 40.308 22.4009C40.8045 21.2022 41.0601 19.9175 41.0601 18.62V10.18" stroke="#5970E1" stroke-linecap="round" stroke-linejoin="round"/>
<path d="M31.1799 15.6801V21.2501" stroke="#5970E1" stroke-linecap="round" stroke-linejoin="round"/>
</g>
<defs>
<clipPath id="clip0_41_16358">
<rect width="47" height="46.4" fill="white" transform="translate(8)"/>
</clipPath>
</defs>
</svg>
