<svg width="54" height="51" viewBox="0 0 54 51" fill="none" xmlns="http://www.w3.org/2000/svg">
<path fill-rule="evenodd" clip-rule="evenodd" d="M26.3886 0.748879C34.8423 0.10178 44.6261 -1.70451 50.2616 4.50707C56.0695 10.9088 53.8622 20.5315 51.9137 28.8834C49.9667 37.2285 47.6907 46.8398 39.6217 50.1117C31.8021 53.2824 23.9371 47.2515 16.5366 43.2284C9.92376 39.6335 2.63114 36.0856 0.657107 28.9296C-1.39083 21.5057 1.54124 13.566 6.77333 7.83592C11.6631 2.48067 19.0795 1.30836 26.3886 0.748879Z" fill="#D9DEF5"/>
<g clip-path="url(#clip0_41_16367)">
<path d="M26.13 35.63H10.94C10.2937 35.6274 9.67459 35.3695 9.21757 34.9124C8.76055 34.4554 8.50263 33.8363 8.5 33.19V2.94C8.50263 2.29368 8.76055 1.67459 9.21757 1.21757C9.67459 0.760549 10.2937 0.502633 10.94 0.5H26.64C26.9604 0.5 27.2777 0.563112 27.5737 0.685734C27.8698 0.808355 28.1388 0.988085 28.3653 1.21466C28.5919 1.44123 28.7716 1.71022 28.8943 2.00625C29.0169 2.30229 29.08 2.61957 29.08 2.94V12.85H21.15C20.9689 12.8492 20.7926 12.792 20.6456 12.6862C20.4986 12.5804 20.3883 12.4315 20.33 12.26L19.6 10C19.5408 9.83523 19.4322 9.69274 19.2891 9.59201C19.1459 9.49129 18.9751 9.43723 18.8 9.43723C18.6249 9.43723 18.4541 9.49129 18.3109 9.59201C18.1678 9.69274 18.0592 9.83523 18 10L17.27 12.25C17.2136 12.4207 17.1051 12.5693 16.9598 12.6752C16.8145 12.781 16.6397 12.8386 16.46 12.84H14.07C13.8898 12.8392 13.7141 12.8957 13.5681 13.0013C13.4222 13.1069 13.3136 13.2562 13.2579 13.4275C13.2023 13.5989 13.2025 13.7834 13.2586 13.9546C13.3147 14.1258 13.4238 14.2748 13.57 14.38L15.48 15.77C15.6359 15.8782 15.7511 16.0354 15.8072 16.2166C15.8634 16.3978 15.8573 16.5926 15.79 16.77L15.06 19C14.9913 19.1746 14.9816 19.3668 15.0324 19.5474C15.0831 19.728 15.1915 19.887 15.341 20.0003C15.4905 20.1135 15.673 20.1748 15.8605 20.1748C16.0481 20.1747 16.2305 20.1133 16.38 20L18.29 18.61C18.4347 18.5028 18.61 18.445 18.79 18.445C18.97 18.445 19.1453 18.5028 19.29 18.61L21.2 20C21.3495 20.1133 21.5319 20.1747 21.7195 20.1748C21.907 20.1748 22.0895 20.1135 22.239 20.0003C22.3885 19.887 22.4969 19.728 22.5476 19.5474C22.5984 19.3668 22.5887 19.1746 22.52 19L21.79 16.76C21.7227 16.5826 21.7166 16.3878 21.7728 16.2066C21.8289 16.0254 21.9441 15.8682 22.1 15.76L24 14.39" stroke="#5970E1" stroke-linecap="round" stroke-linejoin="round"/>
<path d="M29.0801 17V29.63" stroke="#5970E1" stroke-linecap="round" stroke-linejoin="round"/>
<path d="M25.5801 45.5V44.44C25.5818 43.8059 25.3705 43.1896 24.9801 42.69L21.8301 38.61C21.561 38.2678 21.2179 37.991 20.8265 37.8004C20.435 37.6099 20.0055 37.5106 19.5701 37.51H15.0001C14.5015 37.51 14.0233 37.3119 13.6708 36.9594C13.3182 36.6068 13.1201 36.1286 13.1201 35.63V35.63" stroke="#5970E1" stroke-linecap="round" stroke-linejoin="round"/>
<path d="M31.9099 19.83L36.3699 24.29C37.7396 25.6673 38.6211 27.4548 38.8799 29.38L40.9999 45.5" stroke="#5970E1" stroke-linecap="round" stroke-linejoin="round"/>
<path d="M29.0801 29.63L20.8801 24.19C20.3227 23.8204 19.6425 23.6846 18.986 23.8118C18.3294 23.939 17.7491 24.319 17.3701 24.87C17.0163 25.3817 16.8627 26.0054 16.9383 26.6229C17.0138 27.2404 17.3134 27.8087 17.7801 28.22L26.1301 35.63C26.1301 35.63 25.2001 38.74 29.0801 42.12" stroke="#5970E1" stroke-linecap="round" stroke-linejoin="round"/>
</g>
<defs>
<clipPath id="clip0_41_16367">
<rect width="33.5" height="46" fill="white" transform="translate(8)"/>
</clipPath>
</defs>
</svg>
