<svg width="55" height="59" viewBox="0 0 55 59" fill="none" xmlns="http://www.w3.org/2000/svg">
<path fill-rule="evenodd" clip-rule="evenodd" d="M26.3886 8.74888C34.8423 8.10178 44.6261 6.29549 50.2616 12.5071C56.0695 18.9088 53.8622 28.5315 51.9137 36.8834C49.9667 45.2285 47.6907 54.8398 39.6217 58.1117C31.8021 61.2824 23.9371 55.2515 16.5366 51.2284C9.92376 47.6335 2.63114 44.0856 0.657107 36.9296C-1.39083 29.5057 1.54124 21.566 6.77333 15.8359C11.6631 10.4807 19.0795 9.30836 26.3886 8.74888Z" fill="#D9DEF5"/>
<g clip-path="url(#clip0_41_16344)">
<path d="M8.5 46.22V15.22C8.49999 14.808 8.66297 14.4127 8.95337 14.1204C9.24377 13.8282 9.638 13.6626 10.05 13.66H31.05C31.462 13.6626 31.8562 13.8282 32.1466 14.1204C32.437 14.4127 32.6 14.808 32.6 15.22V40.45C32.5975 40.8569 32.4361 41.2466 32.1503 41.5362C31.8644 41.8258 31.4768 41.9922 31.07 42H29.58C29.3739 42.004 29.1692 41.9668 28.9776 41.8907C28.7861 41.8146 28.6117 41.7011 28.4645 41.5568C28.3174 41.4124 28.2006 41.2402 28.1208 41.0502C28.041 40.8601 28 40.6561 28 40.45V9.85C27.999 9.43832 28.1607 9.04293 28.45 8.75L36.73 0.5V8.8C36.73 9.00439 36.7704 9.20677 36.8489 9.39548C36.9275 9.58419 37.0425 9.7555 37.1875 9.89957C37.3325 10.0436 37.5046 10.1576 37.6938 10.2349C37.883 10.3122 38.0856 10.3513 38.29 10.35H42.22C42.632 10.3526 43.0262 10.5182 43.3166 10.8104C43.607 11.1027 43.77 11.498 43.77 11.91V35.69C43.77 36.1011 43.6067 36.4953 43.316 36.786C43.0253 37.0767 42.6311 37.24 42.22 37.24V37.24C42.0156 37.2413 41.813 37.2022 41.6238 37.1249C41.4346 37.0476 41.2625 36.9336 41.1175 36.7896C40.9725 36.6455 40.8575 36.4742 40.7789 36.2855C40.7004 36.0968 40.66 35.8944 40.66 35.69V29.94C40.6626 29.528 40.8282 29.1338 41.1204 28.8434C41.4127 28.553 41.808 28.39 42.22 28.39H52.71C53.1211 28.39 53.5153 28.5533 53.806 28.844C54.0967 29.1347 54.26 29.5289 54.26 29.94V44.67C54.2613 44.8739 54.2221 45.0761 54.1447 45.2647C54.0673 45.4534 53.9532 45.6248 53.809 45.769C53.6648 45.9132 53.4934 46.0273 53.3047 46.1047C53.1161 46.1821 52.9139 46.2213 52.71 46.22H15.65C15.231 46.22 14.8291 46.0535 14.5328 45.7572C14.2365 45.4609 14.07 45.059 14.07 44.64V17" stroke="#5970E1" stroke-linecap="round" stroke-linejoin="round"/>
</g>
<defs>
<clipPath id="clip0_41_16344">
<rect width="46.76" height="46.72" fill="white" transform="translate(8)"/>
</clipPath>
</defs>
</svg>
