<svg width="55" height="55" viewBox="0 0 55 55" fill="none" xmlns="http://www.w3.org/2000/svg">
<path fill-rule="evenodd" clip-rule="evenodd" d="M26.3886 4.74888C34.8423 4.10178 44.6261 2.29549 50.2616 8.50707C56.0695 14.9088 53.8622 24.5315 51.9137 32.8834C49.9667 41.2285 47.6907 50.8398 39.6217 54.1117C31.8021 57.2824 23.9371 51.2515 16.5366 47.2284C9.92376 43.6335 2.63114 40.0856 0.657107 32.9296C-1.39083 25.5057 1.54124 17.566 6.77333 11.8359C11.6631 6.48067 19.0795 5.30836 26.3886 4.74888Z" fill="#D9DEF5"/>
<g clip-path="url(#clip0_41_16350)">
<path d="M8.5 12.46H14.26" stroke="#5970E1" stroke-linecap="round" stroke-linejoin="round"/>
<path d="M50.1899 25.51H53.9499" stroke="#5970E1" stroke-linecap="round" stroke-linejoin="round"/>
<path d="M54.5 6.39999H42.43C41.2189 6.39739 40.0394 6.01243 39.06 5.29999L34.11 1.65999C33.0462 0.878492 31.7543 0.469632 30.4346 0.49675C29.1148 0.523869 27.8408 0.985451 26.81 1.80999L15.29 11C14.9098 11.2987 14.6035 11.6809 14.3947 12.117C14.186 12.5531 14.0804 13.0313 14.0862 13.5148C14.092 13.9982 14.209 14.4739 14.4282 14.9048C14.6473 15.3358 14.9628 15.7105 15.35 16V16C15.7727 16.3198 16.2698 16.5271 16.7945 16.6023C17.3192 16.6775 17.8545 16.6182 18.35 16.43L29.57 12.17C30.1032 11.967 30.6764 11.8912 31.244 11.9485C31.8116 12.0058 32.3581 12.1946 32.84 12.5L48.14 22.16C48.6469 22.4801 49.0825 22.9011 49.4198 23.3968C49.757 23.8925 49.9886 24.4523 50.1002 25.0413C50.2118 25.6303 50.2011 26.236 50.0686 26.8207C49.9361 27.4054 49.6847 27.9566 49.33 28.44V28.44C48.6855 29.3173 47.7368 29.9224 46.6696 30.137C45.6023 30.3515 44.4935 30.16 43.56 29.6L41.56 28.4L42.47 28.95C42.8853 29.1982 43.2468 29.5268 43.5333 29.9167C43.8198 30.3066 44.0254 30.7498 44.1381 31.2203C44.2509 31.6907 44.2684 32.179 44.1897 32.6564C44.1111 33.1337 43.9377 33.5906 43.68 34V34C43.2674 34.6463 42.6229 35.1101 41.879 35.296C41.1351 35.482 40.3482 35.3761 39.68 35V35L35.47 32.51L36.73 33.25C37.1068 33.4769 37.4333 33.7784 37.6894 34.1359C37.9456 34.4935 38.126 34.8996 38.2196 35.3294C38.3132 35.7592 38.3181 36.2035 38.2339 36.6352C38.1497 37.0669 37.9782 37.4769 37.73 37.84V37.84C37.2768 38.5304 36.575 39.0195 35.7704 39.2058C34.9658 39.392 34.1205 39.261 33.41 38.84L28.94 36.18L30.41 37.05C30.7506 37.2538 31.046 37.525 31.2783 37.8469C31.5105 38.1687 31.6747 38.5346 31.7608 38.922C31.8469 39.3095 31.8531 39.7104 31.779 40.1004C31.705 40.4903 31.5522 40.8611 31.33 41.19V41.19C30.9027 41.8223 30.2448 42.2621 29.4972 42.4154C28.7495 42.5686 27.9717 42.4231 27.33 42.01L17.1 35.24C15.4236 34.1429 13.4635 33.559 11.46 33.56H8.5" stroke="#5970E1" stroke-linecap="round" stroke-linejoin="round"/>
</g>
<defs>
<clipPath id="clip0_41_16350">
<rect width="47" height="42.89" fill="white" transform="translate(8)"/>
</clipPath>
</defs>
</svg>
