<svg width="109" height="32" viewBox="0 0 109 32" fill="none" xmlns="http://www.w3.org/2000/svg">
<path d="M104.926 31.9963H4.96051C2.7213 31.9963 0.961915 30.2369 0.961915 27.9977V4.00608C0.961915 1.76686 2.7213 0.00747681 4.96051 0.00747681H104.926C107.165 0.00747681 108.924 1.76686 108.924 4.00608V27.9977C108.924 30.2369 107.165 31.9963 104.926 31.9963Z" fill="white"/>
<path d="M104.926 0.647253C106.765 0.647253 108.284 2.16672 108.284 4.00608V27.9977C108.284 29.837 106.765 31.3565 104.926 31.3565H4.96051C3.12116 31.3565 1.60169 29.837 1.60169 27.9977V4.00608C1.60169 2.16672 3.12116 0.647253 4.96051 0.647253H104.926ZM104.926 0.00747681H4.96051C2.7213 0.00747681 0.961915 1.84683 0.961915 4.00608V27.9977C0.961915 30.2369 2.7213 31.9963 4.96051 31.9963H104.926C107.165 31.9963 108.924 30.2369 108.924 27.9977V4.00608C108.924 1.84683 107.165 0.00747681 104.926 0.00747681Z" fill="white"/>
<path d="M38.8689 8.1628C38.8689 8.80258 38.7089 9.36238 38.3091 9.76224C37.8292 10.2421 37.2694 10.482 36.5497 10.482C35.8299 10.482 35.2701 10.2421 34.7903 9.76224C34.3105 9.28241 34.0705 8.7226 34.0705 8.00286C34.0705 7.28311 34.3105 6.72331 34.7903 6.24347C35.2701 5.76364 35.8299 5.52373 36.5497 5.52373C36.8696 5.52373 37.1895 5.6037 37.5093 5.76364C37.8292 5.92359 38.0691 6.08353 38.2291 6.32345L37.8292 6.72331C37.5093 6.32345 37.1095 6.1635 36.5497 6.1635C36.0698 6.1635 35.59 6.32345 35.2701 6.72331C34.8703 7.04319 34.7103 7.52303 34.7103 8.08283C34.7103 8.64263 34.8703 9.12246 35.2701 9.44235C35.67 9.76224 36.0698 10.0022 36.5497 10.0022C37.1095 10.0022 37.5093 9.84221 37.9092 9.44235C38.1491 9.20244 38.3091 8.88255 38.3091 8.48269H36.5497V7.84291H38.8689V8.1628ZM42.5476 6.1635H40.3883V7.68297H42.3876V8.24277H40.3883V9.76224H42.5476V10.402H39.7486V5.6037H42.5476V6.1635ZM45.1867 10.402H44.5469V6.1635H43.1874V5.6037H46.5462V6.1635H45.1867V10.402ZM48.8654 10.402V5.6037H49.5051V10.402H48.8654ZM52.2242 10.402H51.5844V6.1635H50.2249V5.6037H53.5037V6.1635H52.1442V10.402H52.2242ZM59.8215 9.76224C59.3417 10.2421 58.7819 10.482 58.0622 10.482C57.3424 10.482 56.7826 10.2421 56.3028 9.76224C55.8229 9.28241 55.583 8.7226 55.583 8.00286C55.583 7.28311 55.8229 6.72331 56.3028 6.24347C56.7826 5.76364 57.3424 5.52373 58.0622 5.52373C58.7819 5.52373 59.3417 5.76364 59.8215 6.24347C60.3014 6.72331 60.5413 7.28311 60.5413 8.00286C60.5413 8.7226 60.3014 9.28241 59.8215 9.76224ZM56.7826 9.36238C57.1025 9.68227 57.5823 9.92218 58.0622 9.92218C58.542 9.92218 59.0218 9.76224 59.3417 9.36238C59.6616 9.04249 59.9015 8.56266 59.9015 8.00286C59.9015 7.44305 59.7416 6.96322 59.3417 6.64333C59.0218 6.32345 58.542 6.08353 58.0622 6.08353C57.5823 6.08353 57.1025 6.24347 56.7826 6.64333C56.4627 6.96322 56.2228 7.44305 56.2228 8.00286C56.2228 8.56266 56.3827 9.04249 56.7826 9.36238ZM61.421 10.402V5.6037H62.1407L64.4599 9.36238V5.6037H65.0997V10.402H64.4599L61.9808 6.48339V10.402H61.421Z" fill="#333333"/>
<path d="M55.4228 17.4394C53.5035 17.4394 51.984 18.8789 51.984 20.8782C51.984 22.7975 53.5035 24.317 55.4228 24.317C57.3422 24.317 58.8616 22.8775 58.8616 20.8782C58.8616 18.7989 57.3422 17.4394 55.4228 17.4394ZM55.4228 22.8775C54.3832 22.8775 53.5035 21.9978 53.5035 20.7982C53.5035 19.5986 54.3832 18.7189 55.4228 18.7189C56.4625 18.7189 57.3422 19.5187 57.3422 20.7982C57.3422 21.9978 56.4625 22.8775 55.4228 22.8775ZM47.9854 17.4394C46.0661 17.4394 44.5466 18.8789 44.5466 20.8782C44.5466 22.7975 46.0661 24.317 47.9854 24.317C49.9048 24.317 51.4242 22.8775 51.4242 20.8782C51.4242 18.7989 49.9048 17.4394 47.9854 17.4394ZM47.9854 22.8775C46.9458 22.8775 46.0661 21.9978 46.0661 20.7982C46.0661 19.5986 46.9458 18.7189 47.9854 18.7189C49.0251 18.7189 49.9048 19.5187 49.9048 20.7982C49.9048 21.9978 49.0251 22.8775 47.9854 22.8775ZM39.1085 18.479V19.9185H42.5473C42.4674 20.7182 42.1475 21.358 41.7476 21.7579C41.2678 22.2377 40.4681 22.7975 39.1085 22.7975C36.9493 22.7975 35.3498 21.1181 35.3498 18.9589C35.3498 16.7996 37.0293 15.1202 39.1085 15.1202C40.2281 15.1202 41.1078 15.6 41.7476 16.1598L42.7872 15.1202C41.9075 14.3205 40.7879 13.6807 39.1885 13.6807C36.3095 13.6807 33.8304 16.0799 33.8304 18.9589C33.8304 21.8379 36.3095 24.237 39.1885 24.237C40.7879 24.237 41.9076 23.7572 42.8672 22.7176C43.8269 21.7579 44.1468 20.3984 44.1468 19.3587C44.1468 19.0388 44.1468 18.7189 44.0668 18.479H39.1085V18.479ZM75.4158 19.5986C75.096 18.7989 74.2962 17.4394 72.5368 17.4394C70.7775 17.4394 69.338 18.7989 69.338 20.8782C69.338 22.7975 70.7775 24.317 72.6968 24.317C74.2163 24.317 75.1759 23.3573 75.4958 22.7975L74.3762 21.9978C73.9763 22.5576 73.4965 22.9575 72.6968 22.9575C71.8971 22.9575 71.4172 22.6376 71.0174 21.9178L75.5758 19.9985L75.4158 19.5986V19.5986ZM70.7775 20.7182C70.7775 19.4387 71.8171 18.7189 72.5368 18.7189C73.0967 18.7189 73.6565 19.0388 73.8164 19.4387L70.7775 20.7182ZM67.0188 23.9971H68.5382V14.0006H67.0188V23.9971ZM64.6196 18.1591C64.2198 17.7593 63.58 17.3594 62.7803 17.3594C61.1008 17.3594 59.5014 18.8789 59.5014 20.7982C59.5014 22.7176 61.0209 24.157 62.7803 24.157C63.58 24.157 64.2198 23.7572 64.5396 23.3573H64.6196V23.8372C64.6196 25.1167 63.8999 25.8365 62.7803 25.8365C61.9006 25.8365 61.2608 25.1967 61.1008 24.6369L59.8213 25.1967C60.2211 26.0764 61.1808 27.196 62.8602 27.196C64.6196 27.196 66.0591 26.1563 66.0591 23.6772V17.5993H64.6196V18.1591V18.1591ZM62.8602 22.8775C61.8206 22.8775 60.9409 21.9978 60.9409 20.7982C60.9409 19.5986 61.8206 18.7189 62.8602 18.7189C63.8999 18.7189 64.6996 19.5986 64.6996 20.7982C64.6996 21.9978 63.8999 22.8775 62.8602 22.8775ZM82.3734 14.0006H78.7747V23.9971H80.2941V20.2384H82.3734C84.0528 20.2384 85.6523 19.0388 85.6523 17.1195C85.6523 15.2002 84.0528 14.0006 82.3734 14.0006V14.0006ZM82.4534 18.7989H80.2941V15.3601H82.4534C83.573 15.3601 84.2128 16.3198 84.2128 17.0395C84.1328 17.9192 83.493 18.7989 82.4534 18.7989ZM91.6502 17.3594C90.5306 17.3594 89.4109 17.8393 89.0111 18.8789L90.3706 19.4387C90.6905 18.8789 91.1703 18.7189 91.7301 18.7189C92.5299 18.7189 93.2496 19.1988 93.3296 19.9985V20.0785C93.0897 19.9185 92.4499 19.6786 91.8101 19.6786C90.3706 19.6786 88.9311 20.4783 88.9311 21.9178C88.9311 23.2774 90.1307 24.157 91.4102 24.157C92.4499 24.157 92.9297 23.6772 93.3296 23.1974H93.4096V23.9971H94.8491V20.1584C94.6891 18.3991 93.3296 17.3594 91.6502 17.3594V17.3594ZM91.4902 22.8775C91.0104 22.8775 90.2906 22.6376 90.2906 21.9978C90.2906 21.1981 91.1703 20.9582 91.8901 20.9582C92.5299 20.9582 92.8497 21.1181 93.2496 21.2781C93.0897 22.2377 92.2899 22.8775 91.4902 22.8775V22.8775ZM99.8873 17.5993L98.2079 21.9178H98.1279L96.3685 17.5993H94.7691L97.4082 23.6772L95.8887 27.036H97.4082L101.487 17.5993H99.8873V17.5993ZM86.452 23.9971H87.9715V14.0006H86.452V23.9971Z" fill="#333333"/>
<path d="M9.27914 6.00355C9.03923 6.24347 8.95926 6.64333 8.95926 7.12316V24.797C8.95926 25.2768 9.1192 25.6767 9.35912 25.9166L9.43909 25.9966L19.3556 16.08V15.9201L9.27914 6.00355Z" fill="url(#paint0_linear_2_47)"/>
<path d="M22.5545 19.4388L19.2757 16.16V15.9201L22.5545 12.6412L22.6345 12.7212L26.5532 14.9604C27.6728 15.6002 27.6728 16.6398 26.5532 17.2796L22.5545 19.4388V19.4388Z" fill="url(#paint1_linear_2_47)"/>
<path d="M22.6344 19.3588L19.2755 16L9.27903 25.9965C9.67889 26.3964 10.2387 26.3964 10.9584 26.0765L22.6344 19.3588" fill="url(#paint2_linear_2_47)"/>
<path d="M22.6344 12.6411L10.9584 6.00346C10.2387 5.6036 9.67889 5.68357 9.27903 6.08343L19.2755 16L22.6344 12.6411V12.6411Z" fill="url(#paint3_linear_2_47)"/>
<path opacity="0.2" d="M22.5544 19.2789L10.9584 25.8366C10.3187 26.2365 9.75886 26.1565 9.359 25.8366L9.27903 25.9166L9.359 25.9966C9.75886 26.3165 10.3187 26.3964 10.9584 25.9966L22.5544 19.2789Z" fill="white"/>
<path opacity="0.2" d="M9.27914 25.8366C9.03923 25.5966 8.95926 25.1968 8.95926 24.717V24.7969C8.95926 25.2768 9.1192 25.6766 9.35912 25.9165V25.8366H9.27914ZM26.5531 17.0396L22.5545 19.2789L22.6345 19.3588L26.5531 17.1196C27.1129 16.7997 27.3528 16.3999 27.3528 16C27.3528 16.3999 27.0329 16.7197 26.5531 17.0396V17.0396Z" fill="white"/>
<path opacity="0.2" d="M10.9586 6.08346L26.5531 14.9604C27.0329 15.2802 27.3528 15.6001 27.3528 16C27.3528 15.6001 27.1129 15.2003 26.5531 14.8804L10.9586 6.00349C9.83895 5.36371 8.95926 5.84354 8.95926 7.1231V7.20307C8.95926 6.00349 9.83895 5.44368 10.9586 6.08346Z" fill="#333333"/>
<defs>
<linearGradient id="paint0_linear_2_47" x1="18.3959" y1="6.97121" x2="4.97424" y2="20.3921" gradientUnits="userSpaceOnUse">
<stop stop-color="#00A0FF"/>
<stop offset="0.007" stop-color="#00A1FF"/>
<stop offset="0.26" stop-color="#00BEFF"/>
<stop offset="0.512" stop-color="#00D2FF"/>
<stop offset="0.76" stop-color="#00DFFF"/>
<stop offset="1" stop-color="#00E3FF"/>
</linearGradient>
<linearGradient id="paint1_linear_2_47" x1="28.0198" y1="16.0008" x2="8.66898" y2="16.0008" gradientUnits="userSpaceOnUse">
<stop stop-color="#FFE000"/>
<stop offset="0.409" stop-color="#FFBD00"/>
<stop offset="0.775" stop-color="#FFA500"/>
<stop offset="1" stop-color="#FF9C00"/>
</linearGradient>
<linearGradient id="paint2_linear_2_47" x1="20.8166" y1="17.8362" x2="2.61654" y2="36.0362" gradientUnits="userSpaceOnUse">
<stop stop-color="#FF3A44"/>
<stop offset="1" stop-color="#C31162"/>
</linearGradient>
<linearGradient id="paint3_linear_2_47" x1="6.7975" y1="0.146303" x2="14.9251" y2="8.27386" gradientUnits="userSpaceOnUse">
<stop stop-color="#32A071"/>
<stop offset="0.069" stop-color="#2DA771"/>
<stop offset="0.476" stop-color="#15CF74"/>
<stop offset="0.801" stop-color="#06E775"/>
<stop offset="1" stop-color="#00F076"/>
</linearGradient>
</defs>
</svg>
