<svg width="109" height="32" viewBox="0 0 109 32" fill="none" xmlns="http://www.w3.org/2000/svg">
<g clip-path="url(#clip0_193_46)">
<path d="M104.926 31.9964H4.96051C2.7213 31.9964 0.961914 30.237 0.961914 27.9978V4.00617C0.961914 1.76695 2.7213 0.00756836 4.96051 0.00756836H104.926C107.165 0.00756836 108.924 1.76695 108.924 4.00617V27.9978C108.924 30.237 107.165 31.9964 104.926 31.9964Z" fill="black"/>
<path d="M104.926 0.647344C106.765 0.647344 108.284 2.16681 108.284 4.00617V27.9978C108.284 29.8371 106.765 31.3566 104.926 31.3566H4.96051C3.12116 31.3566 1.60169 29.8371 1.60169 27.9978V4.00617C1.60169 2.16681 3.12116 0.647344 4.96051 0.647344H104.926ZM104.926 0.00756836H4.96051C2.7213 0.00756836 0.961914 1.84692 0.961914 4.00617V27.9978C0.961914 30.237 2.7213 31.9964 4.96051 31.9964H104.926C107.165 31.9964 108.924 30.237 108.924 27.9978V4.00617C108.924 1.84692 107.165 0.00756836 104.926 0.00756836Z" fill="black"/>
<path d="M38.8686 8.16276C38.8686 8.80253 38.7087 9.36233 38.3088 9.76219C37.829 10.242 37.2692 10.4819 36.5494 10.4819C35.8297 10.4819 35.2699 10.242 34.7901 9.76219C34.3102 9.28236 34.0703 8.72256 34.0703 8.00281C34.0703 7.28306 34.3102 6.72326 34.7901 6.24343C35.2699 5.7636 35.8297 5.52368 36.5494 5.52368C36.8693 5.52368 37.1892 5.60365 37.5091 5.7636C37.829 5.92354 38.0689 6.08349 38.2289 6.3234L37.829 6.72326C37.5091 6.3234 37.1092 6.16346 36.5494 6.16346C36.0696 6.16346 35.5898 6.3234 35.2699 6.72326C34.87 7.04315 34.7101 7.52298 34.7101 8.08278C34.7101 8.64259 34.87 9.12242 35.2699 9.44231C35.6698 9.76219 36.0696 10.0021 36.5494 10.0021C37.1092 10.0021 37.5091 9.84217 37.909 9.44231C38.1489 9.20239 38.3088 8.8825 38.3088 8.48264H36.5494V7.84287H38.8686V8.16276ZM42.5473 6.16346H40.3881V7.68292H42.3874V8.24273H40.3881V9.76219H42.5473V10.402H39.7483V5.60365H42.5473V6.16346ZM45.1864 10.402H44.5466V6.16346H43.1871V5.60365H46.5459V6.16346H45.1864V10.402ZM48.8651 10.402V5.60365H49.5049V10.402H48.8651ZM52.224 10.402H51.5842V6.16346H50.2247V5.60365H53.5035V6.16346H52.144V10.402H52.224ZM59.8213 9.76219C59.3415 10.242 58.7817 10.4819 58.0619 10.4819C57.3422 10.4819 56.7824 10.242 56.3025 9.76219C55.8227 9.28236 55.5828 8.72256 55.5828 8.00281C55.5828 7.28306 55.8227 6.72326 56.3025 6.24343C56.7824 5.7636 57.3422 5.52368 58.0619 5.52368C58.7817 5.52368 59.3415 5.7636 59.8213 6.24343C60.3011 6.72326 60.541 7.28306 60.541 8.00281C60.541 8.72256 60.3011 9.28236 59.8213 9.76219ZM56.7824 9.36233C57.1023 9.68222 57.5821 9.92214 58.0619 9.92214C58.5417 9.92214 59.0216 9.76219 59.3415 9.36233C59.6614 9.04245 59.9013 8.56262 59.9013 8.00281C59.9013 7.44301 59.7413 6.96318 59.3415 6.64329C59.0216 6.3234 58.5417 6.08349 58.0619 6.08349C57.5821 6.08349 57.1023 6.24343 56.7824 6.64329C56.4625 6.96318 56.2226 7.44301 56.2226 8.00281C56.2226 8.56262 56.3825 9.04245 56.7824 9.36233ZM61.4207 10.402V5.60365H62.1405L64.4597 9.36233V5.60365H65.0994V10.402H64.4597L61.9805 6.48335V10.402H61.4207Z" fill="white"/>
<path d="M55.4225 17.4393C53.5032 17.4393 51.9837 18.8788 51.9837 20.8781C51.9837 22.7975 53.5032 24.3169 55.4225 24.3169C57.3419 24.3169 58.8613 22.8774 58.8613 20.8781C58.8613 18.7989 57.3419 17.4393 55.4225 17.4393ZM55.4225 22.8774C54.3829 22.8774 53.5032 21.9978 53.5032 20.7982C53.5032 19.5986 54.3829 18.7189 55.4225 18.7189C56.4622 18.7189 57.3419 19.5186 57.3419 20.7982C57.3419 21.9978 56.4622 22.8774 55.4225 22.8774ZM47.9851 17.4393C46.0658 17.4393 44.5463 18.8788 44.5463 20.8781C44.5463 22.7975 46.0658 24.3169 47.9851 24.3169C49.9045 24.3169 51.4239 22.8774 51.4239 20.8781C51.4239 18.7989 49.9045 17.4393 47.9851 17.4393ZM47.9851 22.8774C46.9455 22.8774 46.0658 21.9978 46.0658 20.7982C46.0658 19.5986 46.9455 18.7189 47.9851 18.7189C49.0248 18.7189 49.9045 19.5186 49.9045 20.7982C49.9045 21.9978 49.0248 22.8774 47.9851 22.8774ZM39.1082 18.479V19.9185H42.547C42.4671 20.7182 42.1472 21.358 41.7473 21.7578C41.2675 22.2377 40.4678 22.7975 39.1082 22.7975C36.949 22.7975 35.3495 21.1181 35.3495 18.9588C35.3495 16.7996 37.029 15.1202 39.1082 15.1202C40.2278 15.1202 41.1075 15.6 41.7473 16.1598L42.7869 15.1202C41.9073 14.3204 40.7876 13.6807 39.1882 13.6807C36.3092 13.6807 33.8301 16.0798 33.8301 18.9588C33.8301 21.8378 36.3092 24.237 39.1882 24.237C40.7876 24.237 41.9073 23.7571 42.8669 22.7175C43.8266 21.7578 44.1465 20.3983 44.1465 19.3587C44.1465 19.0388 44.1465 18.7189 44.0665 18.479H39.1082ZM75.4155 19.5986C75.0957 18.7989 74.2959 17.4393 72.5366 17.4393C70.7772 17.4393 69.3377 18.7989 69.3377 20.8781C69.3377 22.7975 70.7772 24.3169 72.6965 24.3169C74.216 24.3169 75.1756 23.3573 75.4955 22.7975L74.3759 21.9978C73.9761 22.5576 73.4962 22.9574 72.6965 22.9574C71.8968 22.9574 71.4169 22.6375 71.0171 21.9178L75.5755 19.9985L75.4155 19.5986ZM70.7772 20.7182C70.7772 19.4387 71.8168 18.7189 72.5366 18.7189C73.0964 18.7189 73.6562 19.0388 73.8161 19.4386L70.7772 20.7182ZM67.0185 23.9971H68.5379V14.0006H67.0185V23.9971ZM64.6193 18.1591C64.2195 17.7592 63.5797 17.3594 62.78 17.3594C61.1006 17.3594 59.5011 18.8788 59.5011 20.7982C59.5011 22.7175 61.0206 24.157 62.78 24.157C63.5797 24.157 64.2195 23.7571 64.5393 23.3573H64.6193V23.8371C64.6193 25.1167 63.8996 25.8364 62.78 25.8364C61.9003 25.8364 61.2605 25.1966 61.1005 24.6368L59.821 25.1966C60.2209 26.0763 61.1805 27.1959 62.8599 27.1959C64.6193 27.1959 66.0588 26.1563 66.0588 23.6772V17.5993H64.6193V18.1591ZM62.8599 22.8774C61.8203 22.8774 60.9406 21.9978 60.9406 20.7982C60.9406 19.5986 61.8203 18.7189 62.8599 18.7189C63.8996 18.7189 64.6993 19.5986 64.6993 20.7982C64.6993 21.9978 63.8996 22.8774 62.8599 22.8774ZM82.3731 14.0006H78.7744V23.9971H80.2938V20.2384H82.3731C84.0525 20.2384 85.652 19.0388 85.652 17.1195C85.652 15.2001 84.0525 14.0006 82.3731 14.0006ZM82.4531 18.7989H80.2938V15.3601H82.4531C83.5727 15.3601 84.2125 16.3197 84.2125 17.0395C84.1325 17.9192 83.4927 18.7989 82.4531 18.7989ZM91.6499 17.3594C90.5303 17.3594 89.4107 17.8392 89.0108 18.8788L90.3703 19.4386C90.6902 18.8788 91.17 18.7189 91.7298 18.7189C92.5296 18.7189 93.2493 19.1987 93.3293 19.9985V20.0784C93.0894 19.9185 92.4496 19.6786 91.8098 19.6786C90.3703 19.6786 88.9308 20.4783 88.9308 21.9178C88.9308 23.2773 90.1304 24.157 91.41 24.157C92.4496 24.157 92.9294 23.6772 93.3293 23.1973H93.4093V23.9971H94.8488V20.1584C94.6888 18.399 93.3293 17.3594 91.6499 17.3594ZM91.4899 22.8774C91.0101 22.8774 90.2903 22.6375 90.2903 21.9978C90.2903 21.198 91.17 20.9581 91.8898 20.9581C92.5296 20.9581 92.8495 21.1181 93.2493 21.278C93.0894 22.2377 92.2896 22.8774 91.4899 22.8774ZM99.887 17.5993L98.2076 21.9178H98.1276L96.3682 17.5993H94.7688L97.4079 23.6772L95.8884 27.036H97.4079L101.486 17.5993H99.887ZM86.4517 23.9971H87.9712V14.0006H86.4517V23.9971Z" fill="white"/>
<path d="M9.27887 6.00366C9.03896 6.24358 8.95898 6.64344 8.95898 7.12327V24.7971C8.95898 25.2769 9.11893 25.6768 9.35884 25.9167L9.43882 25.9967L19.3553 16.0801V15.9202L9.27887 6.00366Z" fill="url(#paint0_linear_193_46)"/>
<path d="M22.5543 19.439L19.2754 16.1601V15.9202L22.5543 12.6414L22.6342 12.7213L26.5529 14.9605C27.6725 15.6003 27.6725 16.64 26.5529 17.2797L22.5543 19.439Z" fill="url(#paint1_linear_193_46)"/>
<path d="M22.6337 19.3588L19.2748 16L9.27832 25.9965C9.67818 26.3964 10.238 26.3964 10.9577 26.0765L22.6337 19.3588Z" fill="url(#paint2_linear_193_46)"/>
<path d="M22.6337 12.6413L10.9577 6.00361C10.238 5.60375 9.67818 5.68372 9.27832 6.08358L19.2748 16.0001L22.6337 12.6413Z" fill="url(#paint3_linear_193_46)"/>
<path opacity="0.2" d="M22.5537 19.2791L10.9577 25.8368C10.318 26.2366 9.75815 26.1567 9.35829 25.8368L9.27832 25.9167L9.35829 25.9967C9.75815 26.3166 10.318 26.3966 10.9577 25.9967L22.5537 19.2791Z" fill="black"/>
<path opacity="0.2" d="M9.27887 25.8366C9.03896 25.5966 8.95898 25.1968 8.95898 24.717V24.7969C8.95898 25.2768 9.11893 25.6766 9.35884 25.9165V25.8366H9.27887ZM26.5528 17.0396L22.5542 19.2789L22.6342 19.3588L26.5528 17.1196C27.1126 16.7997 27.3525 16.3999 27.3525 16C27.3525 16.3999 27.0326 16.7197 26.5528 17.0396Z" fill="black"/>
<path opacity="0.2" d="M10.9583 6.08356L26.5528 14.9605C27.0326 15.2803 27.3525 15.6002 27.3525 16.0001C27.3525 15.6002 27.1126 15.2004 26.5528 14.8805L10.9583 6.00358C9.83868 5.36381 8.95898 5.84364 8.95898 7.12319V7.20317C8.95898 6.00358 9.83868 5.44378 10.9583 6.08356Z" fill="white"/>
</g>
<defs>
<linearGradient id="paint0_linear_193_46" x1="18.3957" y1="6.97132" x2="4.97397" y2="20.3922" gradientUnits="userSpaceOnUse">
<stop stop-color="#00A0FF"/>
<stop offset="0.007" stop-color="#00A1FF"/>
<stop offset="0.26" stop-color="#00BEFF"/>
<stop offset="0.512" stop-color="#00D2FF"/>
<stop offset="0.76" stop-color="#00DFFF"/>
<stop offset="1" stop-color="#00E3FF"/>
</linearGradient>
<linearGradient id="paint1_linear_193_46" x1="28.0196" y1="16.001" x2="8.66868" y2="16.001" gradientUnits="userSpaceOnUse">
<stop stop-color="#FFE000"/>
<stop offset="0.409" stop-color="#FFBD00"/>
<stop offset="0.775" stop-color="#FFA500"/>
<stop offset="1" stop-color="#FF9C00"/>
</linearGradient>
<linearGradient id="paint2_linear_193_46" x1="20.8159" y1="17.8362" x2="2.61583" y2="36.0362" gradientUnits="userSpaceOnUse">
<stop stop-color="#FF3A44"/>
<stop offset="1" stop-color="#C31162"/>
</linearGradient>
<linearGradient id="paint3_linear_193_46" x1="6.79679" y1="0.146455" x2="14.9244" y2="8.27401" gradientUnits="userSpaceOnUse">
<stop stop-color="#32A071"/>
<stop offset="0.069" stop-color="#2DA771"/>
<stop offset="0.476" stop-color="#15CF74"/>
<stop offset="0.801" stop-color="#06E775"/>
<stop offset="1" stop-color="#00F076"/>
</linearGradient>
<clipPath id="clip0_193_46">
<rect width="107.962" height="32" fill="white" transform="translate(0.961914)"/>
</clipPath>
</defs>
</svg>
