<svg width="160" height="41" viewBox="0 0 160 41" fill="none" xmlns="http://www.w3.org/2000/svg">
<circle cx="157.744" cy="37.6092" r="2.25668" fill="#4258CF"/>
<path d="M80.8135 18.0512H92.8732V14.8016H84.5445V10.6854H92.3917V7.43582H84.5445V3.36778H92.8732V0.118164H80.8135V18.0512Z" fill="#4258CF"/>
<path d="M99.5292 18.3407C101.166 18.3407 102.482 17.8352 103.477 16.8242V18.0519H106.847V9.38622C106.847 8.43942 106.606 7.61298 106.125 6.90689C105.659 6.18475 105.001 5.62309 104.151 5.2219C103.3 4.82071 102.322 4.62012 101.214 4.62012C99.8181 4.62012 98.5905 4.94107 97.5313 5.58297C96.4882 6.22487 95.7741 7.09143 95.389 8.18266L98.2775 9.55472C98.5022 8.97701 98.8553 8.51163 99.3367 8.15859C99.8342 7.80555 100.404 7.62902 101.046 7.62902C101.72 7.62902 102.249 7.79752 102.634 8.13452C103.036 8.47152 103.236 8.88875 103.236 9.38622V9.74729L99.6015 10.325C98.0288 10.5818 96.8573 11.0712 96.0871 11.7933C95.3168 12.5155 94.9316 13.4302 94.9316 14.5375C94.9316 15.725 95.3409 16.6557 96.1593 17.3297C96.9937 18.0037 98.1171 18.3407 99.5292 18.3407ZM98.6627 14.4171C98.6627 13.9838 98.7991 13.6549 99.0719 13.4302C99.3447 13.1895 99.7379 13.021 100.251 12.9247L103.236 12.3951V12.8043C103.236 13.6067 102.963 14.2887 102.418 14.8504C101.872 15.4121 101.15 15.6929 100.251 15.6929C99.8021 15.6929 99.4249 15.5806 99.12 15.3559C98.8151 15.1312 98.6627 14.8183 98.6627 14.4171Z" fill="#4258CF"/>
<path d="M113.908 18.3407C115.432 18.3407 116.66 17.9636 117.59 17.2094C118.521 16.4551 118.987 15.4682 118.987 14.2486C118.987 13.3018 118.698 12.5075 118.12 11.8656C117.542 11.2076 116.708 10.7182 115.617 10.3972L113.522 9.77136C112.576 9.49856 112.102 9.10539 112.102 8.59187C112.102 8.25488 112.231 7.99009 112.487 7.79752C112.76 7.60495 113.129 7.50867 113.595 7.50867C114.236 7.50867 114.806 7.67717 115.304 8.01416C115.817 8.33511 116.17 8.7684 116.363 9.31401L119.035 8.06231C118.633 6.97108 117.943 6.12858 116.965 5.53482C116.002 4.92502 114.878 4.62012 113.595 4.62012C112.616 4.62012 111.749 4.79664 110.995 5.14968C110.241 5.48668 109.655 5.96008 109.238 6.56989C108.82 7.17969 108.612 7.89381 108.612 8.71223C108.612 9.64298 108.901 10.4534 109.478 11.1434C110.056 11.8174 110.883 12.3069 111.958 12.6118L114.196 13.2376C115.063 13.4783 115.496 13.8635 115.496 14.393C115.496 15.1794 114.967 15.5725 113.908 15.5725C113.201 15.5725 112.56 15.3719 111.982 14.9708C111.404 14.5696 110.947 14.0159 110.61 13.3098L107.962 14.5615C108.347 15.717 109.069 16.6397 110.128 17.3297C111.204 18.0037 112.463 18.3407 113.908 18.3407Z" fill="#4258CF"/>
<path d="M122.463 23.3959C124.87 23.3959 126.611 22.0238 127.686 19.2797L133.319 4.90918H129.443L126.338 13.3582L123.233 4.90918H119.357L124.533 18.0521L124.292 18.6057C124.099 19.039 123.851 19.4241 123.546 19.7611C123.241 20.0981 122.735 20.2666 122.029 20.2666C121.452 20.2666 120.906 20.1864 120.392 20.0259V22.9867C120.665 23.1311 120.978 23.2354 121.331 23.2996C121.7 23.3638 122.077 23.3959 122.463 23.3959Z" fill="#4258CF"/>
<path d="M80.8135 39.8667H84.5445V33.3674H87.6979C88.9175 33.3674 90.0007 33.1508 90.9475 32.7175C91.9103 32.2682 92.6646 31.6183 93.2102 30.7677C93.7718 29.9172 94.0527 28.8822 94.0527 27.6626C94.0527 26.4108 93.7799 25.3597 93.2342 24.5092C92.6886 23.6587 91.9344 23.0168 90.9715 22.5835C90.0247 22.1502 88.9335 21.9336 87.6979 21.9336H80.8135V39.8667ZM84.5445 30.1178V25.1832H87.7219C88.5083 25.1832 89.1341 25.4079 89.5995 25.8572C90.0809 26.3065 90.3216 26.9083 90.3216 27.6626C90.3216 28.4007 90.0809 28.9945 89.5995 29.4438C89.1341 29.8932 88.5083 30.1178 87.7219 30.1178H84.5445Z" fill="#201E1F"/>
<path d="M99.5292 40.1552C101.166 40.1552 102.482 39.6497 103.477 38.6387V39.8663H106.847V31.2007C106.847 30.2539 106.606 29.4274 106.125 28.7213C105.659 27.9992 105.001 27.4375 104.151 27.0364C103.3 26.6352 102.322 26.4346 101.214 26.4346C99.8181 26.4346 98.5905 26.7555 97.5313 27.3974C96.4882 28.0393 95.7741 28.9059 95.389 29.9971L98.2775 31.3692C98.5022 30.7915 98.8553 30.3261 99.3367 29.973C99.8342 29.62 100.404 29.4435 101.046 29.4435C101.72 29.4435 102.249 29.612 102.634 29.949C103.036 30.286 103.236 30.7032 103.236 31.2007V31.5617L99.6015 32.1395C98.0288 32.3962 96.8573 32.8857 96.0871 33.6078C95.3168 34.3299 94.9316 35.2446 94.9316 36.3519C94.9316 37.5394 95.3409 38.4702 96.1593 39.1442C96.9937 39.8182 98.1171 40.1552 99.5292 40.1552ZM98.6627 36.2316C98.6627 35.7983 98.7991 35.4693 99.0719 35.2446C99.3447 35.0039 99.7379 34.8354 100.251 34.7391L103.236 34.2096V34.6188C103.236 35.4212 102.963 36.1032 102.418 36.6648C101.872 37.2265 101.15 37.5073 100.251 37.5073C99.8021 37.5073 99.4249 37.395 99.12 37.1703C98.8151 36.9457 98.6627 36.6328 98.6627 36.2316Z" fill="#201E1F"/>
<path d="M109.509 39.8663H113.119V32.1876C113.119 31.4334 113.344 30.8316 113.793 30.3823C114.243 29.9169 114.821 29.6842 115.527 29.6842C116.233 29.6842 116.81 29.9169 117.26 30.3823C117.709 30.8316 117.934 31.4334 117.934 32.1876V39.8663H121.544V31.4173C121.544 30.4224 121.336 29.5558 120.919 28.8176C120.501 28.0634 119.916 27.4777 119.161 27.0604C118.423 26.6432 117.557 26.4346 116.562 26.4346C115.727 26.4346 114.989 26.595 114.347 26.916C113.705 27.2209 113.216 27.6943 112.879 28.3362V26.7234H109.509V39.8663Z" fill="#201E1F"/>
<path d="M130.365 40.1553C131.168 40.1553 131.914 40.0269 132.604 39.7702C133.31 39.4974 133.896 39.1122 134.361 38.6148V39.8665H137.731V21.6445H134.12V27.8308C133.19 26.9001 131.93 26.4347 130.341 26.4347C129.09 26.4347 127.958 26.7396 126.947 27.3494C125.936 27.9592 125.134 28.7857 124.54 29.8288C123.946 30.8558 123.649 32.0112 123.649 33.295C123.649 34.5628 123.938 35.7182 124.516 36.7613C125.11 37.8044 125.912 38.6308 126.923 39.2406C127.934 39.8504 129.081 40.1553 130.365 40.1553ZM130.799 36.9057C129.804 36.9057 128.985 36.5687 128.343 35.8947C127.701 35.2207 127.38 34.3542 127.38 33.295C127.38 32.2519 127.701 31.3934 128.343 30.7194C128.985 30.0293 129.804 29.6843 130.799 29.6843C131.777 29.6843 132.572 30.0213 133.182 30.6953C133.807 31.3693 134.12 32.2359 134.12 33.295C134.12 34.3702 133.807 35.2448 133.182 35.9188C132.572 36.5767 131.777 36.9057 130.799 36.9057Z" fill="#201E1F"/>
<path d="M144.042 40.1552C145.679 40.1552 146.995 39.6497 147.99 38.6387V39.8663H151.36V31.2007C151.36 30.2539 151.119 29.4274 150.637 28.7213C150.172 27.9992 149.514 27.4375 148.664 27.0364C147.813 26.6352 146.834 26.4346 145.727 26.4346C144.331 26.4346 143.103 26.7555 142.044 27.3974C141.001 28.0393 140.287 28.9059 139.902 29.9971L142.79 31.3692C143.015 30.7915 143.368 30.3261 143.849 29.973C144.347 29.62 144.917 29.4435 145.558 29.4435C146.232 29.4435 146.762 29.612 147.147 29.949C147.548 30.286 147.749 30.7032 147.749 31.2007V31.5617L144.114 32.1395C142.542 32.3962 141.37 32.8857 140.6 33.6078C139.829 34.3299 139.444 35.2446 139.444 36.3519C139.444 37.5394 139.854 38.4702 140.672 39.1442C141.506 39.8182 142.63 40.1552 144.042 40.1552ZM143.175 36.2316C143.175 35.7983 143.312 35.4693 143.585 35.2446C143.857 35.0039 144.251 34.8354 144.764 34.7391L147.749 34.2096V34.6188C147.749 35.4212 147.476 36.1032 146.93 36.6648C146.385 37.2265 145.663 37.5073 144.764 37.5073C144.315 37.5073 143.938 37.395 143.633 37.1703C143.328 36.9457 143.175 36.6328 143.175 36.2316Z" fill="#201E1F"/>
<path d="M67.2388 20.2906L61.4895 18.3808C61.2954 15.752 60.5809 13.188 59.3874 10.8378C59.4338 10.0188 59.4636 9.19653 59.4669 8.37093C59.4709 7.94775 59.3769 7.52939 59.1923 7.14859C59.0076 6.76779 58.7374 6.43491 58.4026 6.17599L58.3628 6.14615C57.883 5.77656 57.3235 5.52415 56.7288 5.40902C56.1342 5.29389 55.5209 5.31923 54.9378 5.48303C54.0438 4.78686 53.0805 4.18466 52.0631 3.68595L51.6851 3.50692C51.3084 2.83029 50.7849 2.24663 50.1531 1.79881C49.5212 1.35099 48.7971 1.05038 48.0339 0.919041C47.2707 0.787704 46.4877 0.828987 45.7426 1.03985C44.9974 1.2507 44.3089 1.62579 43.7276 2.13756C41.3807 2.47599 39.2011 3.54839 37.5009 5.2012C34.6627 3.89484 27.2423 1.05335 18.8538 2.3995C18.1789 2.50941 17.5137 2.67238 16.8644 2.8869C16.4775 2.21608 15.9454 1.64031 15.3071 1.20177C14.6688 0.763236 13.9405 0.473041 13.1755 0.352426C12.4105 0.231811 11.6283 0.283837 10.886 0.504699C10.1437 0.725561 9.46028 1.10966 8.88569 1.62886C8.3111 2.14807 7.85993 2.78923 7.56522 3.50539C7.27051 4.22154 7.13972 4.99455 7.18245 5.76779C7.22517 6.54103 7.44033 7.29493 7.81215 7.97426C8.18397 8.65358 8.70303 9.24114 9.33133 9.69388C8.71462 10.9041 3.03163 21.2986 1.46334 25.8476C0.990313 27.2114 0.574752 28.6062 0.216664 30.0319L0.196771 30.1082C-0.884124 34.4483 2.63707 38.3177 7.10986 38.2514C7.89566 38.2514 57.2488 38.2845 57.2488 38.2845C60.508 38.2083 63.386 35.3734 65.8031 29.8628C66.8641 27.3967 67.7159 24.8457 68.3495 22.2369C68.4415 21.8323 68.3784 21.408 68.1728 21.0477C67.9671 20.6873 67.6339 20.4172 67.2388 20.2906V20.2906ZM32.8391 25.221C32.9021 25.9338 32.9784 26.6367 33.0712 27.3396C28.1309 28.8615 24.9314 31.1228 25.1137 33.3741C25.1834 33.9738 25.4518 34.5329 25.8763 34.9623L13.6648 34.9092C13.7842 33.951 13.3101 32.8999 12.3386 31.8356C13.3101 27.5485 14.0428 23.394 13.519 19.0572C13.2869 17.1507 12.5077 15.4266 11.0687 14.3192C11.9639 10.9173 14.129 6.50424 19.3578 5.66207C25.568 4.66738 31.3139 6.32519 34.4969 7.54203C32.8739 13.2852 32.3121 19.2762 32.8391 25.221V25.221ZM57.146 34.9589C55.5445 34.9987 51.652 35.012 46.7847 35.012C44.7126 32.1258 42.995 29.0011 41.6686 25.705C36.241 12.0082 38.615 8.73566 40.3855 7.07121C40.8697 6.68076 41.397 6.34703 41.9571 6.07653C41.9571 6.09642 41.9571 6.11299 41.9571 6.13289C41.9865 7.48179 42.5422 8.76571 43.5055 9.71045C43.6385 9.84331 43.8006 9.94343 43.979 10.0029C44.1573 10.0624 44.347 10.0797 44.5332 10.0533C44.7193 10.027 44.8968 9.9577 45.0516 9.85102C45.2064 9.74433 45.3343 9.60314 45.4252 9.43857C46.1963 7.9794 47.3404 6.75069 48.7409 5.87759C49.3746 6.08833 49.9928 6.34315 50.591 6.64018C51.1248 6.90486 51.6409 7.2039 52.1361 7.5354C46.7946 10.6654 43.8138 18.5333 46.1912 20.3669C47.6898 21.524 51.3105 21.03 53.9497 21.0598C55.0505 21.0598 54.762 20.3569 54.6128 20.1116C54.6005 20.0924 54.5895 20.0725 54.5797 20.0519C54.5721 20.0426 54.5655 20.0326 54.5598 20.0221V20.0221C54.4243 19.7734 54.3449 19.4982 54.3271 19.2156C54.3093 18.933 54.3536 18.65 54.4569 18.3863C54.5602 18.1227 54.7199 17.8849 54.9249 17.6895C55.1299 17.4942 55.3752 17.3462 55.6435 17.2557C55.9118 17.1653 56.1967 17.1347 56.4781 17.1661C56.7594 17.1976 57.0306 17.2902 57.2723 17.4375C57.5141 17.5849 57.7207 17.7834 57.8776 18.0191C58.0345 18.2548 58.1378 18.522 58.1805 18.8019C58.207 19.2164 58.2004 19.465 58.2004 19.5347C58.19 19.8909 58.2947 20.241 58.4989 20.533C58.7032 20.8251 58.9961 21.0435 59.3343 21.156L62.1194 22.0777C62.5397 24.0502 62.8178 26.0502 62.9517 28.0624C61.4298 31.6234 59.3675 34.9092 57.146 34.9589Z" fill="#201E1F"/>
</svg>
