<svg width="250" height="164" viewBox="0 0 250 164" fill="none" xmlns="http://www.w3.org/2000/svg">
<path d="M101.577 92.3849C92.2194 74.4844 84.6733 55.5045 81.2157 34.0557C80.6541 30.5838 80.4639 27.0848 79.5513 23.6331C79.053 21.7387 79.9417 20.8127 81.2071 21.6243C81.8981 22.0675 82.576 22.6065 82.9151 23.7401C83.7349 26.4696 84.9575 29.0622 84.8692 32.0999C84.85 32.7612 85.201 33.5711 85.4534 34.2697C91.0495 49.8149 97.834 64.1953 106.234 77.0756C110.382 83.4419 114.752 89.4742 118.895 95.8497C120.953 99.0192 122.896 102.365 123.895 106.519C124.457 108.848 125.02 111.246 123.837 113.102C122.625 115.005 120.951 114.492 119.346 113.575C115.327 111.269 111.775 107.556 108.458 103.237C105.928 99.9541 103.689 96.2747 101.577 92.3849Z" fill="#95DF88"/>
<path d="M143.163 44.5458C130.03 42.5768 117.187 37.8518 104.995 26.8984C103.022 25.1238 101.202 22.9243 99.0783 21.5587C97.9113 20.8126 97.8614 19.1848 98.8464 18.3404C99.3819 17.8768 99.9613 17.4974 100.67 17.904C102.395 18.8796 104.233 19.3142 105.7 21.5043C106.021 21.9813 106.581 22.1493 107.038 22.352C117.289 26.8677 127.506 29.2631 137.717 28.8356C142.768 28.6211 147.744 27.9372 152.796 27.7454C155.306 27.6474 157.847 27.7977 160.365 29.5624C161.772 30.5466 163.217 31.5716 163.596 34.1689C163.987 36.8232 162.962 38.336 161.773 39.478C158.795 42.3467 155.332 43.7201 151.679 44.4195C148.895 44.9455 146.049 44.8835 143.163 44.5458Z" fill="#95DF88"/>
<path d="M246.864 44.8389C245.355 47.7498 240.822 49.0902 237.713 47.5339C235.227 46.2911 233.749 41.935 235.02 39.6456C236.406 37.1572 241.735 35.8512 244.607 37.2903C247.204 38.594 248.261 42.1339 246.864 44.8389Z" fill="#899EF4"/>
<path d="M89.7853 158.239C87.5964 156.995 86.7108 153.488 87.9909 151.157C89.0182 149.293 92.3919 148.285 94.11 149.332C95.9723 150.466 96.8133 154.582 95.628 156.743C94.5533 158.692 91.8141 159.393 89.7853 158.239Z" fill="#FF8702"/>
<path d="M227.564 116.927C227.968 117.802 228.458 118.641 228.625 119.628C229.073 122.27 227.779 124.065 225.106 124.424C223.124 124.685 221.229 124.217 219.381 123.618C213.611 121.739 208.461 118.614 203.284 115.543C191.531 108.575 180.496 100.541 169.34 92.6852C163.405 88.5016 157.295 84.5675 151.267 80.5144C150.269 79.8404 149.342 79.0816 148.514 78.19C147.892 77.5253 147.507 76.7727 148.034 75.9467C148.504 75.2008 149.32 75.0915 150.147 75.3286C152.549 76.0132 154.949 76.7138 157.35 77.4144C174.656 82.4821 191.299 89.0926 206.667 98.656C213.435 102.869 219.926 107.458 225.238 113.506C226.151 114.536 226.971 115.651 227.564 116.927Z" fill="#FF8702"/>
<path d="M61.9425 71.3822C62.0628 72.1181 62.3374 73.1289 62.3795 74.1502C63.2384 92.8109 61.3867 111.135 55.0556 128.825C51.3611 139.14 46.0151 148.516 38.4042 156.49C36.0395 158.968 33.5627 161.362 30.2171 162.497C26.2911 163.83 23.817 161.723 24.4716 157.594C24.9323 154.689 26.1719 152.038 27.5352 149.481C31.178 142.648 34.9969 135.907 38.5552 129.027C44.3404 117.85 50.0707 106.623 53.6321 94.48C55.7094 87.3865 56.7596 80.1162 56.2949 72.69C56.2772 72.3686 56.1932 72.0315 56.2668 71.7324C56.5905 70.4652 56.0243 68.6624 58.0611 68.3594C59.6058 68.1321 61.2796 69.4067 61.9425 71.3822Z" fill="#899EF4"/>
</svg>
